<svg width="50" height="50" viewBox="0 0 50 50" fill="none" xmlns="http://www.w3.org/2000/svg">
<path d="M29.536 5.93384H29.5359C29.0182 5.9338 28.51 5.7788 28.0841 5.48576C27.6577 5.19238 27.3331 4.77358 27.1652 4.2843L27.1651 4.28411L26.1711 1.3865C26.1711 1.3865 26.1711 1.38649 26.1711 1.38648C26.111 1.21132 25.9913 1.05108 25.8208 0.93381C25.6499 0.816187 25.4393 0.75 25.2193 0.75C24.9993 0.75 24.7886 0.816187 24.6177 0.93381C24.4473 1.05108 24.3275 1.21133 24.2674 1.3865M29.536 5.93384L24.2674 1.3865M29.536 5.93384H32.7523C32.9723 5.93395 33.1828 6.0002 33.3537 6.11783C33.524 6.23512 33.6437 6.39534 33.7038 6.57048C33.7636 6.74496 33.7636 6.93154 33.7038 7.10603C33.6437 7.28114 33.5241 7.44134 33.3538 7.55862C33.3538 7.55864 33.3537 7.55866 33.3537 7.55868L30.7521 9.34958L29.536 5.93384ZM24.2674 1.3865L23.2734 4.28413L23.2733 4.28424C23.1054 4.77354 22.7809 5.19236 22.3544 5.48576C21.9285 5.77881 21.4203 5.93381 20.9026 5.93384H20.9026H17.686M24.2674 1.3865L17.686 5.93384M17.686 5.93384C17.6859 5.93384 17.6858 5.93384 17.6858 5.93384C17.4659 5.93395 17.2554 6.00016 17.0846 6.11775C16.9142 6.23502 16.7945 6.39524 16.7344 6.57039C16.6745 6.74489 16.6745 6.93149 16.7343 7.10599C16.7943 7.28106 16.9139 7.44123 17.0842 7.55852C17.0842 7.55856 17.0843 7.55861 17.0844 7.55865C17.0844 7.55866 17.0844 7.55867 17.0844 7.55868L19.6867 9.34917L19.6868 9.34924C20.1132 9.6427 20.4376 10.0616 20.6055 10.5509C20.7736 11.0408 20.7736 11.57 20.6055 12.0599L20.6055 12.06L19.6116 14.9575L19.6115 14.9576C19.5517 15.1321 19.5516 15.3187 19.6115 15.4933C19.6716 15.6684 19.7913 15.8287 19.9618 15.946M17.686 5.93384L19.9618 15.946M19.9618 15.946C20.1327 16.0636 20.3433 16.1298 20.5633 16.1298C20.7833 16.1298 20.9939 16.0636 21.1648 15.9461M19.9618 15.946L21.1648 15.9461M21.1648 15.9461C21.1649 15.946 21.1649 15.946 21.1649 15.946M21.1648 15.9461L21.1649 15.946M21.1649 15.946L23.7672 14.1552M21.1649 15.946L23.7672 14.1552M26.6709 14.155L26.6711 14.1552L29.2736 15.946C29.2736 15.946 29.2736 15.946 29.2736 15.9461C29.4446 16.0636 29.6552 16.1298 29.8751 16.1298C30.0952 16.1298 30.3058 16.0636 30.4767 15.946C30.6471 15.8287 30.7669 15.6684 30.827 15.4933C30.8868 15.3187 30.8868 15.1321 30.8269 14.9576L30.8269 14.9575L29.8334 12.0603C29.6653 11.5703 29.6653 11.0412 29.8334 10.5512C30.0013 10.0619 30.3257 9.64307 30.752 9.34961L26.6709 14.155ZM26.6709 14.155C26.245 13.8621 25.7369 13.7072 25.2192 13.7072C24.7015 13.7072 24.1934 13.8621 23.7674 14.155L23.7672 14.1552M26.6709 14.155L23.7672 14.1552" fill="#F8991D" stroke="black" stroke-width="1.5"/>
<path d="M20.5196 22.0781H29.4793C29.6791 22.0781 29.876 22.1154 30.0586 22.187L30.3325 21.4888L30.0586 22.187C30.2411 22.2586 30.4043 22.3626 30.54 22.4911C30.6756 22.6195 30.7809 22.7698 30.8519 22.9321C30.9228 23.0943 30.9587 23.2666 30.9587 23.4396V47.8892C30.9587 48.2366 30.8134 48.5786 30.5402 48.8374C30.2655 49.0975 29.8848 49.2502 29.4798 49.2502H20.5204C20.1153 49.2502 19.7344 49.0974 19.4597 48.8373C19.1864 48.5784 19.041 48.2363 19.041 47.8888V23.4392C19.041 23.0918 19.1863 22.7499 19.4595 22.4911C19.734 22.231 20.1146 22.0783 20.5194 22.0781C20.5195 22.0781 20.5196 22.0781 20.5196 22.0781Z" fill="#F0DC62" stroke="black" stroke-width="1.5"/>
<path d="M11.188 29.4922L11.1881 29.4922C11.3878 29.4921 11.5848 29.5294 11.7673 29.601C11.9498 29.6726 12.113 29.7765 12.2487 29.9049C12.3843 30.0333 12.4895 30.1835 12.5605 30.3458L13.2477 30.0453L12.5605 30.3458C12.6315 30.508 12.6674 30.6803 12.6674 30.8532V47.8896C12.6674 48.2371 12.522 48.5792 12.2487 48.8381C11.974 49.0983 11.5931 49.2511 11.188 49.2511H2.22941C1.82429 49.2511 1.44341 49.0983 1.16871 48.8381C0.895388 48.5792 0.75 48.2371 0.75 47.8896V30.8532C0.75 30.5059 0.895302 30.1639 1.16847 29.9051C1.44299 29.6451 1.82362 29.4923 2.22851 29.4922C2.22856 29.4922 2.22861 29.4922 2.22866 29.4922L11.188 29.4922Z" fill="#F8991D" stroke="black" stroke-width="1.5"/>
<path d="M38.8107 29.4922H47.7703C48.1754 29.4922 48.5563 29.645 48.831 29.9052C49.1043 30.164 49.2497 30.5061 49.2497 30.8536V47.8893C49.2497 48.2369 49.1043 48.579 48.831 48.8378C48.5563 49.098 48.1754 49.2508 47.7703 49.2508H38.8114C38.4063 49.2508 38.0254 49.098 37.7507 48.8378C37.4774 48.579 37.332 48.2369 37.332 47.8893V30.8531C37.332 30.853 37.332 30.853 37.332 30.853C37.3321 30.5057 37.4774 30.1638 37.7506 29.9051C38.0251 29.6451 38.4057 29.4923 38.8105 29.4922C38.8106 29.4922 38.8106 29.4922 38.8107 29.4922Z" fill="#F8991D" stroke="black" stroke-width="1.5"/>
</svg>
