<svg width="50" height="50" viewBox="0 0 50 50" fill="none" xmlns="http://www.w3.org/2000/svg">
<path d="M25 49.221C27.6723 49.221 29.8387 47.1225 29.8387 44.5338C29.8387 41.9451 27.6723 39.8466 25 39.8466C22.3277 39.8466 20.1613 41.9451 20.1613 44.5338C20.1613 47.1225 22.3277 49.221 25 49.221Z" fill="#DBB55C"/>
<path d="M25 7.03603C26.7816 7.03603 28.2258 5.637 28.2258 3.91121C28.2258 2.18543 26.7816 0.7864 25 0.7864C23.2184 0.7864 21.7742 2.18543 21.7742 3.91121C21.7742 5.637 23.2184 7.03603 25 7.03603Z" fill="#F0DC62"/>
<path d="M49.1935 42.9714V39.8466C49.1935 39.8466 41.129 35.1593 41.129 24.2225C41.129 6.25482 29.0323 3.91121 25 3.91121C20.9677 3.91121 8.87097 6.25482 8.87097 24.2225C8.87097 35.1593 0.806452 39.8466 0.806452 39.8466V42.9714C0.806452 43.3857 0.976382 43.7832 1.27886 44.0762C1.58134 44.3692 1.99159 44.5338 2.41935 44.5338H47.5806C48.0084 44.5338 48.4187 44.3692 48.7211 44.0762C49.0236 43.7832 49.1935 43.3857 49.1935 42.9714Z" fill="#F8991D"/>
<path d="M0.806452 39.8466H49.1935V42.9714C49.1935 43.3857 49.0236 43.7832 48.7211 44.0762C48.4187 44.3692 48.0084 44.5338 47.5806 44.5338H2.41935C1.99159 44.5338 1.58134 44.3692 1.27886 44.0762C0.976382 43.7832 0.806452 43.3857 0.806452 42.9714V39.8466Z" fill="#F0DC62"/>
<path d="M49.6089 39.1771C49.5315 39.1318 41.9355 34.5969 41.9355 24.2225C41.9355 9.47729 34.071 5.03147 29.0097 3.69795C28.9591 2.70082 28.5146 1.76072 27.7682 1.07234C27.0217 0.383947 26.0306 0 25 0C23.9694 0 22.9783 0.383947 22.2318 1.07234C21.4854 1.76072 21.0409 2.70082 20.9903 3.69795C15.929 5.03147 8.06452 9.47729 8.06452 24.2225C8.06452 34.5578 0.466935 39.1325 0.390323 39.1779C0.271306 39.2473 0.172832 39.3454 0.104446 39.4625C0.0360597 39.5797 8.17934e-05 39.712 0 39.8466V42.9714C0 43.5929 0.254896 44.189 0.708613 44.6286C1.16233 45.0681 1.7777 45.315 2.41935 45.315H19.4194C19.6122 46.6156 20.2826 47.8052 21.3076 48.6658C22.3327 49.5263 23.6436 50 25 50C26.3564 50 27.6673 49.5263 28.6924 48.6658C29.7174 47.8052 30.3878 46.6156 30.5806 45.315H47.5806C48.2223 45.315 48.8377 45.0681 49.2914 44.6286C49.7451 44.189 50 43.5929 50 42.9714V39.8466C50 39.7118 49.9639 39.5793 49.8954 39.462C49.8269 39.3446 49.7282 39.2465 49.6089 39.1771ZM25 1.56761C25.5381 1.56941 26.0602 1.74491 26.4837 2.06636C26.9073 2.38781 27.2081 2.83686 27.3387 3.34251C26.5663 3.21113 25.7842 3.14007 25 3.13002C24.2158 3.14007 23.4337 3.21113 22.6613 3.34251C22.7919 2.83686 23.0927 2.38781 23.5163 2.06636C23.9398 1.74491 24.4619 1.56941 25 1.56761ZM25 48.4398C24.0708 48.4387 23.1704 48.1273 22.4506 47.558C21.7308 46.9888 21.2356 46.1966 21.0484 45.315H28.9516C28.7644 46.1966 28.2692 46.9888 27.5494 47.558C26.8296 48.1273 25.9292 48.4387 25 48.4398ZM48.3871 42.9714C48.3871 43.1786 48.3021 43.3773 48.1509 43.5238C47.9997 43.6703 47.7945 43.7526 47.5806 43.7526H2.41935C2.20547 43.7526 2.00035 43.6703 1.84911 43.5238C1.69787 43.3773 1.6129 43.1786 1.6129 42.9714V40.6278H44.3548C44.5687 40.6278 44.7738 40.5455 44.9251 40.399C45.0763 40.2525 45.1613 40.0538 45.1613 39.8466C45.1613 39.6394 45.0763 39.4407 44.9251 39.2942C44.7738 39.1477 44.5687 39.0654 44.3548 39.0654H3.15968C5.27635 37.185 6.9531 34.8875 8.07728 32.3274C9.20147 29.7673 9.74707 27.0038 9.67742 24.2225C9.67742 5.23927 23.4315 4.69243 25 4.69243C26.5685 4.69243 40.3226 5.23927 40.3226 24.2225C40.3226 34.2016 46.704 39.1435 48.3871 40.2684V42.9714Z" fill="black"/>
<path d="M37.2959 18.0276C37.3986 18.0023 37.4952 17.9577 37.5801 17.8963C37.6649 17.8349 37.7365 17.7578 37.7907 17.6696C37.8448 17.5814 37.8805 17.4837 37.8956 17.3821C37.9108 17.2806 37.9051 17.1771 37.879 17.0776C36.8306 13.0982 34.8193 10.1374 31.8935 8.27893C31.7146 8.16498 31.4963 8.12454 31.2866 8.16651C31.0769 8.20848 30.893 8.32943 30.7754 8.50274C30.6577 8.67606 30.616 8.88754 30.6593 9.09066C30.7026 9.29379 30.8275 9.47193 31.0064 9.58588C33.5871 11.2264 35.3693 13.8739 36.3121 17.4635C36.3649 17.6643 36.4979 17.8365 36.6818 17.9423C36.8657 18.0481 37.0854 18.0787 37.2927 18.0276H37.2959Z" fill="black"/>
<path d="M38.7097 19.5353H37.0968V21.0977H38.7097V19.5353Z" fill="black"/>
</svg>
