<svg width="30" height="27" viewBox="0 0 30 27" fill="none" xmlns="http://www.w3.org/2000/svg">
<path d="M25.4041 3.58005C25.3677 3.43597 25.3002 3.29985 25.2057 3.17948C25.1111 3.05912 24.9913 2.95689 24.8531 2.87866C24.7148 2.80043 24.5609 2.74775 24.4002 2.72363C24.2395 2.69951 24.0751 2.70443 23.9165 2.73811L21.3402 3.28818L20.1959 1.18052C20.1238 1.04839 20.0237 0.930431 19.9014 0.83339C19.7791 0.736349 19.6369 0.662124 19.483 0.614953C19.329 0.567782 19.1664 0.548591 19.0042 0.558473C18.8421 0.568356 18.6838 0.60712 18.5381 0.672551L6.18557 6.23216H26.0969L25.4041 3.58005Z" fill="#BCCD30"/>
<path d="M26.5979 6.23215H2.47423C1.44937 6.23215 0.618557 6.98605 0.618557 7.91603V24.7548C0.618557 25.6848 1.44937 26.4387 2.47423 26.4387H26.5979C27.6228 26.4387 28.4536 25.6848 28.4536 24.7548V7.91603C28.4536 6.98605 27.6228 6.23215 26.5979 6.23215Z" fill="#F8991D"/>
<path d="M28.1443 12.4064H19.4845C18.8013 12.4064 18.2474 12.909 18.2474 13.529V19.1419C18.2474 19.7619 18.8013 20.2645 19.4845 20.2645H28.1443C28.8276 20.2645 29.3814 19.7619 29.3814 19.1419V13.529C29.3814 12.909 28.8276 12.4064 28.1443 12.4064Z" fill="#F8DB94"/>
<path d="M18.3897 4.49214L24.0588 3.29098C24.2179 3.25722 24.3852 3.28195 24.5243 3.35977C24.6634 3.43759 24.7629 3.56218 24.8011 3.70633L25.067 4.74473C25.1109 4.88315 25.2116 5.00099 25.3485 5.07388C25.4854 5.14676 25.6479 5.16912 25.8025 5.13631C25.957 5.10351 26.0917 5.01805 26.1788 4.89763C26.2658 4.77721 26.2985 4.63103 26.2701 4.48934L26.0042 3.45095C25.9488 3.23549 25.8472 3.03204 25.7052 2.85223C25.5631 2.67241 25.3834 2.51976 25.1763 2.403C24.9692 2.28624 24.7388 2.20765 24.4982 2.17173C24.2577 2.13581 24.0117 2.14326 23.7743 2.19365L18.1052 3.39762C17.9452 3.43186 17.8068 3.52236 17.7204 3.6492C17.634 3.77604 17.6066 3.92884 17.6444 4.07398C17.6821 4.21912 17.7818 4.34472 17.9216 4.42314C18.0614 4.50156 18.2298 4.52638 18.3897 4.49214Z" fill="black"/>
<path d="M1.23711 19.2626V7.91604C1.23711 7.61831 1.36745 7.33278 1.59946 7.12225C1.83146 6.91173 2.14612 6.79345 2.47423 6.79345H20.768C20.9321 6.79345 21.0894 6.73432 21.2054 6.62905C21.3214 6.52379 21.3866 6.38102 21.3866 6.23216C21.3866 6.0833 21.3214 5.94053 21.2054 5.83527C21.0894 5.73 20.9321 5.67087 20.768 5.67087H12.8258L16.6639 4.85699C16.8195 4.82047 16.9533 4.73043 17.037 4.60594C17.1207 4.48146 17.1478 4.3323 17.1124 4.19004C17.077 4.04779 16.982 3.92361 16.8475 3.84381C16.713 3.764 16.5495 3.73483 16.3918 3.76247L10.101 5.09554L18.8134 1.18052C18.9602 1.11435 19.13 1.10379 19.2854 1.15115C19.4409 1.19851 19.5692 1.29992 19.6423 1.4331L19.9515 2.00843C20.0241 2.14204 20.1523 2.244 20.3077 2.2919C20.4631 2.33979 20.6332 2.32969 20.7804 2.26382C20.9277 2.19795 21.04 2.0817 21.0928 1.94064C21.1456 1.79959 21.1345 1.64529 21.0619 1.51169L20.7526 0.933554C20.5345 0.535931 20.1521 0.232604 19.6887 0.0896294C19.2252 -0.0533453 18.7183 -0.024388 18.2784 0.170196L6.03093 5.67087H2.47423C1.81802 5.67087 1.18869 5.90741 0.724684 6.32846C0.260677 6.74951 0 7.32058 0 7.91604V19.2626C0 19.4114 0.0651693 19.5542 0.181171 19.6595C0.297173 19.7647 0.454505 19.8239 0.618557 19.8239C0.782608 19.8239 0.93994 19.7647 1.05594 19.6595C1.17194 19.5542 1.23711 19.4114 1.23711 19.2626ZM20.3474 25.8774H2.47423C2.14612 25.8774 1.83146 25.7591 1.59946 25.5486C1.36745 25.3381 1.23711 25.0526 1.23711 24.7548V21.4713C1.23711 21.3224 1.17194 21.1796 1.05594 21.0744C0.93994 20.9691 0.782608 20.91 0.618557 20.91C0.454505 20.91 0.297173 20.9691 0.181171 21.0744C0.0651693 21.1796 0 21.3224 0 21.4713V24.7548C0 25.3503 0.260677 25.9214 0.724684 26.3424C1.18869 26.7635 1.81802 27 2.47423 27H20.3474C20.5115 27 20.6688 26.9409 20.7848 26.8356C20.9008 26.7303 20.966 26.5876 20.966 26.4387C20.966 26.2898 20.9008 26.1471 20.7848 26.0418C20.6688 25.9365 20.5115 25.8774 20.3474 25.8774ZM27.8351 21.9119V24.7548C27.8351 25.0526 27.7047 25.3381 27.4727 25.5486C27.2407 25.7591 26.926 25.8774 26.5979 25.8774H22.3979C22.2339 25.8774 22.0766 25.9365 21.9606 26.0418C21.8446 26.1471 21.7794 26.2898 21.7794 26.4387C21.7794 26.5876 21.8446 26.7303 21.9606 26.8356C22.0766 26.9409 22.2339 27 22.3979 27H26.5979C27.2541 27 27.8835 26.7635 28.3475 26.3424C28.8115 25.9214 29.0722 25.3503 29.0722 24.7548V21.9119C29.0722 21.763 29.007 21.6202 28.891 21.515C28.775 21.4097 28.6177 21.3506 28.4536 21.3506C28.2896 21.3506 28.1322 21.4097 28.0162 21.515C27.9002 21.6202 27.8351 21.763 27.8351 21.9119ZM29.0722 12.0724V7.91604C29.0722 7.32058 28.8115 6.74951 28.3475 6.32846C27.8835 5.90741 27.2541 5.67087 26.5979 5.67087H23.0567C22.8927 5.67087 22.7353 5.73 22.6193 5.83527C22.5033 5.94053 22.4381 6.0833 22.4381 6.23216C22.4381 6.38102 22.5033 6.52379 22.6193 6.62905C22.7353 6.73432 22.8927 6.79345 23.0567 6.79345H26.5979C26.926 6.79345 27.2407 6.91173 27.4727 7.12225C27.7047 7.33278 27.8351 7.61831 27.8351 7.91604V11.8451H19.4845C18.9924 11.8451 18.5204 12.0225 18.1724 12.3383C17.8244 12.6541 17.6289 13.0824 17.6289 13.529C17.6289 13.6778 17.694 13.8206 17.81 13.9259C17.926 14.0311 18.0834 14.0903 18.2474 14.0903C18.4115 14.0903 18.5688 14.0311 18.6848 13.9259C18.8008 13.8206 18.866 13.6778 18.866 13.529C18.866 13.3801 18.9312 13.2373 19.0472 13.1321C19.1632 13.0268 19.3205 12.9677 19.4845 12.9677H28.1443C28.3084 12.9677 28.4657 13.0268 28.5817 13.1321C28.6977 13.2373 28.7629 13.3801 28.7629 13.529V16.3354C28.7629 16.4843 28.8281 16.6271 28.9441 16.7323C29.0601 16.8376 29.2174 16.8967 29.3814 16.8967C29.5455 16.8967 29.7028 16.8376 29.8188 16.7323C29.9348 16.6271 30 16.4843 30 16.3354V13.529C29.9997 13.2337 29.9138 12.9437 29.7509 12.688C29.5881 12.4324 29.354 12.2201 29.0722 12.0724ZM28.7629 18.0193V19.1419C28.7629 19.2908 28.6977 19.4335 28.5817 19.5388C28.4657 19.6441 28.3084 19.7032 28.1443 19.7032H19.4845C19.3205 19.7032 19.1632 19.6441 19.0472 19.5388C18.9312 19.4335 18.866 19.2908 18.866 19.1419V15.5272C18.866 15.3783 18.8008 15.2355 18.6848 15.1303C18.5688 15.025 18.4115 14.9659 18.2474 14.9659C18.0834 14.9659 17.926 15.025 17.81 15.1303C17.694 15.2355 17.6289 15.3783 17.6289 15.5272V19.1419C17.6289 19.5885 17.8244 20.0168 18.1724 20.3326C18.5204 20.6484 18.9924 20.8258 19.4845 20.8258H28.1443C28.6365 20.8258 29.1085 20.6484 29.4565 20.3326C29.8045 20.0168 30 19.5885 30 19.1419V18.0193C30 17.8704 29.9348 17.7277 29.8188 17.6224C29.7028 17.5172 29.5455 17.458 29.3814 17.458C29.2174 17.458 29.0601 17.5172 28.9441 17.6224C28.8281 17.7277 28.7629 17.8704 28.7629 18.0193Z" fill="black"/>
<path d="M22.1289 17.7387C22.9829 17.7387 23.6753 17.1104 23.6753 16.3354C23.6753 15.5604 22.9829 14.9322 22.1289 14.9322C21.2748 14.9322 20.5825 15.5604 20.5825 16.3354C20.5825 17.1104 21.2748 17.7387 22.1289 17.7387Z" fill="black"/>
</svg>
