<svg width="100" height="100" viewBox="0 0 100 100" fill="none" xmlns="http://www.w3.org/2000/svg">
<path d="M76.9788 54.3544L74.6974 52.073C75.8478 50.9226 75.8478 49.0511 74.6974 47.9007C73.5827 46.786 71.6402 46.786 70.5252 47.9007L68.2438 45.6193L69.857 44.0061C71.0074 42.8557 71.0074 40.9842 69.857 39.8338C68.7423 38.7191 66.7998 38.7191 65.6848 39.8338L64.0715 41.4471L61.7901 39.1657L65.017 35.9389C66.1673 34.7885 66.1673 32.917 65.017 31.7666C63.8666 30.6162 61.9951 30.6162 60.8447 31.7666L57.6179 34.9934L55.3365 32.712L56.9497 31.0988C57.5079 30.5406 57.8128 29.8001 57.8128 29.0127C57.8128 28.2252 57.5079 27.4847 56.9497 26.9265C55.7993 25.7762 53.9278 25.7762 52.7775 26.9265L51.1642 28.5398L48.8828 26.2584L50.4961 24.6451C52.9031 22.2381 56.8237 22.2381 59.2308 24.6451C60.1779 25.5922 60.7504 26.7716 60.9537 28.0009C63.1058 27.2798 65.5838 27.772 67.2974 29.4852C69.0106 31.1984 69.5045 33.6751 68.7816 35.8289C70.011 36.0322 71.1903 36.605 72.1374 37.5518C73.8507 39.265 74.3445 41.7417 73.6217 43.8955C74.8511 44.0987 76.0304 44.6716 76.9775 45.6183C79.3875 48.0267 79.3875 51.9474 76.9788 54.3544Z" fill="white"/>
<path d="M52.1109 73.0449L47.4904 77.6641L36.237 82.4878L19.9053 97.1853L22.064 99.5827L27.5493 94.646C28.2044 94.9766 28.8559 95.3171 29.5161 95.6124L30.8358 92.6695C30.6002 92.5628 30.3662 92.4339 30.1306 92.3226L37.9972 85.2418L49.331 80.3857L54.3903 75.3247L52.1109 73.0449Z" fill="white"/>
<path d="M41.547 17.0508L17.0903 41.5074L22.7129 47.13L28.2401 41.785L28.2594 41.7657C29.5858 40.4394 31.7442 40.4394 33.0705 41.7657C34.2129 42.9081 34.3918 44.7133 33.4964 46.0572L28.7533 53.1687L58.5049 82.9203L82.9615 58.4637L41.547 17.0508ZM55.8959 55.8564C52.6548 59.0975 47.3985 59.0975 44.1556 55.8564C40.9145 52.6152 40.9145 47.3589 44.1556 44.1161C47.3968 40.8749 52.6531 40.8749 55.8959 44.1161C59.1371 47.3572 59.1371 52.6135 55.8959 55.8564Z" fill="white"/>
<path d="M50.0265 59.9009C47.3775 59.9009 44.8865 58.8685 43.015 56.9953C41.1418 55.1238 40.1094 52.6328 40.1094 49.9854C40.1094 47.3348 41.1418 44.8454 43.015 42.9739C44.8865 41.1008 47.3758 40.0684 50.0265 40.0684C52.6754 40.0684 55.1651 41.1008 57.0363 42.9739C58.9095 44.8454 59.9419 47.3348 59.9419 49.9854C59.9419 52.6344 58.9095 55.1238 57.0363 56.9953C55.1648 58.8698 52.6754 59.9009 50.0265 59.9009ZM50.0265 43.2965C48.2406 43.2965 46.561 43.9933 45.296 45.2567C44.031 46.52 43.3359 48.1992 43.3359 49.9871C43.3359 51.7713 44.0327 53.4509 45.296 54.7159C46.5594 55.9792 48.2389 56.676 50.0265 56.676C51.8107 56.676 53.4902 55.9792 54.7552 54.7159C56.0202 53.4525 56.7154 51.773 56.7154 49.9871C56.7154 48.2012 56.0186 46.5217 54.7552 45.2567C53.4919 43.9917 51.8107 43.2965 50.0265 43.2965Z" fill="white"/>
<path d="M26.0959 57.1575L28.7805 58.9467L36.1809 47.8469C37.9265 45.2269 37.5782 41.7098 35.3518 39.4834C32.7672 36.8988 28.5613 36.8988 25.9766 39.4834L16.2708 49.1892L13.044 65.3227L7.94895 70.4207C7.81165 70.1384 7.65702 69.8642 7.52639 69.5803L4.59648 70.9322C4.89174 71.5694 5.22399 72.1939 5.54824 72.8214L0.483887 77.8858L2.76529 80.1672L16.0172 66.9153L19.244 50.7818L28.2593 41.7662C29.5857 40.4398 31.7441 40.4398 33.0704 41.7662C34.2128 42.9085 34.3917 44.7137 33.4963 46.0577L26.0959 57.1575Z" fill="white"/>
<path d="M6.60206 32.5338L3.60917 31.3301C2.76706 33.4259 2.06024 35.599 1.51172 37.7851L4.63991 38.5692C5.15477 36.5234 5.8146 34.4923 6.60206 32.5338Z" fill="white"/>
<path d="M12.8791 21.5348L10.3205 19.5684C8.94583 21.3559 7.6825 23.2581 6.56445 25.2199L9.36506 26.8171C10.4125 24.986 11.5948 23.2064 12.8791 21.5348Z" fill="white"/>
<path d="M0.648438 57.9861C1.00501 60.2109 1.51954 62.4356 2.17937 64.596L5.26424 63.654C4.64806 61.6341 4.16719 59.556 3.83328 57.4766L0.648438 57.9861Z" fill="white"/>
<path d="M3.23772 49.9859C3.23772 48.258 3.33437 46.5172 3.52165 44.8103L0.314485 44.457C0.112871 46.2802 0.0112305 48.1387 0.0112305 49.9923C0.0128967 50.4085 0.0175622 50.82 0.0272263 51.2313L3.25405 51.1553C3.24439 50.7651 3.23939 50.3728 3.23772 49.9859Z" fill="white"/>
<path d="M91.6282 22.2231C90.3745 20.3482 88.9806 18.543 87.4899 16.8555L85.0732 18.9916C86.4705 20.5712 87.7739 22.2617 88.9469 24.0156L91.6282 22.2231Z" fill="white"/>
<path d="M21.8689 12.6141L19.9248 10.0391C18.1276 11.396 16.4027 12.8913 14.8008 14.4789L17.0725 16.77C18.5728 15.2824 20.186 13.8854 21.8689 12.6141Z" fill="white"/>
<path d="M96.7649 47.8429L99.9884 47.6946C99.8868 45.4375 99.6285 43.1691 99.2253 40.959L96.0518 41.5348C96.4293 43.6063 96.6679 45.7264 96.7649 47.8429Z" fill="white"/>
<path d="M97.5541 34.3834C96.8506 32.2409 95.9938 30.1258 95.0067 28.0977L92.1045 29.5093C93.0289 31.4081 93.8307 33.3846 94.4889 35.3884L97.5541 34.3834Z" fill="white"/>
<path d="M32.906 6.43029L31.725 3.42773C29.6292 4.25219 27.5691 5.22993 25.6006 6.33331L27.1802 9.14691C29.0177 8.11485 30.9459 7.20009 32.906 6.43029Z" fill="white"/>
<path d="M51.543 3.2235C53.6564 3.29114 55.7795 3.50409 57.856 3.85433L58.3915 0.671159C56.1734 0.298589 53.9034 0.0709815 51.6463 0L51.543 3.2235Z" fill="white"/>
<path d="M73.7202 90.3418L75.3595 93.1217C77.2986 91.9794 79.1815 90.692 80.9547 89.2947L78.9575 86.7617C77.297 88.0667 75.5367 89.2721 73.7202 90.3418Z" fill="white"/>
<path d="M75.4805 10.7245C77.2503 11.8732 78.9572 13.1559 80.5561 14.5352L82.6649 12.0895C80.953 10.6166 79.1302 9.24526 77.2393 8.01758L75.4805 10.7245Z" fill="white"/>
<path d="M64.0254 5.3282C66.0405 5.95904 68.028 6.73517 69.9382 7.6336L71.3128 4.71503C69.272 3.75194 67.1439 2.92416 64.9901 2.25L64.0254 5.3282Z" fill="white"/>
<path d="M91.1602 72.2952L93.9964 73.8358C95.0741 71.853 96.0259 69.7765 96.823 67.668L93.8045 66.5273C93.059 68.5005 92.1702 70.4413 91.1602 72.2952Z" fill="white"/>
<path d="M95.6357 60.4516L98.7803 61.1694C99.2835 58.9737 99.6387 56.7199 99.8386 54.4709L96.6248 54.1836C96.4392 56.289 96.1053 58.3978 95.6357 60.4516Z" fill="white"/>
<path d="M83.6631 82.504L85.9832 84.7481C87.5497 83.1299 89.021 81.3877 90.3587 79.5645L87.7597 77.6543C86.504 79.3599 85.1277 80.9908 83.6631 82.504Z" fill="white"/>
<path d="M62.0459 95.2146L62.875 98.3348C65.0548 97.7573 67.2132 97.0232 69.2943 96.1521L68.0503 93.1738C66.1052 93.987 64.0854 94.6741 62.0459 95.2146Z" fill="white"/>
<path d="M36.0566 98.0227C38.2267 98.6502 40.4562 99.1344 42.6843 99.465L43.1538 96.2722C41.0693 95.9656 38.9832 95.5107 36.9537 94.9219L36.0566 98.0227Z" fill="white"/>
<path d="M38.1895 1.38274L38.9493 4.51759C40.9951 4.02239 43.0972 3.66082 45.2026 3.44487L44.872 0.234375C42.6213 0.466315 40.3739 0.853547 38.1895 1.38274Z" fill="white"/>
<path d="M50.0248 96.7732L49.4763 96.7698L49.4473 99.9967L50.0248 100C52.0946 100 54.1774 99.8727 56.2152 99.6208L55.8183 96.4199C53.9128 96.6539 51.9639 96.7732 50.0248 96.7732Z" fill="white"/>
</svg>
