<svg width="52" height="52" viewBox="0 0 52 52" fill="none" xmlns="http://www.w3.org/2000/svg">
<path d="M39 47.125H13C10.8451 47.125 8.77849 46.269 7.25476 44.7452C5.73102 43.2215 4.875 41.1549 4.875 39V16.25C4.875 15.819 5.0462 15.4057 5.35095 15.101C5.6557 14.7962 6.06902 14.625 6.5 14.625H39C41.1549 14.625 43.2215 15.481 44.7452 17.0048C46.269 18.5285 47.125 20.5951 47.125 22.75V39C47.125 41.1549 46.269 43.2215 44.7452 44.7452C43.2215 46.269 41.1549 47.125 39 47.125ZM8.125 17.875V39C8.125 40.2929 8.63861 41.5329 9.55285 42.4471C10.4671 43.3614 11.7071 43.875 13 43.875H39C40.2929 43.875 41.5329 43.3614 42.4471 42.4471C43.3614 41.5329 43.875 40.2929 43.875 39V22.75C43.875 21.4571 43.3614 20.2171 42.4471 19.3029C41.5329 18.3886 40.2929 17.875 39 17.875H8.125Z" fill="#A61E3E"/>
<path d="M42.2502 17.872C41.8192 17.872 41.4059 17.7008 41.1012 17.3961C40.7964 17.0913 40.6252 16.678 40.6252 16.247V11.7783C40.6563 11.209 40.5585 10.6401 40.339 10.1139C40.1196 9.58777 39.7841 9.11795 39.3577 8.73955C38.9745 8.4525 38.531 8.25649 38.0608 8.16639C37.5906 8.07629 37.1061 8.09447 36.6439 8.21955L9.39268 14.4108C9.02611 14.4934 8.69948 14.7004 8.46838 14.9967C8.23728 15.2929 8.116 15.6602 8.12518 16.0358C8.12518 16.4668 7.95398 16.8801 7.64923 17.1848C7.34448 17.4896 6.93116 17.6608 6.50018 17.6608C6.0692 17.6608 5.65588 17.4896 5.35113 17.1848C5.04638 16.8801 4.87518 16.4668 4.87518 16.0358C4.86565 14.9249 5.2358 13.8441 5.92436 12.9724C6.61292 12.1006 7.57858 11.4901 8.66143 11.242L35.9289 5.0508C36.8667 4.81367 37.8464 4.79436 38.7928 4.99434C39.7392 5.19433 40.6273 5.6083 41.3889 6.20455C42.1943 6.88809 42.8359 7.74382 43.2662 8.70855C43.6966 9.67328 43.9047 10.7224 43.8752 11.7783V16.247C43.8752 16.678 43.704 17.0913 43.3993 17.3961C43.0945 17.7008 42.6812 17.872 42.2502 17.872Z" fill="#A61E3E"/>
<path d="M45.5 37.375H34.125C32.4011 37.375 30.7478 36.6902 29.5288 35.4712C28.3098 34.2522 27.625 32.5989 27.625 30.875C27.625 29.1511 28.3098 27.4978 29.5288 26.2788C30.7478 25.0598 32.4011 24.375 34.125 24.375H45.5C45.931 24.375 46.3443 24.5462 46.649 24.851C46.9538 25.1557 47.125 25.569 47.125 26V35.75C47.125 36.181 46.9538 36.5943 46.649 36.899C46.3443 37.2038 45.931 37.375 45.5 37.375ZM34.125 27.625C33.263 27.625 32.4364 27.9674 31.8269 28.5769C31.2174 29.1864 30.875 30.013 30.875 30.875C30.875 31.737 31.2174 32.5636 31.8269 33.1731C32.4364 33.7826 33.263 34.125 34.125 34.125H43.875V27.625H34.125Z" fill="#A61E3E" fill-opacity="0.7"/>
</svg>
