<svg width="80" height="80" viewBox="0 0 80 80" fill="none" xmlns="http://www.w3.org/2000/svg">
<g opacity="0.6">
<path d="M46.3645 23.2984C48.9946 23.2984 48.9946 27.2979 46.3645 27.2979H41.9998V38.0002H44.7985C48.5985 38.0002 51.6988 41.1016 51.6988 44.9006V49.8012C51.6988 53.6013 48.5985 56.7016 44.7985 56.7016H41.9998V59.8068C41.9998 62.4378 38.0002 62.4378 38.0002 59.8068V56.7016H33.6355C31.0054 56.7016 31.0054 52.7021 33.6355 52.7021H38.0002V41.9998H35.2015C31.4025 41.9998 28.3012 38.8984 28.3012 35.0994V30.1988C28.3012 26.3997 31.4025 23.2984 35.2015 23.2984H38.0002V20.1932C38.0002 17.5622 41.9998 17.5622 41.9998 20.1932V23.2984H46.3645ZM40 10.206C37.3401 10.206 37.3912 14.2055 40 14.2055C41.25 14.2103 42.471 14.2932 43.7085 14.4705C46.3154 14.8156 46.8753 10.8931 44.2636 10.5096C42.843 10.3062 41.435 10.2099 40 10.206ZM30.351 16.0713C32.7739 15.071 31.2782 11.3615 28.836 12.3686C27.536 12.8939 26.1935 13.5396 24.9888 14.2595C22.6951 15.6203 24.7854 19.03 27.0233 17.7029C28.0997 17.0794 29.1974 16.5368 30.351 16.0713ZM18.8777 25.1902C20.3927 23.016 17.1305 20.7551 15.6049 22.8917C14.7818 24.052 14.0446 25.2991 13.3998 26.5664C12.227 28.8736 15.76 30.752 16.9705 28.3686C17.5275 27.2729 18.1665 26.1935 18.8777 25.1902ZM14.2229 39.0632C14.3009 36.3956 10.3014 36.3359 10.2253 38.936C10.1752 40.3691 10.2282 41.782 10.3766 43.2083C10.6888 45.8586 14.6209 45.3738 14.3539 42.7785C14.2238 41.5381 14.1795 40.3094 14.2229 39.0632ZM17.86 53.2427C16.4559 50.9808 13.1069 53.0712 14.4416 55.3196C15.1683 56.5243 16.0048 57.7434 16.905 58.8247C18.5925 60.8572 21.6485 58.3226 19.9899 56.2785C19.9928 56.2814 18.4932 54.2923 17.86 53.2427ZM28.6452 63.1673C26.2417 62.0041 24.5551 65.6123 26.8874 66.7602C28.1778 67.3943 29.4981 67.9224 30.8657 68.3667C33.356 69.1714 34.5963 65.3685 32.0781 64.5551C30.9013 64.1744 29.7564 63.7128 28.6452 63.1673ZM43.0849 65.6114C40.4607 65.9198 40.957 69.8894 43.5649 69.582C44.9796 69.4191 46.3954 69.1377 47.7706 68.7695C50.2995 68.0805 49.276 64.213 46.7269 64.9079C45.5357 65.2268 44.3098 65.4707 43.0849 65.6114ZM56.5175 59.8125C54.4811 61.5357 57.117 64.5455 59.1004 62.8666C60.2029 61.9415 61.2071 60.9681 62.1728 59.9012C63.9537 57.9275 60.9382 55.2974 59.1967 57.2288C58.3515 58.1607 57.4813 59.004 56.5175 59.8125ZM64.6486 47.628C63.8805 50.1626 67.7037 51.2989 68.4746 48.7922C68.8968 47.4169 69.2129 46.0398 69.4374 44.6182C69.8191 42.0277 65.9063 41.4003 65.4842 44.014C65.2933 45.2389 65.0119 46.4426 64.6486 47.628ZM64.8269 32.9763C65.5661 35.5456 69.3921 34.3775 68.6741 31.8824C68.2925 30.5168 67.7923 29.1416 67.2102 27.8482C66.1395 25.4774 62.4715 27.0724 63.5663 29.4972C64.0675 30.6113 64.4983 31.7995 64.8269 32.9763ZM56.9965 20.597C59.0117 22.3414 61.5916 19.3172 59.6343 17.5902C58.5433 16.6409 57.4283 15.7957 56.2188 15.0035C53.9559 13.5598 51.8704 16.9493 54.0407 18.3583C55.0873 19.0454 56.052 19.774 56.9965 20.597ZM40 0C62.0908 0 80 17.9092 80 40C80 62.0908 62.0908 80 40 80C17.9092 80 0 62.0908 0 40C0 17.9092 17.9092 0 40 0ZM40 4.00048C20.1181 4.00048 4.00048 20.1181 4.00048 40C4.00048 59.8819 20.1171 75.9995 40 75.9995C59.8829 75.9995 75.9995 59.8829 75.9995 40C75.9995 20.1171 59.8819 4.00048 40 4.00048ZM38.0002 27.2979H35.2015C33.6104 27.2979 32.3007 28.6076 32.3007 30.1988V35.0994C32.3007 36.6905 33.6104 38.0002 35.2015 38.0002H38.0002V27.2979ZM41.9998 52.7021H44.7985C46.3896 52.7021 47.6993 51.3924 47.6993 49.8012V44.9006C47.6993 43.3095 46.3896 41.9998 44.7985 41.9998H41.9998V52.7021Z" fill="black"/>
</g>
</svg>
