<svg width="90" height="90" viewBox="0 0 90 90" fill="none" xmlns="http://www.w3.org/2000/svg">
<g opacity="0.6">
<path d="M6.12885 18.1263V18.3153C6.12437 18.2553 6.12437 18.1952 6.12885 18.1353V18.0723C6.13306 18.09 6.13306 18.1085 6.12885 18.1263Z" fill="black"/>
<path d="M6.12891 23.2473V54.1443C6.13334 54.1741 6.13334 54.2044 6.12891 54.2343V23.2383V23.2473Z" fill="black"/>
<path d="M65.3219 53.0998C65.0369 52.7899 64.7836 52.4522 64.5659 52.0918C64.7894 52.4483 65.0423 52.7854 65.3219 53.0998Z" fill="black"/>
<path d="M65.601 43.3711C65.43 43.5421 65.277 43.7131 65.124 43.8931C65.268 43.7131 65.43 43.5421 65.592 43.3711H65.601Z" fill="black"/>
<path d="M67.3022 54.666C66.9241 54.485 66.5678 54.2616 66.2402 54C66.5734 54.2535 66.9289 54.4765 67.3022 54.666Z" fill="black"/>
<path d="M26.163 45.2693C25.8049 45.2693 25.4616 45.1271 25.2084 44.8739C24.9552 44.6207 24.813 44.2774 24.813 43.9193V35.8193C24.813 34.5391 25.3209 33.3112 26.2254 32.4051C27.1298 31.499 28.3568 30.9887 29.637 30.9863H35.388C35.746 30.9863 36.0894 31.1286 36.3426 31.3817C36.5958 31.6349 36.738 31.9783 36.738 32.3363C36.738 32.6944 36.5958 33.0377 36.3426 33.2909C36.0894 33.5441 35.746 33.6863 35.388 33.6863H29.637C29.0728 33.6887 28.5326 33.9145 28.1345 34.3142C27.7365 34.714 27.513 35.2552 27.513 35.8193V43.9193C27.513 44.2774 27.3708 44.6207 27.1176 44.8739C26.8644 45.1271 26.521 45.2693 26.163 45.2693Z" fill="black"/>
<path d="M35.388 66.2041H29.637C28.3583 66.2017 27.1327 65.6927 26.2285 64.7885C25.3244 63.8844 24.8154 62.6587 24.813 61.3801V50.8051C24.813 50.447 24.9552 50.1037 25.2084 49.8505C25.4616 49.5973 25.8049 49.4551 26.163 49.4551C26.521 49.4551 26.8644 49.5973 27.1176 49.8505C27.3708 50.1037 27.513 50.447 27.513 50.8051V61.3801C27.513 61.9434 27.7368 62.4836 28.1351 62.882C28.5334 63.2803 29.0737 63.5041 29.637 63.5041H35.388C35.746 63.5041 36.0894 63.6463 36.3426 63.8995C36.5958 64.1527 36.738 64.496 36.738 64.8541C36.738 65.2121 36.5958 65.5555 36.3426 65.8087C36.0894 66.0618 35.746 66.2041 35.388 66.2041Z" fill="black"/>
<path d="M53.5592 66.2039H42.5072C42.1492 66.2039 41.8058 66.0617 41.5526 65.8085C41.2995 65.5553 41.1572 65.2119 41.1572 64.8539C41.1572 64.4959 41.2995 64.1525 41.5526 63.8993C41.8058 63.6461 42.1492 63.5039 42.5072 63.5039H53.5592C53.9173 63.5039 54.2606 63.6461 54.5138 63.8993C54.767 64.1525 54.9092 64.4959 54.9092 64.8539C54.9092 65.2119 54.767 65.5553 54.5138 65.8085C54.2606 66.0617 53.9173 66.2039 53.5592 66.2039Z" fill="black"/>
<path d="M86.7869 41.2928H81.5849V28.1438C81.5896 27.2862 81.4248 26.4362 81.0999 25.6426C80.775 24.849 80.2965 24.1274 79.6918 23.5194C79.0871 22.9113 78.3681 22.4288 77.5763 22.0995C76.7845 21.7703 75.9354 21.6008 75.0779 21.6008H71.8919C71.8919 21.5018 71.8919 21.4028 71.8919 21.3038V16.4708C71.8895 15.2661 71.4099 14.1114 70.558 13.2596C69.7062 12.4078 68.5515 11.9282 67.3469 11.9258H9.62985C7.98359 11.9282 6.40544 12.5832 5.24135 13.7473C4.07726 14.9114 3.42223 16.4895 3.41985 18.1358C3.41539 18.1897 3.41539 18.2439 3.41985 18.2978V22.8968C3.41542 22.9266 3.41542 22.9569 3.41985 22.9868V69.0038C3.41984 70.7249 4.10169 72.3759 5.31615 73.5954C6.53062 74.8149 8.17877 75.5037 9.89985 75.5108H75.0779C76.8036 75.5108 78.4587 74.8252 79.679 73.6049C80.8993 72.3846 81.5849 70.7296 81.5849 69.0038V55.5038H86.7869C87.1449 55.5038 87.4883 55.3616 87.7414 55.1084C87.9946 54.8552 88.1369 54.5118 88.1369 54.1538V42.6428C88.1369 42.2847 87.9946 41.9414 87.7414 41.6882C87.4883 41.435 87.1449 41.2928 86.7869 41.2928ZM6.11985 18.0728C6.13637 17.1528 6.51345 16.2762 7.16992 15.6315C7.82639 14.9868 8.70976 14.6256 9.62985 14.6258H67.3649C67.8542 14.6258 68.3235 14.8202 68.6695 15.1662C69.0155 15.5122 69.2099 15.9815 69.2099 16.4708V21.3398C69.2075 21.4194 69.1742 21.4949 69.1171 21.5504C69.06 21.6058 68.9835 21.6368 68.9039 21.6368H63.2969C63.3004 21.0033 63.1791 20.3753 62.94 19.7887C62.7009 19.202 62.3485 18.6682 61.9031 18.2178C61.4576 17.7673 60.9278 17.409 60.3439 17.1633C59.76 16.9176 59.1334 16.7893 58.4999 16.7858H17.4239C16.146 16.7858 14.9204 17.2928 14.0159 18.1955C13.1115 19.0982 12.6022 20.3229 12.5999 21.6008H9.62985C8.73169 21.602 7.86743 21.2579 7.2158 20.6398C6.56417 20.0217 6.17503 19.1768 6.12885 18.2798C6.12437 18.2199 6.12437 18.1597 6.12885 18.0998L6.11985 18.0728ZM60.5969 21.6008H15.2999C15.3022 21.039 15.5271 20.5011 15.9251 20.1047C16.3232 19.7083 16.8621 19.4858 17.4239 19.4858H58.4999C59.0569 19.4929 59.5889 19.7185 59.9812 20.1141C60.3734 20.5098 60.5945 21.0437 60.5969 21.6008ZM78.8849 69.0038C78.8825 70.0127 78.4806 70.9797 77.7672 71.6931C77.0537 72.4066 76.0868 72.8084 75.0779 72.8108H9.89985C8.8956 72.8013 7.93556 72.3963 7.22794 71.6837C6.52032 70.971 6.12218 70.0081 6.11985 69.0038V23.2388C7.15354 23.9438 8.37872 24.3145 9.62985 24.3008H75.0779C76.0868 24.3032 77.0537 24.705 77.7672 25.4185C78.4806 26.1319 78.8825 27.0988 78.8849 28.1078V41.2928H71.2979V35.7668C71.2955 34.4881 70.7865 33.2625 69.8823 32.3583C68.9781 31.4542 67.7525 30.9452 66.4739 30.9428H59.8049C59.4468 30.9428 59.1034 31.085 58.8503 31.3382C58.5971 31.5914 58.4549 31.9347 58.4549 32.2928C58.4549 32.6508 58.5971 32.9942 58.8503 33.2474C59.1034 33.5006 59.4468 33.6428 59.8049 33.6428H66.4739C67.0372 33.6428 67.5774 33.8666 67.9757 34.2649C68.3741 34.6632 68.5979 35.2035 68.5979 35.7668V41.5898C68.2292 41.6955 67.8708 41.8341 67.5269 42.0038C66.8122 42.3477 66.161 42.8103 65.6009 43.3718C65.4299 43.5428 65.2769 43.7138 65.1239 43.8938C64.8724 44.1998 64.6495 44.5281 64.4579 44.8748C64.3939 44.9759 64.3368 45.0811 64.2869 45.1898C64.2238 45.2993 64.1697 45.4137 64.1249 45.5318C64.0709 45.6578 64.0259 45.7838 63.9809 45.9188C63.9703 45.954 63.9703 45.9916 63.9809 46.0268C63.9476 46.0891 63.9234 46.1557 63.9089 46.2248C63.9047 46.2847 63.9047 46.3449 63.9089 46.4048C63.9011 46.4312 63.9011 46.4593 63.9089 46.4858C63.8675 46.6094 63.8344 46.7357 63.8099 46.8638C63.8056 46.9297 63.8056 46.9959 63.8099 47.0618C63.8099 47.2508 63.7469 47.4398 63.7289 47.6378C63.7154 47.8716 63.7154 48.106 63.7289 48.3398C63.73 48.7837 63.7722 49.2266 63.8549 49.6628C63.8549 49.8788 63.9449 50.0858 63.9989 50.2928C64.1212 50.7042 64.2777 51.1046 64.4669 51.4898C64.5569 51.6788 64.6649 51.8678 64.7729 52.0478C64.9279 52.4127 65.1115 52.7647 65.3219 53.1008C65.4659 53.2538 65.6099 53.4068 65.7629 53.5508C65.9159 53.6948 66.0779 53.8388 66.2399 53.9648C66.572 54.2277 66.9275 54.4596 67.3019 54.6578C67.4639 54.7478 67.6259 54.8198 67.7879 54.8918L68.0219 54.9818L68.3729 55.1168L68.5798 55.1798V61.3808C68.5798 61.9441 68.3561 62.4844 67.9577 62.8827C67.5594 63.281 67.0192 63.5048 66.4559 63.5048H59.8049C59.4468 63.5048 59.1034 63.647 58.8503 63.9002C58.5971 64.1534 58.4549 64.4967 58.4549 64.8548C58.4549 65.2128 58.5971 65.5562 58.8503 65.8094C59.1034 66.0626 59.4468 66.2048 59.8049 66.2048H66.4739C67.7525 66.2024 68.9781 65.6934 69.8823 64.7892C70.7865 63.8851 71.2955 62.6595 71.2979 61.3808V55.4948H78.8849V69.0038ZM85.4369 52.8038H70.6229C70.449 52.813 70.2747 52.813 70.1009 52.8038C69.2712 52.7139 68.4843 52.3901 67.8317 51.87C67.1792 51.3499 66.6879 50.655 66.4153 49.8663C66.1427 49.0776 66.0999 48.2277 66.2919 47.4156C66.4839 46.6036 66.9029 45.8628 67.4999 45.2798C67.6079 45.1718 67.7249 45.0728 67.8419 44.9738C67.9604 44.8737 68.0868 44.7834 68.2199 44.7038L68.4179 44.5868C68.4787 44.5421 68.5453 44.5058 68.6159 44.4788C68.7495 44.4067 68.8878 44.3436 69.0299 44.2898C69.2565 44.1978 69.4916 44.1285 69.7319 44.0828L70.0469 44.0198C70.2207 44.0106 70.395 44.0106 70.5689 44.0198H85.4369V52.8038Z" fill="black"/>
<path d="M53.5592 33.6414H42.5072C42.1492 33.6414 41.8058 33.4992 41.5526 33.246C41.2995 32.9928 41.1572 32.6494 41.1572 32.2914C41.1572 31.9334 41.2995 31.59 41.5526 31.3368C41.8058 31.0836 42.1492 30.9414 42.5072 30.9414H53.5592C53.9173 30.9414 54.2606 31.0836 54.5138 31.3368C54.767 31.59 54.9092 31.9334 54.9092 32.2914C54.9092 32.6494 54.767 32.9928 54.5138 33.246C54.2606 33.4992 53.9173 33.6414 53.5592 33.6414Z" fill="black"/>
<path d="M70.0562 44.0195L69.7412 44.0825L70.1012 44.0195H70.0562Z" fill="black"/>
<path d="M70.5598 50.8413C70.0757 50.8413 69.6024 50.6977 69.1998 50.4287C68.7972 50.1598 68.4834 49.7774 68.2982 49.3301C68.1129 48.8828 68.0644 48.3906 68.1589 47.9157C68.2533 47.4409 68.4865 47.0047 68.8288 46.6623C69.1712 46.32 69.6074 46.0868 70.0822 45.9924C70.5571 45.8979 71.0493 45.9464 71.4966 46.1317C71.9439 46.3169 72.3263 46.6307 72.5953 47.0333C72.8642 47.4358 73.0078 47.9091 73.0078 48.3933C73.0078 49.0426 72.7499 49.6652 72.2908 50.1243C71.8317 50.5834 71.2091 50.8413 70.5598 50.8413ZM70.5598 48.1413C70.51 48.1413 70.4613 48.1561 70.4198 48.1838C70.3784 48.2115 70.3461 48.2508 70.327 48.2969C70.3079 48.3429 70.3029 48.3936 70.3127 48.4425C70.3224 48.4914 70.3464 48.5363 70.3816 48.5715C70.4169 48.6067 70.4618 48.6307 70.5107 48.6405C70.5595 48.6502 70.6102 48.6452 70.6563 48.6261C70.7023 48.6071 70.7417 48.5748 70.7694 48.5333C70.797 48.4919 70.8118 48.4432 70.8118 48.3933C70.8096 48.3272 70.7823 48.2644 70.7355 48.2176C70.6887 48.1708 70.6259 48.1436 70.5598 48.1413Z" fill="black"/>
</g>
</svg>
