<svg width="46" height="36" viewBox="0 0 46 36" fill="none" xmlns="http://www.w3.org/2000/svg">
<path d="M8.19733 27.4057C8.66358 26.0474 9.55253 24.8664 10.7393 24.0285C11.926 23.1905 13.3509 22.7379 14.8138 22.7341C16.2767 22.7303 17.704 23.1756 18.8952 24.0074C20.0865 24.8391 20.9818 26.0156 21.4553 27.3714M30 11.1429H37M30 18H37M30 24.8571H37M4.33333 2H41.6667C42.2855 2 42.879 2.24082 43.3166 2.66947C43.7542 3.09812 44 3.67951 44 4.28571V31.7143C44 32.3205 43.7542 32.9019 43.3166 33.3305C42.879 33.7592 42.2855 34 41.6667 34H4.33333C3.71449 34 3.121 33.7592 2.68342 33.3305C2.24583 32.9019 2 32.3205 2 31.7143V4.28571C2 3.67951 2.24583 3.09812 2.68342 2.66947C3.121 2.24082 3.71449 2 4.33333 2ZM19.5 12.2857C19.5 13.4981 19.0083 14.6609 18.1332 15.5182C17.258 16.3755 16.071 16.8571 14.8333 16.8571C13.5957 16.8571 12.4087 16.3755 11.5335 15.5182C10.6583 14.6609 10.1667 13.4981 10.1667 12.2857C10.1667 11.0733 10.6583 9.91054 11.5335 9.05323C12.4087 8.19592 13.5957 7.71429 14.8333 7.71429C16.071 7.71429 17.258 8.19592 18.1332 9.05323C19.0083 9.91054 19.5 11.0733 19.5 12.2857Z" stroke="black" stroke-opacity="0.8" stroke-width="4" stroke-linecap="round" stroke-linejoin="round"/>
</svg>
