<svg width="54" height="54" viewBox="0 0 54 54" fill="none" xmlns="http://www.w3.org/2000/svg">
<path d="M47.25 39.3755C44.175 39.638 41.1267 40.1526 38.1359 40.9141C37.5693 37.9537 33.5902 36.8585 29.4741 36.0225C27.8004 35.6478 26.184 35.0518 24.6676 34.2504C22.9774 33.2715 21.0762 32.7141 19.125 32.6255C16.9594 32.6678 14.8084 32.9896 12.7252 33.5828C12.4441 32.9017 11.9996 32.3004 11.4309 31.8318C10.8623 31.3633 10.187 31.042 9.46472 30.8963L1.34582 29.2725C1.1826 29.2411 1.0145 29.2457 0.853235 29.2859C0.691967 29.3262 0.541413 29.4011 0.412065 29.5054C0.283378 29.611 0.179683 29.7438 0.108434 29.8942C0.0371854 30.0447 0.000153285 30.209 1.89462e-07 30.3755V48.3755C-8.55867e-05 48.5233 0.0289549 48.6696 0.085461 48.8061C0.141967 48.9426 0.224831 49.0667 0.329314 49.1712C0.433797 49.2757 0.55785 49.3585 0.69438 49.415C0.83091 49.4715 0.977239 49.5006 1.125 49.5005H7.19825C7.99576 49.4969 8.77815 49.2825 9.46605 48.8789C10.1539 48.4754 10.7229 47.8971 11.1151 47.2027C14.6466 48.8905 25.7234 54.0005 30.375 54.0005C34.7388 54.0005 43.7201 49.5851 49.6626 46.6638C51.2139 45.9014 52.496 45.2708 53.3276 44.906C53.5276 44.8179 53.6976 44.6736 53.8169 44.4907C53.9363 44.3077 53.9999 44.094 54 43.8755C54 41.2256 51.2237 39.3755 47.25 39.3755Z" fill="black"/>
<path d="M7.19629 47.2489H2.24805V31.7461L9.02111 33.1007C9.5851 33.2136 10.0845 33.5381 10.4167 34.0076C10.7489 34.4771 10.8888 35.056 10.8075 35.6254L9.4233 45.3164C9.34487 45.8518 9.07699 46.3412 8.66833 46.6958C8.25967 47.0505 7.73736 47.2467 7.19629 47.2489Z" fill="#FCD21A"/>
<path opacity="0.2" d="M4.31967 36.9009C4.31966 36.5269 4.40264 36.1576 4.56261 35.8196C4.72259 35.4816 4.95558 35.1833 5.24478 34.9462C5.53398 34.7091 5.87219 34.5391 6.23501 34.4486C6.59784 34.358 6.97625 34.349 7.34295 34.4224L10.7817 35.1101C10.7459 34.6295 10.5548 34.1736 10.2373 33.8111C9.91968 33.4487 9.49283 33.1993 9.02111 33.1007L2.24805 31.7461V47.2489H4.31967V36.9009Z" fill="white"/>
<path d="M48.6671 44.6441C43.2618 47.3018 34.2134 51.75 30.3726 51.75C26.5092 51.75 16.2397 47.1807 11.7402 45.0099L13.0351 35.9451C13.0406 35.9066 13.0357 35.8694 13.0402 35.8311C15.017 35.2472 17.062 34.9257 19.1226 34.875C20.7344 34.9721 22.2997 35.4523 23.6886 36.2758C25.3726 37.1599 27.1666 37.8163 29.0235 38.228C33.9124 39.219 35.9976 40.2352 35.9976 41.625C36.006 41.7429 35.9829 41.8609 35.9306 41.9669C35.8782 42.0729 35.7986 42.1631 35.6999 42.2282C34.9869 42.7621 32.1942 43.6608 21.6923 40.5461C21.4062 40.4614 21.0981 40.4937 20.8358 40.6361C20.5735 40.7785 20.3786 41.0192 20.2938 41.3053C20.209 41.5915 20.2413 41.8996 20.3837 42.1618C20.5261 42.4241 20.7668 42.6191 21.0529 42.7039C24.9162 44.0017 28.936 44.7759 33.0049 45.0056C34.4208 45.1137 35.8347 44.7727 37.0457 44.0312C37.3044 43.8333 37.5293 43.595 37.7119 43.3253C40.8423 42.5154 44.0302 41.9469 47.2477 41.625C48.0448 41.5401 48.8509 41.6407 49.6027 41.9189C50.3546 42.1972 51.0319 42.6456 51.5818 43.229C50.7962 43.5983 49.802 44.087 48.6671 44.6441Z" fill="#F2F2F2"/>
<path opacity="0.2" d="M48.8968 41.7969C48.5292 41.9769 48.1646 42.1552 47.7577 42.3549C42.3524 45.0125 33.3041 49.4608 29.4633 49.4608C25.9003 49.4608 16.8989 45.5783 11.9898 43.2713L11.7412 45.0115C16.2406 47.1823 26.51 51.7516 30.3735 51.7516C34.2143 51.7516 43.2627 47.3033 48.6679 44.6456C49.8028 44.0886 50.7971 43.5997 51.5826 43.2306C51.2562 42.8212 50.8496 42.4829 50.3878 42.2364C49.9259 41.9898 49.4186 41.8403 48.8968 41.7969Z" fill="black"/>
<path d="M46.125 11.25H30.375C28.511 11.25 27 12.761 27 14.625V30.375C27 32.239 28.511 33.75 30.375 33.75H46.125C47.989 33.75 49.5 32.239 49.5 30.375V14.625C49.5 12.761 47.989 11.25 46.125 11.25Z" fill="black"/>
<path d="M46.123 13.5H30.373C29.7517 13.5 29.248 14.0037 29.248 14.625V30.375C29.248 30.9963 29.7517 31.5 30.373 31.5H46.123C46.7444 31.5 47.248 30.9963 47.248 30.375V14.625C47.248 14.0037 46.7444 13.5 46.123 13.5Z" fill="#F9DC5C"/>
<path opacity="0.2" d="M46.123 13.5H44.4382V26.131C44.4381 26.9582 44.1095 27.7515 43.5245 28.3365C42.9396 28.9214 42.1462 29.25 41.319 29.25H29.248V30.375C29.2482 30.6733 29.3668 30.9593 29.5778 31.1703C29.7887 31.3812 30.0747 31.4998 30.373 31.5H46.123C46.4214 31.4998 46.7074 31.3812 46.9183 31.1703C47.1292 30.9593 47.2478 30.6733 47.248 30.375V14.625C47.2478 14.3267 47.1292 14.0407 46.9183 13.8297C46.7074 13.6188 46.4214 13.5002 46.123 13.5Z" fill="black"/>
<path d="M42.752 11.25H39.377C39.2292 11.2501 39.0829 11.221 38.9463 11.1645C38.8098 11.108 38.6858 11.0252 38.5813 10.9207C38.4768 10.8162 38.3939 10.6922 38.3374 10.5556C38.2809 10.4191 38.2519 10.2728 38.252 10.125V6.75C38.252 5.85999 38.5159 4.98996 39.0103 4.24994C39.5048 3.50991 40.2076 2.93314 41.0299 2.59254C41.8521 2.25195 42.7569 2.16283 43.6299 2.33647C44.5028 2.5101 45.3046 2.93868 45.9339 3.56802C46.5633 4.19736 46.9919 4.99918 47.1655 5.87209C47.3391 6.74501 47.25 7.64981 46.9094 8.47208C46.5688 9.29434 45.992 9.99715 45.252 10.4916C44.512 10.9861 43.642 11.25 42.752 11.25ZM40.502 9H42.752C43.197 9 43.632 8.86804 44.002 8.62081C44.372 8.37357 44.6604 8.02217 44.8307 7.61104C45.001 7.19991 45.0455 6.74751 44.9587 6.31105C44.8719 5.87459 44.6576 5.47368 44.3429 5.15901C44.0283 4.84434 43.6274 4.63005 43.1909 4.54323C42.7545 4.45642 42.3021 4.50098 41.8909 4.67127C41.4798 4.84157 41.1284 5.12996 40.8811 5.49997C40.6339 5.86998 40.502 6.30499 40.502 6.75V9Z" fill="#F9DC5C"/>
<path d="M39.3731 11.25H34.8731C33.7605 11.25 32.673 10.9201 31.748 10.302C30.8229 9.68394 30.102 8.80543 29.6762 7.7776C29.2505 6.74976 29.1391 5.61876 29.3561 4.52762C29.5732 3.43648 30.1089 2.4342 30.8956 1.64753C31.6822 0.860857 32.6845 0.325127 33.7757 0.108085C34.8668 -0.108957 35.9978 0.00243722 37.0256 0.42818C38.0535 0.853923 38.932 1.57489 39.5501 2.49992C40.1682 3.42495 40.4981 4.51248 40.4981 5.625V10.125C40.4981 10.2728 40.4691 10.4191 40.4126 10.5556C40.3561 10.6922 40.2732 10.8162 40.1687 10.9207C40.0643 11.0252 39.9402 11.108 39.8037 11.1645C39.6671 11.221 39.5208 11.2501 39.3731 11.25ZM34.8731 2.25C33.9779 2.25 33.1195 2.60558 32.4866 3.23852C31.8536 3.87145 31.4981 4.7299 31.4981 5.625C31.4981 6.52011 31.8536 7.37855 32.4866 8.01149C33.1195 8.64442 33.9779 9 34.8731 9H38.2481V5.625C38.2471 4.7302 37.8912 3.87232 37.2585 3.2396C36.6257 2.60687 35.7679 2.25098 34.8731 2.25Z" fill="#F9DC5C"/>
<path d="M39.377 9C39.2292 8.99991 39.0829 9.02895 38.9463 9.08546C38.8098 9.14197 38.6858 9.22483 38.5813 9.32931C38.4768 9.4338 38.3939 9.55785 38.3374 9.69438C38.2809 9.83091 38.2519 9.97724 38.252 10.125V33.7491H40.502V10.125C40.502 9.97724 40.473 9.83091 40.4165 9.69438C40.36 9.55785 40.2771 9.4338 40.1726 9.32931C40.0682 9.22483 39.9441 9.14197 39.8076 9.08546C39.671 9.02895 39.5247 8.99991 39.377 9Z" fill="#F9D435"/>
<path d="M47.25 39.3742C44.175 39.6366 41.1267 40.1512 38.1359 40.9128C37.5693 37.9524 33.5902 36.8572 29.4741 36.0212C27.8004 35.6464 26.184 35.0505 24.6676 34.2491C22.9774 33.2702 21.0762 32.7128 19.125 32.6242C16.9594 32.6665 14.8084 32.9883 12.7252 33.5815C12.4441 32.9004 11.9996 32.2991 11.4309 31.8305C10.8623 31.362 10.187 31.0407 9.46472 30.895L1.34582 29.2712C1.1826 29.2398 1.0145 29.2444 0.853235 29.2846C0.691967 29.3248 0.541413 29.3997 0.412065 29.5041C0.283378 29.6097 0.179683 29.7425 0.108434 29.8929C0.0371854 30.0434 0.000153285 30.2077 1.89462e-07 30.3742V48.3742C-8.55867e-05 48.5219 0.0289549 48.6683 0.085461 48.8048C0.141967 48.9413 0.224831 49.0654 0.329314 49.1699C0.433797 49.2743 0.55785 49.3572 0.69438 49.4137C0.83091 49.4702 0.977239 49.4993 1.125 49.4992H7.19825C7.99576 49.4956 8.77815 49.2812 9.46605 48.8776C10.1539 48.4741 10.7229 47.8958 11.1151 47.2014C14.6466 48.8891 25.7234 53.9992 30.375 53.9992C34.7388 53.9992 43.7201 49.5838 49.6626 46.6625C51.2139 45.9 52.496 45.2694 53.3276 44.9047C53.5276 44.8166 53.6976 44.6723 53.8169 44.4893C53.9363 44.3064 53.9999 44.0926 54 43.8742C54 41.2243 51.2238 39.3742 47.25 39.3742ZM30.375 33.7492H46.125C47.0198 33.7482 47.8777 33.3923 48.5104 32.7596C49.1431 32.1269 49.499 31.269 49.5 30.3742V14.6242C49.499 13.7294 49.1431 12.8715 48.5104 12.2388C47.8777 11.606 47.0198 11.2502 46.125 11.2492H42.75C43.9435 11.2492 45.0881 10.7751 45.932 9.93116C46.7759 9.08724 47.25 7.94265 47.25 6.74918C47.25 5.5557 46.7759 4.41111 45.932 3.5672C45.0881 2.72328 43.9435 2.24918 42.75 2.24918C41.7316 2.25351 40.7453 2.60665 39.9556 3.24975C39.5288 2.33785 38.8647 1.55743 38.0328 0.990156C37.201 0.422879 36.2319 0.0895972 35.2271 0.0251818C34.2223 -0.0392335 33.2187 0.167586 32.3212 0.623999C31.4237 1.08041 30.6654 1.76964 30.1256 2.61958C29.5858 3.46951 29.2843 4.4489 29.2527 5.45527C29.2212 6.46164 29.4606 7.458 29.9461 8.3401C30.4316 9.2222 31.1452 9.95761 32.0123 10.4694C32.8794 10.9812 33.8681 11.2505 34.875 11.2492H30.375C29.4802 11.2502 28.6223 11.606 27.9896 12.2388C27.3569 12.8715 27.001 13.7294 27 14.6242V30.3742C27.001 31.269 27.3569 32.1269 27.9896 32.7596C28.6223 33.3923 29.4802 33.7482 30.375 33.7492ZM40.5 6.74918C40.5 6.30417 40.632 5.86916 40.8792 5.49915C41.1264 5.12913 41.4778 4.84075 41.889 4.67045C42.3001 4.50015 42.7525 4.45559 43.189 4.54241C43.6254 4.62923 44.0263 4.84352 44.341 5.15819C44.6557 5.47286 44.87 5.87377 44.9568 6.31022C45.0436 6.74668 44.999 7.19908 44.8287 7.61022C44.6584 8.02135 44.37 8.37275 44 8.61998C43.63 8.86722 43.195 8.99918 42.75 8.99918H40.5V6.74918ZM31.5 5.62418C31.5 4.72907 31.8556 3.87063 32.4885 3.23769C33.1214 2.60476 33.9799 2.24918 34.875 2.24918C35.7701 2.24918 36.6285 2.60476 37.2615 3.23769C37.8944 3.87063 38.25 4.72907 38.25 5.62418V8.99918H34.875C33.9802 8.9982 33.1223 8.64231 32.4896 8.00958C31.8569 7.37686 31.501 6.51898 31.5 5.62418Z" fill="url(#paint0_linear_686_3618)"/>
<defs>
<linearGradient id="paint0_linear_686_3618" x1="13.3346" y1="16.5738" x2="47.5506" y2="50.7898" gradientUnits="userSpaceOnUse">
<stop stop-color="white" stop-opacity="0"/>
<stop offset="1" stop-color="white" stop-opacity="0.1"/>
</linearGradient>
</defs>
</svg>
