<svg width="100" height="100" viewBox="0 0 100 100" fill="none" xmlns="http://www.w3.org/2000/svg">
<path d="M54.1665 50.0007C54.1665 47.6994 56.0319 45.834 58.3332 45.834H79.1665C81.4678 45.834 83.3332 47.6994 83.3332 50.0007V79.1673C83.3332 81.4686 81.4678 83.334 79.1665 83.334H58.3332C56.0319 83.334 54.1665 81.4686 54.1665 79.1673V50.0007Z" stroke="#A61E3E" stroke-width="10" stroke-linecap="round"/>
<path d="M16.6665 20.8327C16.6665 18.5315 18.532 16.666 20.8332 16.666H37.4998C39.801 16.666 41.6665 18.5315 41.6665 20.8327V49.9993C41.6665 52.3006 39.801 54.166 37.4998 54.166H20.8332C18.532 54.166 16.6665 52.3006 16.6665 49.9993V20.8327Z" stroke="#A61E3E" stroke-width="10" stroke-linecap="round"/>
<path d="M16.6665 70.8327C16.6665 68.5314 18.532 66.666 20.8332 66.666H37.4998C39.801 66.666 41.6665 68.5314 41.6665 70.8327V79.166C41.6665 81.4673 39.801 83.3327 37.4998 83.3327H20.8332C18.532 83.3327 16.6665 81.4673 16.6665 79.166V70.8327Z" stroke="#A61E3E" stroke-width="10" stroke-linecap="round"/>
<path d="M54.1665 20.8327C54.1665 18.5315 56.0319 16.666 58.3332 16.666H79.1665C81.4678 16.666 83.3332 18.5315 83.3332 20.8327V29.166C83.3332 31.4672 81.4678 33.3327 79.1665 33.3327H58.3332C56.0319 33.3327 54.1665 31.4672 54.1665 29.166V20.8327Z" stroke="#A61E3E" stroke-width="10" stroke-linecap="round"/>
</svg>
