<svg width="90" height="88" viewBox="0 0 90 88" fill="none" xmlns="http://www.w3.org/2000/svg">
<path fill-rule="evenodd" clip-rule="evenodd" d="M89.8333 79.5007V87.834H69V79.5007H89.8333ZM64.8333 79.5007V87.834H56.5V79.5007H64.8333ZM89.8333 67.0007V75.334H69V67.0007H89.8333ZM64.8333 67.0007V75.334H56.5V67.0007H64.8333ZM26.3223 51.345C30.8464 55.8691 37.0964 58.6673 44 58.6673C46.922 58.6673 49.727 58.166 52.3335 57.2447L52.3336 65.9504C49.67 66.636 46.8776 67.0007 44 67.0007C34.7951 67.0007 26.4617 63.2696 20.4296 57.2374L26.3223 51.345ZM89.8333 54.5007V62.834H69V54.5007H89.8333ZM64.8333 54.5007V62.834H56.5V54.5007H64.8333ZM44 0.333984C62.4095 0.333984 77.3333 15.2578 77.3333 33.6673C77.3333 39.7388 75.71 45.4312 72.8738 50.3342L62.6337 50.3345C66.5927 45.9115 69 40.0705 69 33.6673C69 19.8602 57.8071 8.66732 44 8.66732C30.1929 8.66732 19 19.8602 19 33.6673C19 34.4536 19.0363 35.2313 19.1073 35.9991L23.1666 31.9414L29.0592 37.834L14.8333 52.0599L0.607422 37.834L6.49998 31.9414L10.7615 36.2015C10.6987 35.365 10.6666 34.5199 10.6666 33.6673C10.6666 15.2578 25.5905 0.333984 44 0.333984ZM48.1666 12.834V31.4173L58.7916 38.5423L54.2083 45.459L39.8333 35.9173V12.834H48.1666Z" fill="#A61E3E"/>
</svg>
