<svg width="52" height="48" viewBox="0 0 52 48" fill="none" xmlns="http://www.w3.org/2000/svg">
<path d="M6.93262 40.908C6.93262 41.3783 7.11464 41.8293 7.43865 42.1619C7.76266 42.4944 8.20211 42.6812 8.66032 42.6812H43.2887C43.7469 42.6812 44.1864 42.4944 44.5104 42.1619C44.8344 41.8293 45.0164 41.3783 45.0164 40.908C45.0164 40.4377 44.8344 39.9867 44.5104 39.6541C44.1864 39.3216 43.7469 39.1348 43.2887 39.1348H8.66032C8.20211 39.1348 7.76266 39.3216 7.43865 39.6541C7.11464 39.9867 6.93262 40.4377 6.93262 40.908Z" fill="#A61E3E"/>
<path d="M8.66032 47.9996H43.2887C43.7469 47.9996 44.1864 47.8128 44.5104 47.4802C44.8344 47.1477 45.0164 46.6966 45.0164 46.2264C45.0164 45.7561 44.8344 45.305 44.5104 44.9725C44.1864 44.6399 43.7469 44.4531 43.2887 44.4531H8.66032C8.20211 44.4531 7.76266 44.6399 7.43865 44.9725C7.11464 45.305 6.93262 45.7561 6.93262 46.2264C6.93262 46.6966 7.11464 47.1477 7.43865 47.4802C7.76266 47.8128 8.20211 47.9996 8.66032 47.9996Z" fill="#A61E3E"/>
<path d="M51.9999 14.2523C52.0036 13.4179 51.8167 12.5942 51.4542 11.8474C51.0917 11.1005 50.5636 10.4513 49.9125 9.95174C49.2613 9.4522 48.5051 9.11627 47.7045 8.97091C46.904 8.82554 46.0814 8.87479 45.3027 9.11469C44.5241 9.3546 43.8111 9.77849 43.2209 10.3523C42.6307 10.9262 42.1798 11.634 41.9043 12.4191C41.6288 13.2041 41.5365 14.0445 41.6347 14.8728C41.7329 15.7011 42.0189 16.4942 42.4697 17.1886L35.2802 22.2795L29.0568 9.63808C29.9391 8.97137 30.5939 8.03571 30.9275 6.96456C31.2612 5.89341 31.2568 4.74147 30.9149 3.67304C30.5731 2.60461 29.9112 1.67426 29.0238 1.01469C28.1363 0.355112 27.0686 0 25.9729 0C24.8772 0 23.8095 0.355112 22.9221 1.01469C22.0346 1.67426 21.3727 2.60461 21.0309 3.67304C20.689 4.74147 20.6846 5.89341 21.0183 6.96456C21.352 8.03571 22.0067 8.97137 22.8891 9.63808L16.7028 22.2795L9.51328 17.1886C10.1321 16.2476 10.4425 15.1285 10.3994 13.9941C10.3564 12.8597 9.96206 11.7688 9.27378 10.8801C8.5855 9.9913 7.63909 9.35087 6.57199 9.05179C5.5049 8.75271 4.3727 8.81056 3.33982 9.21693C2.30694 9.6233 1.42718 10.357 0.8283 11.3116C0.22942 12.2661 -0.057388 13.3917 0.00953029 14.5249C0.0764485 15.6582 0.493609 16.74 1.20042 17.6133C1.90724 18.4866 2.8669 19.1059 3.94004 19.3813L6.22506 35.7979C6.28323 36.2208 6.48813 36.6079 6.80212 36.8881C7.11611 37.1684 7.51809 37.3229 7.93419 37.3233H8.15712C8.38328 37.2906 8.6009 37.2123 8.79737 37.0928C8.99384 36.9732 9.16528 36.8149 9.30176 36.627C9.43824 36.439 9.53705 36.2252 9.59249 35.9978C9.64793 35.7704 9.65889 35.534 9.62474 35.3022L7.50691 20.0486L16.3312 26.3217C16.6195 26.5303 16.9631 26.6434 17.3158 26.6458H17.7431C17.9817 26.5836 18.2046 26.4697 18.3968 26.3119C18.5891 26.154 18.7462 25.9558 18.8577 25.7306L25.9915 11.2397L33.1067 25.6924C33.2182 25.9177 33.3753 26.1159 33.5676 26.2737C33.7598 26.4316 33.9827 26.5454 34.2213 26.6077H34.6486C35.0013 26.6053 35.3449 26.4922 35.6332 26.2835L44.4575 20.0105L42.3397 35.2641C42.2944 35.5 42.2965 35.743 42.3456 35.9782C42.3947 36.2133 42.49 36.4358 42.6255 36.632C42.7611 36.8282 42.9341 36.994 43.1341 37.1194C43.334 37.2448 43.5568 37.3271 43.7887 37.3614H44.0302C44.4463 37.361 44.8483 37.2065 45.1623 36.9263C45.4763 36.646 45.6812 36.2589 45.7393 35.8361L48.0244 19.4194C49.156 19.1412 50.1634 18.4802 50.8846 17.5429C51.6057 16.6056 51.9986 15.4466 51.9999 14.2523ZM5.2033 12.46C5.66152 12.46 6.10097 12.6468 6.42498 12.9794C6.74898 13.3119 6.93101 13.7629 6.93101 14.2332C6.93101 14.7035 6.74898 15.1545 6.42498 15.4871C6.10097 15.8196 5.66152 16.0064 5.2033 16.0064C4.74509 16.0064 4.30564 15.8196 3.98163 15.4871C3.65763 15.1545 3.4756 14.7035 3.4756 14.2332C3.4756 13.7629 3.65763 13.3119 3.98163 12.9794C4.30564 12.6468 4.74509 12.46 5.2033 12.46ZM25.9915 3.57479C26.3332 3.57479 26.6672 3.67879 26.9514 3.87363C27.2355 4.06848 27.4569 4.34542 27.5877 4.66943C27.7184 4.99344 27.7527 5.34998 27.686 5.69395C27.6193 6.03793 27.4548 6.35388 27.2132 6.60187C26.9715 6.84986 26.6637 7.01875 26.3286 7.08717C25.9934 7.15559 25.646 7.12047 25.3303 6.98626C25.0146 6.85205 24.7448 6.62477 24.555 6.33317C24.3651 6.04156 24.2638 5.69873 24.2638 5.34801C24.2638 4.87773 24.4458 4.4267 24.7698 4.09415C25.0938 3.76161 25.5333 3.57479 25.9915 3.57479ZM46.7797 16.0255C46.4396 16.018 46.1093 15.9077 45.8302 15.7083C45.551 15.5089 45.3353 15.2295 45.2102 14.9049C45.0851 14.5803 45.0562 14.225 45.127 13.8836C45.1978 13.5421 45.3652 13.2298 45.6082 12.9856C45.8513 12.7414 46.1591 12.5762 46.4932 12.5108C46.8273 12.4455 47.1728 12.4827 47.4863 12.618C47.7998 12.7533 48.0675 12.9805 48.2557 13.2712C48.444 13.5619 48.5445 13.9032 48.5445 14.2523C48.5447 14.49 48.4982 14.7254 48.4079 14.9443C48.3176 15.1633 48.1853 15.3614 48.019 15.5268C47.8526 15.6922 47.6555 15.8216 47.4394 15.9073C47.2233 15.993 46.9926 16.0332 46.7611 16.0255H46.7797Z" fill="#A61E3E"/>
<path d="M25.9934 37.0558C26.2825 37.0545 26.5666 36.9787 26.8198 36.8355C27.073 36.6922 27.2871 36.4861 27.4425 36.2359L30.6006 31.2022C30.7776 30.9174 30.8716 30.5867 30.8716 30.2489C30.8716 29.9111 30.7776 29.5803 30.6006 29.2955L27.4425 24.2619C27.2865 24.0099 27.0711 23.8024 26.8161 23.6586C26.5612 23.5148 26.275 23.4395 25.9841 23.4395C25.6933 23.4395 25.4071 23.5148 25.1522 23.6586C24.8972 23.8024 24.6818 24.0099 24.5258 24.2619L21.3491 29.2955C21.1721 29.5803 21.0781 29.9111 21.0781 30.2489C21.0781 30.5867 21.1721 30.9174 21.3491 31.2022L24.5258 36.2359C24.6829 36.4888 24.9 36.6967 25.1566 36.8401C25.4133 36.9834 25.7012 37.0577 25.9934 37.0558ZM25.9934 28.4947L27.1081 30.2489L25.9934 32.003L24.8788 30.2489L25.9934 28.4947Z" fill="#A61E3E" fill-opacity="0.7"/>
</svg>
