<svg width="100" height="100" viewBox="0 0 100 100" fill="none" xmlns="http://www.w3.org/2000/svg">
<g opacity="0.6">
<path d="M49.9998 96.875C57.5865 96.8772 64.9275 94.1852 70.7141 89.2788C76.5008 84.3724 80.357 77.5704 81.5954 70.0855C82.8339 62.6005 81.374 54.919 77.476 48.4102C73.5781 41.9014 67.4954 36.9884 60.3123 34.5469L71.1248 27.8906C71.3528 27.7518 71.5415 27.5568 71.6728 27.3243C71.8041 27.0918 71.8736 26.8295 71.8748 26.5625V4.6875C71.8748 4.2731 71.7101 3.87567 71.4171 3.58265C71.1241 3.28962 70.7267 3.125 70.3123 3.125H29.6873C29.2729 3.125 28.8754 3.28962 28.5824 3.58265C28.2894 3.87567 28.1248 4.2731 28.1248 4.6875V26.5625C28.1259 26.8295 28.1954 27.0918 28.3267 27.3243C28.458 27.5568 28.6467 27.7518 28.8748 27.8906L39.6873 34.5469C32.5041 36.9884 26.4215 41.9014 22.5235 48.4102C18.6256 54.919 17.1657 62.6005 18.4041 70.0855C19.6425 77.5704 23.4988 84.3724 29.2854 89.2788C35.0721 94.1852 42.4131 96.8772 49.9998 96.875ZM68.7498 25.6875L64.0623 28.5781V6.25H68.7498V25.6875ZM31.2498 6.25H35.9373V28.5781L31.2498 25.6875V6.25ZM39.0623 30.5V6.25H60.9373V30.5L56.2498 33.4219C52.1648 32.6094 47.9598 32.6094 43.8748 33.4219L39.0623 30.5ZM49.9998 35.9375C55.7169 35.9375 61.3056 37.6328 66.0592 40.8091C70.8128 43.9853 74.5178 48.4999 76.7057 53.7818C78.8935 59.0637 79.4659 64.8758 78.3506 70.4831C77.2352 76.0903 74.4822 81.2409 70.4396 85.2836C66.397 89.3262 61.2464 92.0792 55.6391 93.1946C50.0318 94.3099 44.2198 93.7375 38.9378 91.5496C33.6559 89.3618 29.1414 85.6568 25.9651 80.9032C22.7888 76.1496 21.0935 70.5609 21.0935 64.8438C21.1018 57.1799 24.1499 49.8323 29.5691 44.4131C34.9883 38.9939 42.3359 35.9458 49.9998 35.9375Z" fill="black"/>
<path d="M49.9997 89.0625C55.8404 89.0659 61.4857 86.9585 65.8953 83.1285C70.305 79.2985 73.182 74.0039 73.9963 68.2202C74.8105 62.4365 73.5072 56.5534 70.3265 51.6547C67.1458 46.756 62.3018 43.1718 56.6872 41.5625C56.4902 41.505 56.2839 41.487 56.0799 41.5093C55.8759 41.5316 55.6783 41.5938 55.4984 41.6925C55.3185 41.7911 55.1598 41.9243 55.0313 42.0843C54.9029 42.2443 54.8072 42.428 54.7497 42.625C54.6923 42.822 54.6742 43.0284 54.6965 43.2323C54.7188 43.4363 54.781 43.6339 54.8797 43.8138C54.9784 43.9937 55.1115 44.1524 55.2715 44.2809C55.4315 44.4094 55.6152 44.505 55.8122 44.5625C60.7013 45.964 64.9194 49.0847 67.6897 53.35C70.46 57.6153 71.5959 62.7379 70.8883 67.7744C70.1807 72.8109 67.6771 77.4222 63.8388 80.7589C60.0004 84.0957 55.0857 85.9333 49.9997 85.9333C44.9137 85.9333 39.999 84.0957 36.1607 80.7589C32.3223 77.4222 29.8188 72.8109 29.1112 67.7744C28.4035 62.7379 29.5395 57.6153 32.3098 53.35C35.0801 49.0847 39.2982 45.964 44.1872 44.5625C44.585 44.4465 44.9205 44.1772 45.1197 43.8138C45.319 43.4505 45.3658 43.0228 45.2497 42.625C45.1337 42.2272 44.8644 41.8917 44.501 41.6925C44.1377 41.4932 43.71 41.4465 43.3122 41.5625C37.6976 43.1718 32.8537 46.756 29.6729 51.6547C26.4922 56.5534 25.1889 62.4365 26.0032 68.2202C26.8175 74.0039 29.6945 79.2985 34.1041 83.1285C38.5138 86.9585 44.159 89.0659 49.9997 89.0625Z" fill="black"/>
<path d="M43.531 56.9528L38.8435 57.8747C38.1259 57.9982 37.4557 58.3152 36.905 58.7915C36.3543 59.2679 35.944 59.8855 35.7185 60.5778C35.5018 61.2463 35.4701 61.961 35.6269 62.6461C35.7837 63.3311 36.1231 63.9608 36.6091 64.4685L39.8904 67.9528C39.9748 68.0381 40.0384 68.1416 40.0763 68.2554C40.1143 68.3692 40.1255 68.4902 40.1091 68.6091L39.5466 73.2966C39.4571 73.9877 39.5549 74.6902 39.8298 75.3307C40.1046 75.9711 40.5465 76.526 41.1091 76.9372C41.6866 77.364 42.3672 77.6294 43.0811 77.7063C43.795 77.7832 44.5165 77.6688 45.1716 77.3747L49.5622 75.3903C49.6853 75.3361 49.8184 75.3081 49.9529 75.3081C50.0874 75.3081 50.2204 75.3361 50.3435 75.3903L54.7341 77.3747C55.3892 77.6688 56.1107 77.7832 56.8246 77.7063C57.5385 77.6294 58.2192 77.364 58.7966 76.9372C59.3593 76.526 59.8011 75.9711 60.076 75.3307C60.3508 74.6902 60.4486 73.9877 60.3591 73.2966L59.7966 68.6091C59.7802 68.4902 59.7915 68.3692 59.8294 68.2554C59.8673 68.1416 59.931 68.0381 60.0154 67.9528L63.2966 64.4685C63.7826 63.9608 64.122 63.3311 64.2788 62.6461C64.4356 61.961 64.404 61.2463 64.1872 60.5778C63.9617 59.8855 63.5515 59.2679 63.0008 58.7915C62.4501 58.3152 61.7798 57.9982 61.0622 57.8747L56.3747 56.9528C56.2492 56.9294 56.13 56.8797 56.025 56.807C55.9199 56.7343 55.8315 56.6402 55.7654 56.531L53.406 52.406C53.0502 51.793 52.5396 51.2841 51.9254 50.9305C51.3111 50.5768 50.6148 50.3906 49.906 50.3906C49.1972 50.3906 48.5009 50.5768 47.8866 50.9305C47.2724 51.2841 46.7618 51.793 46.406 52.406L44.0466 56.531C43.9346 56.7319 43.7502 56.8828 43.531 56.9528ZM46.8435 58.0778L49.2029 53.9528C49.2884 53.8239 49.4045 53.7181 49.5408 53.645C49.6771 53.5718 49.8294 53.5335 49.9841 53.5335C50.1388 53.5335 50.2911 53.5718 50.4274 53.645C50.5638 53.7181 50.6799 53.8239 50.7654 53.9528L53.1247 58.0778C53.4091 58.5795 53.7999 59.013 54.2695 59.3477C54.7392 59.6824 55.2764 59.9103 55.8435 60.0153L60.531 60.9372C60.6861 60.9664 60.8305 61.037 60.9488 61.1415C61.067 61.246 61.1548 61.3806 61.2029 61.531C61.2542 61.6674 61.2638 61.816 61.2304 61.9579C61.1971 62.0999 61.1222 62.2286 61.0154 62.3278L57.8122 65.7966C57.4221 66.2113 57.1255 66.7048 56.9422 67.2439C56.7589 67.7829 56.6933 68.355 56.7497 68.9216L57.3279 73.6091C57.3427 73.7534 57.3187 73.8991 57.2583 74.031C57.1978 74.1629 57.1032 74.2761 56.9841 74.3591C56.854 74.4643 56.6959 74.5292 56.5294 74.5459C56.3628 74.5625 56.195 74.5302 56.0466 74.4528L51.656 72.4841C51.1311 72.2449 50.561 72.121 49.9841 72.121C49.4073 72.121 48.8371 72.2449 48.3122 72.4841L43.9216 74.4528C43.7732 74.5302 43.6054 74.5625 43.4389 74.5459C43.2723 74.5292 43.1143 74.4643 42.9841 74.3591C42.8651 74.2761 42.7704 74.1629 42.71 74.031C42.6495 73.8991 42.6255 73.7534 42.6404 73.6091L43.2185 68.9216C43.275 68.355 43.2093 67.7829 43.0261 67.2439C42.8428 66.7048 42.5461 66.2113 42.156 65.7966L38.906 62.3278C38.7992 62.2286 38.7243 62.0999 38.6909 61.9579C38.6575 61.816 38.6671 61.6674 38.7185 61.531C38.7665 61.3806 38.8543 61.246 38.9726 61.1415C39.0909 61.037 39.2352 60.9664 39.3904 60.9372L44.0779 60.0153C44.6589 59.921 45.2115 59.6981 45.6954 59.3629C46.1793 59.0277 46.5822 58.5886 46.8747 58.0778H46.8435Z" fill="black"/>
<path d="M50 43.75C50.8629 43.75 51.5625 43.0504 51.5625 42.1875C51.5625 41.3246 50.8629 40.625 50 40.625C49.1371 40.625 48.4375 41.3246 48.4375 42.1875C48.4375 43.0504 49.1371 43.75 50 43.75Z" fill="black"/>
</g>
</svg>
