<svg width="100" height="100" viewBox="0 0 100 100" fill="none" xmlns="http://www.w3.org/2000/svg">
<path d="M29.3385 61.248H21.0005C19.3435 61.248 18.0005 59.9049 18.0005 58.248V7C18.0005 5.34258 19.3431 4 21.0005 4H79.0005C80.6573 4 82.0005 5.34297 82.0005 7V58.248C82.0005 59.9045 80.6569 61.248 79.0005 61.248H68.4215C67.3169 61.248 66.4215 62.1434 66.4215 63.248C66.4215 64.3526 67.3169 65.248 68.4215 65.248H79.0005C82.866 65.248 86.0005 62.1136 86.0005 58.248V7C86.0005 3.13369 82.8663 0 79.0005 0H21.0005C17.1339 0 14.0005 3.1334 14.0005 7V58.248C14.0005 62.1139 17.1342 65.248 21.0005 65.248H29.3385C30.4431 65.248 31.3385 64.3526 31.3385 63.248C31.3385 62.1434 30.4431 61.248 29.3385 61.248Z" fill="#A61E3E"/>
<path d="M28.8652 34.6133H71.1353C72.2398 34.6133 73.1353 33.7179 73.1353 32.6133C73.1353 31.5087 72.2398 30.6133 71.1353 30.6133H28.8652C27.7606 30.6133 26.8652 31.5087 26.8652 32.6133C26.8652 33.7179 27.7606 34.6133 28.8652 34.6133Z" fill="#A61E3E"/>
<path d="M68.0483 49.8735C66.9437 49.8735 66.0483 50.7689 66.0483 51.8735C66.0483 52.9781 66.9437 53.8735 68.0483 53.8735H71.1523C74.2473 53.8735 76.0195 51.153 74.77 48.322L67.4819 31.8157C67.0357 30.8053 65.855 30.3478 64.8445 30.7939C63.8341 31.24 63.3766 32.4209 63.8227 33.4313L71.0826 49.8735H68.0483ZM36.1774 33.4313C36.6236 32.4209 36.1661 31.24 35.1556 30.7939C34.1452 30.3478 32.9643 30.8053 32.5182 31.8157L25.2302 48.3217C23.9806 51.153 25.7528 53.8735 28.8478 53.8735H55.9518C57.0564 53.8735 57.9518 52.9781 57.9518 51.8735C57.9518 50.7689 57.0564 49.8735 55.9518 49.8735H28.9176L36.1775 33.4313H36.1774Z" fill="#A61E3E"/>
<path d="M53.5343 33.9844C53.5343 35.9692 51.9253 37.5784 49.9402 37.5784C47.9558 37.5784 46.3462 35.9688 46.3462 33.9844C46.3462 32.8798 45.4508 31.9844 44.3462 31.9844C43.2416 31.9844 42.3462 32.8798 42.3462 33.9844C42.3462 38.1779 45.7466 41.5784 49.9402 41.5784C54.1345 41.5784 57.5343 38.1783 57.5343 33.9844C57.5343 32.8798 56.6389 31.9844 55.5343 31.9844C54.4297 31.9844 53.5343 32.8798 53.5343 33.9844ZM55.4363 53.9097C56.5409 53.9097 57.4363 53.0143 57.4363 51.9097C57.4363 50.8051 56.5409 49.9097 55.4363 49.9097H29.3833C28.2787 49.9097 27.3833 50.8051 27.3833 51.9097V62.2866C27.3832 63.2295 27.6053 64.1592 28.0315 65.0002L33.9995 76.7682C34.2841 77.3288 34.4323 77.9488 34.4322 78.5775V97.8405C34.4322 98.9451 35.3276 99.8405 36.4322 99.8405C37.5368 99.8405 38.4322 98.9451 38.4322 97.8405V78.5775C38.4324 77.3198 38.1358 76.0797 37.5665 74.9581L31.5989 63.1909C31.457 62.9106 31.3831 62.6007 31.3832 62.2865V53.9096L55.4363 53.9097ZM59.4322 97.8406V80.3356C59.4322 79.6399 59.5774 78.9517 59.8586 78.3153C60.1398 77.6789 60.5508 77.1082 61.0653 76.6397L65.603 72.5062C66.4264 71.7565 67.0841 70.8433 67.5341 69.8248C67.9841 68.8063 68.2164 67.7051 68.2162 66.5916V56.3026C68.2162 55.198 67.3208 54.3026 66.2162 54.3026C65.1116 54.3026 64.2162 55.198 64.2162 56.3026V66.5916C64.2164 67.1483 64.1002 67.6989 63.8753 68.2081C63.6503 68.7173 63.3215 69.1739 62.9099 69.5486L58.3724 73.6821C57.4461 74.5254 56.7061 75.5528 56.1999 76.6985C55.6936 77.8442 55.4321 79.083 55.4322 80.3356V97.8406C55.4322 98.9452 56.3276 99.8406 57.4322 99.8406C58.5368 99.8406 59.4322 98.9452 59.4322 97.8406Z" fill="#A61E3E"/>
<path d="M58.1748 57.0236V49.3906C58.1748 47.7336 59.518 46.3906 61.1748 46.3906C62.8736 46.3906 64.2168 47.7336 64.2168 49.3906V59.0236C64.2168 60.1282 65.1122 61.0236 66.2168 61.0236C67.3214 61.0236 68.2168 60.1282 68.2168 59.0236V49.3906C68.2168 45.5243 65.0826 42.3906 61.2168 42.3906C57.309 42.3906 54.1748 45.5243 54.1748 49.3906V57.0236C54.1748 58.1282 55.0702 59.0236 56.1748 59.0236C57.2794 59.0236 58.1748 58.1282 58.1748 57.0236Z" fill="#A61E3E"/>
</svg>
