<svg width="50" height="50" viewBox="0 0 50 50" fill="none" xmlns="http://www.w3.org/2000/svg">
<path d="M32.4908 22.4991V27.5009H40V37.5046H45V24.9908C44.9988 24.6623 44.933 24.3373 44.8063 24.0343C44.6795 23.7314 44.4944 23.4563 44.2613 23.2249C44.0283 22.9936 43.752 22.8104 43.4482 22.6858C43.1444 22.5613 42.8191 22.4978 42.4908 22.4991H32.4908Z" fill="#87AADE"/>
<path d="M5 12.4954V24.9908C4.99873 25.3208 5.06277 25.6477 5.18842 25.9529C5.31407 26.258 5.49885 26.5352 5.7321 26.7685C5.96536 27.0019 6.24248 27.1867 6.54748 27.3124C6.85249 27.4381 7.17935 27.5022 7.50922 27.5009H17.5092V22.4991H10V12.4954H5Z" fill="#87AADE"/>
<path d="M22.4908 32.5028V39.9963H12.5092V44.9981H25C25.6599 44.9958 26.2921 44.7325 26.7587 44.2658C27.2253 43.799 27.4884 43.1666 27.4908 42.5064V32.5028H22.4908Z" fill="#87AADE"/>
<path d="M25 5.00185C24.6717 5.00058 24.3463 5.06404 24.0425 5.18858C23.7387 5.31313 23.4624 5.49633 23.2294 5.72771C22.9964 5.9591 22.8112 6.23414 22.6845 6.53712C22.5578 6.84011 22.4919 7.16511 22.4908 7.49355V17.4972H27.4908V9.98524H37.4908V5.00185H25Z" fill="#87AADE"/>
<path d="M40 0C37.2739 0 35 2.27476 35 5.00184V9.98524C35 12.7123 37.2739 14.9871 40 14.9871H45C47.7261 14.9871 50 12.7123 50 9.98524V5.00184C50 2.27476 47.7261 0 45 0H40Z" fill="#3771C8"/>
<path d="M5 0C2.27392 0 9.44882e-06 2.27477 0 5.00184V9.98524C9.44882e-06 12.7123 2.27392 14.9871 5 14.9871H10C12.7261 14.9871 15 12.7123 15 9.98524V5.00184C15 2.27477 12.7261 0 10 0H5Z" fill="#3771C8"/>
<path d="M5 34.9944C2.27392 34.9944 9.44882e-06 37.2692 0 39.9963V44.9981C9.44882e-06 47.7252 2.27392 50 5 50H10C12.7261 50 15 47.7252 15 44.9981V39.9963C15 37.2692 12.7261 34.9944 10 34.9944H5Z" fill="#3771C8"/>
<path d="M40 34.9944C37.2739 34.9944 35 37.2692 35 39.9963V44.9981C35 47.7252 37.2739 50 40 50H45C47.7261 50 50 47.7252 50 44.9981V39.9963C50 37.2692 47.7261 34.9944 45 34.9944H40Z" fill="#3771C8"/>
<path d="M20 14.9871C17.2739 14.9871 15 17.2618 15 19.9889V29.9926C15 32.7197 17.2739 34.9944 20 34.9944H30C32.7261 34.9944 35 32.7197 35 29.9926V19.9889C35 17.2618 32.7261 14.9871 30 14.9871H20Z" fill="#3771C8"/>
</svg>
