<svg width="50" height="69" viewBox="0 0 50 69" fill="none" xmlns="http://www.w3.org/2000/svg">
<path d="M47.7273 27.2727H45.4545V18.1818C45.4545 14.4318 42.3864 11.3636 38.6364 11.3636H6.81818C3.06818 11.3636 0 14.4318 0 18.1818V50C0 53.75 3.06818 56.8182 6.81818 56.8182H38.6364C42.3864 56.8182 45.4545 53.75 45.4545 50V40.9091H47.7273C48.9834 40.9091 50 39.8925 50 38.6364V29.5455C50 28.2893 48.9834 27.2727 47.7273 27.2727ZM19.3182 44.3182C19.3182 42.4318 20.8409 40.9091 22.7273 40.9091C24.6136 40.9091 26.1364 42.4318 26.1364 44.3182C26.1364 46.2045 24.6136 47.7273 22.7273 47.7273C20.8409 47.7273 19.3182 46.2045 19.3182 44.3182ZM25 33.6818V36.3636C25 37.6136 23.9773 38.6364 22.7273 38.6364C21.4773 38.6364 20.4545 37.6136 20.4545 36.3636V31.8182C20.4545 30.5682 21.4773 29.5455 22.7273 29.5455C23.9773 29.5455 25 28.5227 25 27.2727C25 26.0227 23.9773 25 22.7273 25C21.4773 25 20.4545 26.0227 20.4545 27.2727C20.4545 28.5227 19.4318 29.5455 18.1818 29.5455C16.9318 29.5455 15.9091 28.5227 15.9091 27.2727C15.9091 23.5227 18.9773 20.4545 22.7273 20.4545C26.4773 20.4545 29.5455 23.5227 29.5455 27.2727C29.5455 30.2273 27.6364 32.75 25 33.6818Z" fill="#364F6B"/>
<path d="M35.0455 6.81818L34.0455 1.81818C33.8409 0.772727 32.9091 0 31.8182 0H13.6364C12.5455 0 11.6136 0.772727 11.4091 1.81818L10.4091 6.81818H35.0455Z" fill="#3FC1C9"/>
<path d="M10.4091 61.3636L11.4091 66.3636C11.6136 67.4091 12.5455 68.1818 13.6364 68.1818H31.8182C32.9091 68.1818 33.8409 67.4091 34.0455 66.3636L35.0455 61.3636H10.4091Z" fill="#3FC1C9"/>
</svg>
