<svg width="52" height="52" viewBox="0 0 52 52" fill="none" xmlns="http://www.w3.org/2000/svg">
<path d="M26.0996 51C39.9067 51 51.0996 39.8071 51.0996 26C51.0996 12.1929 39.9067 1 26.0996 1C12.2925 1 1.09961 12.1929 1.09961 26C1.09961 39.8071 12.2925 51 26.0996 51Z" fill="#EEEDF2"/>
<path d="M4.81641 50.918H46.4213" stroke="#1E247E" stroke-width="0.5" stroke-miterlimit="10" stroke-linecap="round"/>
<path d="M1.13477 50.918H3.21906" stroke="#1E247E" stroke-width="0.5" stroke-miterlimit="10" stroke-linecap="round"/>
<path d="M29.9787 32.9819H23.4826C18.5498 32.9819 14.6475 28.8133 14.937 23.892C15.1454 20.3487 15.6897 17.118 16.1181 15.9717C17.1255 13.2968 21.1204 6.91654 30.0018 10.0198C30.0018 10.0198 35.8495 8.73451 37.5169 16.2148C38.0264 18.496 38.3854 21.2171 38.5475 23.9267C38.8485 28.848 34.8999 32.9819 29.9787 32.9819Z" fill="#EFC12F" stroke="#1E247E" stroke-width="0.5" stroke-miterlimit="10" stroke-linecap="round"/>
<path d="M24.2812 16.8626C25.2192 16.6889 26.2729 16.3763 27.4077 15.832" stroke="#1E247E" stroke-width="0.5" stroke-miterlimit="10" stroke-linecap="round"/>
<path d="M22.7305 17.0499C22.9852 17.0384 23.2631 17.0152 23.541 16.9805" stroke="#1E247E" stroke-width="0.5" stroke-miterlimit="10" stroke-linecap="round"/>
<path d="M32.6074 16.5742C32.8506 17.0721 33.2906 17.5816 33.7885 17.9638C34.0548 18.1722 34.2633 18.4269 34.4138 18.728" fill="white"/>
<path d="M32.6074 16.5742C32.8506 17.0721 33.2906 17.5816 33.7885 17.9638C34.0548 18.1722 34.2633 18.4269 34.4138 18.728" stroke="#1E247E" stroke-width="0.5" stroke-miterlimit="10" stroke-linecap="round"/>
<path d="M17.3 28.1527C16.7557 27.4116 16.3852 26.5315 16.2578 25.582" stroke="#1E247E" stroke-width="0.5" stroke-miterlimit="10" stroke-linecap="round"/>
<path d="M20.6683 24.3698C20.3325 24.6824 19.7999 24.6477 19.4872 24.3119L18.6998 23.4434C18.3872 23.1076 18.4219 22.575 18.7577 22.2623C19.0935 21.9497 19.6262 21.9844 19.9388 22.3202L20.7262 23.1887C21.0389 23.5361 21.0157 24.0687 20.6683 24.3698Z" fill="#FCF5F2" stroke="#1E247E" stroke-width="0.5" stroke-miterlimit="10" stroke-linecap="round"/>
<path d="M32.5033 17.8959C33.2675 18.4865 33.7307 19.4012 33.7307 20.3623V21.115C33.7307 23.1298 33.1633 25.1099 32.0401 26.7773C31.3569 27.7848 30.4537 28.769 29.2726 29.3943C28.5315 29.788 27.6747 30.0312 26.702 30.0543H26.6209C25.6019 30.0427 24.7103 29.788 23.9229 29.3711C22.9618 28.8616 22.186 28.1206 21.5607 27.3332C20.1712 25.5615 19.4648 23.3382 19.4648 21.0918V20.6402C19.4648 19.4012 20.4723 18.2665 21.6997 18.0928C23.3903 17.8612 27.0031 18.2317 29.9674 15.7074C30.2337 15.4758 30.639 15.5684 30.7895 15.8811C31.1485 16.599 31.7738 17.3401 32.5033 17.8959Z" fill="#FCF5F2" stroke="#1E247E" stroke-width="0.5" stroke-miterlimit="10" stroke-linecap="round"/>
<path d="M23.6795 22.6203C24.3511 22.6203 24.3511 21.5781 23.6795 21.5781C23.0079 21.5781 23.0079 22.6203 23.6795 22.6203Z" fill="#1E247E"/>
<path d="M29.5037 22.6203C30.1753 22.6203 30.1753 21.5781 29.5037 21.5781C28.8321 21.5781 28.8321 22.6203 29.5037 22.6203Z" fill="#1E247E"/>
<path d="M27.3967 23.4648C27.2693 23.6964 26.9566 23.8701 26.5861 23.8701C26.2271 23.8701 25.9261 23.708 25.7871 23.488" stroke="#1E247E" stroke-width="0.5" stroke-miterlimit="10" stroke-linecap="round"/>
<path d="M22.5098 20.5494C22.5098 20.5494 23.5751 20.0515 24.5709 20.5494" stroke="#1E247E" stroke-width="0.5" stroke-miterlimit="10" stroke-linecap="round"/>
<path d="M30.6607 20.5494C30.6607 20.5494 29.5954 20.0515 28.5996 20.5494" stroke="#1E247E" stroke-width="0.5" stroke-miterlimit="10" stroke-linecap="round"/>
<path d="M22.5568 24.6108C23.1771 24.6108 23.68 24.2738 23.68 23.8581C23.68 23.4424 23.1771 23.1055 22.5568 23.1055C21.9365 23.1055 21.4336 23.4424 21.4336 23.8581C21.4336 24.2738 21.9365 24.6108 22.5568 24.6108Z" fill="#EAB8B1"/>
<path d="M30.6271 24.6108C31.2474 24.6108 31.7503 24.2738 31.7503 23.8581C31.7503 23.4424 31.2474 23.1055 30.6271 23.1055C30.0068 23.1055 29.5039 23.4424 29.5039 23.8581C29.5039 24.2738 30.0068 24.6108 30.6271 24.6108Z" fill="#EAB8B1"/>
<path d="M28.1151 25.6768L27.8835 26.2557L27.8603 26.3136C27.814 26.4294 27.7445 26.5452 27.6403 26.7073C27.6056 26.7536 27.5708 26.8 27.5361 26.8463C27.4435 26.9505 27.3161 27.0547 27.1771 27.1358C27.1655 27.1473 27.154 27.1473 27.1308 27.1589C27.0729 27.1937 27.015 27.2168 26.9571 27.24C26.8992 27.2631 26.8297 27.2863 26.7603 27.3095C26.7024 27.3326 26.6445 27.3326 26.5866 27.3326C26.5287 27.3326 26.4708 27.321 26.4129 27.3095C26.3434 27.2863 26.2739 27.2631 26.216 27.24C26.1581 27.2168 26.1002 27.1821 26.0423 27.1589C26.0308 27.1473 26.0192 27.1473 25.996 27.1358C25.8571 27.0547 25.7297 26.9505 25.6371 26.8463C25.5907 26.8 25.556 26.7536 25.5213 26.6958C25.4286 26.5684 25.3592 26.4294 25.3128 26.3136L25.0581 25.6768C25.0118 25.561 25.0928 25.4336 25.2202 25.4336H27.9529C28.0803 25.4336 28.1614 25.561 28.1151 25.6768Z" fill="#DC9695" stroke="#1E247E" stroke-width="0.5" stroke-miterlimit="10" stroke-linecap="round"/>
<path d="M27.5247 26.858C27.5016 26.8927 27.4437 26.9506 27.3974 26.9854C27.3047 27.0664 27.2005 27.1243 27.0847 27.1938C27.0731 27.2054 27.05 27.2169 27.0384 27.2169C26.9921 27.2401 26.9458 27.2517 26.8994 27.2748C26.8531 27.298 26.7952 27.3096 26.7373 27.3327C26.691 27.3443 26.6447 27.3559 26.5984 27.3559C26.5521 27.3559 26.5057 27.3443 26.4594 27.3327C26.4015 27.3212 26.3436 27.298 26.2973 27.2748C26.251 27.2517 26.2047 27.2401 26.1584 27.2169C26.1468 27.2054 26.1236 27.2054 26.112 27.1938C25.9962 27.1243 25.8689 27.0548 25.7878 26.9738C25.7531 26.939 25.7068 26.9159 25.6836 26.8696C25.7531 26.638 26.031 26.418 26.2857 26.418C26.4363 26.418 26.5868 26.4759 26.6794 26.5801C26.691 26.5917 26.691 26.5917 26.7026 26.5801C26.7836 26.5222 26.8763 26.4874 26.9921 26.4874C27.2005 26.4874 27.4552 26.6611 27.5247 26.858Z" fill="#EECED1" stroke="#1E247E" stroke-width="0.5" stroke-miterlimit="10" stroke-linecap="round"/>
<path d="M26.668 26.5703C26.668 26.5703 26.7838 26.6629 26.8417 26.8482L26.668 26.5703Z" fill="#CB7272"/>
<path d="M26.668 26.5703C26.668 26.5703 26.7838 26.6629 26.8417 26.8482" stroke="#1E247E" stroke-width="0.5" stroke-miterlimit="10" stroke-linecap="round"/>
<path d="M33.9743 50.7563H19.2106C17.5894 50.7563 16.2578 49.4247 16.2578 47.8036V38.5516C16.2578 34.2904 19.7201 30.8281 23.9813 30.8281H29.2152C33.4764 30.8281 36.9387 34.2904 36.9387 38.5516V47.8036C36.9271 49.4247 35.607 50.7563 33.9743 50.7563Z" fill="#D3D5E7" stroke="#1E247E" stroke-width="0.5" stroke-miterlimit="10" stroke-linecap="round"/>
<path d="M29.2717 29.3903V31.4746C29.2717 31.5441 29.237 31.6136 29.1907 31.6483C26.8285 33.5705 24.501 32.0073 24.0262 31.6483C23.9683 31.602 23.9336 31.5325 23.9336 31.4631V29.3672C24.7094 29.7725 25.601 30.0388 26.6316 30.0504H26.7127C27.6737 30.0272 28.519 29.7725 29.2717 29.3903Z" fill="#FCF5F2" stroke="#1E247E" stroke-width="0.5" stroke-miterlimit="10" stroke-linecap="round"/>
<path d="M36.788 22.698V23.6244C36.788 24.9328 35.7227 25.9981 34.4142 25.9981H32.6426V25.7202C33.3605 24.296 33.7195 22.7212 33.7195 21.1116V20.3242H34.4142C35.7227 20.3242 36.788 21.3895 36.788 22.698Z" fill="#D3D5E7" stroke="#1E247E" stroke-width="0.5" stroke-miterlimit="10" stroke-linecap="round"/>
<path d="M28.4277 27.5864H32.8858C33.4764 27.5864 33.9511 27.1116 33.9511 26.5211V26.4516V26" stroke="#1E247E" stroke-width="0.5" stroke-miterlimit="10" stroke-linecap="round"/>
<path d="M28.728 28.0971H28.2185C27.9406 28.0971 27.709 27.8655 27.709 27.5876C27.709 27.3097 27.9406 27.0781 28.2185 27.0781H28.728C29.0059 27.0781 29.2375 27.3097 29.2375 27.5876C29.2375 27.8655 29.0059 28.0971 28.728 28.0971Z" fill="#D3D5E7" stroke="#1E247E" stroke-width="0.5" stroke-miterlimit="10" stroke-linecap="round"/>
<path d="M17.9704 3.8954V10.9357C17.9704 11.9778 17.1251 12.8116 16.0946 12.8116V15.3127C16.0946 15.4517 15.944 15.5327 15.8282 15.4633L11.6481 12.8116H3.26454C2.22239 12.8116 1.38867 11.9663 1.38867 10.9357V3.8954C1.38867 2.85325 2.23397 2.01953 3.26454 2.01953H16.0946C17.1367 2.01953 17.9704 2.85325 17.9704 3.8954Z" fill="#D3D5E7"/>
<path d="M17.1028 2.94702V9.73256C17.1028 10.7284 16.2922 11.539 15.2964 11.539V13.9475C15.2964 14.0749 15.1459 14.1559 15.0417 14.0864L11.012 11.539H2.94116C1.94533 11.539 1.13477 10.7284 1.13477 9.73256V2.94702C1.13477 1.95119 1.94533 1.14062 2.94116 1.14062H15.2964C16.2922 1.14062 17.1028 1.95119 17.1028 2.94702Z" fill="white" stroke="#1E247E" stroke-width="0.5" stroke-miterlimit="10" stroke-linecap="round"/>
<path d="M2.84961 7.71875H5.67499" stroke="#1E247E" stroke-width="0.5" stroke-miterlimit="10" stroke-linecap="round"/>
<path d="M2.84961 6.64062H8.50037" stroke="#1E247E" stroke-width="0.5" stroke-miterlimit="10" stroke-linecap="round"/>
<path d="M2.84961 5.56641H8.50037" stroke="#1E247E" stroke-width="0.5" stroke-miterlimit="10" stroke-linecap="round"/>
<path d="M2.84961 4.48828H8.50037" stroke="#1E247E" stroke-width="0.5" stroke-miterlimit="10" stroke-linecap="round"/>
<path d="M14.5442 9.74606H11.3251C10.8272 9.74606 10.4219 9.34078 10.4219 8.84287V4.1532C10.4219 3.65528 10.8272 3.25 11.3251 3.25H14.5442C15.0421 3.25 15.4474 3.65528 15.4474 4.1532V8.84287C15.4589 9.34078 15.0536 9.74606 14.5442 9.74606Z" fill="#ECECEE"/>
<path d="M14.116 8.75799H11.8811C11.8001 8.75799 11.7422 8.70009 11.7422 8.61904V7.69268C11.7422 7.03265 12.2748 6.5 12.9349 6.5H13.0738C13.7339 6.5 14.2665 7.03265 14.2665 7.69268V8.61904C14.2549 8.68851 14.1854 8.75799 14.116 8.75799Z" fill="#DA867D" stroke="#1E247E" stroke-width="0.5" stroke-miterlimit="10" stroke-linecap="round"/>
<path d="M12.9919 5.69087C13.3628 5.69087 13.6635 5.39018 13.6635 5.01926C13.6635 4.64835 13.3628 4.34766 12.9919 4.34766C12.621 4.34766 12.3203 4.64835 12.3203 5.01926C12.3203 5.39018 12.621 5.69087 12.9919 5.69087Z" fill="#FCF5F2" stroke="#1E247E" stroke-width="0.5" stroke-miterlimit="10" stroke-linecap="round"/>
<path d="M1.94531 2.77289C2.04953 2.47183 2.25796 2.22866 2.52428 2.07812" stroke="#1E247E" stroke-width="0.5" stroke-miterlimit="10" stroke-linecap="round"/>
<path d="M40.6658 50.8935H12.5278C11.2077 50.8935 10.1309 49.8166 10.1309 48.4965V47.6628C10.1309 47.6049 10.1772 47.5586 10.2351 47.5586H42.9586C43.0165 47.5586 43.0628 47.6049 43.0628 47.6628V48.4965C43.0628 49.8166 41.9859 50.8935 40.6658 50.8935Z" fill="#D3D5E7" stroke="#1E247E" stroke-width="0.5" stroke-miterlimit="10" stroke-linecap="round"/>
<path d="M38.1995 50.8946H15.087C13.8827 50.8946 12.8984 49.9103 12.8984 48.706V34.8223C12.8984 33.838 13.6974 33.0391 14.6817 33.0391H38.6048C39.589 33.0391 40.388 33.838 40.388 34.8223V48.706C40.388 49.9103 39.4038 50.8946 38.1995 50.8946Z" fill="#69AEF8" stroke="#1E247E" stroke-width="0.5" stroke-miterlimit="10" stroke-linecap="round"/>
<path opacity="0.4" d="M28.6111 42.2107C28.6111 43.0213 28.1248 43.716 27.43 44.0055C27.4763 43.9013 27.4995 43.7855 27.4995 43.6697C27.4995 43.1718 27.0942 42.7665 26.5963 42.7665C26.0984 42.7665 25.6931 43.1718 25.6931 43.6697C25.6931 43.7623 25.7047 43.855 25.7394 43.936C25.1141 43.6118 24.6973 42.9518 24.6973 42.1991C24.6973 41.1106 25.5773 40.2422 26.6542 40.2422C27.7311 40.2422 28.6111 41.1222 28.6111 42.2107Z" fill="white"/>
<path opacity="0.7" d="M27.488 43.6688C27.488 43.7846 27.4649 43.9004 27.4186 44.0046C27.1754 44.1088 26.9206 44.1667 26.6427 44.1667C26.3069 44.1667 26.0059 44.0857 25.728 43.9351C25.7048 43.8541 25.6816 43.7615 25.6816 43.6688C25.6816 43.1709 26.0869 42.7656 26.5848 42.7656C27.0943 42.7772 27.488 43.1709 27.488 43.6688Z" fill="white"/>
<path d="M38.1543 33.8281C38.8143 33.8281 39.3586 34.3724 39.3586 35.0324" stroke="#1E247E" stroke-width="0.5" stroke-miterlimit="10" stroke-linecap="round"/>
<path d="M39.3691 41.0742V43.1701" stroke="#1E247E" stroke-width="0.5" stroke-miterlimit="10" stroke-linecap="round"/>
<path d="M17.6465 40.1367L18.4107 40.7273" stroke="#1E247E" stroke-width="0.5" stroke-miterlimit="10" stroke-linecap="round"/>
<path d="M17.6465 39.418L19.1634 40.5759" stroke="#1E247E" stroke-width="0.5" stroke-miterlimit="10" stroke-linecap="round"/>
<path d="M18.7461 39.5117L19.163 39.8359" stroke="#1E247E" stroke-width="0.5" stroke-miterlimit="10" stroke-linecap="round"/>
<path d="M43.2363 32.7852L42.2637 33.0631" stroke="white" stroke-width="0.5" stroke-miterlimit="10" stroke-linecap="round"/>
<path d="M42.1938 31.3828L41.418 32.205" stroke="white" stroke-width="0.5" stroke-miterlimit="10" stroke-linecap="round"/>
<path d="M40.4219 31.499L40.5956 30.4453" stroke="white" stroke-width="0.5" stroke-miterlimit="10" stroke-linecap="round"/>
</svg>
