<svg width="50" height="53" viewBox="0 0 50 53" fill="none" xmlns="http://www.w3.org/2000/svg">
<path d="M6.81818 40.9091C5.00989 40.9091 3.27566 40.1908 1.997 38.9121C0.718342 37.6334 0 35.8992 0 34.0909V6.81818C0 5.00989 0.718342 3.27566 1.997 1.997C3.27566 0.718342 5.00989 0 6.81818 0H43.1818C44.9901 0 46.7243 0.718342 48.003 1.997C49.2817 3.27566 50 5.00989 50 6.81818V34.0909C50 35.8992 49.2817 37.6334 48.003 38.9121C46.7243 40.1908 44.9901 40.9091 43.1818 40.9091H6.81818Z" fill="url(#paint0_linear_528_1516)"/>
<path d="M33.4477 20.5205L42.4386 12.3386C42.8847 11.933 43.1513 11.3667 43.1799 10.7645C43.2084 10.1622 42.9966 9.57332 42.5909 9.12728C42.1852 8.68123 41.619 8.4146 41.0168 8.38604C40.4145 8.35749 39.8256 8.56934 39.3795 8.975L28.0682 19.2705C27.229 20.0346 26.1349 20.4582 25 20.4582C23.865 20.4582 22.7709 20.0346 21.9318 19.2705L10.6205 8.97728C10.1744 8.57162 9.58548 8.35976 8.98323 8.38832C8.38099 8.41687 7.81475 8.6835 7.40909 9.12955C7.00343 9.5756 6.79157 10.1645 6.82013 10.7668C6.84869 11.369 7.11531 11.9353 7.56136 12.3409L16.5545 20.5227L7.56363 28.6818C7.33289 28.8796 7.14417 29.1217 7.00863 29.3937C6.8731 29.6658 6.7935 29.9622 6.77454 30.2655C6.75559 30.5689 6.79766 30.8729 6.89828 31.1597C6.9989 31.4465 7.15602 31.7102 7.36034 31.9352C7.56466 32.1602 7.81203 32.3419 8.08782 32.4696C8.36361 32.5973 8.66221 32.6684 8.96596 32.6787C9.26971 32.689 9.57243 32.6382 9.85623 32.5295C10.14 32.4207 10.3991 32.2561 10.6182 32.0455L20.0341 23.5C21.5045 24.481 23.2324 25.0045 25 25.0045C26.7676 25.0045 28.4955 24.481 29.9659 23.5L39.3818 32.0455C39.8309 32.4305 40.4124 32.6252 41.0028 32.5883C41.5931 32.5514 42.1459 32.2858 42.5435 31.8479C42.9412 31.41 43.1525 30.8343 43.1325 30.2431C43.1124 29.6519 42.8627 29.0918 42.4364 28.6818L33.4477 20.5205Z" fill="#ED960A"/>
<path d="M31.1523 43.8477C30.7261 43.4217 30.1481 43.1823 29.5455 43.1823C28.9428 43.1823 28.3649 43.4217 27.9387 43.8477L27.2728 44.5136V31.8182C27.2728 31.2154 27.0333 30.6373 26.6071 30.2111C26.1809 29.7849 25.6028 29.5455 25 29.5455C24.3973 29.5455 23.8192 29.7849 23.393 30.2111C22.9667 30.6373 22.7273 31.2154 22.7273 31.8182V44.5136L22.0614 43.8477C21.6327 43.4337 21.0587 43.2047 20.4627 43.2098C19.8668 43.215 19.2968 43.454 18.8754 43.8754C18.4541 44.2968 18.215 44.8668 18.2099 45.4627C18.2047 46.0586 18.4338 46.6327 18.8478 47.0614L23.3932 51.6068C23.8194 52.0329 24.3974 52.2722 25 52.2722C25.6027 52.2722 26.1806 52.0329 26.6068 51.6068L31.1523 47.0614C31.5784 46.6352 31.8177 46.0572 31.8177 45.4545C31.8177 44.8519 31.5784 44.2739 31.1523 43.8477Z" fill="url(#paint1_linear_528_1516)"/>
<defs>
<linearGradient id="paint0_linear_528_1516" x1="25" y1="0.371714" x2="25" y2="52.1648" gradientUnits="userSpaceOnUse">
<stop stop-color="#FFF650"/>
<stop offset="1" stop-color="#FFAB17"/>
</linearGradient>
<linearGradient id="paint1_linear_528_1516" x1="24.9998" y1="29.3045" x2="24.9998" y2="51.8432" gradientUnits="userSpaceOnUse">
<stop stop-color="#FF4867"/>
<stop offset="1" stop-color="#E50031"/>
</linearGradient>
</defs>
</svg>
