<svg width="50" height="56" viewBox="0 0 50 56" fill="none" xmlns="http://www.w3.org/2000/svg">
<path d="M41.1318 6.85912C40.9097 6.85912 40.7014 6.80358 40.4931 6.70638C35.1752 3.95718 30.5516 2.77697 25.0254 2.77697C19.5131 2.77697 14.3202 4.09603 9.55769 6.6925C8.87733 7.05351 8.04424 6.81746 7.66935 6.13711C7.30834 5.45675 7.54439 4.62366 8.22474 4.24877C13.4038 1.43014 19.0549 0 25.0254 0C30.9404 0 36.1055 1.30518 41.7706 4.23488C42.4509 4.582 42.7147 5.42898 42.3676 6.10934C42.1177 6.58142 41.6317 6.85912 41.1318 6.85912ZM1.39339 21.4382C1.1157 21.4382 0.838 21.3549 0.588073 21.1883C-0.0367457 20.744 -0.189479 19.8831 0.254836 19.2583C3.00404 15.3705 6.5169 12.3159 10.6824 10.1637C19.4159 5.65113 30.5794 5.63725 39.3268 10.1359C43.4784 12.2742 46.9774 15.3011 49.7405 19.1611C50.1848 19.7859 50.0459 20.6468 49.4211 21.0911C48.7963 21.5354 47.9215 21.3966 47.4772 20.7717C44.978 17.2728 41.8122 14.5236 38.0633 12.6074C30.0934 8.51142 19.9158 8.5253 11.9598 12.6352C8.19697 14.5791 5.01734 17.3422 2.53195 20.8689C2.25426 21.2438 1.82382 21.4382 1.39339 21.4382ZM18.7633 54.9424C18.4023 54.9424 18.0552 54.8035 17.7775 54.5258C15.3754 52.096 14.0703 50.5548 12.1958 47.2085C10.2797 43.7928 9.26611 39.6135 9.26611 35.1426C9.26611 26.895 16.3196 20.1747 24.9976 20.1747C33.6757 20.1747 40.7292 26.8811 40.7292 35.1426C40.7292 35.9062 40.1044 36.5311 39.3407 36.5311C38.577 36.5311 37.9522 35.9062 37.9522 35.1426C37.9522 28.4223 32.1483 22.9517 24.9976 22.9517C17.8608 22.9517 12.0431 28.4223 12.0431 35.1426C12.0431 39.1414 12.9317 42.8348 14.6118 45.8478C16.4029 49.0413 17.597 50.4159 19.7353 52.5681C20.2768 53.1096 20.2768 53.9982 19.7214 54.5258C19.4715 54.8174 19.1105 54.9424 18.7633 54.9424ZM38.6603 49.805C35.3557 49.805 32.4538 48.9719 30.0517 47.3474C25.9279 44.5426 23.4564 39.9884 23.4564 35.1565C23.4564 34.3928 24.0812 33.768 24.8449 33.768C25.6086 33.768 26.2334 34.3928 26.2334 35.1565C26.2334 39.0581 28.2467 42.7515 31.6207 45.0425C33.5785 46.3754 35.8834 47.028 38.6603 47.028C39.3268 47.028 40.4515 46.9586 41.5623 46.7642C42.3121 46.6253 43.0341 47.1391 43.1729 47.8889C43.3118 48.6386 42.798 49.3607 42.0482 49.4995C40.4237 49.7911 39.0491 49.805 38.6603 49.805ZM33.0647 55.5394C32.9398 55.5394 32.8148 55.5255 32.7037 55.4839C28.2745 54.2759 25.3864 52.6375 22.3873 49.6522C18.5134 45.7922 16.3752 40.641 16.3752 35.1565C16.3752 30.6439 20.2074 26.9783 24.9282 26.9783C29.6491 26.9783 33.4813 30.6439 33.4813 35.1565C33.4813 38.1278 36.0778 40.5577 39.2574 40.5577C42.437 40.5577 45.0335 38.1417 45.0335 35.1565C45.0335 24.6873 36.0083 16.1759 24.9143 16.1759C17.0139 16.1759 9.80762 20.5635 6.55856 27.367C5.47554 29.6164 4.93403 32.2406 4.93403 35.1565C4.93403 37.3225 5.12842 40.7382 6.78072 45.1674C7.04453 45.8894 6.68352 46.6809 5.96151 46.9586C5.2395 47.2224 4.44806 46.8614 4.17036 46.1394C2.80965 42.4877 2.14318 38.9054 2.14318 35.1565C2.14318 31.8241 2.78188 28.7972 4.0454 26.173C7.75266 18.4252 15.9447 13.4128 24.9005 13.4128C37.5218 13.4128 47.7966 23.1738 47.7966 35.1703C47.7966 39.6829 43.9505 43.3485 39.2435 43.3485C34.5365 43.3485 30.6904 39.6829 30.6904 35.1703C30.6904 32.199 28.094 29.7691 24.9143 29.7691C21.7347 29.7691 19.1382 32.1851 19.1382 35.1703C19.1382 39.9051 20.9849 44.3621 24.3312 47.6945C26.9554 50.3048 29.5102 51.7489 33.4258 52.818C34.1617 53.0263 34.606 53.7899 34.3977 54.5258C34.2311 55.1368 33.6757 55.5394 33.0647 55.5394Z" fill="black"/>
</svg>
