<svg width="52" height="52" viewBox="0 0 52 52" fill="none" xmlns="http://www.w3.org/2000/svg">
<path d="M34.3333 51H17.6667M34.3333 51V27.6667C34.3333 26.7461 33.5872 26 32.6667 26H19.3333C18.4129 26 17.6667 26.7461 17.6667 27.6667V51M34.3333 51H49.3333C50.2539 51 51 50.2539 51 49.3333V42.9444C51 42.0239 50.2539 41.2778 49.3333 41.2778H36C35.0794 41.2778 34.3333 42.0239 34.3333 42.9444V51ZM17.6667 51V37.3889C17.6667 36.4683 16.9205 35.7222 16 35.7222H2.66667C1.74619 35.7222 1 36.4683 1 37.3889V49.3333C1 50.2539 1.74619 51 2.66667 51H17.6667ZM22.6822 6.87014L25.2075 1.51556C25.5317 0.828146 26.4683 0.828146 26.7925 1.51556L29.3178 6.87014L34.9653 7.73409C35.69 7.84495 35.9786 8.77715 35.4542 9.31192L31.3683 13.477L32.3325 19.3611C32.4564 20.1167 31.6986 20.6931 31.0503 20.3361L26 17.5564L20.9497 20.3361C20.3014 20.6931 19.5436 20.1167 19.6674 19.3611L20.6317 13.477L16.5459 9.31192C16.0213 8.77715 16.3101 7.84495 17.0347 7.73409L22.6822 6.87014Z" stroke="black" stroke-width="2" stroke-linecap="round" stroke-linejoin="round"/>
</svg>
