<svg width="50" height="36" viewBox="0 0 50 36" fill="none" xmlns="http://www.w3.org/2000/svg">
<path d="M16.6748 30.3816H2.64548C1.78101 30.3816 1.08319 31.0795 1.08319 31.9439V33.2771H18.2371V31.9439C18.2371 31.0795 17.5393 30.3816 16.6748 30.3816Z" fill="#FBD872"/>
<path d="M18.3309 33.2771H0.98945C0.437441 33.2771 0 33.7145 0 34.2665C0 34.8081 0.437441 35.256 0.98945 35.256H18.3309C18.8725 35.256 19.3203 34.8185 19.3203 34.2665C19.3203 33.7145 18.8725 33.2771 18.3309 33.2771Z" fill="#F6AF62"/>
<path d="M47.2228 22.8618L16.404 12.9048L18.5183 7.4368L8.19681 3.43734L2.41634 18.3832L12.7379 22.3827L14.8522 16.9147L44.3482 30.2983C46.4417 31.2461 48.8997 30.2462 49.7329 28.1007C50.5557 25.9656 49.41 23.57 47.2228 22.8618Z" fill="#F38E7A"/>
<path d="M0.124983 19.4248C-0.229136 20.3413 0.229137 21.3828 1.14568 21.737L11.4151 25.7156C12.3317 26.0697 13.3732 25.6114 13.7273 24.6949C14.0814 23.7784 13.6232 22.7368 12.7066 22.3827L2.43717 18.4041C1.51021 18.0395 0.479102 18.4978 0.124983 19.4248Z" fill="#DB7767"/>
<path d="M7.19695 1.14598C6.84283 2.06252 7.3011 3.10405 8.21765 3.45817L18.4871 7.4368C19.4036 7.79092 20.4452 7.33265 20.7993 6.4161C21.1534 5.49956 20.6951 4.45803 19.7786 4.10391L9.50914 0.125281C8.59259 -0.239253 7.55107 0.219019 7.19695 1.14598Z" fill="#DB7767"/>
</svg>
