<svg width="50" height="32" viewBox="0 0 50 32" fill="none" xmlns="http://www.w3.org/2000/svg">
<path d="M41.8382 17.0955L36.9325 7.259C36.877 7.15025 36.8035 7.049 36.71 6.96425C36.6162 6.87975 36.5112 6.81775 36.4017 6.7785L30.6493 4.711C30.2485 4.567 29.8193 4.48975 29.3725 4.49375C28.9262 4.4985 28.499 4.58425 28.1003 4.736L23.7355 6.401C23.4282 6.5185 23.1232 6.6535 22.8225 6.80725C22.722 6.85925 22.6232 6.9155 22.525 6.97075C22.1955 6.79225 21.8515 6.635 21.4925 6.50125C20.3475 6.07325 19.175 5.92875 18.0403 6.02575L15.1038 6.27775C14.976 6.28875 14.847 6.32825 14.7265 6.399C14.606 6.47 14.5065 6.56575 14.4283 6.6765L7.81625 16.0893C7.68 16.2825 7.60725 16.5285 7.6295 16.7887C7.65125 17.049 7.76325 17.2773 7.92875 17.4412L10.8048 20.2915C10.647 20.5802 10.547 20.9045 10.524 21.2515C10.4825 21.875 10.6873 22.477 11.0988 22.9468C11.5107 23.4163 12.0805 23.6975 12.7045 23.7383C12.7378 23.7405 12.7715 23.7405 12.8053 23.7418C12.5495 24.5685 12.7588 25.5075 13.425 26.138C13.8237 26.5155 14.335 26.7355 14.8783 26.7708C14.5282 27.6383 14.7175 28.6728 15.4327 29.3495C15.869 29.763 16.4395 29.9902 17.0408 29.9902C17.6668 29.9902 18.2507 29.7458 18.6917 29.3043C18.8557 30.3638 19.736 31.2085 20.8493 31.2812C20.9005 31.2847 20.953 31.287 21.0042 31.287C21.2887 31.287 21.5613 31.2333 21.8148 31.1388C22.2288 31.4148 22.7222 31.5668 23.2475 31.5455C23.893 31.5185 24.472 31.2337 24.905 30.7882L23.3232 29.21C23.327 29.1735 23.3338 29.1385 23.3353 29.1007C23.3558 28.7908 23.3133 28.4908 23.221 28.212L26.4583 31.441C26.8668 31.6073 27.3113 31.6905 27.7743 31.6718C28.7008 31.634 29.526 31.1965 30.1105 30.5195L30.4345 30.1438C30.4645 30.1083 30.4875 30.0683 30.5075 30.0253L25.5233 25.0548C25.3948 24.9275 25.3845 24.7157 25.4985 24.5825C25.6128 24.45 25.8107 24.4455 25.9382 24.5728L31.866 30.484C32.189 30.5973 32.5348 30.6525 32.894 30.6378C33.7085 30.6045 34.4352 30.2198 34.949 29.6235L35.7318 28.7175C35.9113 28.5085 36.0182 28.2265 36.0083 27.92L30.8065 22.734C30.6795 22.6065 30.668 22.3943 30.782 22.262C30.897 22.1293 31.0945 22.1247 31.2218 22.252L36.448 27.4633C36.6625 27.5205 36.8877 27.5485 37.1193 27.5393C37.787 27.5123 38.381 27.1973 38.8015 26.709L39.0117 26.4655C39.4325 25.9783 39.6805 25.3183 39.6553 24.6005C39.6297 23.883 39.3372 23.2455 38.8838 22.793L37.4885 21.402L37.841 21.753L41.6135 18.3465C41.7738 18.2025 41.89 18.0008 41.9325 17.7638C41.9748 17.527 41.9365 17.2932 41.8382 17.0955ZM12.77 22.7298C12.4163 22.7068 12.0927 22.5473 11.8585 22.2803C11.6245 22.014 11.509 21.6722 11.5325 21.3177C11.5773 20.622 12.1597 20.0772 12.8553 20.0772C12.8848 20.0772 12.9148 20.078 12.9443 20.0798C13.298 20.1033 13.6215 20.2625 13.8558 20.5295C14.0898 20.7962 14.2052 21.1378 14.1825 21.4923C14.134 22.2175 13.5037 22.7788 12.77 22.7298ZM15.0317 25.7673C14.691 25.7673 14.367 25.6388 14.1195 25.4045C13.5942 24.908 13.5658 24.0713 14.0533 23.5423C14.0785 23.516 14.5965 22.968 14.845 22.7065L14.9755 22.5677C15.229 22.3002 15.5715 22.1528 15.94 22.1528C16.281 22.1528 16.6052 22.282 16.8522 22.5168C17.11 22.7603 17.2578 23.0895 17.2673 23.4445C17.277 23.7983 17.148 24.1355 16.9045 24.3925L16.535 24.7833C16.456 24.8663 16.3713 24.956 16.2845 25.0475C16.2708 25.063 16.2555 25.0785 16.2423 25.093C16.1777 25.1608 16.1208 25.2208 16.0765 25.267C16.0513 25.2943 16.026 25.3215 16 25.348C15.9935 25.3548 15.9885 25.3605 15.988 25.3613C15.7365 25.6233 15.3962 25.7673 15.0317 25.7673ZM17.996 28.5738C17.7438 28.8358 17.4045 28.9798 17.0403 28.9798C16.6993 28.9798 16.3745 28.8505 16.1278 28.616C15.6028 28.1195 15.574 27.283 16.06 26.7565C16.0715 26.744 16.3758 26.422 16.7205 26.0583L16.9765 25.7878C17.4247 25.3132 17.5718 25.159 17.6213 25.1053C17.627 25.1 17.6338 25.0938 17.6385 25.0883L17.6395 25.0875C17.6828 25.0408 17.708 25.0147 17.7087 25.014C17.9618 24.7465 18.3048 24.5988 18.6735 24.5988C19.0145 24.5988 19.338 24.7277 19.5858 24.9622C19.8435 25.2062 19.9905 25.5358 20.0002 25.8898C20.01 26.245 19.881 26.582 19.6365 26.8403C19.6127 26.8653 18.0473 28.5193 17.996 28.5738ZM20.915 30.2738C20.1845 30.2253 19.629 29.5918 19.6772 28.8618C19.723 28.1655 20.3032 27.6208 20.9998 27.6208C21.0293 27.6208 21.0592 27.6217 21.0888 27.6235C21.819 27.6715 22.3745 28.305 22.327 29.0353C22.279 29.76 21.6497 30.322 20.915 30.2738ZM37.1463 21.061L26.8127 10.7585L26.9293 10.4643C26.9895 10.3108 26.9817 10.1295 26.8935 9.977C26.805 9.825 26.657 9.7365 26.502 9.72825L24.895 9.6325L24.8312 10.627C24.8305 10.6477 24.6642 12.9092 23.511 14.9525C22.3288 17.0492 20.7623 17.7723 20.5235 17.8188C20.2568 17.8705 19.977 17.9198 19.7445 17.9198C19.5847 17.9198 19.4618 17.8972 19.3565 17.849L18.9643 17.6672C18.7998 17.591 18.6742 17.451 18.608 17.2725C18.5435 17.1003 18.5443 16.912 18.608 16.7402L22.5382 8.11475L23.2065 7.6745L23.4757 7.572H23.4753L28.4147 5.688C28.7252 5.56975 29.0505 5.50775 29.3808 5.50475L29.4083 5.5045C29.7288 5.5045 30.0462 5.56 30.3503 5.6695L36.103 7.737L41.0093 17.5732L37.1463 21.061Z" fill="#5E889E"/>
<path d="M42.7373 0.976749L38.8537 2.913C38.2952 3.19225 37.8423 3.68425 37.6283 4.32325C37.4145 4.9625 37.4808 5.62775 37.7585 6.1875L42.8432 16.3813C43.122 16.9395 43.6137 17.3932 44.254 17.6062C44.8925 17.8202 45.5577 17.755 46.1172 17.476L50 15.5387L42.7373 0.976749ZM46.1072 15.5448C45.5915 15.5448 45.172 15.1265 45.172 14.61C45.172 14.093 45.5915 13.6737 46.1072 13.6737C46.624 13.6737 47.0435 14.093 47.0435 14.61C47.0435 15.1265 46.624 15.5448 46.1072 15.5448Z" fill="#5E889E"/>
<path d="M0 13.316L3.5505 15.8102C4.0615 16.1698 4.70975 16.3335 5.37375 16.2172C6.03825 16.1015 6.59175 15.727 6.9505 15.2162L13.4987 5.89475C13.8585 5.384 14.0223 4.735 13.9065 4.0715C13.7898 3.40725 13.4167 2.85325 12.9052 2.49375L9.35425 0L0 13.316ZM3.0625 12.8375C3.1395 12.3265 3.61625 11.9748 4.1265 12.0515C4.638 12.1287 4.98925 12.6057 4.91275 13.1165C4.8355 13.628 4.35925 13.9798 3.848 13.902C3.33675 13.8255 2.98525 13.349 3.0625 12.8375Z" fill="#5E889E"/>
</svg>
