<svg width="52" height="49" viewBox="0 0 52 49" fill="none" xmlns="http://www.w3.org/2000/svg">
<path d="M38.1759 30.6296H13.3611L7.01852 34.0556V30.6296H2.71296C1.74074 30.6296 1 29.8426 1 28.9167V2.71296C1 1.74074 1.78704 1 2.71296 1H38.1759C39.1481 1 39.8889 1.78704 39.8889 2.71296V28.9167C39.8889 29.8426 39.1019 30.6296 38.1759 30.6296Z" fill="#589FFF"/>
<path d="M8.77734 8.87109H32.481" stroke="#242C88" stroke-miterlimit="10" stroke-linecap="round" stroke-linejoin="round"/>
<path d="M8.77734 17.8047H32.481" stroke="#242C88" stroke-miterlimit="10" stroke-linecap="round" stroke-linejoin="round"/>
<path d="M8.77734 22.2969H20.6292" stroke="#242C88" stroke-miterlimit="10" stroke-linecap="round" stroke-linejoin="round"/>
<path d="M8.77734 13.3594H32.481" stroke="#242C88" stroke-miterlimit="10" stroke-linecap="round" stroke-linejoin="round"/>
<path d="M38.1759 30.6296H13.3611L7.01852 34.0556V30.6296H2.71296C1.74074 30.6296 1 29.8426 1 28.9167V2.71296C1 1.74074 1.78704 1 2.71296 1H38.1759C39.1481 1 39.8889 1.78704 39.8889 2.71296V28.9167C39.8889 29.8426 39.1019 30.6296 38.1759 30.6296Z" stroke="#242C88" stroke-miterlimit="10" stroke-linecap="round" stroke-linejoin="round"/>
<path opacity="0.3" d="M13.8247 13.0352C11.6024 13.0352 9.79688 14.8407 9.79688 17.0629V32.5722L13.3617 30.6277H38.1765C39.1487 30.6277 39.8895 29.8407 39.8895 28.9148V13.0352H13.8247Z" fill="#242C88"/>
<path d="M13.8243 44.9812H38.6391L44.9817 48.4071V44.9812H49.2873C50.2595 44.9812 51.0002 44.1942 51.0002 43.2682V17.0645C51.0002 16.0923 50.2132 15.3516 49.2873 15.3516H13.8243C12.8521 15.3516 12.1113 16.1386 12.1113 17.0645V43.2682C12.1113 44.1942 12.8984 44.9812 13.8243 44.9812Z" fill="white"/>
<path d="M13.8243 44.9812H38.6391L44.9817 48.4071V44.9812H49.2873C50.2595 44.9812 51.0002 44.1942 51.0002 43.2682V17.0645C51.0002 16.0923 50.2132 15.3516 49.2873 15.3516H13.8243C12.8521 15.3516 12.1113 16.1386 12.1113 17.0645V43.2682C12.1113 44.1942 12.8984 44.9812 13.8243 44.9812Z" stroke="#242C88" stroke-miterlimit="10" stroke-linecap="round" stroke-linejoin="round"/>
<path opacity="0.2" d="M39.4258 15.3516V30.7219L43.8239 39.796L48.2221 30.7219V15.3516H39.4258Z" fill="#242C88"/>
<path d="M45.4447 13.0352V30.4426L41.0466 39.5166L36.6484 30.4426V13.0352H45.4447Z" fill="white"/>
<path d="M36.6484 13.0363V30.6289H45.4447V13.0363H36.6484Z" fill="#FFC408"/>
<path opacity="0.2" d="M45.4438 13.0352H42.666V30.6278H45.4438V13.0352Z" fill="#242C88"/>
<path d="M38.8242 35.7227L40.6761 39.5653L42.5279 35.7227H38.8242Z" fill="#5E61A3"/>
<path d="M45.4447 13.0352V30.4426L41.0466 39.5166L36.6484 30.4426V13.0352H45.4447Z" stroke="#242C88" stroke-miterlimit="10" stroke-linecap="round" stroke-linejoin="round"/>
<path d="M45.4447 13.0381V9.05657C45.4447 7.94546 44.5188 7.01953 43.4077 7.01953H38.6855C37.5744 7.01953 36.6484 7.94546 36.6484 9.05657V13.0381H45.4447Z" fill="#F3877E"/>
<path d="M45.4447 13.0381V9.05657C45.4447 7.94546 44.5188 7.01953 43.4077 7.01953H38.6855C37.5744 7.01953 36.6484 7.94546 36.6484 9.05657V13.0381H45.4447Z" stroke="#242C88" stroke-miterlimit="10" stroke-linecap="round" stroke-linejoin="round"/>
<path d="M42.666 23.2222V13.5" stroke="#242C88" stroke-miterlimit="10" stroke-linecap="round" stroke-linejoin="round"/>
<path d="M42.666 30.6276V26.4609" stroke="#242C88" stroke-miterlimit="10" stroke-linecap="round" stroke-linejoin="round"/>
<path d="M36.6484 11.6479V15.3516H45.4447V11.6479H36.6484Z" fill="white"/>
<path opacity="0.2" d="M36.6484 11.6479V15.3516H45.4447V11.6479H36.6484Z" fill="#242C88"/>
<path d="M36.6484 11.6479V15.3516H45.4447V11.6479H36.6484Z" stroke="#242C88" stroke-miterlimit="10" stroke-linecap="round" stroke-linejoin="round"/>
<path opacity="0.2" d="M19.1016 35.5836L20.7219 34.241C20.8608 34.1484 20.9997 34.241 20.9997 34.4262V35.6299C20.9997 35.8151 21.1386 35.9077 21.2775 35.8151L23.4071 34.0559C23.546 33.9633 23.6849 34.0559 23.6849 34.241V35.5836C23.6849 35.5836 23.7775 35.8614 23.9164 35.7688L25.9534 34.1022C26.0923 34.0096 25.9997 34.2873 25.9997 34.2873V35.6762C25.9997 35.8614 26.1386 35.954 26.2775 35.8614L28.4071 34.1022C28.546 34.0096 28.6849 34.1022 28.6849 34.2873V35.5373C28.6849 35.7225 28.8238 35.8151 28.9627 35.7225L30.7219 34.2873C30.8608 34.1947 30.9997 34.2873 30.9997 34.4725V35.6299C30.9997 35.8151 31.1386 35.9077 31.2775 35.8151L32.9905 34.4262" stroke="#242C88" stroke-miterlimit="10" stroke-linecap="round" stroke-linejoin="round"/>
<path opacity="0.2" d="M19.4258 21.832H32.4813" stroke="#242C88" stroke-miterlimit="10" stroke-linecap="round" stroke-linejoin="round"/>
<path opacity="0.2" d="M19.4258 27.3906H32.4813" stroke="#242C88" stroke-miterlimit="10" stroke-linecap="round" stroke-linejoin="round"/>
<path opacity="0.2" d="M19.4258 30.168H25.9536" stroke="#242C88" stroke-miterlimit="10" stroke-linecap="round" stroke-linejoin="round"/>
<path opacity="0.2" d="M19.4258 24.6094H32.4813" stroke="#242C88" stroke-miterlimit="10" stroke-linecap="round" stroke-linejoin="round"/>
</svg>
