<svg width="50" height="37" viewBox="0 0 50 37" fill="none" xmlns="http://www.w3.org/2000/svg">
<path d="M38.415 12.8808C38.6452 12.6331 38.8051 12.3285 38.8781 11.9983C38.9511 11.6681 38.9345 11.3245 38.8301 11.0028C38.7257 10.6812 38.5372 10.3934 38.2842 10.169C38.0312 9.94467 37.7229 9.79201 37.3911 9.72682L30.3151 8.34229C30.2825 8.33578 30.2518 8.3222 30.2251 8.30252C30.1983 8.28283 30.1763 8.25751 30.1604 8.22836L26.6581 1.92864C26.4936 1.6333 26.2532 1.38727 25.9617 1.216C25.6702 1.04472 25.3382 0.954418 25.0002 0.954418C24.6621 0.954418 24.3301 1.04472 24.0387 1.216C23.7472 1.38727 23.5067 1.6333 23.3422 1.92864L19.8399 8.22953C19.8237 8.25878 19.8012 8.28408 19.774 8.30363C19.7469 8.32318 19.7157 8.3365 19.6828 8.34263L12.6091 9.72715C12.2774 9.79228 11.9691 9.94488 11.7161 10.1691C11.4631 10.3934 11.2747 10.6812 11.1703 11.0027C11.0659 11.3243 11.0493 11.6679 11.1222 11.998C11.1952 12.3281 11.355 12.6327 11.5852 12.8803L16.4947 18.1585C16.5175 18.1828 16.5346 18.2119 16.5449 18.2436C16.5552 18.2752 16.5583 18.3088 16.5541 18.3419L15.6839 25.4975C15.6435 25.8333 15.6935 26.1737 15.8287 26.4837C15.9639 26.7937 16.1795 27.0619 16.4531 27.2606C16.7267 27.4593 17.0485 27.5814 17.3851 27.6141C17.7216 27.6469 18.0609 27.5891 18.3676 27.4468L24.9019 24.4085C24.9324 24.394 24.9658 24.3865 24.9996 24.3865C25.0334 24.3865 25.0667 24.394 25.0973 24.4085L31.6339 27.4468C31.9407 27.589 32.2799 27.6466 32.6164 27.6137C32.953 27.5809 33.2747 27.4587 33.5482 27.2599C33.8217 27.061 34.0371 26.7927 34.1722 26.4827C34.3073 26.1727 34.3571 25.8322 34.3165 25.4965L33.4464 18.343C33.4422 18.3096 33.4454 18.2756 33.4558 18.2435C33.4662 18.2114 33.4836 18.182 33.5067 18.1574L38.415 12.8808Z" fill="#FFBD69"/>
<path d="M13.8779 25.9612C13.7693 25.9022 13.6491 25.8677 13.5257 25.8602C13.4024 25.8528 13.2789 25.8725 13.164 25.918C12.24 26.2866 11.4365 26.9044 10.8428 27.7027C10.2492 28.501 9.88877 29.4483 9.80169 30.4393C9.8018 30.6113 9.84751 30.7802 9.93416 30.9287C10.0208 31.0773 10.1453 31.2002 10.2949 31.285C10.8531 31.6561 11.3003 32.1715 11.5889 32.7765C11.8776 33.3814 11.9969 34.0533 11.9342 34.7206C11.9204 34.8679 11.9462 35.0162 12.0089 35.1503C12.0716 35.2843 12.1689 35.3993 12.2907 35.4832C12.3801 35.5449 12.4727 35.6017 12.5682 35.6533C12.6761 35.7122 12.7957 35.7465 12.9184 35.7537C13.0411 35.7609 13.1639 35.7409 13.2779 35.695C14.2294 35.3193 15.0533 34.6787 15.6518 33.849C16.2503 33.0194 16.5985 32.0356 16.6549 31.0141C16.7151 29.9958 16.4864 28.9812 15.9951 28.0872C15.5037 27.1932 14.7698 26.4562 13.8779 25.9612Z" fill="#F37121"/>
<path d="M6.05933 0.125052C5.95465 0.0603901 5.83701 0.0195727 5.71478 0.00549962C5.59254 -0.00857351 5.46871 0.00444281 5.35207 0.0436241C4.60083 0.298371 3.93736 0.761178 3.43884 1.37821C2.94032 1.99524 2.62724 2.74113 2.53601 3.52912C2.44478 4.31712 2.57916 5.11481 2.92351 5.82943C3.26786 6.54404 3.80804 7.1462 4.48119 7.56585C4.5858 7.63071 4.70344 7.67165 4.82571 7.68572C4.94799 7.6998 5.07186 7.68667 5.18846 7.64728C5.93972 7.39256 6.60321 6.92976 7.10176 6.31273C7.6003 5.6957 7.9134 4.94979 8.00463 4.16179C8.09586 3.37379 7.96147 2.57607 7.6171 1.86146C7.27272 1.14684 6.73252 0.544685 6.05933 0.125052Z" fill="#FFBD69"/>
<path d="M8.33507 25.3247C7.82675 24.8716 7.45153 24.2886 7.24976 23.6382C7.04799 22.9879 7.0273 22.2948 7.18991 21.6336C7.24141 21.4793 7.24665 21.3134 7.20499 21.1562C7.16333 20.999 7.07659 20.8574 6.95546 20.7489C6.21702 20.0849 5.30849 19.6393 4.33139 19.462C3.3543 19.2846 2.34713 19.3824 1.42243 19.7445C1.30716 19.7893 1.20326 19.8591 1.11823 19.9489C1.03319 20.0387 0.969145 20.1463 0.930695 20.2638C0.666975 21.0742 0.598989 21.9354 0.732306 22.7771C0.865623 23.6188 1.19645 24.417 1.69768 25.1061C2.19892 25.7953 2.8563 26.356 3.61597 26.7421C4.37564 27.1283 5.21599 27.3289 6.06817 27.3277C6.73695 27.328 7.39984 27.2027 8.02236 26.9582C8.13583 26.9137 8.23812 26.8448 8.32195 26.7563C8.40578 26.6678 8.4691 26.562 8.50743 26.4463C8.54077 26.3478 8.56577 26.2493 8.59077 26.15C8.62789 26.0023 8.62367 25.8471 8.57857 25.7015C8.53348 25.556 8.44924 25.4256 8.33507 25.3247Z" fill="#F37121"/>
<path d="M10.3609 17.4159C10.2641 17.34 10.1518 17.2862 10.032 17.2584C9.91222 17.2305 9.78777 17.2293 9.66743 17.2547C8.70103 17.4587 7.81011 17.9266 7.0937 18.6066C6.37729 19.2865 5.86344 20.1517 5.60927 21.1062C5.58688 21.1684 5.56895 21.2322 5.5556 21.2969C5.33231 22.2542 5.37397 23.2542 5.67609 24.1895C5.9782 25.1249 6.52937 25.9603 7.27042 26.606L7.44378 26.7493C7.59187 26.8671 7.77545 26.9314 7.96468 26.9317C8.02352 26.9315 8.08218 26.9252 8.13971 26.9129C9.13716 26.6955 10.0529 26.2009 10.7817 25.486C11.5104 24.7711 12.0225 23.8649 12.259 22.8718C12.4906 21.8761 12.4352 20.8343 12.0992 19.8688C11.7633 18.9033 11.1605 18.0528 10.3609 17.4159Z" fill="#FFBD69"/>
<path d="M8.8804 9.00564C8.80014 8.91314 8.70046 8.8395 8.58846 8.78998C8.47645 8.74046 8.3549 8.71629 8.23247 8.71918C7.3817 8.73655 6.5529 8.99249 5.84047 9.45786C5.12804 9.92322 4.56062 10.5793 4.20282 11.3514C4.12921 11.5042 4.10491 11.6761 4.13328 11.8433C4.16165 12.0106 4.24129 12.1649 4.36118 12.2848C4.67218 12.7117 4.86239 13.2145 4.9118 13.7403C4.96121 14.2661 4.868 14.7955 4.64197 15.2728C4.58177 15.3993 4.55447 15.5389 4.56259 15.6788C4.5707 15.8186 4.61397 15.9542 4.68839 16.0729C4.7454 16.1612 4.80936 16.2448 4.87967 16.3229C4.95767 16.4144 5.05462 16.4879 5.16382 16.5383C5.27301 16.5886 5.39184 16.6147 5.51209 16.6146H5.53484C6.40628 16.5943 7.25366 16.3248 7.97667 15.8379C8.69969 15.351 9.26805 14.6671 9.6145 13.8672L9.61533 13.8656C9.97077 13.0701 10.0905 12.1893 9.96019 11.3279C9.82991 10.4664 9.45515 9.66043 8.8804 9.00564Z" fill="#F37121"/>
<path d="M5.75087 11.3669C5.70455 11.2903 5.64966 11.2193 5.58727 11.1552C5.07201 10.493 4.38271 9.9873 3.59645 9.69451C2.81019 9.40172 1.95799 9.33343 1.13514 9.49729C1.01463 9.52027 0.900723 9.56972 0.801636 9.64205C0.702548 9.71439 0.620751 9.80782 0.562143 9.9156C0.18056 10.6145 -0.0129167 11.4005 0.00066923 12.1966C0.0142552 12.9927 0.234438 13.7717 0.639643 14.4571C1.04485 15.1426 1.62118 15.711 2.31215 16.1067C3.00313 16.5023 3.78505 16.7117 4.58129 16.7143C4.87324 16.7142 5.16454 16.6867 5.45133 16.632C5.57182 16.6097 5.68587 16.561 5.78529 16.4894C5.88472 16.4178 5.96707 16.325 6.02641 16.2178L6.12409 16.0355C6.13301 16.02 6.14118 16.0045 6.14851 15.9891C6.50099 15.2533 6.65001 14.4366 6.58008 13.6238C6.51016 12.8109 6.22384 12.0316 5.75087 11.3669Z" fill="#FFBD69"/>
<path d="M11.1992 29.8859C11.1504 29.8533 11.1015 29.8216 11.073 29.8061C10.2317 29.2793 9.26074 28.996 8.26807 28.9877C7.27541 28.9793 6.29986 29.2463 5.44975 29.7589C5.34367 29.8224 5.25307 29.9088 5.18451 30.0117C5.11595 30.1146 5.07115 30.2315 5.05336 30.3539C4.90111 31.3656 5.04012 32.3998 5.45413 33.3355C5.86813 34.2711 6.54001 35.0695 7.39116 35.6373C8.24231 36.2051 9.23755 36.5188 10.2604 36.5416C11.2833 36.5645 12.2916 36.2956 13.1673 35.7664C13.2722 35.7035 13.362 35.6182 13.4302 35.5166C13.4984 35.4151 13.5435 35.2997 13.5621 35.1788C13.5787 35.0754 13.5871 34.972 13.5946 34.8687C13.6835 33.8991 13.5077 32.9236 13.0859 32.0461C12.6641 31.1686 12.012 30.422 11.1992 29.8859Z" fill="#FFBD69"/>
<path d="M36.1222 25.9612C36.2307 25.9022 36.3509 25.8677 36.4743 25.8602C36.5976 25.8528 36.7211 25.8725 36.836 25.918C37.76 26.2866 38.5635 26.9044 39.1572 27.7027C39.7508 28.501 40.1112 29.4483 40.1983 30.4393C40.1982 30.6113 40.1525 30.7802 40.0658 30.9287C39.9792 31.0773 39.8547 31.2002 39.7051 31.285C39.1469 31.6561 38.6997 32.1715 38.4111 32.7765C38.1224 33.3814 38.0031 34.0533 38.0658 34.7206C38.0796 34.8679 38.0538 35.0162 37.9911 35.1503C37.9284 35.2843 37.8311 35.3993 37.7093 35.4832C37.6199 35.5449 37.5273 35.6017 37.4318 35.6533C37.3239 35.7122 37.2043 35.7465 37.0816 35.7537C36.9589 35.7609 36.8361 35.7409 36.7221 35.695C35.7706 35.3193 34.9467 34.6787 34.3482 33.849C33.7497 33.0194 33.4015 32.0356 33.3451 31.0141C33.2849 29.9958 33.5136 28.9812 34.0049 28.0872C34.4963 27.1932 35.2302 26.4562 36.1222 25.9612Z" fill="#F37121"/>
<path d="M43.9407 0.125052C44.0454 0.0603901 44.163 0.0195727 44.2852 0.00549962C44.4075 -0.00857351 44.5313 0.00444281 44.6479 0.0436241C45.3992 0.298371 46.0626 0.761178 46.5612 1.37821C47.0597 1.99524 47.3728 2.74113 47.464 3.52912C47.5552 4.31712 47.4208 5.11481 47.0765 5.82943C46.7321 6.54404 46.192 7.1462 45.5188 7.56585C45.4142 7.63071 45.2966 7.67165 45.1743 7.68572C45.052 7.6998 44.9281 7.68667 44.8115 7.64728C44.0603 7.39256 43.3968 6.92976 42.8982 6.31273C42.3997 5.6957 42.0866 4.94979 41.9954 4.16179C41.9041 3.37379 42.0385 2.57607 42.3829 1.86146C42.7273 1.14684 43.2675 0.544685 43.9407 0.125052Z" fill="#FFBD69"/>
<path d="M41.6649 25.3247C42.1732 24.8716 42.5485 24.2886 42.7502 23.6382C42.952 22.9879 42.9727 22.2948 42.8101 21.6336C42.7586 21.4793 42.7534 21.3134 42.795 21.1562C42.8367 20.999 42.9234 20.8574 43.0445 20.7489C43.783 20.0849 44.6915 19.6393 45.6686 19.462C46.6457 19.2846 47.6529 19.3824 48.5776 19.7445C48.6928 19.7893 48.7967 19.8591 48.8818 19.9489C48.9668 20.0387 49.0309 20.1463 49.0693 20.2638C49.333 21.0742 49.401 21.9354 49.2677 22.7771C49.1344 23.6188 48.8036 24.417 48.3023 25.1061C47.8011 25.7953 47.1437 26.356 46.384 26.7421C45.6244 27.1283 44.784 27.3289 43.9318 27.3277C43.2631 27.328 42.6002 27.2027 41.9776 26.9582C41.8642 26.9137 41.7619 26.8448 41.6781 26.7563C41.5942 26.6678 41.5309 26.562 41.4926 26.4463C41.4592 26.3478 41.4342 26.2493 41.4092 26.15C41.3721 26.0023 41.3763 25.8471 41.4214 25.7015C41.4665 25.556 41.5508 25.4256 41.6649 25.3247Z" fill="#F37121"/>
<path d="M39.6391 17.4159C39.7359 17.34 39.8482 17.2862 39.968 17.2584C40.0878 17.2305 40.2122 17.2293 40.3326 17.2547C41.299 17.4587 42.1899 17.9266 42.9063 18.6066C43.6227 19.2865 44.1366 20.1517 44.3907 21.1062C44.4131 21.1683 44.4311 21.2319 44.4445 21.2966C44.6678 22.2539 44.6262 23.254 44.3241 24.1894C44.0219 25.1248 43.4707 25.9602 42.7296 26.606L42.5562 26.7493C42.4081 26.8671 42.2246 26.9314 42.0353 26.9317C41.9765 26.9315 41.9178 26.9252 41.8603 26.9129C40.8628 26.6955 39.9471 26.2009 39.2183 25.486C38.4896 24.7711 37.9775 23.8649 37.741 22.8718C37.5094 21.8761 37.5648 20.8343 37.9008 19.8688C38.2367 18.9033 38.8395 18.0528 39.6391 17.4159Z" fill="#FFBD69"/>
<path d="M41.1196 9.00564C41.1999 8.91314 41.2995 8.8395 41.4115 8.78998C41.5235 8.74046 41.6451 8.71629 41.7675 8.71918C42.6183 8.73655 43.4471 8.99249 44.1595 9.45786C44.872 9.92322 45.4394 10.5793 45.7972 11.3514C45.8708 11.5042 45.8951 11.6761 45.8667 11.8433C45.8383 12.0106 45.7587 12.1649 45.6388 12.2848C45.3278 12.7117 45.1376 13.2145 45.0882 13.7403C45.0388 14.2661 45.132 14.7955 45.358 15.2728C45.4182 15.3993 45.4455 15.5389 45.4374 15.6788C45.4293 15.8186 45.386 15.9542 45.3116 16.0729C45.2545 16.1612 45.1904 16.2448 45.1199 16.3229C45.0419 16.4144 44.945 16.4879 44.8358 16.5383C44.7266 16.5886 44.6077 16.6147 44.4875 16.6146H44.4647C43.5934 16.5942 42.7461 16.3247 42.0232 15.8378C41.3002 15.3509 40.7319 14.667 40.3855 13.8672L40.3847 13.8656C40.0292 13.0701 39.9095 12.1893 40.0398 11.3279C40.1701 10.4664 40.5449 9.66043 41.1196 9.00564Z" fill="#F37121"/>
<path d="M44.2491 11.3669C44.2954 11.2903 44.3503 11.2193 44.4127 11.1552C44.928 10.493 45.6173 9.9873 46.4036 9.69451C47.1898 9.40172 48.042 9.33343 48.8649 9.49729C48.9854 9.52027 49.0993 9.56972 49.1984 9.64205C49.2975 9.71439 49.3792 9.80782 49.4379 9.9156C49.8194 10.6145 50.0129 11.4005 49.9993 12.1966C49.9857 12.9927 49.7656 13.7717 49.3604 14.4571C48.9552 15.1426 48.3788 15.711 47.6878 16.1067C46.9969 16.5023 46.215 16.7117 45.4187 16.7143C45.1268 16.7142 44.8355 16.6867 44.5487 16.632C44.4282 16.6097 44.3141 16.561 44.2147 16.4894C44.1153 16.4178 44.0329 16.325 43.9736 16.2178L43.8759 16.0355C43.867 16.02 43.8588 16.0045 43.8515 15.9891C43.499 15.2533 43.35 14.4366 43.4199 13.6238C43.4898 12.8109 43.7762 12.0316 44.2491 11.3669Z" fill="#FFBD69"/>
<path d="M38.8008 29.8859C38.8496 29.8533 38.8985 29.8216 38.927 29.8061C39.7683 29.2793 40.7393 28.996 41.7319 28.9877C42.7246 28.9793 43.7001 29.2463 44.5503 29.7589C44.6563 29.8224 44.7469 29.9088 44.8155 30.0117C44.884 30.1146 44.9288 30.2315 44.9466 30.3539C45.0989 31.3656 44.9599 32.3998 44.5459 33.3355C44.1319 34.2711 43.46 35.0695 42.6088 35.6373C41.7577 36.2051 40.7625 36.5188 39.7396 36.5416C38.7167 36.5645 37.7084 36.2956 36.8327 35.7664C36.7278 35.7035 36.638 35.6182 36.5698 35.5166C36.5016 35.4151 36.4565 35.2997 36.4379 35.1788C36.4213 35.0754 36.4129 34.972 36.4054 34.8687C36.3165 33.8991 36.4923 32.9236 36.9141 32.0461C37.3359 31.1686 37.988 30.422 38.8008 29.8859Z" fill="#FFBD69"/>
</svg>
