<svg width="30" height="33" viewBox="0 0 30 33" fill="none" xmlns="http://www.w3.org/2000/svg">
<path d="M27.2727 17.875V31.625C27.2727 32.45 26.7273 33 25.9091 33H4.09091C3.27273 33 2.72727 32.45 2.72727 31.625V17.875H13.6364V30.25H16.3636V17.875H27.2727ZM13.6364 8.25H1.36364C0.545455 8.25 0 8.8 0 9.625V13.75C0 14.575 0.545455 15.125 1.36364 15.125H13.6364V8.25ZM28.6364 8.25H16.3636V15.125H28.6364C29.4545 15.125 30 14.575 30 13.75V9.625C30 8.8 29.4545 8.25 28.6364 8.25ZM24.6818 6.7375L24.8182 6.1875C25.3636 4.8125 25.2273 3.1625 24.4091 1.925C23.5909 0.6875 22.0909 0 20.5909 0C18.6818 0 17.0455 1.1 16.3636 2.8875L13.6364 9.625H20.4545C22.2273 9.625 24 8.525 24.6818 6.7375ZM18.9545 3.85C19.2273 3.1625 19.9091 2.75 20.5909 2.75C21.1364 2.75 21.6818 3.025 22.0909 3.575C22.3636 4.125 22.5 4.675 22.2273 5.225L22.0909 5.775C21.8182 6.4625 21.1364 6.875 20.4545 6.875H17.7273L18.9545 3.85ZM13.6364 2.8875C12.9545 1.1 11.1818 0 9.40909 0C7.90909 0 6.40909 0.6875 5.59091 2.0625C4.77273 3.3 4.63636 4.8125 5.18182 6.325L5.31818 6.875C6 8.525 7.77273 9.625 9.54545 9.625H16.2273L13.6364 2.8875ZM11.0455 3.85L12.2727 6.875H9.54545C8.86364 6.875 8.18182 6.4625 7.90909 5.775L7.63636 5.225C7.5 4.675 7.5 3.9875 7.90909 3.575C8.18182 3.025 8.72727 2.75 9.40909 2.75C10.0909 2.75 10.7727 3.1625 11.0455 3.85Z" fill="#FD6A7E"/>
</svg>
