<svg width="50" height="50" viewBox="0 0 50 50" fill="none" xmlns="http://www.w3.org/2000/svg">
<path d="M38.3929 23.2143C44.8033 23.2143 50 18.0176 50 11.6071C50 5.19669 44.8033 0 38.3929 0C31.9824 0 26.7857 5.19669 26.7857 11.6071C26.7857 18.0176 31.9824 23.2143 38.3929 23.2143Z" fill="#A3CEF1"/>
<path d="M38.3929 19.6429C42.8309 19.6429 46.4286 16.0451 46.4286 11.6071C46.4286 7.16914 42.8309 3.57143 38.3929 3.57143C33.9549 3.57143 30.3571 7.16914 30.3571 11.6071C30.3571 16.0451 33.9549 19.6429 38.3929 19.6429Z" fill="#FFBC0A"/>
<path d="M20.1605 30.3929L17.4819 31.5446C16.5801 31.9286 15.5623 31.9286 14.6694 31.5446L11.9909 30.3929C10.6784 29.8304 9.83015 28.5357 9.83015 27.1071V22.3214C9.83015 19.3661 12.2319 16.9643 15.1873 16.9643H16.973C19.9284 16.9643 22.3301 19.3661 22.3301 22.3214V27.1071C22.3301 28.5357 21.4819 29.8304 20.1694 30.3929H20.1605Z" fill="#DDA15E"/>
<path d="M27.8036 35.7143C26.1786 34.0625 23.9196 33.0357 21.4286 33.0357H18.75C18.75 34.5179 17.5536 35.7143 16.0714 35.7143C14.5893 35.7143 13.3929 34.5179 13.3929 33.0357H10.7143C5.78571 33.0357 1.78571 37.0357 1.78571 41.9643V48.2143H21.4286L25 35.7143H27.8036Z" fill="#274C77"/>
<path d="M11.6071 44.6429H13.3929C14.375 44.6429 15.1786 45.4464 15.1786 46.4286V48.2143H11.6071V44.6429Z" fill="#DDA15E"/>
<path d="M7.14286 23.8661C6.88393 24.0179 6.57143 24.1071 6.25 24.1071C5.26786 24.1071 4.46429 23.3036 4.46429 22.3214C4.46429 21.3393 5.26786 20.5357 6.25 20.5357C6.625 20.5357 6.97321 20.6518 7.26786 20.8571" fill="#274C77"/>
<path d="M24.9999 23.8661C25.2588 24.0179 25.5713 24.1071 25.8927 24.1071C26.8749 24.1071 27.6784 23.3036 27.6784 22.3214C27.6784 21.3393 26.8749 20.5357 25.8927 20.5357C25.5177 20.5357 25.1695 20.6518 24.8749 20.8571" fill="#274C77"/>
<path d="M13.3929 30.991L14.6607 31.5357C15.5625 31.9285 16.5804 31.9285 17.4821 31.5357L18.75 30.991V33.0357C18.75 34.5179 17.5536 35.7143 16.0714 35.7143C14.5893 35.7143 13.3929 34.5179 13.3929 33.0357V30.991Z" fill="#BC6C25"/>
<path d="M21.4286 48.2143L25 35.7143H44.6429L41.0714 48.2143" fill="#8B8C89"/>
<path d="M21.7768 19.9821C21.2679 19.7768 20.6786 19.6429 19.9375 19.6429C16.0714 19.6429 16.0714 23.2143 12.1964 23.2143C11.1875 23.2143 10.4375 22.9732 9.82143 22.6161V22.3214C9.82143 19.3661 12.2232 16.9643 15.1786 16.9643H16.9643C19.0804 16.9643 20.9107 18.1964 21.7768 19.9821Z" fill="#274C77"/>
<path d="M22.3214 26.4286V22.3214C22.3214 19.3661 19.9196 16.9643 16.9643 16.9643H15.1786C12.2232 16.9643 9.82143 19.3661 9.82143 22.3214V25.8929H8.03571C7.54464 25.8929 7.14286 25.4911 7.14286 25V22.3214C7.14286 17.3929 11.1429 13.3929 16.0714 13.3929C18.5357 13.3929 20.7679 14.3929 22.3839 16.0089C24 17.625 25 19.8571 25 22.3214V25.1607C25 25.5893 24.6964 25.9554 24.2857 26.0357L22.3214 26.4286Z" fill="#E7ECEF"/>
<path d="M33.0357 41.0714C33.5268 41.0714 33.9286 41.4732 33.9286 41.9643C33.9286 42.4554 33.5268 42.8571 33.0357 42.8571V41.0714Z" fill="#A3CEF1"/>
<path d="M16.0714 27.6785C15.9732 27.1964 16.2857 26.7232 16.7679 26.625L24.1071 25.1607V22.6071C24.1071 18.3303 20.8839 14.5892 16.625 14.3035C11.9464 13.991 8.03571 17.7053 8.03571 22.3214V25H9.82143V26.7857H8.03571C7.05357 26.7857 6.25 25.9821 6.25 25V22.6071C6.25 17.5 10.0357 13.0178 15.125 12.5446C20.9643 11.991 25.8929 16.5892 25.8929 22.3214V25.1607C25.8929 26.0089 25.2946 26.741 24.4554 26.9107L17.1161 28.375C16.6339 28.4732 16.1607 28.1607 16.0625 27.6785H16.0714Z" fill="#6096BA"/>
<path d="M16.0714 48.2143H14.2857V46.4286C14.2857 45.9375 13.8839 45.5357 13.3929 45.5357H7.14286C6.65179 45.5357 6.25 45.1339 6.25 44.6429V41.0714C6.25 40.8304 6.34821 40.6072 6.50893 40.4375L7.66071 39.2857C8.00893 38.9375 8.57143 38.9375 8.91964 39.2857C9.26786 39.6339 9.26786 40.1964 8.91964 40.5447L8.02679 41.4375V43.75H13.3839C14.8661 43.75 16.0625 44.9464 16.0625 46.4286V48.2143H16.0714Z" fill="#6096BA"/>
<path d="M44.6429 48.2143H0V50H44.6429V48.2143Z" fill="#A3CEF1"/>
<path d="M38.3929 10.7143C37.9018 10.7143 37.5 10.3125 37.5 9.82143C37.5 9.33036 37.9018 8.92857 38.3929 8.92857C38.8839 8.92857 39.2857 9.33036 39.2857 9.82143H41.0714C41.0714 8.66071 40.3214 7.67857 39.2857 7.30357V6.25H37.5V7.30357C36.4643 7.66964 35.7143 8.65179 35.7143 9.82143C35.7143 11.2946 36.9196 12.5 38.3929 12.5C38.8839 12.5 39.2857 12.9018 39.2857 13.3929C39.2857 13.8839 38.8839 14.2857 38.3929 14.2857C37.9018 14.2857 37.5 13.8839 37.5 13.3929H35.7143C35.7143 14.5536 36.4643 15.5357 37.5 15.9107V16.9643H39.2857V15.9107C40.3214 15.5446 41.0714 14.5625 41.0714 13.3929C41.0714 11.9196 39.8661 10.7143 38.3929 10.7143Z" fill="#6096BA"/>
<path d="M35.7321 22.9106C35.7232 23.0089 35.7143 23.116 35.7143 23.2142C35.7143 24.6964 36.9107 25.8928 38.3929 25.8928C39.875 25.8928 41.0714 24.6964 41.0714 23.2142C41.0714 23.116 41.0625 23.0089 41.0536 22.9106C40.1964 23.1071 39.3125 23.2143 38.3929 23.2143C37.4732 23.2143 36.5893 23.1071 35.7321 22.9106Z" fill="#6096BA"/>
<path d="M34.8214 30.3571C35.8077 30.3571 36.6071 29.5577 36.6071 28.5714C36.6071 27.5852 35.8077 26.7857 34.8214 26.7857C33.8352 26.7857 33.0357 27.5852 33.0357 28.5714C33.0357 29.5577 33.8352 30.3571 34.8214 30.3571Z" fill="#6096BA"/>
<path d="M30.3571 33.9286C31.3434 33.9286 32.1429 33.1291 32.1429 32.1429C32.1429 31.1566 31.3434 30.3571 30.3571 30.3571C29.3709 30.3571 28.5714 31.1566 28.5714 32.1429C28.5714 33.1291 29.3709 33.9286 30.3571 33.9286Z" fill="#6096BA"/>
</svg>
