<svg width="50" height="50" viewBox="0 0 50 50" fill="none" xmlns="http://www.w3.org/2000/svg">
<path d="M25 50C38.8071 50 50 38.8071 50 25C50 11.1929 38.8071 0 25 0C11.1929 0 0 11.1929 0 25C0 38.8071 11.1929 50 25 50Z" fill="#F5EEE5"/>
<mask id="mask0_532_315" style="mask-type:luminance" maskUnits="userSpaceOnUse" x="0" y="0" width="50" height="50">
<path d="M25 50C38.8071 50 50 38.8071 50 25C50 11.1929 38.8071 0 25 0C11.1929 0 0 11.1929 0 25C0 38.8071 11.1929 50 25 50Z" fill="white"/>
</mask>
<g mask="url(#mask0_532_315)">
<path d="M32.5 37.95L46.45 41.8C48.05 42.35 49.3 43.55 50 45.1V50H0V45.1C0.65 43.55 1.95 42.35 3.55 41.8L17.5 37.95V30.5H32.5V37.95Z" fill="#E6C19C"/>
</g>
<mask id="mask1_532_315" style="mask-type:luminance" maskUnits="userSpaceOnUse" x="0" y="0" width="50" height="50">
<path d="M25 50C38.8071 50 50 38.8071 50 25C50 11.1929 38.8071 0 25 0C11.1929 0 0 11.1929 0 25C0 38.8071 11.1929 50 25 50Z" fill="white"/>
</mask>
<g mask="url(#mask1_532_315)">
<mask id="mask2_532_315" style="mask-type:luminance" maskUnits="userSpaceOnUse" x="0" y="30" width="50" height="20">
<path d="M32.5 37.95L46.45 41.8C48.05 42.35 49.3 43.55 50 45.1V50H0V45.1C0.65 43.55 1.95 42.35 3.55 41.8L17.5 37.95V30.5H32.5V37.95Z" fill="white"/>
</mask>
<g mask="url(#mask2_532_315)">
<path d="M24.9996 39.0008C24.1496 39.0008 23.0496 38.8008 22.2996 38.4508C21.4496 38.0008 18.2996 35.4008 17.1996 34.3008C15.7996 32.8008 15.0996 30.9008 14.8996 27.6508C14.6996 24.4008 13.8496 12.8008 13.8496 10.1508C13.8496 6.40078 16.6996 0.550781 24.8996 0.550781H24.9496H24.9996C33.2496 0.600781 36.0496 6.40078 36.0496 10.1508C36.0496 12.8008 35.1996 24.4008 34.9996 27.6508C34.7996 30.9008 34.0996 32.7508 32.6996 34.3008C31.6496 35.4508 28.4996 38.0008 27.5996 38.4508C26.9496 38.8008 25.8496 39.0008 24.9996 39.0008Z" fill="#D4B08C"/>
</g>
<mask id="mask3_532_315" style="mask-type:luminance" maskUnits="userSpaceOnUse" x="0" y="30" width="50" height="20">
<path d="M32.5 37.95L46.45 41.8C48.05 42.35 49.3 43.55 50 45.1V50H0V45.1C0.65 43.55 1.95 42.35 3.55 41.8L17.5 37.95V30.5H32.5V37.95Z" fill="white"/>
</mask>
<g mask="url(#mask3_532_315)">
<path d="M0 29H50V50H0V29ZM25 44C30.5 44 35 40.85 35 37C35 33.15 30.5 30 25 30C19.5 30 15 33.15 15 37C15 40.85 19.5 44 25 44Z" fill="#249CF2"/>
</g>
</g>
<path d="M25 37C24.25 37 23.25 36.85 22.6 36.55C21.8 36.2 19 34.25 18.05 33.4C16.8 32.25 16.15 30.85 15.95 28.4C15.75 25.95 15 17.25 15 15.25C15 12.4 17.55 8 25 8C32.45 8 35 12.4 35 15.25C35 17.25 34.25 26 34.05 28.45C33.85 30.9 33.25 32.3 31.95 33.45C31 34.3 28.15 36.25 27.4 36.6C26.75 36.85 25.75 37 25 37Z" fill="#F2CEA5"/>
<path d="M33.9993 20.7484C33.9993 20.7484 34.7993 20.9484 36.2493 20.4484C36.4493 19.5484 36.9993 16.9484 36.9993 15.4984C36.9993 14.0484 36.8493 12.6484 36.0493 11.4484C35.1493 10.1484 33.2493 9.39844 32.2493 9.39844C31.0993 10.0984 28.3993 11.6984 27.5493 12.6484C27.0993 13.1484 27.7493 13.5484 27.7493 13.5484C27.7493 13.5484 28.3493 13.2984 28.5993 13.2484C29.8493 12.8984 31.7493 13.0984 32.7993 14.0484C33.9993 15.1484 33.9993 17.7484 34.0493 18.4484C33.9993 19.0984 33.9993 20.7484 33.9993 20.7484Z" fill="#D98C21"/>
<path d="M13.75 20.4984C15.2 20.9984 16 22.1984 16 22.1984C16 22.1984 16 19.5984 16 19.0484C16 18.2484 16 15.7984 17.2 14.1984C18.8 12.0484 21.4 11.5484 22.75 12.4484C23.45 12.8984 25.8 15.1984 28.3 13.2984C29.8 12.1484 32.55 9.54844 32.55 9.54844C32.55 9.54844 31.1 5.09844 24.5 5.59844C21.7 5.84844 18.6 5.14844 18.6 5.14844C18.6 5.14844 18.55 6.39844 19.05 7.04844C14.9 8.19844 13.55 11.1984 13.15 13.4984C13.05 13.9484 13 14.3984 13 14.8484C13 15.0984 13 15.3484 13 15.5484C13 16.9984 13.55 19.5484 13.75 20.4984Z" fill="#E6A422"/>
<path d="M28.5009 30H21.5009C21.3009 30 21.2009 30.2 21.3009 30.4C21.9509 31.55 23.1509 32.15 24.6509 32.25C26.2009 32.35 27.9009 31.6 28.7009 30.4C28.8009 30.25 28.7009 30 28.5009 30Z" fill="#A3705F"/>
<path d="M29.5 23.5C30.0523 23.5 30.5 23.0523 30.5 22.5C30.5 21.9477 30.0523 21.5 29.5 21.5C28.9477 21.5 28.5 21.9477 28.5 22.5C28.5 23.0523 28.9477 23.5 29.5 23.5Z" fill="#262626"/>
<path d="M20.5 23.5C21.0523 23.5 21.5 23.0523 21.5 22.5C21.5 21.9477 21.0523 21.5 20.5 21.5C19.9477 21.5 19.5 21.9477 19.5 22.5C19.5 23.0523 19.9477 23.5 20.5 23.5Z" fill="#262626"/>
<path d="M17.5 21C17.5 21 18.05 19.5 20.55 19.5C22.25 19.5 23.25 20.25 23.75 21" stroke="#CC9872" stroke-width="2"/>
<path d="M32.55 21C32.55 21 32 19.5 29.5 19.5C27.1 19.5 26 21 26 22C26 22.95 26 26.5 26 26.5" stroke="#BB8660" stroke-width="2"/>
<path d="M36.5 18.5C36.5 12.15 31.35 7 25 7C18.65 7 13.5 12.15 13.5 18.5V22.5H15V18.5C14.95 13 19.45 8.45 25 8.5C30.55 8.45 35.05 13 35 18.5V23H36.5V18.5Z" fill="#6B363E"/>
<path d="M35.5 27.6016C35.45 34.1516 29 34.5016 29 34.5016" stroke="#6B363E" stroke-width="2"/>
<path d="M26.1491 33.9518L29.0491 33.1518C29.5991 33.0018 30.1491 33.3018 30.2491 33.8518L30.4991 34.8018C30.6491 35.3518 30.3491 35.9018 29.7991 36.0018L26.8991 36.8018C26.3491 36.9518 25.7991 36.6518 25.6991 36.1018L25.4491 35.1518C25.2991 34.6518 25.6491 34.1018 26.1491 33.9518Z" fill="#452228"/>
<path d="M16 29C13.45 28.75 11.5 26.6 11.5 24C11.5 21.4 13.45 19.3 16 19V29Z" fill="#6B363E"/>
<mask id="mask4_532_315" style="mask-type:luminance" maskUnits="userSpaceOnUse" x="11" y="19" width="5" height="10">
<path d="M16 29C13.45 28.75 11.5 26.6 11.5 24C11.5 21.4 13.45 19.3 16 19V29Z" fill="white"/>
</mask>
<g mask="url(#mask4_532_315)">
<path d="M15 19H11.5V29H15V19Z" fill="#452228"/>
</g>
<path d="M34 29C36.55 28.75 38.5 26.6 38.5 24C38.5 21.4 36.55 19.3 34 19V29Z" fill="#6B363E"/>
<mask id="mask5_532_315" style="mask-type:luminance" maskUnits="userSpaceOnUse" x="34" y="19" width="5" height="10">
<path d="M34 29C36.55 28.75 38.5 26.6 38.5 24C38.5 21.4 36.55 19.3 34 19V29Z" fill="white"/>
</mask>
<g mask="url(#mask5_532_315)">
<path d="M39 19H35V29H39V19Z" fill="#452228"/>
</g>
</svg>
