<svg width="31" height="57" viewBox="0 0 31 57" fill="none" xmlns="http://www.w3.org/2000/svg">
<path d="M28.0305 19.7987C27.5839 19.7987 27.201 19.9878 26.9458 20.3662C24.3933 23.8971 20.2457 26.2301 15.5237 26.2301C10.8017 26.2301 6.65404 23.8971 4.10162 20.3662C3.84638 20.0509 3.46352 19.7987 3.01685 19.7987H1.29396C0.464427 19.7987 -0.109867 20.5553 0.0177539 21.375L7.0369 51.7035C7.16452 52.271 7.67501 52.7124 8.31311 52.7124H22.6705C23.2448 52.7124 23.819 52.3341 23.9467 51.7035L30.9658 21.375C31.1572 20.5553 30.5191 19.7987 29.6896 19.7987H28.0305Z" fill="#F46262"/>
<path d="M15.5237 24.8429C22.4663 24.8429 28.0943 19.2816 28.0943 12.4215C28.0943 5.56128 22.4663 0 15.5237 0C8.58111 0 2.95303 5.56128 2.95303 12.4215C2.95303 19.2816 8.58111 24.8429 15.5237 24.8429Z" fill="#FFC54D"/>
<path d="M20.5009 36.6969H10.5465C9.97218 36.6969 9.52551 37.1383 9.52551 37.7058C9.52551 38.2732 9.97218 38.7146 10.5465 38.7146H20.4371C21.0114 38.7146 21.4581 38.2732 21.4581 37.7058C21.5219 37.1383 21.0752 36.6969 20.5009 36.6969Z" fill="white"/>
<path d="M10.5465 34.0487H20.4371C21.0114 34.0487 21.4581 33.6073 21.4581 33.0398C21.4581 32.4723 21.0114 32.031 20.4371 32.031H10.5465C9.97218 32.031 9.52551 32.4723 9.52551 33.0398C9.52551 33.6073 9.97218 34.0487 10.5465 34.0487Z" fill="white"/>
<path d="M20.5009 41.3628H10.5465C9.97218 41.3628 9.52551 41.8042 9.52551 42.3717C9.52551 42.9392 9.97218 43.3805 10.5465 43.3805H20.4371C21.0114 43.3805 21.4581 42.9392 21.4581 42.3717C21.4581 41.8042 21.0752 41.3628 20.5009 41.3628Z" fill="white"/>
<path d="M1.10253 57H29.9449C30.5191 57 30.902 56.5586 30.902 56.0542V51.5144C30.902 50.9469 30.4553 50.5686 29.9449 50.5686H1.10253C0.52824 50.5686 0.145377 51.01 0.145377 51.5144V56.0542C0.0815668 56.5586 0.52824 57 1.10253 57Z" fill="#DBB68F"/>
<path d="M22.7981 10.0885C22.4152 10.0885 22.16 10.3407 22.0962 10.656L17.8847 10.0254L15.9066 6.11615C16.098 5.99004 16.2894 5.73783 16.2894 5.48562C16.2894 5.1073 15.9704 4.79204 15.5875 4.79204C15.2046 4.79204 14.8856 5.1073 14.8856 5.48562C14.8856 5.80089 15.077 6.0531 15.3323 6.11615L13.4179 10.0254L9.07884 10.656C9.01503 10.3407 8.75978 10.0254 8.37692 10.0254C7.99406 10.0254 7.67501 10.3407 7.67501 10.719C7.67501 11.0973 7.99406 11.4126 8.37692 11.4126C8.56835 11.4126 8.75978 11.3496 8.88741 11.2235L12.0141 14.25L11.2484 18.5376C11.1846 18.5376 11.1846 18.5376 11.1208 18.5376C10.7379 18.5376 10.4189 18.8529 10.4189 19.2312C10.4189 19.6095 10.7379 19.9248 11.1208 19.9248C11.5036 19.9248 11.8227 19.6095 11.8227 19.2312C11.8227 19.1051 11.7589 18.979 11.7589 18.9159L15.6513 16.8982L19.5438 18.9159C19.4799 19.042 19.4799 19.1051 19.4799 19.2312C19.4799 19.6095 19.799 19.9248 20.1819 19.9248C20.5647 19.9248 20.8838 19.6095 20.8838 19.2312C20.8838 18.8529 20.5647 18.5376 20.1819 18.5376C20.118 18.5376 20.118 18.5376 20.0542 18.5376L19.2885 14.25L22.4152 11.2865C22.5428 11.4126 22.6705 11.4757 22.8619 11.4757C23.2448 11.4757 23.5638 11.1604 23.5638 10.7821C23.5 10.4038 23.1809 10.0885 22.7981 10.0885Z" fill="white"/>
</svg>
