<svg width="51" height="51" viewBox="0 0 51 51" fill="none" xmlns="http://www.w3.org/2000/svg">
<path d="M44.7289 25.4145C44.7289 24.5149 44.6459 23.6355 44.5289 22.768L49.395 20.2384L47.8227 15.4029L42.4212 16.2145C41.5775 14.6422 40.5185 13.2088 39.2919 11.933L41.7401 7.02966L37.6264 4.04091L33.7176 7.88867C32.1453 7.12624 30.4595 6.56712 28.6838 6.25028L27.7859 0.847151H22.7029L21.8033 6.25198C20.0276 6.56881 18.3418 7.12793 16.7678 7.89037L12.859 4.04599L8.74867 7.03305L11.1952 11.9347C9.97026 13.2105 8.91133 14.6472 8.06756 16.2162L2.66443 15.4046L1.09381 20.2401L5.95985 22.768C5.84294 23.6355 5.75992 24.5149 5.75992 25.4145C5.75992 26.3142 5.84294 27.1936 5.95985 28.061L1.09381 30.5906L2.66613 35.4262L8.06756 34.6146C8.91133 36.1869 9.97026 37.6203 11.1969 38.8961L8.74867 43.7977L12.8624 46.7865L16.7712 42.9387C18.3435 43.7011 20.0293 44.2603 21.805 44.5771L22.7029 49.9819H27.7859L28.6855 44.5771C30.4612 44.2603 32.147 43.7011 33.721 42.9387L37.6297 46.7848L41.7418 43.796L39.2952 38.8944C40.5202 37.6186 41.5792 36.1818 42.4229 34.6129L47.8261 35.4245L49.3967 30.5889L44.5306 28.061C44.6459 27.1936 44.7289 26.3142 44.7289 25.4145ZM25.2444 31.3446C21.971 31.3446 19.3143 28.6879 19.3143 25.4145C19.3143 22.1411 21.971 19.4845 25.2444 19.4845C28.5178 19.4845 31.1745 22.1411 31.1745 25.4145C31.1745 28.6879 28.5178 31.3446 25.2444 31.3446Z" fill="white"/>
<path d="M46.9874 35.2974C47.4465 35.3669 47.9413 35.0602 48.0853 34.618L48.6105 33.0084C48.7545 32.5645 48.9562 31.8664 49.0612 31.4581C49.1646 31.0481 48.8918 30.5737 48.4597 30.4026L46.7468 29.1115C46.313 28.9421 45.637 28.6371 45.2422 28.4338C44.8509 28.2288 44.5713 27.6832 44.6255 27.219C44.6255 27.219 44.7306 26.3159 44.7306 25.4162C44.7306 24.5166 44.6255 23.6135 44.6255 23.6135C44.573 23.1509 44.8678 22.5952 45.2812 22.38L48.6444 20.6315C49.0578 20.4163 49.2781 19.8792 49.1341 19.4353L48.9324 18.8169C48.7884 18.373 47.6261 15.2877 47.1653 15.3572C47.1653 15.3572 42.65 16.3856 42.3992 15.9925L41.1014 15.125C40.8015 14.7692 40.6287 14.3304 40.7168 14.1525C40.8083 13.9746 40.6507 13.5358 40.3711 13.18C40.0916 12.8225 39.4613 11.5958 39.6697 11.179L40.7642 8.98319C40.9726 8.56639 40.8354 8.00049 40.4575 7.72771L39.5748 7.08557C39.197 6.81279 38.6192 6.85515 38.2854 7.18215L35.5847 9.84051C35.2526 10.1658 34.6291 10.2912 34.1971 10.115L30.7695 9.00352C30.3171 8.89 29.8868 8.42068 29.8105 7.96153L29.7021 7.31091C29.6259 6.85176 29.4344 6.43665 29.2751 6.3926C29.1159 6.34686 28.6228 5.87923 28.5466 5.42007L28.3484 4.22728C28.2721 3.76474 27.8282 3.3886 27.3623 3.3886H24.814C24.3481 3.3886 23.9042 3.76474 23.828 4.2239L23.2062 7.95814C23.1299 8.41729 22.6979 8.88662 22.2472 9.00013L18.8162 10.115C18.3859 10.2895 17.7607 10.1641 17.4286 9.83881L14.7279 7.18045C14.3958 6.85515 13.8163 6.8111 13.4385 7.08557L10.7005 9.07299C10.3227 9.34916 10.1854 9.91336 10.3938 10.3302L10.8157 11.1773C11.0241 11.5941 11.1936 11.9364 11.1936 11.9364C11.1936 11.9364 11.363 12.2786 11.5714 12.6954L12.0797 13.7188C12.2881 14.1356 12.2135 14.7675 11.9119 15.125L9.78389 18.0426C9.53483 18.4357 8.95368 18.7034 8.49283 18.6339L4.76367 18.0748C4.30452 18.0054 3.80978 18.312 3.66577 18.7542L3.14053 20.3638C2.99821 20.806 3.21847 21.3448 3.63188 21.56L5.20928 22.3783C5.62268 22.5935 5.91749 23.1476 5.86497 23.6118C5.86497 23.6118 5.75992 24.5149 5.75992 25.4145C5.75992 26.1499 5.81922 26.7327 5.81922 26.7327C5.86666 27.1952 6.02762 27.6781 6.17672 27.8018C6.17672 27.8018 6.17672 27.8018 6.17672 27.956C6.17672 28.8557 6.78836 29.8756 6.78836 29.8756C7.02726 30.2738 6.88663 30.777 6.47153 30.9922L3.10834 32.7407C2.69493 32.9559 2.47467 33.493 2.61869 33.9369L2.82031 34.5553C2.96432 34.9992 3.45906 35.3042 3.91822 35.2347L7.22888 34.7366C7.68804 34.6671 8.26919 34.9331 8.51994 35.3279L10.6497 38.2472C10.9496 38.603 11.1224 39.0418 11.0343 39.2197C10.9428 39.3976 8.74698 43.796 8.74698 43.796C8.53858 44.2128 10.914 45.3717 11.2918 45.6445L12.1746 46.2866C12.5524 46.5594 13.1301 46.5171 13.4639 46.1901L16.1646 43.5317C16.4967 43.2064 17.1202 43.081 17.5523 43.2572L20.9798 44.3687C21.4322 44.4822 21.8626 44.9515 21.9388 45.4107L22.0473 46.0613C22.1235 46.5205 22.315 46.9356 22.4742 46.9796C22.6335 47.0254 23.1265 47.493 23.2028 47.9521L23.401 49.1449C23.4772 49.6041 23.9212 49.9802 24.3871 49.9802H26.9387C27.4046 49.9802 27.8485 49.6041 27.9248 49.1449L28.5466 45.4107C28.6228 44.9515 29.0549 44.4822 29.5056 44.3687L32.9348 43.2555C33.3652 43.081 33.9904 43.2064 34.3225 43.5317L37.0232 46.1884C37.3553 46.5137 37.9347 46.5594 38.3125 46.285L41.0505 44.2958C41.4284 44.0214 41.5656 43.4572 41.3572 43.0404L40.9353 42.1932C40.7269 41.7764 40.5575 41.4342 40.5575 41.4342C40.5575 41.4342 40.3881 41.0919 40.1797 40.6751L39.6697 39.6518C39.4613 39.235 39.5358 38.603 39.8374 38.2455L41.9655 35.3279C42.2145 34.9348 42.7957 34.6671 43.2565 34.7366L46.9874 35.2974ZM25.2444 31.3446C21.971 31.3446 19.3143 28.6879 19.3143 25.4145C19.3143 22.1411 21.971 19.4845 25.2444 19.4845C28.5178 19.4845 31.1745 22.1411 31.1745 25.4145C31.1745 28.6879 28.5178 31.3446 25.2444 31.3446Z" fill="#80D8FF"/>
<path d="M43.5852 19.8369C43.1718 20.0521 42.877 20.6061 42.9295 21.0703C42.9295 21.0703 42.8702 21.9887 43.0346 22.8731C43.3887 24.7809 42.6872 26.9174 42.6872 26.9174C42.6347 27.3799 42.9126 27.9272 43.304 28.1322C43.6005 28.2847 44.0545 28.4965 44.4476 28.6625C44.468 28.3592 44.7289 25.7737 44.7289 25.4145C44.7289 24.5149 44.6238 23.6118 44.6238 23.6118C44.5713 23.1493 44.8661 22.5935 45.2795 22.3783L48.6427 20.6298C49.0561 20.4146 49.2764 19.8776 49.1324 19.4336L48.9307 18.8152C48.7867 18.3713 48.292 18.0663 47.8328 18.1358L46.4638 18.3408L43.5852 19.8369Z" fill="#73C2E6"/>
<path d="M48.458 30.4009L47.2161 29.4639C47.1178 29.8096 47.0077 30.1857 46.9162 30.4653L46.391 32.0748C46.247 32.5187 45.7522 32.8237 45.2931 32.7543L41.5639 32.1951C41.1048 32.1257 40.5236 32.3917 40.2729 32.7864L38.1448 35.704C37.8432 36.0615 37.7687 36.6935 37.9771 37.1103L38.4871 38.1337C38.6955 38.5505 38.8649 38.8927 38.8649 38.8927C38.8649 38.8927 39.0343 39.235 39.2427 39.6518L39.6646 40.4989C39.873 40.9157 39.7358 41.4799 39.3579 41.7544L36.6199 43.7435C36.2421 44.018 35.6644 43.9739 35.3306 43.6469L32.6299 40.9903C32.2978 40.665 31.6726 40.5396 31.2422 40.7141L27.813 41.8272C27.3606 41.9408 26.9302 42.4101 26.854 42.8692L26.2322 46.6035C26.1542 47.0643 25.7103 47.4405 25.2444 47.4405H22.9622C23.074 47.598 23.1757 47.7725 23.2062 47.9538L23.4044 49.1466C23.4806 49.6058 23.9245 49.9819 24.3905 49.9819L26.9387 49.9802C27.4046 49.9802 27.8485 49.6041 27.9248 49.1449L28.5466 45.4107C28.6228 44.9515 29.0549 44.4822 29.5056 44.3687L32.9348 43.2555C33.3652 43.081 33.9904 43.2064 34.3225 43.5317L37.0232 46.1884C37.3553 46.5137 37.9347 46.5594 38.3125 46.285L41.0505 44.2975C41.4284 44.0231 41.5656 43.4572 41.3572 43.0404L40.9353 42.1932C40.7269 41.7764 40.5575 41.4342 40.5575 41.4342C40.5575 41.4342 40.3881 41.0919 40.1797 40.6751L39.6697 39.6518C39.4613 39.235 39.5358 38.603 39.8374 38.2455L41.9655 35.3279C42.2145 34.9348 42.7957 34.6671 43.2565 34.7366L46.9874 35.2974C47.4465 35.3669 47.9396 35.0602 48.0836 34.618L48.6105 33.0084C48.7545 32.5645 48.9562 31.8664 49.0612 31.4581C49.1646 31.0464 48.8918 30.572 48.458 30.4009Z" fill="#73C2E6"/>
<path d="M22.2438 44.1722L22.1354 43.5215C22.0591 43.0624 21.3221 42.6829 20.8697 42.5677L15.8614 40.7141C15.4293 40.5379 14.8058 40.6633 14.4737 40.9886L11.773 43.6469C11.6273 43.7892 11.4341 43.8672 11.2325 43.8977L10.9885 44.3856C10.7801 44.8024 10.9174 45.3683 11.2952 45.6411L12.1779 46.2833C12.5558 46.556 13.1335 46.5137 13.4673 46.1867L16.168 43.5283C16.5001 43.203 17.1236 43.0776 17.5557 43.2538L22.4929 44.8956C22.3861 44.7262 22.2912 44.4653 22.2438 44.1722Z" fill="#73C2E6"/>
<path d="M27.7859 50.8291H22.7029C22.2895 50.8291 21.9354 50.5292 21.8677 50.1209L21.0629 45.2955C19.6515 44.999 18.2707 44.55 16.944 43.9536L13.4537 47.3879C13.1572 47.6794 12.6947 47.7132 12.3609 47.4693L8.25055 44.4822C7.91677 44.2382 7.80495 43.7892 7.99132 43.4182L10.177 39.0418C9.19088 37.9558 8.33187 36.7816 7.61349 35.538L2.79151 36.2632C2.37301 36.3292 1.98671 36.0836 1.85964 35.6871L0.287326 30.8516C0.160254 30.4585 0.334767 30.0298 0.702431 29.8384L5.04493 27.5799C4.95513 26.7886 4.91277 26.0872 4.91277 25.4145C4.91277 24.7419 4.95513 24.0422 5.04662 23.2492L0.704125 20.9924C0.336461 20.8026 0.161948 20.374 0.289021 19.9792L1.85964 15.1437C1.98671 14.7506 2.36962 14.5032 2.79151 14.5676L7.61688 15.2911C7.88458 14.8268 8.1743 14.3694 8.47928 13.9289C8.74189 13.5409 9.26882 13.4477 9.65512 13.7154C10.0397 13.9814 10.1363 14.5083 9.8703 14.8929C9.48739 15.4453 9.13328 16.0264 8.81475 16.6194C8.64532 16.9329 8.30307 17.1108 7.94218 17.0548L3.24897 16.35L2.12226 19.8199L6.35123 22.0175C6.66976 22.1818 6.84766 22.5291 6.80022 22.8832C6.66807 23.8524 6.60707 24.6572 6.60707 25.4145C6.60707 26.1719 6.66807 26.9767 6.79853 27.9458C6.84597 28.2999 6.66807 28.6473 6.34954 28.8116L2.12056 31.0108L3.24897 34.4807L7.94218 33.7759C8.29121 33.7183 8.64532 33.8962 8.81475 34.213C9.60768 35.6871 10.6141 37.0663 11.8086 38.3082C12.0559 38.5657 12.1169 38.9537 11.956 39.2739L9.82625 43.5334L12.7777 45.6784L16.1748 42.3338C16.4306 42.0831 16.8152 42.0221 17.1389 42.1746C18.6705 42.9184 20.2886 43.4453 21.9507 43.7418C22.3031 43.8045 22.5776 44.0824 22.6369 44.4365L23.4213 49.1348H27.0675L27.8502 44.4382C27.9095 44.0841 28.184 43.8062 28.5364 43.7435C30.1952 43.447 31.8166 42.9218 33.3516 42.1763C33.6702 42.0221 34.0599 42.0831 34.314 42.3355L37.7111 45.6784L40.6609 43.5334L38.5345 39.2739C38.3735 38.9537 38.4328 38.5674 38.6819 38.3082C39.873 37.0679 40.8811 35.6888 41.674 34.213C41.8435 33.8979 42.1806 33.7217 42.5466 33.7759L47.2415 34.4791L48.3682 31.0091L44.1393 28.8116C43.8207 28.6473 43.6428 28.2999 43.6903 27.9458C43.8207 26.9767 43.8817 26.1719 43.8817 25.4145C43.8817 24.6572 43.8207 23.8524 43.6903 22.8832C43.6428 22.5291 43.8207 22.1818 44.1393 22.0175L48.3682 19.8183L47.2398 16.3483L42.5466 17.0532C42.1891 17.1023 41.8435 16.9312 41.674 16.616C40.8811 15.142 39.8747 13.7628 38.6802 12.5209C38.4328 12.2634 38.3719 11.8754 38.5328 11.5551L40.6626 7.29567L37.7094 5.15068L34.3123 8.49523C34.0582 8.74599 33.6736 8.81037 33.3482 8.6545C31.8166 7.9107 30.1985 7.38377 28.5364 7.08727C28.184 7.02458 27.9095 6.74671 27.8502 6.3926L27.0675 1.6943H23.4213L22.6386 6.39091C22.5793 6.74502 22.3048 7.02288 21.9524 7.08557C20.2936 7.38208 18.6722 7.90731 17.1372 8.6528C16.8186 8.80698 16.4306 8.74599 16.1748 8.49354L12.7777 5.15237L9.82625 7.29736L11.9526 11.5551C12.161 11.9736 11.9916 12.4836 11.5731 12.692C11.1546 12.9021 10.648 12.731 10.4379 12.3142L7.98962 7.41257C7.80495 7.04152 7.91507 6.59253 8.25055 6.34855L12.3626 3.3598C12.6947 3.11413 13.1589 3.1514 13.4554 3.44113L16.9457 6.87379C18.2723 6.27739 19.6549 5.8284 21.0663 5.5319L21.871 0.706524C21.9354 0.299892 22.2895 0 22.7029 0H27.7859C28.1993 0 28.5534 0.299892 28.6211 0.708218L29.4259 5.53359C30.8373 5.83009 32.2181 6.27908 33.5448 6.87548L37.035 3.44113C37.3316 3.1514 37.7941 3.11582 38.1279 3.3598L42.2416 6.34855C42.5754 6.59253 42.6872 7.04152 42.5009 7.41257L40.3152 11.789C41.3013 12.875 42.1603 14.0492 42.8787 15.2928L47.7007 14.5676C48.1192 14.5032 48.5055 14.7489 48.6325 15.1437L50.2049 19.9792C50.3319 20.3723 50.1574 20.801 49.7898 20.9924L45.4473 23.2509C45.5337 24.0405 45.576 24.7419 45.576 25.4145C45.576 26.0872 45.5337 26.7869 45.4422 27.5799L49.7847 29.8367C50.1523 30.0264 50.3269 30.4551 50.1998 30.8499L48.6292 35.6854C48.5038 36.0802 48.1158 36.3309 47.6973 36.2615L42.8736 35.538C42.1535 36.7816 41.2962 37.9575 40.3118 39.0418L42.4958 43.4165C42.6805 43.7875 42.5703 44.2365 42.2366 44.4805L38.1245 47.4693C37.7924 47.7132 37.3282 47.6777 37.0317 47.3879L33.5414 43.9553C32.2148 44.5517 30.8322 45.0007 29.4209 45.2972L28.6161 50.1225C28.5534 50.5292 28.1993 50.8291 27.7859 50.8291ZM25.2444 32.1917C21.5068 32.1917 18.4672 29.1522 18.4672 25.4145C18.4672 21.6769 21.5068 18.6373 25.2444 18.6373C28.982 18.6373 32.0216 21.6769 32.0216 25.4145C32.0216 29.1522 28.982 32.1917 25.2444 32.1917ZM25.2444 20.3316C22.442 20.3316 20.1615 22.6122 20.1615 25.4145C20.1615 28.2169 22.442 30.4974 25.2444 30.4974C28.0468 30.4974 30.3273 28.2169 30.3273 25.4145C30.3273 22.6122 28.0468 20.3316 25.2444 20.3316Z" fill="#455A64"/>
<path d="M25.2444 38.969C17.7708 38.969 11.69 32.8881 11.69 25.4145C11.69 17.941 17.7708 11.8601 25.2444 11.8601C32.718 11.8601 38.7988 17.941 38.7988 25.4145C38.7988 28.4321 37.828 31.2904 35.9914 33.6793C35.7067 34.0504 35.173 34.1182 34.8037 33.8352C34.4326 33.5506 34.3631 33.0186 34.6478 32.6475C36.2557 30.555 37.1045 28.056 37.1045 25.4145C37.1045 18.8762 31.7827 13.5544 25.2444 13.5544C18.7061 13.5544 13.3843 18.8762 13.3843 25.4145C13.3843 31.9528 18.7061 37.2747 25.2444 37.2747C26.6473 37.2747 28.0264 37.029 29.3446 36.5461C29.7834 36.3885 30.2714 36.6105 30.4324 37.051C30.5933 37.4898 30.368 37.9761 29.9275 38.1387C28.4229 38.6894 26.8455 38.969 25.2444 38.969Z" fill="#455A64"/>
<path d="M32.8688 36.4275C33.3366 36.4275 33.7159 36.0482 33.7159 35.5803C33.7159 35.1125 33.3366 34.7332 32.8688 34.7332C32.4009 34.7332 32.0216 35.1125 32.0216 35.5803C32.0216 36.0482 32.4009 36.4275 32.8688 36.4275Z" fill="#455A64"/>
</svg>
