<svg width="32" height="32" viewBox="0 0 32 32" fill="none" xmlns="http://www.w3.org/2000/svg">
<path d="M25.0917 22.7754L23.125 24.7109L28.2874 29.7914L30.2542 27.8559L25.0917 22.7754Z" fill="#64E1DC"/>
<path d="M20.4206 21.5636L23.1248 18.9023L24.5998 20.3539L24.1081 20.8378L21.1581 23.741L20.6664 24.2248L19.1914 22.7733L20.4206 21.5636Z" fill="#64E1DC"/>
<path d="M30.2538 27.8536L28.2871 29.7891L29.5164 30.9989L31.4832 29.0634L30.2538 27.8536Z" fill="#FFA426"/>
<path d="M25.5832 22.2914L25.0915 22.7753L23.1249 24.7108L22.6332 25.1946L21.1582 23.743L24.1082 20.8398L25.5832 22.2914Z" fill="#FFA426"/>
<path d="M24.1082 23.7434L23.125 24.7109L28.2874 29.7914L29.2706 28.8238L24.1082 23.7434Z" fill="#00C8C8"/>
<path d="M29.2703 28.8215L28.2871 29.7891L29.5164 30.9989L30.4996 30.0313L29.2703 28.8215Z" fill="#FF873C"/>
<path d="M21.1582 23.7412L22.6332 25.1928L23.1249 24.7089L23.6165 24.225L22.1415 22.7734L21.1582 23.7412Z" fill="#FF873C"/>
<path d="M12.062 21.5636L13.2912 22.7733L11.8162 24.2248L11.3245 23.741L8.37448 20.8378L7.88281 20.3539L9.35782 18.9023L12.062 21.5636Z" fill="#B674F2"/>
<path d="M7.39095 22.775L2.22852 27.8555L4.19524 29.791L9.35767 24.7105L7.39095 22.775Z" fill="#B674F2"/>
<path d="M2.22933 27.8566L1 29.0664L2.96672 31.0019L4.19605 29.7921L2.22933 27.8566Z" fill="#64E1DC"/>
<path d="M11.3254 23.743L9.8504 25.1946L9.35873 24.7108L7.39206 22.7753L6.90039 22.2914L8.37539 20.8398L11.3254 23.743Z" fill="#64E1DC"/>
<path d="M8.37532 23.7437L3.21289 28.8242L4.19608 29.7918L9.35851 24.7113L8.37532 23.7437Z" fill="#A260E5"/>
<path d="M3.21175 28.8214L1.98242 30.0312L2.96561 30.9988L4.19494 29.789L3.21175 28.8214Z" fill="#00C8C8"/>
<path d="M10.3422 22.7734L8.86719 24.225L9.35886 24.7089L9.85052 25.1928L11.3255 23.7412L10.3422 22.7734Z" fill="#00C8C8"/>
<path d="M27.5495 6.32422V8.74354L20.1745 16.0015L18.9453 14.7918L27.5495 6.32422Z" fill="#64E1DC"/>
<path d="M27.5506 1V6.3225L18.9464 14.7901L16.2422 12.1289L27.5506 1Z" fill="#DCE1EB"/>
<path d="M18.9461 14.7901L20.1753 15.9998L23.1253 18.903L20.4211 21.5642L4.93359 6.3225V1L16.242 12.1289L18.9461 14.7901Z" fill="#B674F2"/>
<path d="M20.1753 15.9998L18.9461 14.7901L16.242 12.1289L4.93359 1V3.41932L15.0128 13.3385L17.717 15.9998L18.9461 17.2094L21.8961 20.1126L23.1253 18.903L20.1753 15.9998Z" fill="#C78FF5"/>
<path d="M15.0128 18.6627L12.3086 16.0015L9.35861 13.0983C9.35783 13.3547 9.25398 13.6004 9.06973 13.7818C8.88549 13.9631 8.63583 14.0653 8.37527 14.066H7.8836V15.2757C7.8836 15.4682 7.8059 15.6528 7.66759 15.7889C7.52928 15.925 7.3417 16.0015 7.1461 16.0015C6.9505 16.0015 6.76292 15.925 6.62461 15.7889C6.4863 15.6528 6.4086 15.4682 6.4086 15.2757V10.1951L4.93359 8.74354V6.32422L20.4211 21.5659L19.192 22.7756L16.242 19.8724L15.0128 18.6627Z" fill="#FFA426"/>
<path d="M6.4086 9.22503L4.93359 7.77344V8.74116L6.4086 10.1928V9.22503Z" fill="#FFDA45"/>
<path d="M7.14571 15.0305C6.95011 15.0305 6.76252 14.954 6.62421 14.8179C6.4859 14.6818 6.4082 14.4972 6.4082 14.3047V15.2724C6.4082 15.4649 6.4859 15.6495 6.62421 15.7856C6.76252 15.9217 6.95011 15.9982 7.14571 15.9982C7.3413 15.9982 7.52889 15.9217 7.6672 15.7856C7.80551 15.6495 7.88321 15.4649 7.88321 15.2724V14.3047C7.88321 14.4972 7.80551 14.6818 7.6672 14.8179C7.52889 14.954 7.3413 15.0305 7.14571 15.0305Z" fill="#FFDA45"/>
<path d="M19.1912 21.8062L16.2412 18.903L15.012 17.6933L12.3078 15.0321L9.35782 12.1289C9.35704 12.3853 9.25319 12.631 9.06894 12.8123C8.8847 12.9937 8.63504 13.0959 8.37448 13.0966H7.88281V14.0644H8.37448C8.63504 14.0636 8.8847 13.9614 9.06894 13.7801C9.25319 13.5988 9.35704 13.3531 9.35782 13.0966L12.3078 15.9998L15.012 18.6611L16.2412 19.8707L19.1912 22.7739L20.4203 21.5642L19.9287 21.0804L19.1912 21.8062Z" fill="#FFDA45"/>
<path d="M15.0124 18.6594L12.0625 21.5625L13.2918 22.7723L16.2417 19.8692L15.0124 18.6594Z" fill="#64E1DC"/>
<path d="M12.3073 15.9993L9.35742 18.9023L12.0615 21.5635L15.0114 18.6604L12.3073 15.9993Z" fill="#DCE1EB"/>
<path d="M15.0128 18.661L14.2754 19.3867L15.5047 20.5965L16.2421 19.8709L15.0128 18.661Z" fill="#00C8C8"/>
<path d="M12.3077 16.0009L11.5703 16.7266L14.2744 19.3878L15.0118 18.6621L12.3077 16.0009Z" fill="#CDD2E1"/>
<path d="M21.1582 23.743L22.6332 25.1946L23.1249 24.7108L25.0915 22.7753L25.5832 22.2914L24.1082 20.8398" stroke="black" stroke-width="0.5" stroke-linejoin="round"/>
<path d="M23.125 24.7089L28.2875 29.7895L29.5167 30.9991L31.4834 29.0637L30.2542 27.854L25.0917 22.7734" stroke="black" stroke-width="0.5" stroke-linejoin="round"/>
<path d="M23.1248 18.9023L20.4206 21.5636L19.1914 22.7733" stroke="black" stroke-width="0.5" stroke-linejoin="round"/>
<path d="M16.2412 19.8709L13.2912 22.7741L11.8162 24.2257L11.3245 23.7418L8.37448 20.8386L7.88281 20.3548L9.35782 18.9032L12.3078 16" stroke="black" stroke-width="0.5" stroke-linejoin="round"/>
<path d="M16.2422 12.1289L27.5506 1V6.3225V8.74182L20.1755 15.9998" stroke="black" stroke-width="0.5" stroke-linejoin="round"/>
<path d="M11.3254 23.743L9.8504 25.1946L9.35873 24.7108L7.39206 22.7753L6.90039 22.2914L8.37539 20.8398" stroke="black" stroke-width="0.5" stroke-linejoin="round"/>
<path d="M9.35836 24.7089L4.19584 29.7895L2.96667 30.9991L1 29.0637L2.22917 27.854L7.39168 22.7734" stroke="black" stroke-width="0.5" stroke-linejoin="round"/>
<path d="M9.35742 18.9023L12.0616 21.5636L13.2908 22.7733" stroke="black" stroke-width="0.5" stroke-linejoin="round"/>
<path d="M16.242 12.1289L4.93359 1V8.74182L6.4086 10.1934V15.274C6.4086 15.4665 6.4863 15.6511 6.62461 15.7872C6.76292 15.9233 6.9505 15.9998 7.1461 15.9998C7.3417 15.9998 7.52928 15.9233 7.66759 15.7872C7.8059 15.6511 7.8836 15.4665 7.8836 15.274V14.0643H8.37527C8.63583 14.0636 8.88549 13.9614 9.06973 13.78C9.25398 13.5987 9.35783 13.353 9.35861 13.0966L12.3086 15.9998L15.0128 18.661L16.242 19.8707L19.192 22.7739L20.667 24.2255L21.1586 23.7416L24.1086 20.8384L24.6003 20.3545L23.1253 18.903L20.1753 15.9998L18.9461 14.7901L16.242 12.1289Z" stroke="black" stroke-width="0.5" stroke-linejoin="round"/>
<path d="M4.93359 6.32422L20.4211 21.5659L20.667 21.8079" stroke="black" stroke-width="0.5" stroke-linejoin="round"/>
<path d="M7.88281 14.0644V12.1289" stroke="black" stroke-width="0.5" stroke-linejoin="round"/>
<path d="M15.2581 18.418L15.0122 18.6599L12.0622 21.5631L11.8164 21.805" stroke="black" stroke-width="0.5" stroke-linejoin="round"/>
<path d="M27.5492 6.32422L18.9451 14.7918L18.6992 15.0338" stroke="black" stroke-width="0.5" stroke-linejoin="round"/>
<path d="M1.98242 27.6133L2.22826 27.8552L4.19493 29.7907L4.44076 30.0326" stroke="black" stroke-width="0.5" stroke-linejoin="round"/>
<path d="M30.4994 27.6133L30.2535 27.8552L28.2868 29.7907L28.041 30.0326" stroke="black" stroke-width="0.5" stroke-linejoin="round"/>
</svg>
