<svg width="50" height="48" viewBox="0 0 50 48" fill="none" xmlns="http://www.w3.org/2000/svg">
<path d="M33.1396 0H16.8604C15.3244 0.00172005 13.8518 0.607559 12.7657 1.6846C11.6796 2.76165 11.0686 4.22194 11.0669 5.74511V42.2549C11.0686 43.7781 11.6796 45.2384 12.7657 46.3154C13.8518 47.3924 15.3244 47.9983 16.8604 48H33.1396C34.6756 47.9983 36.1482 47.3924 37.2343 46.3154C38.3204 45.2384 38.9314 43.7781 38.9331 42.2549V5.74511C38.9314 4.22194 38.3204 2.76165 37.2343 1.6846C36.1482 0.607559 34.6756 0.00172005 33.1396 0ZM16.8604 1.9149H33.1396C34.1637 1.91604 35.1454 2.31994 35.8695 3.038C36.5936 3.75606 37.0009 4.72962 37.0021 5.74511V38.7647H12.9979V5.74511C12.9991 4.72962 13.4064 3.75606 14.1305 3.038C14.8546 2.31994 15.8363 1.91604 16.8604 1.9149ZM21.8738 42.8797C21.8738 42.6258 21.9755 42.3822 22.1566 42.2027C22.3377 42.0231 22.5832 41.9223 22.8393 41.9223H27.1608C27.4168 41.9223 27.6624 42.0231 27.8435 42.2027C28.0246 42.3822 28.1263 42.6258 28.1263 42.8797C28.1263 43.1336 28.0246 43.3772 27.8435 43.5567C27.6624 43.7363 27.4168 43.8372 27.1608 43.8372H22.8393C22.5832 43.8372 22.3376 43.7363 22.1565 43.5567C21.9755 43.3772 21.8738 43.1336 21.8738 42.8797Z" fill="black"/>
<path d="M44.2067 17.1304C44.0253 16.9527 43.7803 16.8533 43.5252 16.8541C43.2702 16.8549 43.0258 16.9557 42.8454 17.1345C42.6651 17.3134 42.5634 17.5557 42.5626 17.8086C42.5619 18.0616 42.662 18.3045 42.8413 18.4844C43.56 19.1988 43.9637 20.1666 43.9637 21.1757C43.9637 22.1848 43.56 23.1527 42.8413 23.867C42.7506 23.9557 42.6786 24.0613 42.6293 24.1777C42.5799 24.2941 42.5543 24.4191 42.5539 24.5453C42.5534 24.6716 42.5782 24.7967 42.6268 24.9135C42.6753 25.0302 42.7466 25.1363 42.8367 25.2256C42.9267 25.3149 43.0337 25.3856 43.1514 25.4338C43.2691 25.4819 43.3953 25.5064 43.5227 25.506C43.65 25.5056 43.776 25.4802 43.8934 25.4313C44.0108 25.3824 44.1173 25.3109 44.2067 25.221C45.287 24.1473 45.8937 22.6925 45.8937 21.1757C45.8937 19.659 45.287 18.2041 44.2067 17.1304Z" fill="black"/>
<path d="M47.4647 15.0965C47.2833 14.9185 47.0383 14.819 46.7831 14.8196C46.5279 14.8203 46.2833 14.9211 46.1029 15.1001C45.9225 15.279 45.8208 15.5215 45.8201 15.7745C45.8194 16.0276 45.9198 16.2706 46.0993 16.4505C47.3612 17.7047 48.0699 19.4041 48.0699 21.1758C48.0699 22.9474 47.3612 24.6468 46.0993 25.901C46.0088 25.9897 45.9368 26.0953 45.8875 26.2117C45.8383 26.3281 45.8127 26.453 45.8124 26.5792C45.812 26.7054 45.8368 26.8305 45.8853 26.9472C45.9338 27.0639 46.0051 27.1699 46.0951 27.2591C46.1852 27.3484 46.2921 27.4191 46.4097 27.4672C46.5274 27.5154 46.6535 27.5399 46.7808 27.5396C46.9081 27.5392 47.034 27.5138 47.1514 27.465C47.2688 27.4162 47.3753 27.3448 47.4647 27.255C49.0882 25.6414 50 23.4551 50 21.1757C50 18.8964 49.0882 16.7101 47.4647 15.0965Z" fill="black"/>
<path d="M7.1587 17.2591C6.97763 17.0796 6.73205 16.9787 6.47599 16.9787C6.21992 16.9787 5.97435 17.0796 5.79328 17.2591C4.71297 18.3328 4.10626 19.7876 4.10626 21.3044C4.10626 22.8211 4.71297 24.276 5.79328 25.3497C5.88271 25.4396 5.9892 25.511 6.1066 25.56C6.224 25.6089 6.34999 25.6343 6.47734 25.6347C6.60468 25.6351 6.73085 25.6106 6.84858 25.5624C6.96631 25.5143 7.07328 25.4436 7.16332 25.3543C7.25337 25.265 7.32471 25.1589 7.37324 25.0422C7.42178 24.9254 7.44654 24.8003 7.44611 24.674C7.44568 24.5477 7.42006 24.4228 7.37074 24.3064C7.32141 24.19 7.24935 24.0844 7.1587 23.9957C6.43998 23.2813 6.03634 22.3135 6.03634 21.3044C6.03634 20.2953 6.43998 19.3274 7.1587 18.6131C7.24836 18.5242 7.31949 18.4187 7.36801 18.3025C7.41654 18.1863 7.44151 18.0618 7.44151 17.9361C7.44151 17.8104 7.41654 17.6859 7.36801 17.5697C7.31949 17.4536 7.24836 17.348 7.1587 17.2591Z" fill="black"/>
<path d="M3.90068 16.5791C4.07973 16.3991 4.17973 16.1563 4.17887 15.9035C4.178 15.6506 4.07635 15.4084 3.89608 15.2297C3.71581 15.0509 3.47156 14.9501 3.21662 14.9492C2.96168 14.9484 2.71675 15.0476 2.53527 15.2251C0.911766 16.8387 0 19.025 0 21.3044C0 23.5837 0.911766 25.77 2.53527 27.3836C2.62472 27.4734 2.7312 27.5448 2.84858 27.5936C2.96595 27.6425 3.0919 27.6678 3.21919 27.6682C3.34647 27.6686 3.47258 27.644 3.59025 27.5958C3.70792 27.5477 3.81483 27.477 3.90484 27.3877C3.99484 27.2985 4.06616 27.1925 4.1147 27.0758C4.16323 26.9591 4.18801 26.834 4.18763 26.7078C4.18724 26.5816 4.16169 26.4567 4.11245 26.3403C4.0632 26.2239 3.99123 26.1183 3.90068 26.0296C2.63881 24.7754 1.93014 23.0761 1.93014 21.3044C1.93014 19.5327 2.63881 17.8333 3.90068 16.5791Z" fill="black"/>
<path d="M16.0209 30.7369H20.8893C21.1163 31.6479 21.6445 32.4572 22.3896 33.0357C23.1347 33.6142 24.0537 33.9285 24.9999 33.9285C25.9462 33.9285 26.8652 33.6142 27.6103 33.0357C28.3554 32.4572 28.8836 31.6479 29.1106 30.7369H33.9791C34.1675 30.7369 34.3518 30.6822 34.5093 30.5796C34.6667 30.477 34.7905 30.331 34.8653 30.1595C34.94 29.988 34.9626 29.7986 34.9301 29.6145C34.8977 29.4305 34.8116 29.2599 34.6826 29.1237C33.7301 28.118 33.0025 26.9242 32.5471 25.6204C32.0918 24.3167 31.9192 22.9323 32.0404 21.5578L32.1603 20.2059C32.4206 18.7029 32.1937 17.1568 31.512 15.7899C30.8303 14.4229 29.729 13.3056 28.3664 12.5986C28.6151 12.0426 28.7198 11.4338 28.671 10.8275C28.6222 10.2212 28.4215 9.63661 28.0871 9.12676C27.7527 8.6169 27.2952 8.19794 26.756 7.90792C26.2169 7.6179 25.6133 7.46599 24.9999 7.46599C24.3866 7.46599 23.783 7.6179 23.2439 7.90792C22.7047 8.19794 22.2472 8.6169 21.9128 9.12676C21.5784 9.63661 21.3777 10.2212 21.3289 10.8275C21.2801 11.4338 21.3848 12.0426 21.6335 12.5986C20.2709 13.3056 19.1696 14.4229 18.4879 15.7899C17.8062 17.1568 17.5793 18.7029 17.8396 20.2059L17.9595 21.5578C18.0807 22.9323 17.9081 24.3167 17.4527 25.6204C16.9974 26.9242 16.2698 28.118 15.3173 29.1237C15.1883 29.2599 15.1022 29.4305 15.0698 29.6145C15.0373 29.7986 15.0599 29.988 15.1346 30.1595C15.2094 30.331 15.3332 30.477 15.4906 30.5796C15.6481 30.6822 15.8324 30.7369 16.0209 30.7369ZM18.004 28.822C18.4846 28.0907 18.8814 27.3085 19.1869 26.4898H30.8131C31.1186 27.3085 31.5154 28.0907 31.996 28.822H18.004ZM23.2483 11.1209C23.2483 10.6602 23.4328 10.2184 23.7614 9.89265C24.0899 9.56688 24.5354 9.38387 25 9.38387C25.4646 9.38387 25.9101 9.56688 26.2386 9.89265C26.5671 10.2184 26.7517 10.6602 26.7517 11.1209C26.7518 11.4071 26.6799 11.6888 26.5425 11.9404C25.5261 11.7204 24.4738 11.7204 23.4575 11.9404C23.3201 11.6888 23.2482 11.4071 23.2483 11.1209ZM25 13.6903C25.78 13.6911 26.5504 13.8613 27.257 14.1891C27.9636 14.5168 28.5891 14.9941 29.0897 15.5873C29.5903 16.1805 29.9537 16.8753 30.1544 17.6228C30.3552 18.3703 30.3883 19.1523 30.2515 19.9138C30.2466 19.9416 30.2428 19.9695 30.2403 19.9976L30.1169 21.3901C30.0234 22.454 30.0774 23.5256 30.2774 24.5749H19.7226C19.9226 23.5256 19.9766 22.454 19.8831 21.3901L19.7597 19.9976C19.7572 19.9695 19.7535 19.9416 19.7485 19.9138C19.6117 19.1523 19.6448 18.3702 19.8456 17.6228C20.0463 16.8753 20.4097 16.1805 20.9103 15.5873C21.4109 14.9941 22.0364 14.5168 22.743 14.1891C23.4496 13.8613 24.22 13.6911 25 13.6903Z" fill="black"/>
</svg>
