<svg width="51" height="40" viewBox="0 0 51 40" fill="none" xmlns="http://www.w3.org/2000/svg">
<path d="M27.6582 32.0171H22.9462V37.1714H27.6582V32.0171Z" fill="#4D4C78"/>
<path d="M18.3259 4.69693H1.51967C1.1964 4.69693 0.886371 4.82534 0.657787 5.05393C0.429202 5.28251 0.300785 5.59254 0.300785 5.91581V35.9491C0.300407 36.1094 0.331656 36.2682 0.392742 36.4164C0.453828 36.5646 0.54355 36.6993 0.656771 36.8128C0.769993 36.9263 0.904488 37.0163 1.05256 37.0778C1.20063 37.1392 1.35936 37.1708 1.51967 37.1708H22.9462V34.2598C22.9462 34.211 22.9433 34.1621 22.9376 34.1136L19.5362 5.77241C19.5011 5.47607 19.3585 5.20291 19.1354 5.00468C18.9123 4.80646 18.6243 4.69696 18.3259 4.69693Z" fill="#67BAEB"/>
<path d="M33.7297 5.66343L27.6841 34.062C27.6659 34.1449 27.6563 34.2295 27.6554 34.3143V37.1708H49.0819C49.2422 37.1708 49.4009 37.1392 49.549 37.0778C49.6971 37.0163 49.8316 36.9263 49.9448 36.8128C50.058 36.6993 50.1477 36.5646 50.2088 36.4164C50.2699 36.2682 50.3012 36.1094 50.3008 35.9491V5.91581C50.3008 5.59254 50.1724 5.28252 49.9438 5.05393C49.7152 4.82535 49.4052 4.69693 49.0819 4.69693H34.9228C34.6431 4.69626 34.3717 4.79201 34.1544 4.96806C33.9371 5.14412 33.7871 5.3897 33.7297 5.66343Z" fill="#67BAEB"/>
<path d="M33.9333 4.69693L27.6554 34.1853V32.0171H22.9462L22.9462 34.1853L19.4071 4.69693H2.37719V36.3649L3.60468 35.8602C10.256 33.1233 17.7045 33.0452 24.4117 35.6422L25.3008 36.0007L26.1899 35.6422C32.8971 33.0452 40.3455 33.1233 46.9969 35.8602L48.2244 36.3649V4.69693H33.9333Z" fill="#46A1F8"/>
<path d="M25.3008 35.0371C18.2427 32.1347 10.3244 32.1347 3.26626 35.0371V2.17886C10.3238 -0.726287 18.2432 -0.726287 25.3008 2.17886V35.0371Z" fill="#C8C2E9"/>
<path d="M42.2045 39.7577L40.7046 38.5073L39.2075 39.7577C38.6999 40.1822 37.9255 39.8208 37.9255 39.1583V30.6663H43.4836V39.1583C43.4836 39.8208 42.7122 40.1822 42.2045 39.7577Z" fill="#F4C23F"/>
<path d="M37.9255 33.7952C39.8034 33.9003 41.6657 34.1963 43.4836 34.6786V30.6663H37.9255V33.7952Z" fill="#F4A93F"/>
<path d="M25.3008 35.0371C32.3589 32.1347 40.2772 32.1347 47.3353 35.0371V2.17886C40.2777 -0.726287 32.3584 -0.726287 25.3008 2.17886V35.0371Z" fill="#C8C2E9"/>
<path d="M5.10176 3.8222V1.49629C4.48514 1.70278 3.8714 1.92935 3.26626 2.17886V35.0371C10.37 32.3755 18.1971 32.3755 25.3008 35.0371V31.5582L25.1029 31.4923C13.1521 27.589 5.10176 16.3925 5.10176 3.8222Z" fill="#B9B1E0"/>
<path d="M27.1363 3.8222V1.49629C26.5168 1.70278 25.905 1.93031 25.3008 2.17886V35.0371C32.4045 32.3755 40.2316 32.3755 47.3353 35.0371V31.5582L47.1374 31.4923C35.1838 27.589 27.1363 16.3925 27.1363 3.8222Z" fill="#B9B1E0"/>
<path d="M6.89709 8.86121C6.76201 8.86172 6.63107 8.81455 6.52736 8.72799C6.42365 8.64143 6.35381 8.52105 6.33016 8.38805C6.3065 8.25504 6.33055 8.11796 6.39807 8.00096C6.46558 7.88395 6.57222 7.79452 6.69921 7.74844C11.4835 5.98554 16.7394 5.98554 21.5237 7.74844C21.5945 7.77442 21.6595 7.8141 21.715 7.86521C21.7704 7.91631 21.8153 7.97784 21.847 8.04629C21.8787 8.11473 21.8966 8.18874 21.8997 8.2641C21.9027 8.33947 21.891 8.4147 21.865 8.4855C21.839 8.55631 21.7993 8.6213 21.7482 8.67677C21.6971 8.73224 21.6356 8.77711 21.5671 8.8088C21.4987 8.84049 21.4247 8.85839 21.3493 8.86147C21.2739 8.86456 21.1987 8.85278 21.1279 8.82679C16.5995 7.15579 11.6234 7.15579 7.09498 8.82679C7.03143 8.84931 6.96452 8.86095 6.89709 8.86121Z" fill="#B9B1E0"/>
<path d="M6.89709 14.9413C6.76201 14.9418 6.63107 14.8946 6.52736 14.8081C6.42365 14.7215 6.35381 14.6011 6.33016 14.4681C6.3065 14.3351 6.33055 14.198 6.39807 14.081C6.46558 13.964 6.57222 13.8746 6.69921 13.8285C11.4828 12.0618 16.7401 12.0618 21.5237 13.8285C21.5976 13.8519 21.666 13.8901 21.7247 13.9407C21.7834 13.9913 21.8313 14.0533 21.8654 14.1229C21.8995 14.1925 21.9191 14.2683 21.9231 14.3458C21.9271 14.4232 21.9153 14.5006 21.8886 14.5734C21.8618 14.6461 21.8206 14.7127 21.7673 14.769C21.7141 14.8254 21.65 14.8704 21.5789 14.9013C21.5078 14.9322 21.4312 14.9484 21.3537 14.9488C21.2762 14.9493 21.1994 14.934 21.1279 14.904C16.5995 13.233 11.6234 13.233 7.09498 14.904C7.03197 14.9288 6.96482 14.9415 6.89709 14.9413Z" fill="#B9B1E0"/>
<path d="M6.8971 21.0185C6.76338 21.0172 6.63431 20.9692 6.53219 20.8829C6.43008 20.7966 6.36135 20.6772 6.33788 20.5456C6.3144 20.4139 6.33767 20.2782 6.40365 20.1619C6.46962 20.0456 6.57417 19.956 6.69921 19.9086C11.4828 18.1419 16.7401 18.1419 21.5237 19.9086C21.5976 19.932 21.666 19.9702 21.7247 20.0208C21.7834 20.0714 21.8313 20.1334 21.8654 20.203C21.8995 20.2726 21.9191 20.3484 21.9231 20.4258C21.9271 20.5033 21.9154 20.5807 21.8886 20.6534C21.8618 20.7262 21.8206 20.7927 21.7673 20.8491C21.7141 20.9055 21.65 20.9505 21.5789 20.9814C21.5078 21.0123 21.4312 21.0285 21.3537 21.0289C21.2762 21.0294 21.1994 21.0141 21.1279 20.9841C16.5995 19.3131 11.6234 19.3131 7.09499 20.9841C7.03143 21.0066 6.96453 21.0182 6.8971 21.0185Z" fill="#B9B1E0"/>
<path d="M6.89709 27.0985C6.76201 27.0991 6.63107 27.0519 6.52736 26.9653C6.42365 26.8788 6.35381 26.7584 6.33016 26.6254C6.3065 26.4924 6.33055 26.3553 6.39807 26.2383C6.46558 26.1213 6.57222 26.0319 6.69921 25.9858C11.4835 24.2229 16.7394 24.2229 21.5237 25.9858C21.5945 26.0118 21.6595 26.0514 21.715 26.1026C21.7704 26.1537 21.8153 26.2152 21.847 26.2836C21.8787 26.3521 21.8966 26.4261 21.8997 26.5014C21.9027 26.5768 21.891 26.652 21.865 26.7228C21.839 26.7936 21.7993 26.8586 21.7482 26.9141C21.6971 26.9696 21.6356 27.0145 21.5671 27.0461C21.4987 27.0778 21.4247 27.0957 21.3493 27.0988C21.2739 27.1019 21.1987 27.0901 21.1279 27.0641C16.5995 25.3931 11.6234 25.3931 7.09498 27.0641C7.03143 27.0867 6.96452 27.0983 6.89709 27.0985Z" fill="#B9B1E0"/>
<path d="M43.3603 8.86121C43.2929 8.86095 43.226 8.84931 43.1624 8.82679C38.634 7.15579 33.6579 7.15579 29.1295 8.82679C28.9865 8.87927 28.8285 8.8728 28.6903 8.8088C28.5521 8.74479 28.4449 8.6285 28.3924 8.4855C28.34 8.3425 28.3464 8.18451 28.4104 8.04629C28.4744 7.90806 28.5907 7.80092 28.7337 7.74844C33.518 5.98554 38.7739 5.98554 43.5582 7.74844C43.6852 7.79452 43.7918 7.88395 43.8593 8.00096C43.9269 8.11796 43.9509 8.25504 43.9273 8.38805C43.9036 8.52105 43.8338 8.64143 43.73 8.72799C43.6263 8.81455 43.4954 8.86172 43.3603 8.86121Z" fill="#B9B1E0"/>
<path d="M43.3603 14.9413C43.2926 14.9415 43.2254 14.9288 43.1624 14.904C38.634 13.233 33.6579 13.233 29.1295 14.904C29.058 14.934 28.9812 14.9493 28.9037 14.9488C28.8262 14.9484 28.7496 14.9322 28.6785 14.9013C28.6074 14.8704 28.5433 14.8254 28.4901 14.769C28.4368 14.7127 28.3956 14.6461 28.3688 14.5734C28.3421 14.5006 28.3303 14.4232 28.3343 14.3458C28.3383 14.2683 28.3579 14.1925 28.392 14.1229C28.4261 14.0533 28.474 13.9913 28.5327 13.9407C28.5914 13.8901 28.6598 13.8519 28.7337 13.8285C33.5173 12.0618 38.7746 12.0618 43.5582 13.8285C43.6852 13.8746 43.7918 13.964 43.8593 14.081C43.9268 14.198 43.9509 14.3351 43.9272 14.4681C43.9036 14.6011 43.8338 14.7215 43.73 14.8081C43.6263 14.8946 43.4954 14.9418 43.3603 14.9413Z" fill="#B9B1E0"/>
<path d="M43.3603 21.0185C43.2929 21.0182 43.226 21.0066 43.1624 20.9841C38.634 19.3131 33.6579 19.3131 29.1295 20.9841C29.058 21.0141 28.9812 21.0294 28.9037 21.0289C28.8262 21.0285 28.7496 21.0123 28.6785 20.9814C28.6074 20.9505 28.5433 20.9055 28.4901 20.8491C28.4368 20.7927 28.3956 20.7262 28.3688 20.6534C28.3421 20.5807 28.3303 20.5033 28.3343 20.4258C28.3383 20.3484 28.3579 20.2726 28.392 20.203C28.4261 20.1334 28.474 20.0714 28.5327 20.0208C28.5914 19.9702 28.6598 19.932 28.7337 19.9086C33.5173 18.1419 38.7746 18.1419 43.5582 19.9086C43.6832 19.956 43.7878 20.0456 43.8538 20.1619C43.9197 20.2782 43.943 20.4139 43.9195 20.5456C43.8961 20.6772 43.8273 20.7966 43.7252 20.8829C43.6231 20.9692 43.494 21.0172 43.3603 21.0185Z" fill="#B9B1E0"/>
<path d="M43.3603 27.0985C43.2929 27.0983 43.226 27.0867 43.1624 27.0641C38.634 25.3931 33.6579 25.3931 29.1295 27.0641C28.9865 27.1166 28.8285 27.1101 28.6903 27.0461C28.5521 26.9821 28.4449 26.8658 28.3924 26.7228C28.34 26.5798 28.3464 26.4219 28.4104 26.2836C28.4744 26.1454 28.5907 26.0383 28.7337 25.9858C33.518 24.2229 38.7739 24.2229 43.5582 25.9858C43.6852 26.0319 43.7918 26.1213 43.8593 26.2383C43.9269 26.3553 43.9509 26.4924 43.9273 26.6254C43.9036 26.7584 43.8338 26.8788 43.73 26.9653C43.6263 27.0519 43.4954 27.0991 43.3603 27.0985Z" fill="#B9B1E0"/>
<path d="M43.6758 8.37365C43.6084 8.37339 43.5415 8.36176 43.4779 8.33924C38.9495 6.66824 33.9734 6.66824 29.445 8.33924C29.302 8.39172 29.144 8.38525 29.0058 8.32124C28.8675 8.25724 28.7604 8.14095 28.7079 7.99795C28.6554 7.85495 28.6619 7.69696 28.7259 7.55873C28.7899 7.42051 28.9062 7.31337 29.0492 7.26088C33.8335 5.49799 39.0894 5.49799 43.8737 7.26088C44.0007 7.30697 44.1073 7.3964 44.1748 7.5134C44.2423 7.63041 44.2664 7.76749 44.2427 7.90049C44.2191 8.03349 44.1492 8.15388 44.0455 8.24044C43.9418 8.327 43.8109 8.37417 43.6758 8.37365Z" fill="#DFDAFD"/>
<path d="M43.6758 14.4537C43.6081 14.4539 43.5409 14.4412 43.4779 14.4164C38.9495 12.7454 33.9734 12.7454 29.445 14.4164C29.3735 14.4465 29.2967 14.4617 29.2192 14.4613C29.1417 14.4608 29.065 14.4447 28.9939 14.4138C28.9228 14.3828 28.8588 14.3379 28.8055 14.2815C28.7523 14.2251 28.7111 14.1586 28.6843 14.0858C28.6575 14.013 28.6458 13.9356 28.6498 13.8582C28.6538 13.7808 28.6734 13.705 28.7075 13.6354C28.7416 13.5657 28.7895 13.5038 28.8482 13.4532C28.9069 13.4026 28.9753 13.3644 29.0492 13.341C33.8328 11.5743 39.0901 11.5743 43.8737 13.341C44.0007 13.387 44.1073 13.4765 44.1748 13.5935C44.2423 13.7105 44.2664 13.8476 44.2427 13.9806C44.2191 14.1136 44.1492 14.234 44.0455 14.3205C43.9418 14.4071 43.8109 14.4542 43.6758 14.4537Z" fill="#DFDAFD"/>
<path d="M43.6758 20.5309C43.6084 20.5307 43.5415 20.519 43.4779 20.4965C38.9495 18.8255 33.9734 18.8255 29.445 20.4965C29.3735 20.5266 29.2967 20.5418 29.2192 20.5414C29.1417 20.5409 29.065 20.5247 28.9939 20.4938C28.9228 20.4629 28.8588 20.4179 28.8055 20.3616C28.7523 20.3052 28.7111 20.2386 28.6843 20.1659C28.6575 20.0931 28.6458 20.0157 28.6498 19.9383C28.6538 19.8609 28.6734 19.785 28.7075 19.7154C28.7416 19.6458 28.7895 19.5838 28.8482 19.5332C28.9069 19.4826 28.9753 19.4445 29.0492 19.421C33.8328 17.6544 39.0901 17.6544 43.8737 19.421C43.9987 19.4684 44.1033 19.558 44.1692 19.6744C44.2352 19.7907 44.2585 19.9264 44.235 20.058C44.2115 20.1897 44.1428 20.309 44.0407 20.3953C43.9386 20.4817 43.8095 20.5297 43.6758 20.5309Z" fill="#DFDAFD"/>
<path d="M43.6758 26.611C43.6084 26.6107 43.5415 26.5991 43.4779 26.5766C38.9495 24.9056 33.9734 24.9056 29.445 26.5766C29.3742 26.6026 29.2989 26.6144 29.2236 26.6113C29.1482 26.6082 29.0742 26.5903 29.0058 26.5586C28.9373 26.5269 28.8758 26.482 28.8247 26.4266C28.7736 26.3711 28.7339 26.3061 28.7079 26.2353C28.6819 26.1645 28.6701 26.0893 28.6732 26.0139C28.6763 25.9385 28.6942 25.8645 28.7259 25.7961C28.7576 25.7276 28.8025 25.6661 28.8579 25.615C28.9134 25.5639 28.9784 25.5242 29.0492 25.4982C33.8335 23.7353 39.0894 23.7353 43.8737 25.4982C44.0007 25.5443 44.1073 25.6337 44.1748 25.7507C44.2423 25.8678 44.2664 26.0048 44.2427 26.1378C44.2191 26.2708 44.1492 26.3912 44.0455 26.4778C43.9418 26.5643 43.8109 26.6115 43.6758 26.611Z" fill="#DFDAFD"/>
<path d="M7.21257 8.37365C7.07748 8.37417 6.94655 8.327 6.84283 8.24044C6.73912 8.15388 6.66928 8.03349 6.64563 7.90049C6.62198 7.76749 6.64603 7.63041 6.71354 7.5134C6.78105 7.3964 6.8877 7.30697 7.01468 7.26088C11.7989 5.49799 17.0549 5.49799 21.8392 7.26088C21.91 7.28687 21.975 7.32655 22.0304 7.37765C22.0859 7.42876 22.1308 7.49029 22.1625 7.55873C22.1941 7.62718 22.212 7.70119 22.2151 7.77655C22.2182 7.85191 22.2064 7.92714 22.1804 7.99795C22.1545 8.06875 22.1148 8.13375 22.0637 8.18922C22.0126 8.24469 21.951 8.28955 21.8826 8.32124C21.8142 8.35293 21.7401 8.37083 21.6648 8.37392C21.5894 8.37701 21.5142 8.36522 21.4434 8.33924C16.915 6.66824 11.9389 6.66824 7.41046 8.33924C7.3469 8.36176 7.28 8.37339 7.21257 8.37365Z" fill="#DFDAFD"/>
<path d="M7.21257 14.4537C7.07748 14.4542 6.94655 14.4071 6.84283 14.3205C6.73912 14.234 6.66928 14.1136 6.64563 13.9806C6.62198 13.8476 6.64603 13.7105 6.71354 13.5935C6.78105 13.4765 6.8877 13.387 7.01468 13.341C11.7983 11.5743 17.0556 11.5743 21.8392 13.341C21.9131 13.3644 21.9814 13.4026 22.0402 13.4532C22.0989 13.5038 22.1468 13.5657 22.1809 13.6354C22.215 13.705 22.2346 13.7808 22.2386 13.8582C22.2426 13.9356 22.2308 14.013 22.2041 14.0858C22.1773 14.1586 22.136 14.2251 22.0828 14.2815C22.0296 14.3379 21.9655 14.3828 21.8944 14.4138C21.8233 14.4447 21.7467 14.4608 21.6692 14.4613C21.5916 14.4617 21.5148 14.4465 21.4434 14.4164C16.915 12.7454 11.9389 12.7454 7.41046 14.4164C7.34744 14.4412 7.2803 14.4539 7.21257 14.4537Z" fill="#DFDAFD"/>
<path d="M7.21257 20.5309C7.07885 20.5297 6.94978 20.4817 6.84767 20.3953C6.74556 20.309 6.67682 20.1897 6.65335 20.058C6.62988 19.9264 6.65314 19.7907 6.71912 19.6744C6.7851 19.558 6.88964 19.4684 7.01468 19.421C11.7983 17.6544 17.0556 17.6544 21.8392 19.421C21.9131 19.4445 21.9814 19.4826 22.0402 19.5332C22.0989 19.5838 22.1468 19.6458 22.1809 19.7154C22.215 19.785 22.2346 19.8609 22.2386 19.9383C22.2426 20.0157 22.2308 20.0931 22.2041 20.1659C22.1773 20.2386 22.136 20.3052 22.0828 20.3616C22.0296 20.4179 21.9655 20.4629 21.8944 20.4938C21.8233 20.5247 21.7467 20.5409 21.6692 20.5414C21.5917 20.5418 21.5148 20.5266 21.4434 20.4965C16.915 18.8255 11.9389 18.8255 7.41046 20.4965C7.3469 20.519 7.28 20.5307 7.21257 20.5309Z" fill="#DFDAFD"/>
<path d="M7.21257 26.611C7.07748 26.6115 6.94655 26.5643 6.84283 26.4778C6.73912 26.3912 6.66928 26.2708 6.64563 26.1378C6.62198 26.0048 6.64603 25.8678 6.71354 25.7507C6.78105 25.6337 6.8877 25.5443 7.01468 25.4982C11.7989 23.7353 17.0549 23.7353 21.8392 25.4982C21.91 25.5242 21.975 25.5639 22.0304 25.615C22.0859 25.6661 22.1308 25.7276 22.1625 25.7961C22.1941 25.8645 22.212 25.9385 22.2151 26.0139C22.2182 26.0893 22.2064 26.1645 22.1804 26.2353C22.1545 26.3061 22.1148 26.3711 22.0637 26.4266C22.0126 26.482 21.951 26.5269 21.8826 26.5586C21.8142 26.5903 21.7401 26.6082 21.6648 26.6113C21.5894 26.6144 21.5142 26.6026 21.4434 26.5766C16.915 24.9056 11.9389 24.9056 7.41046 26.5766C7.3469 26.5991 7.28 26.6107 7.21257 26.611Z" fill="#DFDAFD"/>
<path d="M43.5324 8.57441C43.465 8.57415 43.3981 8.56251 43.3345 8.53999C38.8061 6.869 33.83 6.869 29.3016 8.53999C29.2308 8.56598 29.1555 8.57777 29.0802 8.57468C29.0048 8.57159 28.9308 8.55369 28.8624 8.522C28.7939 8.49031 28.7324 8.44545 28.6813 8.38998C28.6302 8.33451 28.5905 8.26951 28.5645 8.19871C28.5385 8.1279 28.5267 8.05267 28.5298 7.97731C28.5329 7.90195 28.5508 7.82793 28.5825 7.75949C28.6142 7.69105 28.6591 7.62952 28.7145 7.57841C28.77 7.52731 28.835 7.48763 28.9058 7.46164C33.6901 5.69874 38.946 5.69874 43.7303 7.46164C43.8573 7.50773 43.9639 7.59715 44.0314 7.71416C44.0989 7.83117 44.123 7.96825 44.0993 8.10125C44.0757 8.23425 44.0058 8.35464 43.9021 8.4412C43.7984 8.52775 43.6675 8.57493 43.5324 8.57441Z" fill="#4D4C78"/>
<path d="M43.5324 14.6545C43.4647 14.6547 43.3975 14.642 43.3345 14.6172C38.8061 12.9462 33.83 12.9462 29.3016 14.6172C29.2301 14.6472 29.1533 14.6625 29.0758 14.662C28.9983 14.6616 28.9216 14.6454 28.8505 14.6145C28.7795 14.5836 28.7154 14.5386 28.6621 14.4822C28.6089 14.4259 28.5677 14.3593 28.5409 14.2866C28.5141 14.2138 28.5024 14.1364 28.5064 14.059C28.5104 13.9815 28.53 13.9057 28.5641 13.8361C28.5982 13.7665 28.6461 13.7045 28.7048 13.6539C28.7635 13.6033 28.8319 13.5651 28.9058 13.5417C33.6894 11.775 38.9467 11.775 43.7303 13.5417C43.8573 13.5878 43.9639 13.6772 44.0314 13.7942C44.0989 13.9112 44.123 14.0483 44.0993 14.1813C44.0757 14.3143 44.0058 14.4347 43.9021 14.5213C43.7984 14.6078 43.6675 14.655 43.5324 14.6545Z" fill="#4D4C78"/>
<path d="M43.5324 20.7317C43.465 20.7314 43.3981 20.7198 43.3345 20.6973C38.8061 19.0263 33.83 19.0263 29.3016 20.6973C29.2301 20.7273 29.1533 20.7426 29.0758 20.7421C28.9983 20.7417 28.9216 20.7255 28.8505 20.6946C28.7795 20.6637 28.7154 20.6187 28.6621 20.5623C28.6089 20.506 28.5677 20.4394 28.5409 20.3666C28.5141 20.2939 28.5024 20.2165 28.5064 20.139C28.5104 20.0616 28.53 19.9858 28.5641 19.9162C28.5982 19.8466 28.6461 19.7846 28.7048 19.734C28.7635 19.6834 28.8319 19.6452 28.9058 19.6218C33.6894 17.8551 38.9467 17.8551 43.7303 19.6218C43.8553 19.6692 43.9599 19.7588 44.0258 19.8751C44.0918 19.9914 44.1151 20.1271 44.0916 20.2588C44.0681 20.3904 43.9994 20.5098 43.8973 20.5961C43.7952 20.6825 43.6661 20.7304 43.5324 20.7317Z" fill="#4D4C78"/>
<path d="M43.5324 26.8118C43.465 26.8115 43.3981 26.7999 43.3345 26.7773C38.8061 25.1063 33.83 25.1063 29.3016 26.7773C29.2308 26.8033 29.1555 26.8151 29.0802 26.812C29.0048 26.8089 28.9308 26.791 28.8624 26.7593C28.7939 26.7277 28.7324 26.6828 28.6813 26.6273C28.6302 26.5718 28.5905 26.5069 28.5645 26.436C28.5385 26.3652 28.5267 26.29 28.5298 26.2147C28.5329 26.1393 28.5508 26.0653 28.5825 25.9968C28.6142 25.9284 28.6591 25.8669 28.7145 25.8158C28.77 25.7646 28.835 25.725 28.9058 25.699C33.6901 23.9361 38.946 23.9361 43.7303 25.699C43.8573 25.7451 43.9639 25.8345 44.0314 25.9515C44.0989 26.0685 44.123 26.2056 44.0993 26.3386C44.0757 26.4716 44.0058 26.592 43.9021 26.6785C43.7984 26.7651 43.6675 26.8123 43.5324 26.8118Z" fill="#4D4C78"/>
<path d="M47.3324 5.05256C47.3324 4.40631 46.8086 3.88243 46.1623 3.88243C45.5161 3.88243 44.9922 4.40631 44.9922 5.05256V18.3458C44.9922 18.9921 45.5161 19.516 46.1623 19.516C46.8086 19.516 47.3324 18.9921 47.3324 18.3458V5.05256Z" fill="#DFDAFD"/>
<path d="M25.3008 6.34887C25.3008 5.88953 24.9284 5.51716 24.4691 5.51716C24.0097 5.51716 23.6374 5.88953 23.6374 6.34887V14.8016C23.6374 15.2609 24.0097 15.6333 24.4691 15.6333C24.9284 15.6333 25.3008 15.2609 25.3008 14.8016V6.34887Z" fill="#DFDAFD"/>
<path d="M7.06917 8.57441C6.93409 8.57493 6.80315 8.52775 6.69944 8.4412C6.59572 8.35464 6.52589 8.23425 6.50223 8.10125C6.47858 7.96825 6.50263 7.83117 6.57014 7.71416C6.63766 7.59715 6.7443 7.50773 6.87128 7.46164C11.6555 5.69874 16.9115 5.69874 21.6958 7.46164C21.7666 7.48763 21.8316 7.52731 21.887 7.57841C21.9425 7.62952 21.9874 7.69105 22.0191 7.75949C22.0507 7.82793 22.0686 7.90195 22.0717 7.97731C22.0748 8.05267 22.063 8.1279 22.037 8.19871C22.0111 8.26951 21.9714 8.33451 21.9203 8.38998C21.8692 8.44545 21.8076 8.49031 21.7392 8.522C21.6708 8.55369 21.5967 8.57159 21.5214 8.57468C21.446 8.57777 21.3708 8.56598 21.3 8.53999C16.7716 6.869 11.7955 6.869 7.26706 8.53999C7.2035 8.56251 7.1366 8.57415 7.06917 8.57441Z" fill="#4D4C78"/>
<path d="M7.06917 14.6545C6.93409 14.655 6.80315 14.6078 6.69944 14.5213C6.59572 14.4347 6.52589 14.3143 6.50223 14.1813C6.47858 14.0483 6.50263 13.9112 6.57014 13.7942C6.63766 13.6772 6.7443 13.5878 6.87128 13.5417C11.6549 11.775 16.9122 11.775 21.6958 13.5417C21.7697 13.5651 21.838 13.6033 21.8968 13.6539C21.9555 13.7045 22.0034 13.7665 22.0375 13.8361C22.0716 13.9057 22.0912 13.9815 22.0952 14.059C22.0992 14.1364 22.0874 14.2138 22.0607 14.2866C22.0339 14.3593 21.9926 14.4259 21.9394 14.4822C21.8862 14.5386 21.8221 14.5836 21.751 14.6145C21.6799 14.6454 21.6033 14.6616 21.5258 14.662C21.4483 14.6625 21.3714 14.6472 21.3 14.6172C16.7716 12.9462 11.7955 12.9462 7.26706 14.6172C7.20404 14.642 7.1369 14.6547 7.06917 14.6545Z" fill="#4D4C78"/>
<path d="M7.06917 20.7317C6.93545 20.7304 6.80638 20.6825 6.70427 20.5961C6.60216 20.5098 6.53343 20.3904 6.50995 20.2588C6.48648 20.1271 6.50974 19.9914 6.57572 19.8751C6.6417 19.7588 6.74625 19.6692 6.87129 19.6218C11.6549 17.8551 16.9122 17.8551 21.6958 19.6218C21.7697 19.6452 21.838 19.6834 21.8968 19.734C21.9555 19.7846 22.0034 19.8466 22.0375 19.9162C22.0716 19.9858 22.0912 20.0616 22.0952 20.139C22.0992 20.2165 22.0874 20.2939 22.0607 20.3666C22.0339 20.4394 21.9926 20.506 21.9394 20.5623C21.8862 20.6187 21.8221 20.6637 21.751 20.6946C21.6799 20.7255 21.6033 20.7417 21.5258 20.7421C21.4483 20.7426 21.3714 20.7273 21.3 20.6973C16.7716 19.0263 11.7955 19.0263 7.26706 20.6973C7.20351 20.7198 7.1366 20.7314 7.06917 20.7317Z" fill="#4D4C78"/>
<path d="M7.06917 26.8118C6.93409 26.8123 6.80315 26.7651 6.69944 26.6785C6.59572 26.592 6.52589 26.4716 6.50223 26.3386C6.47858 26.2056 6.50263 26.0685 6.57014 25.9515C6.63766 25.8345 6.7443 25.7451 6.87128 25.699C11.6555 23.9361 16.9115 23.9361 21.6958 25.699C21.7666 25.725 21.8316 25.7646 21.887 25.8158C21.9425 25.8669 21.9874 25.9284 22.0191 25.9968C22.0507 26.0653 22.0686 26.1393 22.0717 26.2147C22.0748 26.29 22.063 26.3652 22.037 26.436C22.0111 26.5069 21.9714 26.5718 21.9203 26.6273C21.8692 26.6828 21.8076 26.7277 21.7392 26.7593C21.6708 26.791 21.5967 26.8089 21.5214 26.812C21.446 26.8151 21.3708 26.8033 21.3 26.7773C16.7716 25.1063 11.7955 25.1063 7.26706 26.7773C7.2035 26.7999 7.1366 26.8115 7.06917 26.8118Z" fill="#4D4C78"/>
<path d="M43.4836 36.7033C43.4836 36.3897 43.23 36.1355 42.9172 36.1355C42.6044 36.1355 42.3508 36.3897 42.3508 36.7033V38.5899C42.3508 38.9035 42.6044 39.1577 42.9172 39.1577C43.23 39.1577 43.4836 38.9035 43.4836 38.5899V36.7033Z" fill="#FAD564"/>
<path d="M50.3008 8.92143C50.3008 8.6189 50.0555 8.37365 49.753 8.37365C49.4505 8.37365 49.2052 8.6189 49.2052 8.92143V20.7248C49.2052 21.0273 49.4505 21.2726 49.753 21.2726C50.0555 21.2726 50.3008 21.0273 50.3008 20.7248V8.92143Z" fill="#83D0FB"/>
</svg>
