<svg width="30" height="30" viewBox="0 0 30 30" fill="none" xmlns="http://www.w3.org/2000/svg">
<path d="M29.764 11.4052L24.7551 16.4141L11.4045 29.764C11.0902 30.079 10.5795 30.0783 10.2645 29.764L8.35653 27.8553C10.0715 26.1404 10.0722 23.3591 8.35653 21.6435C8.27946 21.5664 8.19971 21.4927 8.11862 21.423C6.39291 19.9318 3.78257 20.0056 2.14465 21.6435L0.235986 19.7355C-0.0783269 19.4205 -0.0789971 18.9098 0.235986 18.5955L5.24556 13.5866L18.5955 0.235986C18.9098 -0.0789971 19.4205 -0.0783269 19.7355 0.235986L21.6435 2.14465C19.9285 3.85964 19.9285 6.64087 21.6435 8.35653C23.3591 10.0722 26.1404 10.0715 27.8553 8.35653L29.764 10.2645C30.0783 10.5795 30.079 11.0902 29.764 11.4052Z" fill="#FFC035"/>
<path d="M14.5958 23.2041C14.5272 23.2041 14.4586 23.1779 14.4062 23.1256L5.05524 13.7746C4.95056 13.6698 4.95022 13.4998 5.05491 13.3951C5.15959 13.2904 5.32894 13.29 5.43369 13.3948L14.7853 22.7465C14.89 22.8512 14.89 23.0209 14.7853 23.1256C14.733 23.178 14.6644 23.2041 14.5958 23.2041Z" fill="#C98B0E"/>
<path d="M24.7545 16.6807C24.686 16.6807 24.6173 16.6545 24.565 16.6022L15.2133 7.2506C15.1086 7.14585 15.1086 6.97616 15.2133 6.87148C15.3179 6.7668 15.4878 6.7668 15.5924 6.87148L24.944 16.2231C25.0488 16.3278 25.0488 16.4976 24.944 16.6022C24.8917 16.6545 24.8231 16.6807 24.7545 16.6807Z" fill="#C98B0E"/>
<path opacity="0.2" d="M29.7645 11.4041L24.7556 16.413L11.405 29.763C11.0907 30.0779 10.58 30.0773 10.265 29.763L8.35705 27.8543C10.072 26.1393 10.0727 23.3581 8.35705 21.6424C8.27998 21.5653 8.20023 21.4916 8.11914 21.4219L21.644 8.35547C23.3597 10.0711 26.1409 10.0705 27.8559 8.35547L29.7645 10.2635C30.0788 10.5784 30.0795 11.0891 29.7645 11.4041Z" fill="url(#paint0_linear_528_1242)"/>
<defs>
<linearGradient id="paint0_linear_528_1242" x1="14.7713" y1="14.7697" x2="20.5851" y2="20.5835" gradientUnits="userSpaceOnUse">
<stop/>
<stop offset="1" stop-color="white" stop-opacity="0"/>
</linearGradient>
</defs>
</svg>
