<svg width="30" height="28" viewBox="0 0 30 28" fill="none" xmlns="http://www.w3.org/2000/svg">
<path d="M6.7023 8.51452L9.73472 1.33058C11.006 1.86769 12.4719 1.27193 13.0082 0L27.4567 6.09908C26.9204 7.37032 27.5161 8.83632 28.7873 9.37267L25.637 16.835C24.4214 16.3224 23.0283 16.8449 22.4395 18.0029V11.0137C21.0594 11.0137 19.9411 9.89463 19.9411 8.51452H6.7023Z" fill="#415A6B"/>
<path d="M10.1152 2.22297C11.3864 2.76014 12.8524 2.16439 13.3887 0.892458L27.2802 6.75638C27.3084 6.53538 27.3659 6.31445 27.4567 6.09908L13.0082 0C12.4719 1.27193 11.006 1.86769 9.73472 1.33058L6.7023 8.51452H7.45942L10.1152 2.22297Z" fill="#304956"/>
<path d="M11.1914 8.89506C11.1421 8.89506 11.0919 8.88539 11.0437 8.86493C10.8501 8.78322 10.7595 8.56009 10.8412 8.36655L13.0946 3.029C13.1763 2.83546 13.3995 2.74501 13.593 2.82648C13.7866 2.90819 13.8772 3.1314 13.7955 3.32494L11.5421 8.66249C11.4807 8.80764 11.3398 8.89506 11.1914 8.89506Z" fill="#304956"/>
<path d="M22.4394 14.1549C22.3901 14.1549 22.3399 14.1453 22.2916 14.1249C22.0981 14.0432 22.0074 13.82 22.0891 13.6264L24.5259 7.85448C24.6075 7.66101 24.8308 7.57025 25.0243 7.65204C25.2178 7.73374 25.3085 7.95688 25.2268 8.15042L22.79 13.9224C22.7287 14.0677 22.5877 14.1549 22.4394 14.1549Z" fill="#304956"/>
<path d="M2.4489 3.68897C3.21023 3.68897 3.82741 3.07178 3.82741 2.31045C3.82741 1.54912 3.21023 0.931941 2.4489 0.931941C1.68757 0.931941 1.07039 1.54912 1.07039 2.31045C1.07039 3.07178 1.68757 3.68897 2.4489 3.68897Z" fill="#EF3E5C"/>
<path d="M1.4507 3.1473C1.4507 2.38577 2.06768 1.76879 2.82921 1.76879C3.21926 1.76879 3.57065 1.93136 3.82133 2.19155C3.761 1.48593 3.17026 0.931941 2.4489 0.931941C1.68737 0.931941 1.07039 1.54892 1.07039 2.31045C1.07039 2.68194 1.21783 3.01842 1.45671 3.26621C1.45344 3.22695 1.4507 3.18739 1.4507 3.1473Z" fill="#E42A53"/>
<path d="M19.9411 8.51452C19.9411 9.89463 21.0594 11.0137 22.4395 11.0137V18.0029L22.4395 19.1136C21.0595 19.1136 19.9412 20.2327 19.9412 21.6128H4.25801C4.25801 20.2327 3.13968 19.1136 1.75965 19.1136V11.0136C3.13968 11.0136 4.25801 9.89455 4.25801 8.51444H19.9412L19.9411 8.51452ZM16.9248 20.2334V18.855H15.5463V20.2334H16.9248ZM16.9248 11.2723V9.89379H15.5463V11.2723H16.9248ZM15.3903 14.1549C15.3903 13.3249 14.6538 12.6508 13.7433 12.6508C12.9209 12.6508 12.5101 13.0266 12.0985 13.779C11.6878 13.0266 11.2761 12.6508 10.4537 12.6508C9.54543 12.6508 8.809 13.3249 8.809 14.1549C8.809 15.659 10.4537 16.5156 12.0985 18.0196C13.7432 16.5156 15.3903 15.6589 15.3903 14.1549ZM14.857 20.2334V18.855H13.4785V20.2334H14.857ZM14.857 11.2723V9.89379H13.4785V11.2723H14.857ZM12.7892 20.2334V18.855H11.4099V20.2334H12.7892ZM12.7892 11.2723V9.89379H11.4099V11.2723H12.7892ZM10.7207 20.2334V18.855H9.34223V20.2334H10.7207ZM10.7207 11.2723V9.89379H9.34223V11.2723H10.7207ZM8.65289 20.2334V18.855H7.27438V20.2334H8.65289ZM8.65289 11.2723V9.89379H7.27438V11.2723H8.65289Z" fill="#FFC592"/>
<path d="M2.44921 11.6891C3.82932 11.6891 4.94757 10.57 4.94757 9.18993H20.0343C19.9741 8.97501 19.9412 8.74861 19.9412 8.51444H4.25801C4.25801 9.89455 3.13968 11.0136 1.75965 11.0136L1.75957 19.1135C1.99891 19.1135 2.23011 19.1479 2.44913 19.2107L2.44921 11.6891Z" fill="#E8AA7C"/>
<path d="M13.7433 12.6508C14.6539 12.6508 15.3903 13.3249 15.3903 14.1549C15.3903 15.659 13.7432 16.5156 12.0984 18.0196C10.4536 16.5156 8.80887 15.659 8.80887 14.1549C8.80887 13.3249 9.54529 12.6508 10.4536 12.6508C11.276 12.6508 11.6876 13.0266 12.0984 13.779C12.5101 13.0266 12.921 12.6508 13.7433 12.6508Z" fill="#EF3E5C"/>
<path d="M9.79794 14.4212C9.79794 13.6015 10.5165 12.9352 11.4092 12.9187C11.1564 12.7406 10.8539 12.6508 10.4537 12.6508C9.54543 12.6508 8.809 13.3249 8.809 14.1549C8.809 15.659 10.4536 16.5156 12.0984 18.0196C12.2113 17.9164 12.3244 17.8164 12.4367 17.7188C11.0354 16.5434 9.79794 15.7256 9.79794 14.4212Z" fill="#E42A53"/>
<path d="M16.9248 18.855H15.5463V20.2334H16.9248V18.855Z" fill="#BC8057"/>
<path d="M16.9248 9.89379H15.5463V11.2723H16.9248V9.89379Z" fill="#BC8057"/>
<path d="M14.857 18.855H13.4785V20.2334H14.857V18.855Z" fill="#BC8057"/>
<path d="M14.857 9.89379H13.4785V11.2723H14.857V9.89379Z" fill="#BC8057"/>
<path d="M12.7893 18.855H11.41V20.2334H12.7893V18.855Z" fill="#BC8057"/>
<path d="M12.7893 9.89379H11.41V11.2723H12.7893V9.89379Z" fill="#BC8057"/>
<path d="M10.7207 18.855H9.34223V20.2334H10.7207V18.855Z" fill="#BC8057"/>
<path d="M10.7207 9.89379H9.34223V11.2723H10.7207V9.89379Z" fill="#BC8057"/>
<path d="M8.65289 18.855H7.27438V20.2334H8.65289V18.855Z" fill="#BC8057"/>
<path d="M8.65289 9.89379H7.27438V11.2723H8.65289V9.89379Z" fill="#BC8057"/>
<path d="M5.8951 19.2353C5.68505 19.2353 5.51472 19.0651 5.51472 18.855V11.2723C5.51472 11.0623 5.68505 10.8919 5.8951 10.8919C6.10522 10.8919 6.27548 11.0623 6.27548 11.2723V18.855C6.27548 19.0651 6.10522 19.2353 5.8951 19.2353Z" fill="#BC8057"/>
<path d="M18.3041 19.2353C18.094 19.2353 17.9237 19.0651 17.9237 18.855V11.2723C17.9237 11.0623 18.094 10.8919 18.3041 10.8919C18.5142 10.8919 18.6845 11.0623 18.6845 11.2723V18.855C18.6845 19.0651 18.5141 19.2353 18.3041 19.2353Z" fill="#BC8057"/>
<path d="M28.2411 0.954308C29.0026 0.954308 29.6196 1.57122 29.6196 2.33274C29.6196 3.09435 29.0026 3.71126 28.2411 3.71126C27.4796 3.71126 26.8626 3.09435 26.8626 2.33274C26.8626 1.57122 27.4796 0.954308 28.2411 0.954308Z" fill="#EF3E5C"/>
<path d="M27.243 3.16959C27.243 2.40806 27.86 1.79115 28.6215 1.79115C29.0115 1.79115 29.3629 1.95365 29.6136 2.21391C29.5533 1.50822 28.9625 0.954308 28.2411 0.954308C27.4796 0.954308 26.8626 1.57122 26.8626 2.33274C26.8626 2.7043 27.0101 3.04072 27.249 3.28857C27.2456 3.24932 27.243 3.20976 27.243 3.16959Z" fill="#E42A53"/>
<path d="M28.2411 4.09164C27.2713 4.09164 26.4822 3.30265 26.4822 2.33274C26.4822 1.36292 27.2713 0.573924 28.2411 0.573924C29.2109 0.573924 30 1.36292 30 2.33274C30 3.30265 29.2109 4.09164 28.2411 4.09164ZM28.2411 1.33469C27.6908 1.33469 27.243 1.7824 27.243 2.33274C27.243 2.88308 27.6908 3.33087 28.2411 3.33087C28.7914 3.33087 29.2392 2.88308 29.2392 2.33274C29.2392 1.7824 28.7914 1.33469 28.2411 1.33469Z" fill="black"/>
<path d="M24.1984 21.0386C24.96 21.0386 25.577 21.6555 25.577 22.417C25.577 23.1786 24.96 23.7956 24.1984 23.7956C23.4369 23.7956 22.8199 23.1786 22.8199 22.417C22.8199 21.6555 23.4369 21.0386 24.1984 21.0386Z" fill="#EF3E5C"/>
<path d="M23.2003 23.2539C23.2003 22.4923 23.8173 21.8754 24.5788 21.8754C24.9689 21.8754 25.3203 22.038 25.5709 22.2982C25.5106 21.5926 24.9198 21.0386 24.1984 21.0386C23.4369 21.0386 22.8199 21.6555 22.8199 22.417C22.8199 22.7886 22.9674 23.1251 23.2063 23.3729C23.2029 23.3336 23.2003 23.294 23.2003 23.2539Z" fill="#E42A53"/>
<path d="M14.1678 24.7501H0.380384C0.17026 24.7501 0 24.5798 0 24.3697C0 24.1596 0.17026 23.9893 0.380384 23.9893H14.1677C14.3778 23.9893 14.5481 24.1596 14.5481 24.3697C14.5481 24.5798 14.3778 24.7501 14.1678 24.7501Z" fill="#FFC592"/>
<path d="M21.061 27.5079H12.7892C12.5791 27.5079 12.4088 27.3376 12.4088 27.1275C12.4088 26.9174 12.5791 26.7471 12.7892 26.7471H21.061C21.2712 26.7471 21.4414 26.9174 21.4414 27.1275C21.4414 27.3376 21.2712 27.5079 21.061 27.5079Z" fill="#415A6B"/>
</svg>
