<svg width="116" height="116" viewBox="0 0 116 116" fill="none" xmlns="http://www.w3.org/2000/svg">
<circle opacity="0.2" cx="58" cy="58" r="58" fill="#A81A41"/>
<path d="M31.6663 43.4878H78.9521C80.0922 43.4878 81.1855 43.9407 81.9917 44.7469C82.7979 45.553 83.2508 46.6464 83.2508 47.7865V85.4001C83.2508 86.5402 82.7979 87.6336 81.9917 88.4398C81.1855 89.2459 80.0922 89.6988 78.9521 89.6988H31.6663C30.5263 89.6988 29.4329 89.2459 28.6267 88.4398C27.8205 87.6336 27.3676 86.5402 27.3676 85.4001V47.7865C27.3676 46.6464 27.8205 45.553 28.6267 44.7469C29.4329 43.9407 30.5263 43.4878 31.6663 43.4878Z" fill="#00659D"/>
<path d="M82.6212 34.2609L76.3576 27.9972C76.158 27.7976 75.921 27.6393 75.6603 27.5313C75.3995 27.4232 75.12 27.3677 74.8377 27.3677H41.3384C40.7684 27.3677 40.2217 27.5941 39.8186 27.9972C39.4155 28.4003 39.1891 28.947 39.1891 29.517V54.2345H83.2508V35.7807C83.2508 35.4984 83.1952 35.2189 83.0872 34.9582C82.9791 34.6974 82.8208 34.4604 82.6212 34.2609Z" fill="#BDECDC"/>
<path d="M85.4001 53.1599H40.2637C39.1237 53.1599 38.0303 53.6128 37.2241 54.4189C36.4179 55.2251 35.965 56.3185 35.965 57.4586V85.4001C35.965 86.5402 35.5121 87.6336 34.706 88.4398C33.8998 89.2459 32.8064 89.6988 31.6663 89.6988H85.4001C86.5402 89.6988 87.6336 89.2459 88.4398 88.4398C89.2459 87.6336 89.6988 86.5402 89.6988 85.4001V57.4586C89.6988 56.3185 89.2459 55.2251 88.4398 54.4189C87.6336 53.6128 86.5402 53.1599 85.4001 53.1599Z" fill="#338DBF"/>
<path d="M73.5787 37.0397H42.4131V39.1891H73.5787V37.0397Z" fill="#59CEA7"/>
<path d="M80.0267 42.4131H42.4131V44.5625H80.0267V42.4131Z" fill="#59CEA7"/>
<path d="M80.0267 47.7865H42.4131V49.9358H80.0267V47.7865Z" fill="#59CEA7"/>
<path d="M71.4293 31.6664H42.4131V33.8157H71.4293V31.6664Z" fill="#59CEA7"/>
<path d="M56.537 65.503L54.4396 68.9987C54.0712 67.3419 54.2014 65.6131 54.8137 64.0302C55.426 62.4472 56.493 61.0808 57.8805 60.1031C59.2679 59.1255 60.9136 58.5802 62.6103 58.5362C64.307 58.4921 65.9788 58.9511 67.4151 59.8553L68.5627 58.0379C66.8031 56.9278 64.7591 56.3525 62.6788 56.3817C60.5985 56.411 58.5715 57.0435 56.8438 58.2026C55.1161 59.3617 53.7621 60.9974 52.9461 62.9112C52.1301 64.825 51.8873 66.9345 52.2471 68.9837L49.4141 67.2838L48.3082 69.1269L54.6032 72.9038L58.3801 66.6089L56.537 65.503Z" fill="#CBE2EF"/>
<path d="M77.3557 65.1344L71.0607 61.3576L67.2838 67.6524L69.1268 68.7583L71.2248 65.2616C71.5943 66.923 71.4625 68.6566 70.8461 70.243C70.2296 71.8295 69.1563 73.1973 67.7621 74.1734C66.3678 75.1494 64.7152 75.6898 63.0137 75.7261C61.3121 75.7624 59.638 75.293 58.2034 74.3772L57.0445 76.1873C58.6689 77.2249 60.5424 77.8065 62.4687 77.8713C64.3951 77.9362 66.3034 77.4818 67.9939 76.5558C69.6843 75.6299 71.0947 74.2664 72.0773 72.6082C73.0598 70.95 73.5784 69.0581 73.5787 67.1307C73.5792 66.5105 73.5266 65.8915 73.4214 65.2804L76.2498 66.9776L77.3557 65.1344Z" fill="#CBE2EF"/>
<path d="M82.6212 34.2609L76.3576 27.9972C76.158 27.7976 75.921 27.6393 75.6603 27.5313C75.3995 27.4232 75.12 27.3677 74.8377 27.3677H74.6534V32.741C74.6534 33.3111 74.8798 33.8578 75.2829 34.2609C75.686 34.6639 76.2327 34.8904 76.8027 34.8904H83.0551C82.9493 34.6563 82.8024 34.443 82.6212 34.2609Z" fill="#46C89D"/>
<path d="M82.1334 34.8904C80.5199 40.177 77.2513 44.8056 72.8091 48.0947C68.3669 51.3838 62.9859 53.1593 57.4586 53.1599H83.2507L83.2508 35.7807C83.25 35.4733 83.1833 35.1697 83.0551 34.8904H82.1334Z" fill="#A1C9BC"/>
<path d="M53.1599 89.7196H85.4001C86.5402 89.7196 87.6336 89.2667 88.4398 88.4606C89.2459 87.6544 89.6988 86.561 89.6988 85.4209V57.4794C89.6989 57.1097 89.6514 56.7415 89.5575 56.3839C87.9347 75.0633 72.2602 89.7196 53.1599 89.7196Z" fill="#2C78A3"/>
<path d="M80.0267 44.5625V42.4131H78.4058C77.8692 43.1597 77.2932 43.8771 76.6803 44.5625H80.0267Z" fill="#4CB08E"/>
<path d="M69.9529 49.9358H80.0267V47.7865H73.2145C72.1831 48.5843 71.0928 49.3028 69.9529 49.9358Z" fill="#4CB08E"/>
<path d="M77.8774 81.1014H47.7865C46.5994 81.1014 45.6371 82.0637 45.6371 83.2508C45.6371 84.4378 46.5994 85.4001 47.7865 85.4001H77.8774C79.0644 85.4001 80.0267 84.4378 80.0267 83.2508C80.0267 82.0637 79.0644 81.1014 77.8774 81.1014Z" fill="#00B378"/>
<path d="M66.6855 85.4001H69.7252L74.0239 81.1014H70.9842L66.6855 85.4001Z" fill="#59CEA7"/>
<path d="M60.2374 85.4001H63.2771L67.5758 81.1014H64.5361L60.2374 85.4001Z" fill="#59CEA7"/>
<path d="M53.7893 85.4001H56.8291L61.1278 81.1014H58.088L53.7893 85.4001Z" fill="#59CEA7"/>
<path d="M47.3808 85.3606C47.5145 85.3866 47.6503 85.3998 47.7865 85.4001H50.381L54.6797 81.1014H51.64L47.3808 85.3606Z" fill="#59CEA7"/>
<path d="M77.8658 81.1014H76.692C74.7357 82.752 72.6116 84.1927 70.3547 85.4001H77.8658C78.4359 85.4001 78.9826 85.1737 79.3856 84.7706C79.7887 84.3675 80.0152 83.8208 80.0152 83.2508C80.0152 82.6807 79.7887 82.134 79.3856 81.731C78.9826 81.3279 78.4359 81.1014 77.8658 81.1014Z" fill="#009966"/>
<path d="M85.4001 52.0852H84.3254V35.7806C84.3266 35.3571 84.2437 34.9375 84.0816 34.5461C83.9195 34.1548 83.6814 33.7995 83.3811 33.5009L77.1175 27.2373C76.8188 26.9369 76.4635 26.6988 76.0722 26.5368C75.6809 26.3747 75.2613 26.2918 74.8377 26.293H41.3384C40.4837 26.2939 39.6642 26.6339 39.0598 27.2383C38.4553 27.8428 38.1154 28.6622 38.1144 29.517V42.4131H31.6663C30.2417 42.4147 28.8759 42.9814 27.8686 43.9887C26.8612 44.9961 26.2946 46.3619 26.293 47.7865V85.4001C26.2946 86.8247 26.8612 88.1905 27.8686 89.1979C28.8759 90.2053 30.2417 90.7719 31.6663 90.7735H85.4001C86.8247 90.7719 88.1905 90.2053 89.1979 89.1979C90.2052 88.1905 90.7719 86.8247 90.7735 85.4001V57.4586C90.7719 56.034 90.2052 54.6682 89.1979 53.6608C88.1905 52.6535 86.8247 52.0868 85.4001 52.0852ZM75.728 28.8875L80.6562 33.8157H76.8027C76.5178 33.8154 76.2446 33.7021 76.0432 33.5006C75.8417 33.2991 75.7284 33.026 75.728 32.741V28.8875ZM40.2637 29.517C40.2641 29.2321 40.3774 28.9589 40.5789 28.7575C40.7803 28.556 41.0535 28.4427 41.3384 28.4423H73.5787V32.741C73.5797 33.5958 73.9196 34.4153 74.5241 35.0197C75.1285 35.6241 75.9479 35.9641 76.8027 35.9651H82.1761V52.0852H40.2637V29.517ZM34.8904 85.4001C34.8904 86.2552 34.5507 87.0752 33.9461 87.6799C33.3415 88.2845 32.5214 88.6242 31.6663 88.6242C30.8113 88.6242 29.9912 88.2845 29.3866 87.6799C28.782 87.0752 28.4423 86.2552 28.4423 85.4001V47.7865C28.4433 46.9317 28.7833 46.1123 29.3877 45.5078C29.9921 44.9034 30.8116 44.5634 31.6663 44.5625H38.1144V52.5352C37.1569 52.9541 36.3421 53.6427 35.7696 54.517C35.197 55.3913 34.8915 56.4135 34.8904 57.4586V85.4001ZM88.6241 85.4001C88.6232 86.2549 88.2832 87.0744 87.6788 87.6788C87.0744 88.2832 86.2549 88.6232 85.4001 88.6242H35.9625C36.6628 87.6953 37.041 86.5634 37.0397 85.4001V57.4586C37.0407 56.6038 37.3807 55.7843 37.9851 55.1799C38.5895 54.5755 39.409 54.2355 40.2637 54.2345H85.4001C86.2549 54.2355 87.0744 54.5755 87.6788 55.1799C88.2832 55.7843 88.6232 56.6038 88.6241 57.4586V85.4001Z" fill="black"/>
<path d="M73.5787 37.0397H42.4131V39.1891H73.5787V37.0397Z" fill="black"/>
<path d="M80.0267 42.4131H42.4131V44.5625H80.0267V42.4131Z" fill="black"/>
<path d="M80.0267 47.7865H42.4131V49.9358H80.0267V47.7865Z" fill="black"/>
<path d="M71.4293 31.6664H42.4131V33.8157H71.4293V31.6664Z" fill="black"/>
<path d="M58.3801 66.6089L56.537 65.503L54.4396 68.9987C54.0712 67.3419 54.2014 65.6131 54.8137 64.0302C55.426 62.4472 56.493 61.0808 57.8805 60.1031C59.2679 59.1255 60.9136 58.5802 62.6103 58.5362C64.307 58.4921 65.9788 58.9511 67.4151 59.8553L68.5627 58.0379C66.8031 56.9278 64.7591 56.3525 62.6788 56.3817C60.5985 56.411 58.5715 57.0435 56.8438 58.2026C55.1161 59.3617 53.7621 60.9974 52.9461 62.9112C52.1301 64.825 51.8873 66.9345 52.2471 68.9837L49.4141 67.2838L48.3082 69.1269L54.6032 72.9038L58.3801 66.6089Z" fill="black"/>
<path d="M69.1268 68.7583L71.2248 65.2616C71.5943 66.923 71.4625 68.6566 70.8461 70.243C70.2296 71.8295 69.1563 73.1973 67.7621 74.1734C66.3678 75.1494 64.7152 75.6898 63.0137 75.7261C61.3121 75.7624 59.638 75.293 58.2034 74.3772L57.0445 76.1873C58.6689 77.2249 60.5424 77.8065 62.4687 77.8713C64.3951 77.9362 66.3034 77.4818 67.9939 76.5558C69.6843 75.6299 71.0947 74.2664 72.0773 72.6082C73.0598 70.95 73.5784 69.0581 73.5787 67.1307C73.5792 66.5105 73.5266 65.8915 73.4214 65.2804L76.2498 66.9776L77.3557 65.1344L71.0607 61.3576L67.2838 67.6524L69.1268 68.7583Z" fill="black"/>
<path d="M77.8774 80.0268H47.7865C46.9314 80.0268 46.1114 80.3664 45.5067 80.9711C44.9021 81.5757 44.5625 82.3957 44.5625 83.2508C44.5625 84.1059 44.9021 84.9259 45.5067 85.5305C46.1114 86.1351 46.9314 86.4748 47.7865 86.4748H77.8774C78.7325 86.4748 79.5525 86.1351 80.1571 85.5305C80.7617 84.9259 81.1014 84.1059 81.1014 83.2508C81.1014 82.3957 80.7617 81.5757 80.1571 80.9711C79.5525 80.3664 78.7325 80.0268 77.8774 80.0268ZM48.416 84.3255H47.7865C47.5015 84.3255 47.2281 84.2122 47.0266 84.0107C46.825 83.8092 46.7118 83.5358 46.7118 83.2508C46.7118 82.9658 46.825 82.6924 47.0266 82.4909C47.2281 82.2893 47.5015 82.1761 47.7865 82.1761H50.5653L48.416 84.3255ZM54.864 84.3255H51.4557L53.605 82.1761H57.0134L54.864 84.3255ZM61.3121 84.3255H57.9037L60.0531 82.1761H63.4614L61.3121 84.3255ZM67.7601 84.3255H64.3518L66.5011 82.1761H69.9095L67.7601 84.3255ZM77.8774 84.3255H70.7998L72.9492 82.1761H77.8774C78.1624 82.1761 78.4358 82.2893 78.6373 82.4909C78.8388 82.6924 78.9521 82.9658 78.9521 83.2508C78.9521 83.5358 78.8388 83.8092 78.6373 84.0107C78.4358 84.2122 78.1624 84.3255 77.8774 84.3255Z" fill="black"/>
</svg>
