<svg width="30" height="49" viewBox="0 0 30 49" fill="none" xmlns="http://www.w3.org/2000/svg">
<path d="M22.2175 26.8101V21.4375H21.0479L30 0H21.7526L15 16.4119L8.24742 0H0L8.95155 21.4375H7.78454V26.8086C4.66546 29.0351 2.62887 32.6605 2.62887 36.75C2.62887 43.5043 8.17835 49 15 49C21.8217 49 27.3711 43.5043 27.3711 36.75C27.3711 32.6611 25.3356 29.0366 22.2175 26.8101ZM8.81546 22.4583H9.39845L9.84536 23.4792H11.9072H18.0928H20.1546L20.6015 22.4583H21.1866V26.1481C19.3655 25.1023 17.2531 24.5 15 24.5C12.7479 24.5 10.6366 25.1023 8.81546 26.1476V22.4583ZM15 46.9583C9.31598 46.9583 4.69072 42.3789 4.69072 36.75C4.69072 31.1211 9.31598 26.5417 15 26.5417C20.684 26.5417 25.3093 31.1211 25.3093 36.75C25.3093 42.3789 20.684 46.9583 15 46.9583Z" fill="#231F20"/>
</svg>
