<svg width="73" height="73" viewBox="0 0 73 73" fill="none" xmlns="http://www.w3.org/2000/svg">
<path d="M53.8777 34.7535C64.4388 34.7535 73 43.3152 73 53.8768C73 64.438 64.4388 73 53.8777 73C43.317 73 34.7554 64.438 34.7554 53.8768C34.7554 43.3152 43.317 34.7535 53.8777 34.7535ZM53.8777 61.703C52.6786 61.703 51.7065 62.6752 51.7065 63.8747C51.7065 65.0739 52.6786 66.0461 53.8777 66.0461C55.0769 66.0461 56.049 65.0739 56.049 63.8747C56.049 62.6752 55.0769 61.703 53.8777 61.703ZM53.8781 41.2694C50.2344 41.2694 47.3963 44.1114 47.4342 48.0644C47.4432 49.0247 48.229 49.7955 49.1893 49.7861C50.1492 49.7771 50.92 48.9913 50.9106 48.031C50.8915 46.0178 52.1612 44.7463 53.8781 44.7463C55.5201 44.7463 56.8451 46.1089 56.8451 48.0477C56.8451 48.7163 56.6529 49.2378 56.0663 50L55.7395 50.403L55.3953 50.7969L54.4726 51.8056L53.9984 52.3518C52.6657 53.9401 52.1397 55.1073 52.1397 56.9069C52.1397 57.8673 52.9178 58.6454 53.8781 58.6454C54.838 58.6454 55.6165 57.8673 55.6165 56.9069C55.6165 56.2004 55.8198 55.6591 56.4467 54.8548L56.7419 54.4929L57.093 54.0913L58.0168 53.0812L58.4848 52.5423C59.8001 50.9746 60.3219 49.8188 60.3219 48.0477C60.3219 44.2102 57.4626 41.2694 53.8781 41.2694ZM34.833 41.705C33.8014 43.3159 32.9687 45.0662 32.369 46.9215L7.81886 46.9225C6.3809 46.9225 5.21517 48.0883 5.21517 49.5264V51.5347C5.21517 53.3973 5.87962 55.1987 7.08905 56.6152C11.4465 61.718 18.2815 64.3111 27.8019 64.3111C29.8758 64.3111 31.8221 64.1884 33.6439 63.9429C34.4961 65.6636 35.5655 67.2582 36.813 68.6938C34.0472 69.2508 31.0401 69.5265 27.8019 69.5265C16.8645 69.5265 8.56884 66.3795 3.12312 60.0018C1.10742 57.6413 0 54.6389 0 51.5347V49.5264C0 45.2077 3.50063 41.7071 7.81886 41.7071L34.833 41.705ZM27.8019 0C37.4026 0 45.1858 7.78343 45.1858 17.3848C45.1858 26.9861 37.4026 34.7695 27.8019 34.7695C18.2011 34.7695 10.418 26.9861 10.418 17.3848C10.418 7.78343 18.2011 0 27.8019 0ZM27.8019 5.21543C21.0813 5.21543 15.6332 10.6638 15.6332 17.3848C15.6332 24.1057 21.0813 29.5541 27.8019 29.5541C34.5225 29.5541 39.9706 24.1057 39.9706 17.3848C39.9706 10.6638 34.5225 5.21543 27.8019 5.21543Z" fill="black"/>
</svg>
