<svg width="73" height="77" viewBox="0 0 73 77" fill="none" xmlns="http://www.w3.org/2000/svg">
<path d="M52.8262 0H70.3222L70.7064 0.0537862L71.0867 0.16136L71.3173 0.261249C71.6246 0.391873 71.9051 0.587809 72.1586 0.837532L72.3123 1.00658L72.4813 1.22556L72.6888 1.57133L72.8386 1.9171L72.9116 2.16298L72.9654 2.40887L73 2.77384V20.1853C72.9998 20.9153 72.7224 21.6181 72.224 22.1515C71.7256 22.685 71.0433 23.0094 70.315 23.0591C69.5866 23.1089 68.8665 22.8803 68.3002 22.4196C67.7339 21.9589 67.3636 21.3004 67.2641 20.5772L67.2372 20.1853V9.8314L42.4954 34.5732C42.0075 35.0612 41.3607 35.3579 40.6726 35.4093C39.9845 35.4608 39.3007 35.2636 38.7457 34.8536L38.423 34.577L26.7821 23.3971L4.92169 45.2536C4.40755 45.7692 3.71729 46.071 2.9897 46.0983C2.26211 46.1257 1.55114 45.8766 0.999729 45.4011C0.448321 44.9256 0.0973661 44.259 0.0174268 43.5353C-0.0625126 42.8116 0.134491 42.0845 0.568829 41.5001L0.849287 41.1774L24.7458 17.2808C25.2342 16.7934 25.8813 16.4974 26.5694 16.4467C27.2575 16.3959 27.9409 16.5937 28.4955 17.0042L28.8183 17.2808L40.4592 28.4607L63.1571 5.76284H52.8224C52.1267 5.76188 51.455 5.5093 50.931 5.05172C50.407 4.59414 50.0663 3.96246 49.9717 3.27329L49.9448 2.88142C49.9448 2.18512 50.197 1.51239 50.6547 0.987632C51.1123 0.462874 51.7445 0.121589 52.4344 0.0268931L52.8262 0ZM2.88549 57.6284C3.64969 57.6284 4.38259 57.9319 4.92296 58.4723C5.46333 59.0127 5.76691 59.7456 5.76691 60.5098V73.9564C5.76691 74.7206 5.46333 75.4535 4.92296 75.9939C4.38259 76.5342 3.64969 76.8378 2.88549 76.8378C2.12129 76.8378 1.38839 76.5342 0.848018 75.9939C0.307648 75.4535 0.00407088 74.7206 0.00407088 73.9564V60.5098C0.00407088 59.7456 0.307648 59.0127 0.848018 58.4723C1.38839 57.9319 2.12129 57.6284 2.88549 57.6284ZM24.9764 45.1422C24.9764 44.378 24.6728 43.6451 24.1324 43.1047C23.592 42.5644 22.8591 42.2608 22.0949 42.2608C21.3307 42.2608 20.5978 42.5644 20.0575 43.1047C19.5171 43.6451 19.2135 44.378 19.2135 45.1422V73.9564C19.2135 74.7206 19.5171 75.4535 20.0575 75.9939C20.5978 76.5342 21.3307 76.8378 22.0949 76.8378C22.8591 76.8378 23.592 76.5342 24.1324 75.9939C24.6728 75.4535 24.9764 74.7206 24.9764 73.9564V45.1422ZM41.3044 49.9446C42.0686 49.9446 42.8015 50.2482 43.3419 50.7885C43.8822 51.3289 44.1858 52.0618 44.1858 52.826V73.9564C44.1858 74.7206 43.8822 75.4535 43.3419 75.9939C42.8015 76.5342 42.0686 76.8378 41.3044 76.8378C40.5402 76.8378 39.8073 76.5342 39.2669 75.9939C38.7266 75.4535 38.423 74.7206 38.423 73.9564V52.826C38.423 52.0618 38.7266 51.3289 39.2669 50.7885C39.8073 50.2482 40.5402 49.9446 41.3044 49.9446ZM63.3953 33.6165C63.3953 32.8523 63.0917 32.1194 62.5513 31.5791C62.011 31.0387 61.278 30.7351 60.5139 30.7351C59.7497 30.7351 59.0168 31.0387 58.4764 31.5791C57.936 32.1194 57.6324 32.8523 57.6324 33.6165V73.9564C57.6324 74.7206 57.936 75.4535 58.4764 75.9939C59.0168 76.5342 59.7497 76.8378 60.5139 76.8378C61.278 76.8378 62.011 76.5342 62.5513 75.9939C63.0917 75.4535 63.3953 74.7206 63.3953 73.9564V33.6165Z" fill="black"/>
</svg>
