<svg width="73" height="73" viewBox="0 0 73 73" fill="none" xmlns="http://www.w3.org/2000/svg">
<path d="M36.5 0C29.281 0 22.2241 2.14069 16.2217 6.15136C10.2193 10.162 5.54101 15.8625 2.77841 22.532C0.0158148 29.2016 -0.707007 36.5405 0.701353 43.6208C2.10971 50.7011 5.586 57.2048 10.6906 62.3094C15.7952 67.414 22.2989 70.8903 29.3792 72.2986C36.4595 73.707 43.7984 72.9842 50.4679 70.2216C57.1375 67.459 62.838 62.7807 66.8486 56.7783C70.8593 50.7759 73 43.719 73 36.5C73 26.8196 69.1545 17.5357 62.3094 10.6906C55.4643 3.84552 46.1804 0 36.5 0ZM36.5 67.7857C30.3123 67.7857 24.2635 65.9508 19.1186 62.5131C13.9737 59.0754 9.96372 54.1892 7.59578 48.4725C5.22784 42.7558 4.60828 36.4653 5.81545 30.3965C7.02261 24.3276 10.0023 18.753 14.3777 14.3777C18.7531 10.0023 24.3276 7.0226 30.3965 5.81543C36.4653 4.60826 42.7558 5.22783 48.4725 7.59577C54.1892 9.96371 59.0754 13.9737 62.5131 19.1186C65.9508 24.2635 67.7857 30.3123 67.7857 36.5C67.7857 44.7975 64.4895 52.7551 58.6223 58.6223C52.7551 64.4895 44.7975 67.7857 36.5 67.7857Z" fill="black"/>
<path d="M36.5 59.9643C38.6598 59.9643 40.4107 58.2134 40.4107 56.0536C40.4107 53.8937 38.6598 52.1428 36.5 52.1428C34.3402 52.1428 32.5893 53.8937 32.5893 56.0536C32.5893 58.2134 34.3402 59.9643 36.5 59.9643Z" fill="black"/>
<path d="M39.1072 15.6429H35.1964C33.6548 15.6394 32.1277 15.9406 30.7027 16.5289C29.2777 17.1173 27.983 17.9814 26.8929 19.0715C25.8028 20.1616 24.9387 21.4563 24.3504 22.8813C23.762 24.3062 23.4609 25.8334 23.4643 27.375V28.6786H28.6786V27.375C28.6786 25.6464 29.3653 23.9885 30.5876 22.7662C31.81 21.5439 33.4678 20.8572 35.1964 20.8572H39.1072C40.8358 20.8572 42.4936 21.5439 43.716 22.7662C44.9383 23.9885 45.625 25.6464 45.625 27.375C45.625 29.1037 44.9383 30.7615 43.716 31.9838C42.4936 33.2062 40.8358 33.8929 39.1072 33.8929H33.8929V45.625H39.1072V39.1072C42.2187 39.1072 45.2028 37.8711 47.403 35.6709C49.6032 33.4707 50.8393 30.4866 50.8393 27.375C50.8393 24.2635 49.6032 21.2794 47.403 19.0791C45.2028 16.8789 42.2187 15.6429 39.1072 15.6429Z" fill="black"/>
</svg>
