<svg width="73" height="82" viewBox="0 0 73 82" fill="none" xmlns="http://www.w3.org/2000/svg">
<path d="M40.7833 40.9882H20.2892C19.2021 40.9882 18.1595 41.42 17.3909 42.1887C16.6222 42.9574 16.1903 43.9999 16.1903 45.087C16.1903 46.1741 16.6222 47.2166 17.3909 47.9853C18.1595 48.754 19.2021 49.1858 20.2892 49.1858H40.7833C41.8703 49.1858 42.9129 48.754 43.6816 47.9853C44.4502 47.2166 44.8821 46.1741 44.8821 45.087C44.8821 43.9999 44.4502 42.9574 43.6816 42.1887C42.9129 41.42 41.8703 40.9882 40.7833 40.9882ZM12.0915 73.7788C11.0044 73.7788 9.96189 73.3469 9.19322 72.5782C8.42454 71.8096 7.9927 70.767 7.9927 69.6799V12.2965C7.9927 11.2094 8.42454 10.1668 9.19322 9.39816C9.96189 8.62948 11.0044 8.19764 12.0915 8.19764H32.5856V20.4941C32.5856 23.7553 33.8811 26.883 36.1872 29.189C38.4932 31.495 41.6209 32.7906 44.8821 32.7906H57.1785V36.8894C57.1785 37.9765 57.6104 39.019 58.3791 39.7877C59.1477 40.5564 60.1903 40.9882 61.2774 40.9882C62.3644 40.9882 63.407 40.5564 64.1757 39.7877C64.9444 39.019 65.3762 37.9765 65.3762 36.8894V28.6917C65.394 28.6107 65.394 28.5268 65.3762 28.4458C65.3414 28.0638 65.2445 27.69 65.0893 27.3391V26.9702C64.8922 26.5488 64.6293 26.1614 64.3105 25.8226L39.7176 1.22965C39.3697 0.902826 38.9675 0.639273 38.5289 0.45087C38.5289 0.45087 38.324 0.45087 38.201 0.45087C37.7971 0.217146 37.3516 0.0640258 36.8894 0H12.2965C9.03524 0 5.90758 1.29552 3.60155 3.60155C1.29552 5.90758 0 9.03524 0 12.2965V69.6799C0 72.9412 1.29552 76.0688 3.60155 78.3749C5.90758 80.6809 9.03524 81.9764 12.2965 81.9764H45.087C46.1741 81.9764 47.2167 81.5446 47.9853 80.7759C48.754 80.0072 49.1858 78.9647 49.1858 77.8776C49.1858 76.7905 48.754 75.748 47.9853 74.9793C47.2167 74.2106 46.1741 73.7788 45.087 73.7788H12.0915ZM40.7833 13.977L51.3582 24.5929H44.8821C43.795 24.5929 42.7525 24.1611 41.9838 23.3924C41.2151 22.6237 40.7833 21.5812 40.7833 20.4941V13.977ZM63.6137 74.9674C63.4189 74.7912 63.2136 74.6269 62.9989 74.4756C62.5484 74.1828 62.0484 73.9744 61.5233 73.8607C60.8648 73.7289 60.184 73.7608 59.5408 73.9538C58.8975 74.1468 58.3115 74.4949 57.8344 74.9674C57.4502 75.3485 57.1453 75.8018 56.9372 76.3013C56.7291 76.8008 56.6219 77.3365 56.6219 77.8776C56.6219 78.4187 56.7291 78.9544 56.9372 79.4539C57.1453 79.9534 57.4502 80.4067 57.8344 80.7877C58.5978 81.545 59.6283 81.9719 60.7035 81.9764C61.3783 81.9798 62.0435 81.8165 62.64 81.5011C63.2366 81.1857 63.746 80.7279 64.1231 80.1683C64.5002 79.6087 64.7334 78.9647 64.8018 78.2934C64.8702 77.622 64.7719 76.9442 64.5154 76.32C64.2926 75.8219 63.9878 75.3647 63.6137 74.9674ZM40.7833 57.3835H20.2892C19.2021 57.3835 18.1595 57.8153 17.3909 58.584C16.6222 59.3527 16.1903 60.3952 16.1903 61.4823C16.1903 62.5694 16.6222 63.6119 17.3909 64.3806C18.1595 65.1493 19.2021 65.5811 20.2892 65.5811H40.7833C41.8703 65.5811 42.9129 65.1493 43.6816 64.3806C44.4502 63.6119 44.8821 62.5694 44.8821 61.4823C44.8821 60.3952 44.4502 59.3527 43.6816 58.584C42.9129 57.8153 41.8703 57.3835 40.7833 57.3835ZM60.7035 45.087C58.5437 45.0856 56.4216 45.6532 54.5508 46.7325C52.68 47.8118 51.1265 49.3648 50.0466 51.2353C49.7775 51.7035 49.6032 52.2203 49.5338 52.7559C49.4643 53.2915 49.5011 53.8356 49.6419 54.357C49.7827 54.8785 50.0249 55.3671 50.3545 55.7949C50.6842 56.2228 51.0949 56.5815 51.5632 56.8506C52.0315 57.1198 52.5482 57.294 53.0838 57.3635C53.6194 57.4329 54.1635 57.3962 54.6849 57.2553C55.2064 57.1145 55.695 56.8724 56.1228 56.5427C56.5507 56.2131 56.9094 55.8024 57.1785 55.3341C57.5388 54.7101 58.0572 54.1921 58.6815 53.8323C59.3058 53.4725 60.0139 53.2836 60.7344 53.2847C61.455 53.2858 62.1625 53.4768 62.7856 53.8385C63.4088 54.2002 63.9257 54.7198 64.284 55.3449C64.6424 55.97 64.8297 56.6785 64.827 57.399C64.8243 58.1195 64.6317 58.8266 64.2686 59.449C63.9055 60.0713 63.3848 60.587 62.7589 60.944C62.133 61.301 61.4241 61.4866 60.7035 61.4823C59.6165 61.4823 58.5739 61.9141 57.8052 62.6828C57.0366 63.4515 56.6047 64.494 56.6047 65.5811C56.6047 66.6682 57.0366 67.7108 57.8052 68.4794C58.5739 69.2481 59.6165 69.6799 60.7035 69.6799C63.9648 69.6799 67.0924 68.3844 69.3984 66.0784C71.7045 63.7724 73 60.6447 73 57.3835C73 54.1223 71.7045 50.9946 69.3984 48.6886C67.0924 46.3825 63.9648 45.087 60.7035 45.087ZM20.2892 32.7906H24.388C25.4751 32.7906 26.5176 32.3587 27.2863 31.59C28.055 30.8214 28.4868 29.7788 28.4868 28.6917C28.4868 27.6047 28.055 26.5621 27.2863 25.7934C26.5176 25.0248 25.4751 24.5929 24.388 24.5929H20.2892C19.2021 24.5929 18.1595 25.0248 17.3909 25.7934C16.6222 26.5621 16.1903 27.6047 16.1903 28.6917C16.1903 29.7788 16.6222 30.8214 17.3909 31.59C18.1595 32.3587 19.2021 32.7906 20.2892 32.7906Z" fill="black"/>
</svg>
