<svg width="73" height="64" viewBox="0 0 73 64" fill="none" xmlns="http://www.w3.org/2000/svg">
<path d="M31.6333 53.9713C28.4065 53.9713 25.3119 52.6895 23.0302 50.4078C20.7485 48.1261 19.4667 45.0315 19.4667 41.8047V37.376C19.4667 36.9537 19.5767 36.5387 19.7858 36.1718C19.9948 35.8049 20.2958 35.4987 20.659 35.2833L29.492 29.9787C30.0409 29.7306 30.6624 29.6949 31.2361 29.8786C31.8098 30.0623 32.295 30.4522 32.5978 30.973C32.9005 31.4938 32.9994 32.1084 32.8752 32.6978C32.751 33.2873 32.4125 33.8097 31.9253 34.164L24.3333 38.763V41.8047C24.3333 43.7408 25.1024 45.5975 26.4714 46.9666C27.8405 48.3356 29.6972 49.1047 31.6333 49.1047C32.2787 49.1047 32.8976 49.361 33.354 49.8174C33.8103 50.2737 34.0667 50.8926 34.0667 51.538C34.0667 52.1834 33.8103 52.8023 33.354 53.2586C32.8976 53.715 32.2787 53.9713 31.6333 53.9713Z" fill="black"/>
<path d="M14.6 53.9713H12.1667C10.5689 53.9713 8.98681 53.6566 7.51068 53.0452C6.03456 52.4338 4.69331 51.5376 3.56353 50.4078C1.28184 48.1261 0 45.0315 0 41.8047V37.376C7.36512e-05 36.9537 0.110043 36.5387 0.319097 36.1718C0.528151 35.8049 0.829092 35.4987 1.19233 35.2833L10.0253 29.9787C10.5743 29.7306 11.1957 29.6949 11.7694 29.8786C12.3431 30.0623 12.8283 30.4522 13.1311 30.973C13.4339 31.4938 13.5327 32.1084 13.4085 32.6978C13.2843 33.2873 12.9458 33.8097 12.4587 34.164L4.86667 38.763V41.8047C4.86667 43.7408 5.63577 45.5975 7.00479 46.9666C8.3738 48.3356 10.2306 49.1047 12.1667 49.1047H14.6C15.2454 49.1047 15.8643 49.361 16.3206 49.8174C16.777 50.2737 17.0333 50.8926 17.0333 51.538C17.0333 52.1834 16.777 52.8023 16.3206 53.2586C15.8643 53.715 15.2454 53.9713 14.6 53.9713Z" fill="black"/>
<path d="M21.9 29.2C18.0278 29.2 14.3143 27.6618 11.5762 24.9238C8.83821 22.1857 7.3 18.4722 7.3 14.6C7.3 10.7278 8.83821 7.01427 11.5762 4.27624C14.3143 1.53821 18.0278 0 21.9 0C22.5454 0 23.1643 0.256368 23.6206 0.712707C24.077 1.16904 24.3333 1.78797 24.3333 2.43333C24.3333 3.07869 24.077 3.69762 23.6206 4.15396C23.1643 4.6103 22.5454 4.86667 21.9 4.86667C19.3186 4.86667 16.8428 5.89214 15.0175 7.71749C13.1921 9.54285 12.1667 12.0186 12.1667 14.6C12.1667 17.1814 13.1921 19.6571 15.0175 21.4825C16.8428 23.3079 19.3186 24.3333 21.9 24.3333C22.5454 24.3333 23.1643 24.5897 23.6206 25.046C24.077 25.5024 24.3333 26.1213 24.3333 26.7667C24.3333 27.412 24.077 28.0309 23.6206 28.4873C23.1643 28.9436 22.5454 29.2 21.9 29.2Z" fill="black"/>
<path d="M41.3667 29.2C38.4791 29.2 35.6563 28.3437 33.2553 26.7395C30.8544 25.1352 28.9831 22.855 27.878 20.1872C26.773 17.5194 26.4839 14.5838 27.0472 11.7517C27.6105 8.91956 29.0011 6.31809 31.0429 4.27625C33.0848 2.2344 35.6862 0.843886 38.5183 0.280541C41.3505 -0.282803 44.286 0.00632598 46.9538 1.11137C49.6216 2.2164 51.9018 4.08772 53.5061 6.48868C55.1104 8.88964 55.9667 11.7124 55.9667 14.6C55.9667 18.4722 54.4285 22.1857 51.6904 24.9238C48.9524 27.6618 45.2388 29.2 41.3667 29.2ZM41.3667 4.86667C39.4416 4.86667 37.5598 5.43752 35.9591 6.50703C34.3585 7.57655 33.1109 9.09669 32.3742 10.8752C31.6375 12.6538 31.4448 14.6108 31.8204 16.4989C32.1959 18.387 33.1229 20.1213 34.4842 21.4825C35.8454 22.8437 37.5797 23.7708 39.4678 24.1463C41.3559 24.5219 43.3129 24.3291 45.0914 23.5924C46.87 22.8557 48.3901 21.6082 49.4596 20.0076C50.5291 18.4069 51.1 16.5251 51.1 14.6C51.1 12.0186 50.0745 9.54285 48.2492 7.7175C46.4238 5.89215 43.9481 4.86667 41.3667 4.86667Z" fill="black"/>
<path d="M55.9667 63.2667C52.5978 63.2667 49.3046 62.2677 46.5035 60.396C43.7023 58.5244 41.5191 55.8641 40.2299 52.7517C38.9407 49.6393 38.6034 46.2144 39.2606 42.9103C39.9179 39.6061 41.5401 36.5711 43.9223 34.1889C46.3044 31.8068 49.3395 30.1845 52.6436 29.5273C55.9478 28.8701 59.3726 29.2074 62.485 30.4966C65.5975 31.7858 68.2577 33.969 70.1294 36.7701C72.001 39.5712 73 42.8645 73 46.2333C73 50.7509 71.2054 55.0833 68.011 58.2777C64.8167 61.4721 60.4842 63.2667 55.9667 63.2667ZM55.9667 34.0667C53.5603 34.0667 51.208 34.7802 49.2072 36.1171C47.2064 37.454 45.647 39.3542 44.7261 41.5774C43.8053 43.8005 43.5643 46.2468 44.0338 48.6069C44.5032 50.967 45.662 53.1349 47.3635 54.8365C49.0651 56.538 51.233 57.6968 53.5931 58.1662C55.9532 58.6357 58.3995 58.3947 60.6227 57.4739C62.8458 56.553 64.746 54.9936 66.0829 52.9928C67.4198 50.992 68.1333 48.6397 68.1333 46.2333C68.1333 43.0065 66.8515 39.9119 64.5698 37.6302C62.2881 35.3485 59.1935 34.0667 55.9667 34.0667Z" fill="black"/>
<path d="M63.2667 43.8H48.6667V48.6667H63.2667V43.8Z" fill="black"/>
<path d="M58.4 38.9333H53.5333V53.5333H58.4V38.9333Z" fill="black"/>
</svg>
