<svg width="74" height="76" viewBox="0 0 74 76" fill="none" xmlns="http://www.w3.org/2000/svg">
<path d="M50.4447 19.577C51.6014 20.7337 53.4755 20.7368 54.6322 19.577L58.7533 15.4558C59.9085 14.2991 59.9053 12.425 58.7533 11.2668L48.3509 0.867524C47.1974 -0.289175 45.3233 -0.289175 44.1666 0.867524L40.0439 4.98866C38.8904 6.14536 38.8904 8.01946 40.0439 9.173L50.4447 19.577Z" fill="black"/>
<path d="M25.8156 44.6673C26.9708 45.8192 28.8449 45.8192 30 44.6673L34.1227 40.543C35.2794 39.3894 35.2794 37.5137 34.1227 36.357L23.7203 25.9546C22.5652 24.8011 20.6911 24.798 19.5344 25.9546L15.4133 30.0758C14.2566 31.2325 14.2597 33.1066 15.4133 34.2633L25.8156 44.6673Z" fill="black"/>
<path d="M73.035 45.6564L68.8523 41.4689C67.6924 40.3154 65.823 40.3154 64.6679 41.4689L62.8333 43.3019L45.1273 25.5927L48.9624 21.756L38.323 11.1198L25.849 23.5906L36.4868 34.2301L40.2429 30.4803L57.9458 48.1863L56.2897 49.8439C55.133 50.9959 55.1299 52.8716 56.2897 54.0282L60.4725 58.2126C61.6324 59.3724 63.5049 59.3724 64.66 58.2126L73.0334 49.8423C74.1917 48.6841 74.1917 46.8131 73.035 45.6564Z" fill="black"/>
<path d="M42.109 58.3753C42.109 56.4807 40.573 54.9416 38.6752 54.9416H11.8625C9.96631 54.9416 8.42879 56.4807 8.42879 58.3753V63.9487H0.902344V75.6247H49.1898V63.9487H42.109V58.3753Z" fill="black"/>
</svg>
