<svg width="76" height="75" viewBox="0 0 76 75" fill="none" xmlns="http://www.w3.org/2000/svg">
<path d="M62.7826 64.2667C62.7826 50.8274 51.8885 39.9333 38.4492 39.9333M38.4492 39.9333C25.0099 39.9333 14.1159 50.8274 14.1159 64.2667M38.4492 39.9333C46.5126 39.9333 53.0492 33.3967 53.0492 25.3333C53.0492 17.27 46.5126 10.7333 38.4492 10.7333C30.3859 10.7333 23.8492 17.27 23.8492 25.3333C23.8492 33.3967 30.3859 39.9333 38.4492 39.9333ZM74.9492 37.5C74.9492 57.6584 58.6076 74 38.4492 74C18.2908 74 1.94922 57.6584 1.94922 37.5C1.94922 17.3416 18.2908 1 38.4492 1C58.6076 1 74.9492 17.3416 74.9492 37.5Z" stroke="black" stroke-width="2" stroke-miterlimit="10" stroke-linejoin="round"/>
</svg>
