<svg width="74" height="98" viewBox="0 0 74 98" fill="none" xmlns="http://www.w3.org/2000/svg">
<path d="M72.527 7.36944C71.6231 6.53888 70.4391 6.07995 69.2116 6.08435H44.8783C44.5977 4.70383 43.9457 3.42606 42.9925 2.38873C42.2769 1.62562 41.4106 1.01938 40.4486 0.608377C39.4865 0.197375 38.4496 -0.00943688 37.4035 0.00103091C35.6363 -0.0282063 33.9152 0.56526 32.5416 1.67748C31.168 2.78969 30.2295 4.34974 29.8906 6.08435H5.5117C4.30166 6.08435 3.14117 6.56503 2.28554 7.42067C1.42991 8.2763 0.949219 9.43678 0.949219 10.6468V92.7716C0.949219 93.9816 1.42991 95.1421 2.28554 95.9977C3.14117 96.8534 4.30166 97.3341 5.5117 97.3341H69.3865C69.9874 97.3402 70.5834 97.2263 71.1397 96.9992C71.696 96.7721 72.2014 96.4362 72.6263 96.0113C73.0511 95.5864 73.387 95.081 73.6141 94.5247C73.8412 93.9684 73.9551 93.3724 73.949 92.7716V10.6468C73.9514 10.0319 73.8262 9.42321 73.5815 8.85912C73.3367 8.29502 72.9777 7.78779 72.527 7.36944ZM31.2593 9.126C31.6627 9.126 32.0495 8.96577 32.3347 8.68056C32.6199 8.39535 32.7802 8.00852 32.7802 7.60517C32.7707 6.99824 32.8842 6.39566 33.114 5.83381C33.3437 5.27197 33.6849 4.76249 34.117 4.33611C34.5491 3.90974 35.063 3.57532 35.6279 3.35302C36.1927 3.13072 36.7967 3.02515 37.4035 3.04269C38.0367 3.02474 38.6665 3.14155 39.2512 3.38538C39.8359 3.62922 40.3621 3.99451 40.7949 4.45706C41.5757 5.31996 42.0091 6.44148 42.0116 7.60517C42.0116 8.00852 42.1718 8.39535 42.457 8.68056C42.7422 8.96577 43.1291 9.126 43.5324 9.126H52.6574V18.251H22.2408V9.126H31.2593ZM70.9073 92.7716C70.9073 93.1749 70.7471 93.5618 70.4619 93.847C70.1767 94.1322 69.7898 94.2924 69.3865 94.2924H5.5117C5.10836 94.2924 4.72153 94.1322 4.43632 93.847C4.15111 93.5618 3.99088 93.1749 3.99088 92.7716V10.6468C3.99088 10.2435 4.15111 9.85665 4.43632 9.57144C4.72153 9.28623 5.10836 9.126 5.5117 9.126H19.1992V19.7718C19.1992 20.1751 19.3594 20.562 19.6446 20.8472C19.9298 21.1324 20.3166 21.2926 20.72 21.2926H54.1782C54.5816 21.2926 54.9684 21.1324 55.2536 20.8472C55.5388 20.562 55.699 20.1751 55.699 19.7718V9.126H69.2116C69.6685 9.11859 70.1113 9.2843 70.4511 9.58985C70.5974 9.7239 70.7136 9.88737 70.7923 10.0695C70.8709 10.2517 70.9101 10.4484 70.9073 10.6468V92.7716Z" fill="black"/>
<path d="M63.3032 15.2094H60.2615C59.8582 15.2094 59.4714 15.3696 59.1861 15.6548C58.9009 15.9401 58.7407 16.3269 58.7407 16.7302C58.7407 17.1336 58.9009 17.5204 59.1861 17.8056C59.4714 18.0908 59.8582 18.2511 60.2615 18.2511H61.7824V85.1675H13.1158V18.2511H14.6367C15.04 18.2511 15.4269 18.0908 15.7121 17.8056C15.9973 17.5204 16.1575 17.1336 16.1575 16.7302C16.1575 16.3269 15.9973 15.9401 15.7121 15.6548C15.4269 15.3696 15.04 15.2094 14.6367 15.2094H11.595C11.1917 15.2094 10.8048 15.3696 10.5196 15.6548C10.2344 15.9401 10.0742 16.3269 10.0742 16.7302V86.6883C10.0742 87.0917 10.2344 87.4785 10.5196 87.7637C10.8048 88.0489 11.1917 88.2092 11.595 88.2092H63.3032C63.7065 88.2092 64.0934 88.0489 64.3786 87.7637C64.6638 87.4785 64.824 87.0917 64.824 86.6883V16.7302C64.824 16.3269 64.6638 15.9401 64.3786 15.6548C64.0934 15.3696 63.7065 15.2094 63.3032 15.2094Z" fill="black"/>
<path d="M38.9699 36.501H55.699C56.1024 36.501 56.4892 36.3408 56.7744 36.0556C57.0596 35.7703 57.2199 35.3835 57.2199 34.9802C57.2199 34.5768 57.0596 34.19 56.7744 33.9048C56.4892 33.6196 56.1024 33.4593 55.699 33.4593H38.9699C38.5666 33.4593 38.1798 33.6196 37.8945 33.9048C37.6093 34.19 37.4491 34.5768 37.4491 34.9802C37.4491 35.3835 37.6093 35.7703 37.8945 36.0556C38.1798 36.3408 38.5666 36.501 38.9699 36.501Z" fill="black"/>
<path d="M38.9699 45.626H51.1366C51.5399 45.626 51.9267 45.4657 52.2119 45.1805C52.4972 44.8953 52.6574 44.5085 52.6574 44.1051C52.6574 43.7018 52.4972 43.315 52.2119 43.0298C51.9267 42.7445 51.5399 42.5843 51.1366 42.5843H38.9699C38.5666 42.5843 38.1798 42.7445 37.8945 43.0298C37.6093 43.315 37.4491 43.7018 37.4491 44.1051C37.4491 44.5085 37.6093 44.8953 37.8945 45.1805C38.1798 45.4657 38.5666 45.626 38.9699 45.626Z" fill="black"/>
<path d="M23.7614 45.4738C24.0465 45.7566 24.432 45.9152 24.8336 45.9149H24.902C25.1197 45.9118 25.3342 45.862 25.531 45.7688C25.7277 45.6757 25.9022 45.5414 26.0426 45.375L34.0498 35.7405C34.1887 35.5893 34.2956 35.4114 34.3639 35.2177C34.4323 35.024 34.4607 34.8185 34.4474 34.6135C34.4341 34.4085 34.3795 34.2084 34.2868 34.0251C34.194 33.8418 34.0651 33.6792 33.9079 33.5471C33.7506 33.415 33.5682 33.3162 33.3716 33.2565C33.1751 33.1968 32.9685 33.1776 32.7643 33.1999C32.5601 33.2223 32.3626 33.2857 32.1836 33.3865C32.0046 33.4873 31.8479 33.6233 31.7229 33.7863L24.7347 42.1508L20.2711 37.6948C19.9813 37.4332 19.602 37.293 19.2118 37.3033C18.8215 37.3136 18.4502 37.4735 18.1746 37.7501C17.899 38.0266 17.7404 38.3986 17.7315 38.7889C17.7225 39.1792 17.8641 39.5579 18.1267 39.8468L23.7614 45.4738Z" fill="black"/>
<path d="M55.699 57.7926H38.9699C38.5666 57.7926 38.1798 57.6324 37.8945 57.3472C37.6093 57.0619 37.4491 56.6751 37.4491 56.2718C37.4491 55.8684 37.6093 55.4816 37.8945 55.1964C38.1798 54.9112 38.5666 54.7509 38.9699 54.7509H55.699C56.1024 54.7509 56.4892 54.9112 56.7744 55.1964C57.0596 55.4816 57.2199 55.8684 57.2199 56.2718C57.2199 56.6751 57.0596 57.0619 56.7744 57.3472C56.4892 57.6324 56.1024 57.7926 55.699 57.7926Z" fill="black"/>
<path d="M51.1366 66.9176H38.9699C38.5666 66.9176 38.1798 66.7573 37.8945 66.4721C37.6093 66.1869 37.4491 65.8001 37.4491 65.3967C37.4491 64.9934 37.6093 64.6066 37.8945 64.3214C38.1798 64.0361 38.5666 63.8759 38.9699 63.8759H51.1366C51.5399 63.8759 51.9267 64.0361 52.2119 64.3214C52.4972 64.6066 52.6574 64.9934 52.6574 65.3967C52.6574 65.8001 52.4972 66.1869 52.2119 66.4721C51.9267 66.7573 51.5399 66.9176 51.1366 66.9176Z" fill="black"/>
<path d="M24.8341 67.2067C24.4325 67.207 24.047 67.0485 23.7619 66.7657L18.1272 61.131C17.9743 60.9929 17.8511 60.8252 17.7649 60.6381C17.6788 60.451 17.6316 60.2483 17.6261 60.0423C17.6207 59.8364 17.6572 59.6315 17.7333 59.44C17.8095 59.2486 17.9237 59.0747 18.0691 58.9287C18.2146 58.7828 18.3881 58.6679 18.5793 58.5911C18.7704 58.5143 18.9752 58.4771 19.1812 58.4818C19.3871 58.4865 19.59 58.533 19.7774 58.6185C19.9649 58.7039 20.133 58.8266 20.2716 58.979L24.7352 63.4351L31.7234 55.0705C31.9836 54.7619 32.3557 54.5694 32.7578 54.5351C33.16 54.5009 33.5592 54.6278 33.8678 54.888C34.1764 55.1482 34.3689 55.5202 34.4032 55.9224C34.4374 56.3245 34.3105 56.7238 34.0503 57.0324L26.0431 66.6668C25.907 66.8285 25.7386 66.96 25.5487 67.053C25.3589 67.1459 25.1518 67.1983 24.9405 67.2067H24.8341Z" fill="black"/>
</svg>
