<svg width="74" height="78" viewBox="0 0 74 78" fill="none" xmlns="http://www.w3.org/2000/svg">
<path d="M37.379 9.73331L20.3457 24.3333H54.4123L37.379 9.73331ZM37.379 16.1445L41.2571 19.4666H33.5009L37.379 16.1445ZM66.5789 63.2665H64.1456V34.0666H69.0123C71.0964 34.0666 72.95 32.7404 73.6198 30.7682C74.2895 28.796 73.6319 26.6145 71.9803 25.3407L42.0388 1.18807C40.5867 0.394199 38.9832 0 37.379 0C35.7748 0 34.1713 0.394199 32.7192 1.18807L2.77771 25.3407C1.12609 26.6145 0.467877 28.796 1.13826 30.7682C1.80864 32.7404 3.66162 34.0666 5.74576 34.0666H10.6124V63.2665H8.17909C4.14646 63.2665 0.879109 66.5363 0.879109 70.5665C0.879109 74.5967 4.14646 77.8664 8.17909 77.8664H66.5789C70.6116 77.8664 73.8789 74.5967 73.8789 70.5665C73.8789 66.5363 70.6116 63.2665 66.5789 63.2665ZM5.83336 29.1287L35.3758 5.29918C36.0005 5.01387 36.6873 4.86665 37.379 4.86665C38.0707 4.86665 38.7575 5.01387 39.3822 5.29918L69.0123 29.1999L5.83336 29.1287ZM59.2789 34.0666V63.2665H54.4123V34.0666H59.2789ZM49.5456 34.0666V63.2665H44.679V34.0666H49.5456ZM39.8123 34.0666V63.2665H34.9457V34.0666H39.8123ZM30.079 34.0666V63.2665H25.2124V34.0666H30.079ZM20.3457 34.0666V63.2665H15.4791V34.0666H20.3457ZM66.5789 72.9998H8.17909C6.8365 72.9998 5.74576 71.9066 5.74576 70.5665C5.74576 69.2263 6.8365 68.1331 8.17909 68.1331H66.5789C67.9215 68.1331 69.0123 69.2263 69.0123 70.5665C69.0123 71.9066 67.9215 72.9998 66.5789 72.9998Z" fill="black"/>
</svg>
