<svg width="73" height="80" viewBox="0 0 73 80" fill="none" xmlns="http://www.w3.org/2000/svg">
<path d="M72.5454 30.7114L69.7922 12.8188C69.6712 12.032 69.2727 11.3145 68.6686 10.7961C68.0646 10.2777 67.295 9.99253 66.499 9.99223C48.2764 9.99223 38.9368 1.04593 38.8568 0.969269C38.2323 0.348458 37.3875 0 36.5069 0C35.6263 0 34.7815 0.348458 34.157 0.969269C34.0637 1.04593 24.7241 9.99223 6.50151 9.99223C5.70551 9.99253 4.9359 10.2777 4.33188 10.7961C3.72785 11.3145 3.3293 12.032 3.20831 12.8188L0.455093 30.7114C-0.7798 38.8393 0.512818 47.1503 4.15793 54.5192C7.80303 61.8881 13.6245 67.9589 20.8342 71.9096L34.9003 79.576C35.3901 79.8432 35.939 79.9833 36.4969 79.9833C37.0548 79.9833 37.6038 79.8432 38.0935 79.576L52.1596 71.9096C59.3705 67.9599 65.1934 61.8895 68.8398 54.5205C72.4861 47.1515 73.7797 38.84 72.5454 30.7114ZM48.9731 66.0432L36.5003 72.8596L24.0274 66.0566C18.0168 62.7662 13.1625 57.7081 10.1219 51.5673C7.0813 45.4265 6.00131 38.4996 7.02815 31.7247L9.36139 16.5886C19.0933 16.3707 28.5403 13.2623 36.5003 7.65899C44.457 13.2616 53.9003 16.3711 63.6291 16.5919L65.9624 31.7247C66.9901 38.4986 65.9116 45.4247 62.8729 51.5654C59.8341 57.706 54.9819 62.7647 48.9731 66.0566V66.0432Z" fill="black"/>
<path d="M47.474 27.6338L29.8314 45.2764L25.5216 40.9665C25.2141 40.6482 24.8463 40.3943 24.4396 40.2196C24.033 40.0449 23.5956 39.9529 23.153 39.9491C22.7104 39.9452 22.2715 40.0296 21.8619 40.1972C21.4522 40.3648 21.0801 40.6123 20.7671 40.9252C20.4541 41.2382 20.2066 41.6104 20.0391 42.02C19.8715 42.4296 19.7871 42.8685 19.791 43.3111C19.7948 43.7537 19.8868 44.1911 20.0615 44.5977C20.2361 45.0044 20.4901 45.3722 20.8084 45.6797L27.4748 52.3461C28.0999 52.971 28.9475 53.322 29.8314 53.322C30.7152 53.322 31.5629 52.971 32.188 52.3461L52.1871 32.3469C52.7943 31.7183 53.1303 30.8763 53.1227 30.0023C53.1151 29.1284 52.7645 28.2924 52.1465 27.6744C51.5285 27.0564 50.6925 26.7058 49.8186 26.6982C48.9446 26.6906 48.1026 27.0266 47.474 27.6338Z" fill="black"/>
</svg>
