<svg width="74" height="46" viewBox="0 0 74 46" fill="none" xmlns="http://www.w3.org/2000/svg">
<path d="M66.7871 0H6.61138C3.15868 0 0.199219 2.95946 0.199219 6.65878V21.9493C0.199219 25.6486 3.15868 28.6081 6.858 28.6081H13.0235C14.01 28.6081 14.9965 27.8682 14.9965 26.6351C14.9965 25.402 14.2567 24.6622 13.0235 24.6622H6.61138C5.13165 24.6622 3.65192 23.4291 3.65192 21.7027V6.65878C3.65192 5.17905 4.88503 3.69932 6.61138 3.69932H66.5404C68.0202 3.69932 69.4999 4.93243 69.4999 6.65878V21.4561C69.4999 22.9358 68.2668 24.4155 66.5404 24.4155H58.6485C57.6621 24.4155 56.6756 25.1554 56.6756 26.3885C56.6756 27.6216 57.4154 28.3615 58.6485 28.3615H66.5404C70.2398 28.3615 73.1992 25.402 73.1992 21.7027V6.90541C73.1992 2.95946 70.2398 0 66.7871 0ZM65.0607 9.86487C65.0607 8.87838 64.3208 7.89189 63.0877 7.89189H10.0641C9.0776 7.89189 8.09111 8.63176 8.09111 9.86487C8.09111 11.098 8.83098 11.8378 10.0641 11.8378H63.0877C64.3208 11.8378 65.0607 10.8514 65.0607 9.86487ZM53.4695 13.5642C52.483 13.0709 51.4965 13.5642 51.0033 14.5507C50.2634 16.5236 50.2634 19.4831 50.0168 23.1824C49.7702 29.348 49.5235 37.7331 45.5776 41.6791H17.4627C20.9154 36.2534 21.1621 28.3615 21.4087 22.4426C21.4087 19.9764 21.6553 17.0169 21.9019 16.277C22.3952 15.2905 22.1485 14.3041 21.1621 13.8108C20.1756 13.3176 19.1891 13.5642 18.6958 14.5507C17.956 16.0304 17.7094 18.25 17.7094 22.1959C17.4627 28.6081 17.2161 38.2263 12.2837 42.1723C11.7904 42.6655 11.5438 43.4054 11.7904 44.1453C12.0371 44.8851 12.7769 45.3784 13.5168 45.3784H46.5641C47.0573 45.3784 47.5506 45.1318 47.7972 44.8851C53.4695 39.9527 53.7161 30.3345 53.9627 23.1824C53.9627 20.223 54.2094 17.2635 54.7026 16.0304C54.9492 15.0439 54.456 13.8108 53.4695 13.5642ZM35.7127 21.4561C40.1519 21.4561 43.6046 18.7432 43.6046 15.2905H27.8208C28.0675 18.7432 31.5202 21.4561 35.7127 21.4561Z" fill="black"/>
</svg>
