<svg width="29" height="31" viewBox="0 0 29 31" fill="none" xmlns="http://www.w3.org/2000/svg">
<path d="M21.0476 30.9998L15.1289 22.1368L17.1105 20.8134L20.5588 25.9763L21.6674 23.3295H24.5395L21.3619 18.5846L23.3523 17.2612L29.0004 25.7151H23.2562L21.0476 30.9998Z" fill="black"/>
<path d="M7.95273 31.0001L5.74413 25.7153H0L5.6481 17.2615L7.63847 18.5848L4.46086 23.3298H7.33293L8.4416 25.9765L11.8898 20.8137L13.8715 22.137L7.95273 31.0001Z" fill="black"/>
<path d="M14.4991 23.8347C13.7396 23.8347 12.9714 23.5996 12.3254 23.1295L10.4136 21.7539L8.08276 21.3795C6.50269 21.127 5.26307 19.8907 5.00991 18.3149L4.63453 15.9903L3.25524 14.0836C2.32117 12.7863 2.32117 11.0451 3.25524 9.74784L4.63453 7.84115L5.00991 5.51656C5.26307 3.94071 6.50269 2.70441 8.08276 2.45193L10.4136 2.07755L12.3254 0.701952C13.6261 -0.238332 15.372 -0.229626 16.6728 0.701952L18.5846 2.07755L20.9154 2.45193C22.4955 2.70441 23.7351 3.94071 23.9882 5.51656L24.3636 7.84115L25.7429 9.74784C26.677 11.0451 26.677 12.7863 25.7429 14.0836L24.3636 15.9903L23.9882 18.3149C23.7351 19.8907 22.4955 21.127 20.9154 21.3795L18.5846 21.7539L16.6728 23.1295C16.0268 23.5996 15.2586 23.8347 14.4991 23.8347ZM14.4991 2.38228C14.2285 2.38228 13.9578 2.46934 13.7221 2.63476L11.3564 4.33249L8.46686 4.80264C7.89944 4.8897 7.46295 5.33372 7.36693 5.89963L6.89552 8.78143L5.1845 11.1496C4.85278 11.611 4.85278 12.2378 5.1845 12.6993L6.89552 15.0674L7.36693 17.9492C7.45422 18.5151 7.89944 18.9504 8.46686 19.0462L11.3564 19.5163L13.7309 21.2228C14.1935 21.5536 14.8133 21.5536 15.2847 21.2228L17.6592 19.5163L20.5487 19.0462C21.1162 18.9591 21.5527 18.5151 21.6487 17.9492L22.1201 15.0674L23.8311 12.6993C24.1628 12.2378 24.1628 11.611 23.8311 11.1496L22.0939 8.77273L21.6225 5.89093C21.5352 5.32502 21.09 4.8897 20.5226 4.79393L17.633 4.32379L15.2586 2.61735C15.0403 2.46063 14.7697 2.38228 14.4991 2.38228Z" fill="black"/>
<path d="M15.004 17.2819C14.696 17.2819 14.4813 17.2213 14.36 17.0999C14.2387 16.9693 14.178 16.7453 14.178 16.4279V8.30793C14.178 7.99993 14.2387 7.78526 14.36 7.66393C14.4813 7.5426 14.7007 7.48193 15.018 7.48193C15.326 7.48193 15.5407 7.54726 15.662 7.67793C15.7833 7.79926 15.844 8.0186 15.844 8.33593V16.4419C15.844 16.7499 15.7833 16.9693 15.662 17.0999C15.5407 17.2213 15.3213 17.2819 15.004 17.2819ZM12.848 11.1359C12.6333 11.3319 12.442 11.4299 12.274 11.4299C12.106 11.4206 11.9193 11.3039 11.714 11.0799C11.518 10.8653 11.4247 10.6646 11.434 10.4779C11.4527 10.2913 11.5833 10.0906 11.826 9.87593L14.22 7.76193C14.4347 7.57526 14.626 7.49126 14.794 7.50993C14.9713 7.51926 15.158 7.63126 15.354 7.84593C15.5593 8.0606 15.6527 8.26126 15.634 8.44793C15.6153 8.6346 15.48 8.83526 15.228 9.04993L12.848 11.1359Z" fill="black"/>
</svg>
