<svg width="50" height="50" viewBox="0 0 50 50" fill="none" xmlns="http://www.w3.org/2000/svg">
<g opacity="0.5">
<path d="M0.793292 38.6727C0.281627 39.1842 0 39.8643 0 40.588C0 41.3115 0.281627 41.9916 0.793292 42.5031L7.49668 49.2067C8.00834 49.7184 8.68843 50 9.41197 50C10.1355 50 10.8157 49.7184 11.3273 49.2067L38.1411 22.393L27.6071 11.8591L0.793292 38.6727ZM31.2135 23.3505L9.92465 44.6393C9.79764 44.7663 9.62544 44.8376 9.44583 44.8376C9.26622 44.8376 9.09401 44.7663 8.96701 44.6393L5.13656 40.8089C4.87208 40.5445 4.87208 40.1155 5.13656 39.8512L26.4255 18.5624C26.5525 18.4354 26.7247 18.3641 26.9044 18.3641C27.084 18.3641 27.2562 18.4354 27.3832 18.5624L31.2136 22.3929C31.478 22.6573 31.478 23.0862 31.2135 23.3505Z" fill="black"/>
<path d="M8.11074 15.0625C12.218 15.0625 15.5595 11.7211 15.5595 7.61384C15.5595 3.5066 12.218 0.165335 8.11074 0.165335C4.00347 0.165335 0.662021 3.5066 0.662021 7.61384C0.662021 11.7211 4.00347 15.0625 8.11074 15.0625Z" fill="black"/>
<path d="M6.57302 40.3305L9.44583 43.2033L29.7769 22.8723L26.9041 19.9996L6.57302 40.3305Z" fill="black"/>
<path d="M50 4.78811L45.2118 0L31.4382 13.7735L36.2264 18.5616L50 4.78811Z" fill="black"/>
</g>
</svg>
