<svg width="44" height="44" viewBox="0 0 44 44" fill="none" xmlns="http://www.w3.org/2000/svg">
<path d="M32.2481 35.7471C34.1811 35.7471 35.748 34.18 35.748 32.2471C35.748 30.3141 34.1811 28.7471 32.2481 28.7471C30.3151 28.7471 28.748 30.3141 28.748 32.2471C28.748 34.18 30.3151 35.7471 32.2481 35.7471Z" stroke="black" stroke-width="2" stroke-miterlimit="10"/>
<path d="M34.748 34.7471L29.748 29.7471" stroke="black" stroke-width="3" stroke-miterlimit="10"/>
<path d="M34.748 29.7471L29.748 34.7471" stroke="black" stroke-width="2" stroke-miterlimit="10"/>
<path d="M35.748 31.7007C35.3432 31.7795 34.9252 31.7576 34.5308 31.6371C34.1364 31.5165 33.7776 31.3009 33.486 31.0093C33.1943 30.7177 32.9788 30.3589 32.8581 29.9644C32.7376 29.57 32.7156 29.152 32.7943 28.7471" stroke="black" stroke-width="2" stroke-miterlimit="10"/>
<path d="M31.7019 35.7471C31.7805 35.3422 31.7585 34.9242 31.6378 34.5298C31.5172 34.1354 31.3016 33.7766 31.0099 33.485C30.7183 33.1934 30.3596 32.9778 29.9652 32.8572C29.5708 32.7366 29.1529 32.7147 28.748 32.7933" stroke="black" stroke-width="2" stroke-miterlimit="10"/>
<g clip-path="url(#clip0_221_713)">
<path d="M27.0623 15.5534L25.2099 14.0862L28.0555 2.43164L25.6169 1.83618L22.7822 13.4452L20.4346 13.9312C20.306 13.9578 20.1876 14.0203 20.0932 14.1115C19.9987 14.2027 19.9321 14.3188 19.901 14.4463L13.9715 38.7291C13.9363 38.8685 13.9456 39.0154 13.9981 39.1492C14.0506 39.283 14.1437 39.3971 14.2643 39.4753C16.1998 40.7019 18.4847 41.2587 20.7676 41.0602C20.912 41.048 21.0489 40.9905 21.1587 40.8958C21.2685 40.8012 21.3456 40.6742 21.379 40.5332L27.3054 16.2617C27.3368 16.1327 27.3306 15.9975 27.2875 15.872C27.2445 15.7464 27.1663 15.6359 27.0623 15.5534Z" fill="black"/>
<path d="M25.2646 13.8548L24.1859 12.9998L26.8387 2.13523L28.0539 2.43195L25.2646 13.8548Z" fill="#F31212"/>
<path d="M27.306 16.2612L21.3787 40.5344C21.3449 40.6754 21.2676 40.8022 21.1577 40.8968C21.0479 40.9913 20.911 41.0489 20.7666 41.0613C18.4832 41.2599 16.1978 40.7029 14.2619 39.4761C14.1521 39.4051 14.0651 39.3039 14.0113 39.1848C13.9575 39.0656 13.9392 38.9334 13.9587 38.8041C15.7347 39.742 17.7433 40.1485 19.7442 39.975C19.8886 39.9626 20.0255 39.905 20.1354 39.8104C20.2453 39.7159 20.3226 39.5891 20.3564 39.4481L26.2829 15.1779C26.3022 15.1033 26.3068 15.0256 26.2964 14.9492L27.0635 15.5547C27.1672 15.6369 27.2452 15.7472 27.2882 15.8724C27.3312 15.9976 27.3374 16.1325 27.306 16.2612Z" fill="black" fill-opacity="0.313726"/>
<path d="M26.2951 14.9492L25.2084 14.0859L25.2649 13.8548L26.0368 14.4682C26.1104 14.5264 26.1714 14.5992 26.2158 14.6819C26.2602 14.7647 26.2872 14.8557 26.2951 14.9492Z" fill="#F31212"/>
<path d="M21.1954 41.1786C21.0713 41.2544 20.9309 41.2996 20.7858 41.3104C18.4492 41.5096 16.1115 40.9396 14.1288 39.6872C13.9635 39.5814 13.8356 39.4263 13.7634 39.2438C13.6912 39.0613 13.6782 38.8607 13.7264 38.6704L19.6558 14.3876C19.6988 14.2144 19.7898 14.0569 19.9182 13.933C20.0466 13.8091 20.2073 13.7239 20.3819 13.6871L22.5746 13.2326L25.4315 1.53346L28.3575 2.24793L25.4902 13.9897L27.217 15.3574C27.3584 15.4698 27.4646 15.6203 27.5233 15.7911C27.5819 15.9619 27.5904 16.1459 27.5479 16.3215L21.6215 40.5924C21.5925 40.7133 21.54 40.8274 21.4668 40.9279C21.3937 41.0285 21.3015 41.1137 21.1954 41.1786ZM20.3429 14.2311C20.2419 14.2924 20.1693 14.3912 20.141 14.5059L14.2116 38.7887C14.1892 38.8771 14.1948 38.9704 14.2276 39.0555C14.2604 39.1407 14.3188 39.2136 14.3948 39.2641C16.2876 40.4584 18.5187 41.0014 20.7486 40.8106C20.8402 40.8017 20.9267 40.7645 20.996 40.7041C21.0654 40.6436 21.1141 40.563 21.1354 40.4735L27.0629 16.2039C27.0829 16.1214 27.0789 16.0348 27.0513 15.9544C27.0237 15.874 26.9738 15.8032 26.9072 15.7503L24.9288 14.1827L27.753 2.61512L25.7986 2.1377L22.9853 13.6588L20.4831 14.1767C20.4336 14.1867 20.3862 14.2051 20.3429 14.2311Z" fill="black"/>
<path d="M28.4083 2.32255L25.3405 1.57344C25.318 1.56817 25.2947 1.56739 25.272 1.57115C25.2492 1.57491 25.2274 1.58313 25.2078 1.59535C25.1883 1.60757 25.1713 1.62354 25.1579 1.64234C25.1445 1.66114 25.135 1.6824 25.1299 1.70489L24.8838 2.71261C24.878 2.73494 24.8767 2.7582 24.8799 2.78105C24.8831 2.8039 24.8908 2.82589 24.9025 2.84575C24.9143 2.86562 24.9298 2.88296 24.9483 2.89679C24.9667 2.91062 24.9878 2.92066 25.0101 2.92634L25.3285 3.00408L22.7766 13.454L25.2152 14.0495L27.767 3.59933L28.0761 3.67481C28.0986 3.68008 28.1218 3.68086 28.1446 3.6771C28.1674 3.67334 28.1892 3.66512 28.2087 3.6529C28.2283 3.64068 28.2453 3.62471 28.2587 3.60591C28.272 3.58711 28.2816 3.56586 28.2867 3.54336L28.5328 2.53564C28.5444 2.49088 28.5378 2.44335 28.5145 2.40342C28.4912 2.36349 28.453 2.33441 28.4083 2.32255Z" fill="black"/>
<path d="M28.5364 2.53635L28.2902 3.54476C28.2849 3.56736 28.2752 3.5887 28.2617 3.60755C28.2481 3.6264 28.231 3.6424 28.2113 3.65464C28.1915 3.66687 28.1696 3.67509 28.1467 3.67884C28.1237 3.68259 28.1003 3.68178 28.0777 3.67648L27.7686 3.60099L25.2184 14.0485L24.1327 13.7834L26.684 3.33524L26.9931 3.41072C27.0157 3.41627 27.0392 3.41725 27.0622 3.41361C27.0852 3.40997 27.1072 3.40177 27.127 3.38951C27.1468 3.37724 27.164 3.36115 27.1774 3.34217C27.1909 3.3232 27.2005 3.30172 27.2056 3.279L27.4518 2.27059C27.4578 2.24809 27.4592 2.22462 27.456 2.20156C27.4527 2.1785 27.4449 2.15632 27.433 2.13631C27.4211 2.1163 27.4053 2.09887 27.3866 2.08504C27.3679 2.07121 27.3466 2.06126 27.324 2.05576L28.4096 2.32087C28.4321 2.32669 28.4532 2.33687 28.4718 2.35085C28.4903 2.36483 28.5059 2.38233 28.5177 2.40234C28.5295 2.42235 28.5372 2.44448 28.5404 2.46748C28.5436 2.49047 28.5423 2.51387 28.5364 2.53635Z" fill="black"/>
<path d="M25.3468 14.2635C25.2901 14.298 25.2221 14.3084 25.1577 14.2927L22.7191 13.6972C22.6547 13.6815 22.5992 13.6408 22.5648 13.5842C22.5303 13.5275 22.5198 13.4595 22.5356 13.3951L25.0263 3.18735L24.9507 3.1689C24.8965 3.15544 24.8454 3.1314 24.8005 3.09817C24.7555 3.06495 24.7176 3.02318 24.6888 2.97526C24.66 2.92734 24.641 2.87422 24.6328 2.81893C24.6245 2.76364 24.6273 2.70727 24.6409 2.65305L24.8873 1.64542C24.9139 1.53666 24.9821 1.44268 25.0773 1.38374C25.1241 1.3523 25.1771 1.33124 25.2327 1.32197C25.2883 1.3127 25.3453 1.31544 25.3998 1.33001L28.467 2.07916C28.5218 2.09234 28.5734 2.11647 28.6187 2.1501C28.664 2.18373 28.702 2.22617 28.7304 2.27486C28.7877 2.37105 28.8049 2.48588 28.7784 2.59466L28.5324 3.60237C28.5194 3.65672 28.4959 3.70799 28.4631 3.75323C28.4303 3.79848 28.389 3.83682 28.3414 3.86607C28.2938 3.89531 28.2409 3.91488 28.1857 3.92366C28.1305 3.93244 28.0742 3.93025 28.0198 3.91723L27.9535 3.90104L25.4599 14.1094C25.4441 14.1737 25.4034 14.2292 25.3468 14.2635ZM23.0797 13.2714L25.0341 13.7488L27.5268 3.54135C27.5425 3.47694 27.5831 3.42141 27.6398 3.38697C27.6965 3.35257 27.7645 3.34208 27.8289 3.35781L28.0638 3.41518L28.2753 2.54841L25.3559 1.83553L25.1442 2.70243L25.388 2.76198C25.4524 2.77771 25.5079 2.81838 25.5424 2.87503C25.5768 2.93169 25.5873 2.9997 25.5716 3.0641L23.0797 13.2714Z" fill="black"/>
</g>
<defs>
<clipPath id="clip0_221_713">
<rect width="32" height="32" fill="white" transform="translate(0 16.614) rotate(-31.2778)"/>
</clipPath>
</defs>
</svg>
