<svg width="44" height="50" viewBox="0 0 44 50" fill="none" xmlns="http://www.w3.org/2000/svg">
<path d="M43.5769 23.3333H28.7692C27.4227 23.3333 26.1314 22.8065 25.1793 21.8689C24.2272 20.9312 23.6923 19.6594 23.6923 18.3333V3.75C23.6923 3.63949 23.6477 3.53351 23.5684 3.45537C23.489 3.37723 23.3814 3.33333 23.2692 3.33333H17.637C17.4395 2.97306 17.2094 2.63105 16.9495 2.31146C15.73 0.820833 13.9182 0 11.8462 0C7.86077 0 5.07692 3.08437 5.07692 7.5V22.5C5.07692 25.1042 7.22827 26.6667 9.30769 26.6667C9.86498 26.6727 10.4179 26.569 10.9339 26.3617C11.45 26.1544 11.9188 25.8478 12.3129 25.4596C12.707 25.0715 13.0184 24.6098 13.2288 24.1016C13.4393 23.5934 13.5446 23.0488 13.5385 22.5V6.66667C13.5385 6.22464 13.3602 5.80072 13.0428 5.48816C12.7254 5.17559 12.295 5 11.8462 5C11.3973 5 10.9669 5.17559 10.6495 5.48816C10.3321 5.80072 10.1538 6.22464 10.1538 6.66667V22.5C10.1575 22.6104 10.1382 22.7204 10.0969 22.8231C10.0557 22.9259 9.99352 23.0192 9.9142 23.0973C9.83488 23.1754 9.74013 23.2367 9.6358 23.2773C9.53148 23.3179 9.4198 23.337 9.30769 23.3333C9.07183 23.3333 8.46154 23.1833 8.46154 22.5V7.5C8.46154 5.48542 9.35106 3.33333 11.8462 3.33333C14.9864 3.33333 15.2308 6.47396 15.2308 7.43542V21.8885C15.2308 23.7062 14.6522 25.35 13.6009 26.5198C12.5337 27.7083 11.0497 28.3333 9.30769 28.3333C7.56567 28.3333 6.08173 27.7083 5.01452 26.5198C3.96317 25.35 3.38462 23.7062 3.38462 21.8885V13.3333C3.38462 12.8913 3.20632 12.4674 2.88895 12.1548C2.57158 11.8423 2.14114 11.6667 1.69231 11.6667C1.24348 11.6667 0.813035 11.8423 0.495665 12.1548C0.178296 12.4674 0 12.8913 0 13.3333V21.8885C0 27.2542 3.51048 31.225 8.46154 31.6313V43.3333C8.46154 45.1014 9.17472 46.7971 10.4442 48.0474C11.7137 49.2976 13.4355 50 15.2308 50H37.2308C39.0261 50 40.7479 49.2976 42.0173 48.0474C43.2868 46.7971 44 45.1014 44 43.3333V23.75C44 23.6395 43.9554 23.5335 43.8761 23.4554C43.7967 23.3772 43.6891 23.3333 43.5769 23.3333Z" fill="#A61E3E"/>
<path d="M28.7704 20.0015H42.5003C42.542 20.0013 42.5828 19.989 42.6174 19.9661C42.652 19.9432 42.679 19.9107 42.6949 19.8727C42.7109 19.8348 42.7151 19.793 42.707 19.7527C42.6989 19.7124 42.6789 19.6754 42.6495 19.6463L27.4388 4.66605C27.4092 4.63709 27.3716 4.61739 27.3307 4.60942C27.2898 4.60146 27.2474 4.60558 27.2088 4.62128C27.1703 4.63697 27.1373 4.66354 27.1141 4.69764C27.0908 4.73174 27.0783 4.77185 27.0781 4.81293V18.3348C27.0781 18.7768 27.2564 19.2008 27.5738 19.5133C27.8912 19.8259 28.3216 20.0015 28.7704 20.0015Z" fill="#A61E3E"/>
</svg>
