<svg width="50" height="50" viewBox="0 0 50 50" fill="none" xmlns="http://www.w3.org/2000/svg">
<path d="M44.157 13.6364H45.4282C46.0302 13.6364 46.6076 13.3969 47.0333 12.9707C47.459 12.5445 47.6981 11.9664 47.6981 11.3636C47.6981 10.7609 47.459 10.1828 47.0333 9.75658C46.6076 9.33036 46.0302 9.09091 45.4282 9.09091H39.5491C34.7596 9.09091 36.0988 4.54545 27.2689 4.54545V2.27273C27.2689 1.66996 27.0297 1.09189 26.604 0.665666C26.1783 0.239447 25.601 0 24.999 0C24.3969 0 23.8196 0.239447 23.3939 0.665666C22.9682 1.09189 22.729 1.66996 22.729 2.27273V4.54545C14.5119 4.54545 14.9432 9.09091 10.6077 9.09091H4.5697C3.96768 9.09091 3.39032 9.33036 2.96463 9.75658C2.53894 10.1828 2.29979 10.7609 2.29979 11.3636C2.29979 11.9664 2.53894 12.5445 2.96463 12.9707C3.39032 13.3969 3.96768 13.6364 4.5697 13.6364H5.84086C-0.7646 31.2727 0.0298717 28.2273 0.0298717 31.8182C0.0298717 34.2292 0.986477 36.5415 2.68924 38.2464C4.39201 39.9513 6.70146 40.9091 9.10954 40.9091C11.5176 40.9091 13.8271 39.9513 15.5298 38.2464C17.2326 36.5415 18.1892 34.2292 18.1892 31.8182C18.1892 28.2273 19.0064 31.3182 12.3101 13.4545C17.4855 12.5455 17.5309 9.09091 21.3898 9.09091H22.729V45.4545H15.9193C15.3173 45.4545 14.7399 45.694 14.3142 46.1202C13.8885 46.5464 13.6494 47.1245 13.6494 47.7273C13.6494 48.33 13.8885 48.9081 14.3142 49.3343C14.7399 49.7606 15.3173 50 15.9193 50H34.0786C34.6806 50 35.258 49.7606 35.6837 49.3343C36.1094 48.9081 36.3485 48.33 36.3485 47.7273C36.3485 47.1245 36.1094 46.5464 35.6837 46.1202C35.258 45.694 34.6806 45.4545 34.0786 45.4545H27.2689V9.09091H28.6081C32.7167 9.09091 32.3989 12.4545 37.6878 13.4545C30.9234 31.4773 31.8087 28.2273 31.8087 31.8182C31.8087 34.2292 32.7653 36.5415 34.4681 38.2464C36.1708 39.9513 38.4803 40.9091 40.8884 40.9091C43.2964 40.9091 45.6059 39.9513 47.3087 38.2464C49.0114 36.5415 49.968 34.2292 49.968 31.8182C49.968 28.2273 50.7852 31.2955 44.157 13.6364ZM9.10954 36.3636C7.9055 36.3636 6.75077 35.8847 5.89939 35.0323C5.04801 34.1799 4.5697 33.0237 4.5697 31.8182H13.6494C13.6494 33.0237 13.1711 34.1799 12.3197 35.0323C11.4683 35.8847 10.3136 36.3636 9.10954 36.3636ZM5.56847 27.2727L9.10954 17.8409L12.6506 27.2727H5.56847ZM40.8884 17.8409L44.4294 27.2727H37.3473L40.8884 17.8409ZM40.8884 36.3636C39.6843 36.3636 38.5296 35.8847 37.6782 35.0323C36.8268 34.1799 36.3485 33.0237 36.3485 31.8182H45.4282C45.4282 33.0237 44.9499 34.1799 44.0985 35.0323C43.2471 35.8847 42.0924 36.3636 40.8884 36.3636Z" fill="black" fill-opacity="0.6"/>
</svg>
