<svg width="40" height="40" viewBox="0 0 40 40" fill="none" xmlns="http://www.w3.org/2000/svg">
<g clip-path="url(#clip0_218_178)">
<path d="M26.4601 14.9817L25.0359 13.0959L30.7198 2.53087L28.5092 1.34154L22.8473 11.8652L20.4529 11.7455C20.3218 11.7389 20.1915 11.7697 20.0772 11.8342C19.9628 11.8987 19.8691 11.9944 19.807 12.11L7.96392 34.1226C7.89479 34.2486 7.86686 34.3931 7.88403 34.5359C7.9012 34.6786 7.96262 34.8124 8.05967 34.9184C9.62478 36.5921 11.6963 37.7054 13.9558 38.0872C14.0987 38.1116 14.2456 38.0904 14.3757 38.0264C14.5058 37.9623 14.6123 37.8589 14.6801 37.7307L26.5173 15.7283C26.5801 15.6114 26.6081 15.4789 26.598 15.3466C26.5878 15.2143 26.54 15.0876 26.4601 14.9817Z" fill="black"/>
<path d="M25.1491 12.8861L24.32 11.7874L29.6186 1.93852L30.7202 2.53117L25.1491 12.8861Z" fill="#F31212"/>
<path d="M26.5187 15.728L14.6801 37.7319C14.6119 37.8599 14.5053 37.9632 14.3751 38.0271C14.245 38.091 14.0981 38.1123 13.9551 38.0881C11.6952 37.7063 9.62321 36.5927 8.05779 34.9186C7.96937 34.8223 7.91059 34.7025 7.8885 34.5737C7.8664 34.4448 7.88194 34.3123 7.93324 34.192C9.41649 35.5462 11.2584 36.4445 13.2387 36.7796C13.3816 36.8039 13.5285 36.7826 13.6587 36.7187C13.7888 36.6547 13.8955 36.5515 13.9636 36.4235L25.8007 14.4224C25.8382 14.355 25.8621 14.2809 25.8712 14.2044L26.4615 14.9832C26.5412 15.0889 26.589 15.2153 26.5991 15.3473C26.6092 15.4793 26.5813 15.6114 26.5187 15.728Z" fill="black" fill-opacity="0.313726"/>
<path d="M25.8714 14.2044L25.0367 13.0957L25.1494 12.8862L25.7423 13.6739C25.799 13.7488 25.8397 13.8345 25.8619 13.9258C25.8841 14.017 25.8873 14.1119 25.8714 14.2044Z" fill="#F31212"/>
<path d="M14.3406 38.3094C14.2014 38.3516 14.0542 38.36 13.911 38.334C11.5994 37.9395 9.48 36.8002 7.8758 35.0896C7.74239 34.9456 7.65766 34.7633 7.63363 34.5685C7.6096 34.3737 7.64748 34.1763 7.7419 34.0042L19.5849 11.9917C19.6701 11.8349 19.7977 11.7052 19.9532 11.6176C20.1086 11.53 20.2856 11.4879 20.4638 11.4961L22.7004 11.6074L28.4064 1.00208L31.0588 2.42911L25.332 13.0731L26.6596 14.831C26.7681 14.9753 26.8332 15.1476 26.847 15.3277C26.8608 15.5078 26.8228 15.6881 26.7375 15.8473L14.9004 37.8492C14.8419 37.9589 14.7624 38.0561 14.6663 38.135C14.5703 38.214 14.4596 38.2733 14.3406 38.3094ZM20.2893 12.0129C20.1762 12.0468 20.081 12.1242 20.0248 12.2281L8.18177 34.2407C8.13788 34.3207 8.11987 34.4124 8.13023 34.503C8.14059 34.5937 8.1788 34.6789 8.23961 34.747C9.77142 36.3786 11.7945 37.4651 14.0007 37.8409C14.0916 37.8554 14.1846 37.8411 14.267 37.8C14.3493 37.7589 14.4167 37.6932 14.4598 37.6119L26.2976 15.6116C26.3377 15.5367 26.3556 15.4519 26.3491 15.3671C26.3426 15.2824 26.3121 15.2013 26.261 15.1334L24.7401 13.1188L30.3814 2.63258L28.6098 1.6792L22.9908 12.1232L20.4386 11.9955C20.3882 11.9927 20.3377 11.9986 20.2893 12.0129Z" fill="black"/>
<path d="M31.0906 2.51437L28.3096 1.01816C28.2892 1.00741 28.2668 1.00081 28.2439 0.998724C28.2209 0.996641 28.1977 0.999124 28.1757 1.00603C28.1537 1.01293 28.1333 1.02412 28.1156 1.03896C28.0979 1.05379 28.0833 1.07197 28.0727 1.09245L27.5812 2.00596C27.57 2.02611 27.5628 2.04829 27.5602 2.07121C27.5576 2.09413 27.5595 2.11735 27.5659 2.13953C27.5722 2.16171 27.5829 2.18241 27.5973 2.20043C27.6117 2.21846 27.6296 2.23347 27.6498 2.24458L27.9384 2.39986L22.8416 11.8728L25.0522 13.0621L30.1489 3.58895L30.4291 3.73971C30.4496 3.75046 30.4719 3.75707 30.4949 3.75915C30.5179 3.76124 30.541 3.75875 30.563 3.75185C30.5851 3.74494 30.6055 3.73375 30.6232 3.71892C30.6408 3.70409 30.6554 3.68591 30.666 3.66542L31.1575 2.75192C31.18 2.71151 31.1856 2.66385 31.1731 2.61934C31.1605 2.57483 31.1309 2.5371 31.0906 2.51437Z" fill="black"/>
<path d="M31.1584 2.7532L30.6666 3.66733C30.6558 3.68788 30.641 3.70609 30.6232 3.72093C30.6053 3.73578 30.5847 3.74696 30.5626 3.75384C30.5404 3.76071 30.5171 3.76316 30.4939 3.76102C30.4708 3.75889 30.4484 3.75223 30.4278 3.74141L30.1476 3.59065L25.0531 13.0616L24.0689 12.5321L29.1646 3.06078L29.4448 3.21154C29.4653 3.2226 29.4878 3.22946 29.511 3.23171C29.5342 3.23397 29.5576 3.23158 29.5798 3.22468C29.602 3.21778 29.6227 3.20651 29.6405 3.19154C29.6583 3.17656 29.673 3.15818 29.6836 3.13747L30.1754 2.22334C30.1869 2.20305 30.1941 2.18069 30.1968 2.15756C30.1995 2.13443 30.1975 2.111 30.191 2.08864C30.1845 2.06628 30.1736 2.04545 30.1589 2.02735C30.1443 2.00926 30.1262 1.99427 30.1057 1.98326L31.0898 2.51276C31.1101 2.52404 31.128 2.53921 31.1424 2.5574C31.1569 2.57559 31.1676 2.59645 31.1739 2.61878C31.1803 2.6411 31.1822 2.66447 31.1796 2.68753C31.1769 2.7106 31.1697 2.73291 31.1584 2.7532Z" fill="black"/>
<path d="M25.125 13.3025C25.0615 13.3215 24.993 13.3146 24.9346 13.2832L22.724 12.0938C22.6657 12.0624 22.6221 12.0091 22.6031 11.9456C22.584 11.8821 22.5909 11.8137 22.6223 11.7553L27.599 2.50138L27.5305 2.46453C27.4814 2.43786 27.438 2.40176 27.4029 2.3583C27.3677 2.31484 27.3415 2.26487 27.3257 2.21126C27.3099 2.15764 27.3048 2.10144 27.3107 2.04586C27.3167 1.99028 27.3335 1.93641 27.3603 1.88735L27.8521 0.974013C27.9052 0.875423 27.9948 0.801618 28.1018 0.768497C28.155 0.749832 28.2116 0.742769 28.2677 0.74778C28.3239 0.75279 28.3783 0.76976 28.4274 0.797549L31.2078 2.29366C31.2576 2.3202 31.3015 2.35653 31.3368 2.40046C31.3722 2.44438 31.3983 2.49501 31.4136 2.54928C31.4448 2.65679 31.4327 2.77227 31.3797 2.87089L30.8882 3.78439C30.862 3.83374 30.8263 3.87745 30.7833 3.913C30.7402 3.94856 30.6905 3.97527 30.6371 3.99161C30.5836 4.00795 30.5275 4.01359 30.4719 4.00822C30.4163 4.00285 30.3623 3.98657 30.313 3.96031L30.2529 3.92798L25.2733 13.1817C25.2418 13.24 25.1885 13.2835 25.125 13.3025ZM23.1801 11.7723L24.9517 12.7257L29.9302 3.47255C29.9616 3.41416 30.0149 3.37063 30.0784 3.35155C30.1419 3.33249 30.2104 3.33943 30.2688 3.37085L30.4817 3.48543L30.9043 2.69965L28.2578 1.2758L27.835 2.06166L28.0561 2.18059C28.1145 2.21201 28.158 2.26532 28.177 2.32881C28.1961 2.3923 28.1892 2.46076 28.1578 2.51914L23.1801 11.7723Z" fill="black"/>
</g>
<defs>
<clipPath id="clip0_218_178">
<rect width="32" height="32" fill="white" transform="translate(0 9.20581) rotate(-16.7192)"/>
</clipPath>
</defs>
</svg>
