<svg width="27" height="27" viewBox="0 0 27 27" fill="none" xmlns="http://www.w3.org/2000/svg">
<path d="M0.428378 20.8835C0.152078 21.1597 0 21.527 0 21.9178C0 22.3085 0.152078 22.6757 0.428378 22.952L4.0482 26.5719C4.3245 26.8482 4.69175 27.0003 5.08246 27.0003C5.47317 27.0003 5.8405 26.8482 6.11672 26.5719L20.5962 12.0924L14.9078 6.40405L0.428378 20.8835ZM16.8553 12.6094L5.35931 24.1055C5.29073 24.1741 5.19774 24.2126 5.10075 24.2126C5.00376 24.2126 4.91077 24.1741 4.84218 24.1055L2.77374 22.0371C2.63093 21.8943 2.63093 21.6627 2.77374 21.5199L14.2698 10.0239C14.3384 9.9553 14.4314 9.91677 14.5284 9.91677C14.6253 9.91677 14.7183 9.9553 14.7869 10.0239L16.8554 12.0923C16.9981 12.2351 16.9981 12.4667 16.8553 12.6094Z" fill="#FF0000"/>
<path d="M7.90204 4.11159C7.90204 6.05337 6.32152 7.6339 4.37973 7.6339C2.43795 7.6339 0.857422 6.05337 0.857422 4.11159C0.857422 2.16981 2.43793 0.589355 4.37973 0.589355C6.32153 0.589355 7.90204 2.16981 7.90204 4.11159Z" fill="#FFC54D" stroke="#F4A500"/>
<path d="M3.54927 21.7788L5.10059 23.3301L16.0794 12.3513L14.5281 10.8L3.54927 21.7788Z" fill="#FFC54D"/>
<path d="M27.0002 2.5856L24.4146 0L16.9768 7.43776L19.5624 10.0234L27.0002 2.5856Z" fill="#FF0000"/>
</svg>
