<svg width="50" height="50" viewBox="0 0 50 50" fill="none" xmlns="http://www.w3.org/2000/svg">
<path opacity="0.5" d="M48.2487 26.8993H49.0479C49.1839 26.9016 49.3179 26.9325 49.4412 26.99C49.5645 27.0474 49.6742 27.1301 49.7633 27.2327C49.8524 27.3353 49.9189 27.4554 49.9584 27.5854C49.9978 27.7153 50.0094 27.852 49.9924 27.9867C49.2832 33.7294 46.6134 39.0531 42.4322 43.0623C38.2509 47.0715 32.8134 49.5215 27.0343 50C26.7793 47.0652 27.1383 44.1095 28.0884 41.3204C29.0385 38.5313 30.559 35.9696 32.5535 33.7977C34.5481 31.6258 36.9731 29.8911 39.675 28.7036C42.3768 27.5161 45.2964 26.9017 48.2487 26.8993ZM30.449 30.4031C32.7769 28.0571 35.5499 26.1971 38.6059 24.9317C41.662 23.6664 44.94 23.0209 48.2487 23.0331H48.9995C49.1373 23.0372 49.2744 23.012 49.4016 22.959C49.5289 22.906 49.6433 22.8265 49.7373 22.7259C49.8313 22.6252 49.9027 22.5057 49.9467 22.3754C49.9906 22.245 50.0062 22.1067 49.9924 21.9699C49.3172 16.3782 46.7808 11.1744 42.7895 7.19189C38.7982 3.20938 33.5828 0.678607 27.9788 0.00488905C27.8416 -0.0089298 27.7031 0.00662726 27.5724 0.0505208C27.4417 0.0944144 27.322 0.165633 27.2211 0.259416C27.1202 0.353199 27.0406 0.467386 26.9875 0.594343C26.9344 0.721301 26.9091 0.858104 26.9132 0.995609C27.0224 4.42311 26.4253 7.8365 25.159 11.0245C23.8926 14.2124 21.984 17.1071 19.5511 19.5293C17.2231 21.8753 14.4502 23.7353 11.3942 25.0007C8.33809 26.266 5.06008 26.9115 1.75136 26.8993H1.00062C0.86281 26.8952 0.725703 26.9204 0.598465 26.9734C0.471226 27.0264 0.356787 27.1059 0.262797 27.2065C0.168806 27.3071 0.09743 27.4267 0.0534393 27.557C0.00944854 27.6874 -0.00614343 27.8256 0.00770601 27.9625C0.682915 33.5542 3.21929 38.758 7.21061 42.7405C11.2019 46.723 16.4173 49.2538 22.0213 49.9275C22.1585 49.9413 22.297 49.9258 22.4277 49.8819C22.5584 49.838 22.6781 49.7668 22.779 49.673C22.8799 49.5792 22.9595 49.465 23.0126 49.3381C23.0657 49.2111 23.091 49.0743 23.0869 48.9368C22.9777 45.5093 23.5748 42.0959 24.8411 38.9079C26.1075 35.72 28.0161 32.8253 30.449 30.4031ZM16.8146 16.7988C18.8983 14.7276 20.5275 12.2468 21.599 9.51375C22.6704 6.78073 23.1606 3.85526 23.0384 0.923117C23.0296 0.791547 22.9939 0.663173 22.9335 0.545893C22.873 0.428613 22.7892 0.324908 22.6871 0.24116C22.5851 0.157412 22.4669 0.0953909 22.3399 0.0589136C22.2129 0.0224364 22.0797 0.0122742 21.9487 0.0290526C16.367 0.710463 11.1744 3.23609 7.19812 7.20358C3.22184 11.1711 0.690624 16.3522 0.00770601 21.9215C-0.00917184 22.0543 0.00174517 22.189 0.0397653 22.3173C0.0777855 22.4456 0.142081 22.5646 0.228583 22.6668C0.315086 22.769 0.42191 22.8522 0.542297 22.9111C0.662684 22.97 0.794011 23.0033 0.927967 23.0089C3.86224 23.1245 6.78871 22.6324 9.52293 21.5636C12.2572 20.4948 14.7399 18.8724 16.8146 16.7988Z" fill="black"/>
</svg>
