<svg width="47" height="47" viewBox="0 0 47 47" fill="none" xmlns="http://www.w3.org/2000/svg">
<g opacity="0.7">
<path d="M42.0511 22.2609H46.9983C46.9983 9.57076 37.418 0 24.7109 0V4.94741C34.7588 4.94741 42.0511 12.2275 42.0511 22.2609Z" fill="black"/>
<path d="M24.737 14.8437C29.939 14.8437 32.1579 17.0626 32.1579 22.2648H37.1051C37.1051 14.2871 32.7144 9.89631 24.737 9.89631V14.8437ZM33.2017 28.3081C32.7264 27.8761 32.1018 27.6456 31.4598 27.6655C30.8178 27.6853 30.2086 27.9539 29.7609 28.4145L23.8415 34.5022C22.4167 34.2301 19.5523 33.3371 16.6037 30.3959C13.6551 27.4448 12.7621 24.5728 12.4975 23.1578L18.5801 17.2358C19.0412 16.7884 19.3102 16.1791 19.33 15.5369C19.3499 14.8947 19.1191 14.2699 18.6865 13.7949L9.54643 3.74421C9.11365 3.26766 8.51215 2.97861 7.86969 2.93842C7.22722 2.89824 6.5944 3.11009 6.10561 3.529L0.737839 8.13256C0.310176 8.56178 0.0549183 9.13305 0.0204865 9.73799C-0.0166179 10.3564 -0.724075 25.0057 10.6348 36.3699C20.5442 46.2771 32.9568 47.0019 36.3754 47.0019C36.8751 47.0019 37.1818 46.987 37.2634 46.9821C37.8683 46.9482 38.4392 46.6918 38.8663 46.2622L43.4673 40.8918C43.8865 40.4033 44.0988 39.7707 44.059 39.1282C44.0193 38.4857 43.7307 37.884 43.2546 37.4509L33.2017 28.3081Z" fill="black"/>
</g>
</svg>
