<svg width="41" height="50" viewBox="0 0 41 50" fill="none" xmlns="http://www.w3.org/2000/svg">
<circle cx="20.4258" cy="24.9739" r="20" fill="#D63F3F"/>
<path d="M21.8491 31.8369C20.7398 31.8369 19.6944 31.6555 18.7131 31.2929C17.7531 30.9302 16.8998 30.4075 16.1531 29.7249C15.4278 29.0422 14.8518 28.2315 14.4251 27.2929C14.0198 26.3329 13.8171 25.2449 13.8171 24.0289C13.8171 22.8129 14.0198 21.7355 14.4251 20.7969C14.8518 19.8369 15.4278 19.0155 16.1531 18.3329C16.8784 17.6502 17.7211 17.1275 18.6811 16.7649C19.6624 16.4022 20.6971 16.2209 21.7851 16.2209C22.5104 16.2209 23.2251 16.3382 23.9291 16.5729C24.6331 16.7862 25.2518 17.0742 25.7851 17.4369C26.3398 17.7782 26.7344 18.1409 26.9691 18.5249C27.1824 18.8022 27.3318 19.0369 27.4171 19.2289C27.5238 19.3995 27.5344 19.6022 27.4491 19.8369C27.3638 20.0075 27.2464 20.1675 27.0971 20.3169C26.9478 20.4449 26.7984 20.5515 26.6491 20.6369C26.2651 20.9355 25.8811 20.9782 25.4971 20.7649C25.2624 20.5302 24.9958 20.3169 24.6971 20.1249C24.4198 19.9115 24.1211 19.7195 23.8011 19.5489C23.4811 19.3782 23.1504 19.2502 22.8091 19.1649C22.4891 19.0582 22.1478 19.0049 21.7851 19.0049C20.7824 19.0049 19.8971 19.2182 19.1291 19.6449C18.3611 20.0502 17.7638 20.6369 17.3371 21.4049C16.9318 22.1515 16.7291 23.0262 16.7291 24.0289C16.7291 25.0315 16.9318 25.9062 17.3371 26.6529C17.7638 27.3995 18.3504 27.9862 19.0971 28.4129C19.8651 28.8395 20.7398 29.0529 21.7211 29.0529C22.1691 29.0529 22.5958 28.9995 23.0011 28.8929C23.4278 28.7649 23.8224 28.6049 24.1851 28.4129C24.5478 28.1995 24.8464 27.9755 25.0811 27.7409C25.2944 27.5915 25.4758 27.4635 25.6251 27.3569C25.7744 27.2502 25.9558 27.1969 26.1691 27.1969C26.3398 27.1969 26.5211 27.2715 26.7131 27.4209C26.9051 27.5489 27.1078 27.7515 27.3211 28.0289C27.4918 28.2209 27.5878 28.4235 27.6091 28.6369C27.6518 28.8502 27.6198 29.0529 27.5131 29.2449C27.4064 29.4369 27.2358 29.6289 27.0011 29.8209C26.6598 30.1622 26.2011 30.4929 25.6251 30.8129C25.0704 31.1115 24.4624 31.3569 23.8011 31.5489C23.1398 31.7409 22.4891 31.8369 21.8491 31.8369Z" fill="white"/>
</svg>
