<svg width="47" height="42" viewBox="0 0 47 42" fill="none" xmlns="http://www.w3.org/2000/svg">
<g opacity="0.7">
<path fill-rule="evenodd" clip-rule="evenodd" d="M27.7585 4.5063C23.2541 4.5063 19.1813 5.89798 16.2388 8.14966C13.3243 10.3799 11.5195 13.455 11.5195 16.8462C11.5195 20.2342 13.3243 23.3092 16.2388 25.5398C19.1813 27.7913 23.2541 29.183 27.7585 29.183C28.2974 29.183 28.8229 29.1647 29.3359 29.1253C29.8579 29.0889 30.3801 29.0281 30.8947 28.9521C30.9883 28.9369 31.0771 28.9582 31.1511 29.0037L40.4975 33.9809L37.4937 27.0985C37.4155 26.9162 37.4905 26.7095 37.664 26.6214C39.6298 25.4667 41.2394 23.9809 42.3435 22.2731L42.3558 22.2548C43.4063 20.6231 43.9976 18.7848 43.9976 16.8461C43.9976 13.4549 42.1929 10.3798 39.2784 8.14956C36.3358 5.89798 32.2631 4.5063 27.7585 4.5063ZM16.3308 12.121C16.1222 12.121 15.9533 11.9541 15.9533 11.7473C15.9533 11.5407 16.1222 11.3736 16.3308 11.3736H27.6648C27.8736 11.3736 28.0424 11.5407 28.0424 11.7473C28.0424 11.9541 27.8736 12.121 27.6648 12.121H16.3308ZM16.3308 15.0899C16.1222 15.0899 15.9533 14.9227 15.9533 14.7161C15.9533 14.5095 16.1222 14.3424 16.3308 14.3424H27.6648C27.8736 14.3424 28.0424 14.5095 28.0424 14.7161C28.0424 14.9227 27.8736 15.0899 27.6648 15.0899H16.3308ZM16.3308 18.0585C16.1222 18.0585 15.9533 17.8884 15.9533 17.6848C15.9533 17.4782 16.1222 17.3111 16.3308 17.3111H39.0753C39.2825 17.3111 39.4519 17.4782 39.4519 17.6848C39.4519 17.8885 39.2826 18.0585 39.0753 18.0585H16.3308ZM16.3308 21.0273C16.1222 21.0273 15.9533 20.8572 15.9533 20.6536C15.9533 20.447 16.1222 20.2799 16.3308 20.2799H39.0753C39.2825 20.2799 39.4519 20.447 39.4519 20.6536C39.4519 20.8573 39.2826 21.0273 39.0753 21.0273H16.3308ZM25.3567 0C25.5639 0 25.7329 0.167188 25.7329 0.370766C25.7329 0.577274 25.564 0.744462 25.3567 0.744462C22.434 0.744462 19.693 1.33104 17.3232 2.35802C14.8798 3.41846 12.8313 4.94681 11.3922 6.78234C11.1556 7.08619 10.9314 7.39914 10.7289 7.72118C10.5259 8.03726 10.3416 8.36244 10.1745 8.69651C10.0824 8.88189 9.85645 8.95791 9.6707 8.86683C9.48495 8.77576 9.40791 8.55075 9.50007 8.36547C9.67826 8.013 9.87474 7.66356 10.0932 7.32312C10.308 6.98268 10.5446 6.64861 10.7964 6.32646C12.3139 4.39389 14.4639 2.7865 17.0238 1.67734C19.4854 0.607901 22.3296 0 25.3567 0ZM28.8382 32.8172C28.637 32.8719 28.4297 32.7533 28.376 32.5529C28.3222 32.3553 28.442 32.1517 28.6432 32.097L30.991 31.4741C31.0957 31.4467 31.1987 31.465 31.2829 31.5167L38.2505 35.163C38.4333 35.2572 38.5039 35.482 38.409 35.6644C38.3122 35.8468 38.0833 35.9166 37.9005 35.8224L31.0448 32.2337L28.8382 32.8172ZM9.16218 40.2407C8.95344 40.2407 8.78454 40.0736 8.78454 39.867C8.78454 39.6603 8.95344 39.4931 9.16218 39.4931H35.2682C35.4756 39.4931 35.6462 39.6603 35.6462 39.867C35.6462 40.0736 35.4756 40.2407 35.2682 40.2407H9.16218ZM24.4491 42C24.24 42 24.0713 41.8329 24.0713 41.6263C24.0713 41.4196 24.24 41.2526 24.4491 41.2526H42.5155C42.7228 41.2526 42.8917 41.4196 42.8917 41.6263C42.8917 41.8329 42.7229 42 42.5155 42H24.4491ZM44.3644 42C44.1557 42 43.9868 41.8329 43.9868 41.6263C43.9868 41.4196 44.1557 41.2526 44.3644 41.2526H46.6221C46.8311 41.2526 47 41.4196 47 41.6263C47 41.8329 46.8311 42 46.6221 42H44.3644ZM8.13339 41.9451C7.92434 41.9451 7.75544 41.7781 7.75544 41.5714C7.75544 41.368 7.92434 41.1977 8.13339 41.1977H16.6935C16.9025 41.1977 17.0714 41.3681 17.0714 41.5714C17.0714 41.7781 16.9025 41.9451 16.6935 41.9451H8.13339ZM14.4035 8.74826C10.4982 9.08254 7.01069 10.4712 4.44428 12.5313C1.69078 14.7405 0 17.7275 0 21.0091C0 22.96 0.595574 24.8014 1.65236 26.4391C2.75646 28.1468 4.36612 29.6327 6.33328 30.7843C6.50544 30.8755 6.58217 31.0821 6.50391 31.2616L3.49835 38.1469L12.8447 33.1697C12.9186 33.1241 13.0093 33.1028 13.1015 33.1181C13.6158 33.1939 14.1382 33.2517 14.6603 33.2913C15.1731 33.3276 15.6984 33.349 16.2373 33.349C18.5917 33.349 20.8294 32.9691 22.8474 32.2824C24.5625 31.7021 26.1199 30.8998 27.4591 29.9275C22.904 29.8666 18.7822 28.4262 15.7783 26.1292C12.682 23.759 10.7653 20.4773 10.7653 16.8462C10.7654 13.7862 12.1229 10.9756 14.4035 8.74826Z" fill="black"/>
</g>
</svg>
