<svg width="27" height="27" viewBox="0 0 27 27" fill="none" xmlns="http://www.w3.org/2000/svg">
<path d="M13.5 27C20.9558 27 27 20.9558 27 13.5C27 6.04416 20.9558 0 13.5 0C6.04416 0 0 6.04416 0 13.5C0 20.9558 6.04416 27 13.5 27Z" fill="#EB5151"/>
<path d="M13.5 23.625C19.0919 23.625 23.625 19.0919 23.625 13.5C23.625 7.90812 19.0919 3.375 13.5 3.375C7.90812 3.375 3.375 7.90812 3.375 13.5C3.375 19.0919 7.90812 23.625 13.5 23.625Z" fill="#FACC20"/>
<path d="M18.9 9.23911L18.1407 9.49224L17.55 11.2219L16.9594 9.49224L15.2297 8.90161L16.9594 8.31099L17.1704 7.67817C16.1157 7.00317 14.8079 6.5813 13.4579 6.5813C9.66099 6.5813 6.5813 9.66099 6.5813 13.4579C6.5813 17.2547 9.70317 20.3766 13.5 20.3766C17.2969 20.3766 20.3766 17.2969 20.3766 13.5C20.3766 11.8969 19.786 10.4204 18.9 9.23911Z" fill="#FDEF34"/>
<path opacity="0.1" d="M15.9469 14.4704C15.8625 14.2173 15.525 13.4157 13.8375 13.0782V11.011C14.2594 11.1376 14.5125 11.4329 14.6391 11.8548C14.7234 12.1923 14.9344 12.361 15.2719 12.361C15.4406 12.361 16.4953 12.0657 15.4406 10.7157C15.2719 10.5048 14.9344 10.1251 13.8797 9.99854V9.15479H13.2469V9.99854C11.3062 10.2095 11.1375 11.4751 11.1375 12.0235C11.1375 13.711 12.825 14.0485 13.2469 14.1751V16.4954C12.4453 16.2845 12.2766 15.4829 12.1922 15.1876C12.0656 14.8079 11.7281 14.7657 11.6016 14.7657C11.0953 14.8079 10.9688 15.2298 10.9688 15.3985C10.9688 15.6095 11.0953 16.622 12.2766 17.2126C12.5719 17.3813 12.9094 17.4657 13.2891 17.5079V18.3095H13.9219V17.5079C14.3859 17.4657 14.8078 17.3392 15.1453 17.1282C16.0313 16.622 16.3266 15.5251 15.9469 14.4704ZM13.2047 12.9095C12.6984 12.6563 12.3188 12.572 12.3188 11.9392C12.3188 11.6438 12.4031 11.1798 13.2047 11.011V12.9095ZM13.8375 16.5798V14.386C14.85 14.7235 14.8922 15.1454 14.8922 15.4407C14.8922 15.736 14.85 16.3688 13.8375 16.5798Z" fill="#231F20"/>
<path opacity="0.2" d="M4.26094 14.3859C4.26094 8.775 8.775 4.26094 14.3859 4.26094C16.9594 4.26094 19.3219 5.23125 21.0938 6.79219C19.2375 4.68281 16.5375 3.375 13.5 3.375C7.88906 3.375 3.375 7.88906 3.375 13.5C3.375 16.5375 4.68281 19.2375 6.79219 21.0938C5.18906 19.2797 4.26094 16.9594 4.26094 14.3859Z" fill="white"/>
<path opacity="0.1" d="M20.2078 5.90625C21.8109 7.67812 22.7391 10.0406 22.7391 12.6141C22.7391 18.225 18.225 22.7391 12.6141 22.7391C10.0406 22.7391 7.67812 21.7688 5.90625 20.2078C7.7625 22.3172 10.4625 23.625 13.5 23.625C19.1109 23.625 23.625 19.1109 23.625 13.5C23.625 10.4625 22.3172 7.7625 20.2078 5.90625Z" fill="#231F20"/>
<g opacity="0.3">
<path d="M19.3641 5.27339L5.27344 19.364C5.14687 19.1531 4.97813 18.9421 4.85156 18.7312L18.7734 4.80933C18.9844 4.97808 19.1531 5.10464 19.3641 5.27339Z" fill="white"/>
<path d="M22.1485 8.26865L8.22661 22.1905C7.55161 21.7687 6.96099 21.3046 6.37036 20.7562L20.6719 6.45459C21.2625 6.96084 21.7688 7.59365 22.1485 8.26865Z" fill="white"/>
</g>
<path d="M15.9469 14.175C15.8625 13.9219 15.525 13.1203 13.8375 12.7828V10.7156C14.2594 10.8422 14.5125 11.1375 14.6391 11.5594C14.7234 11.8969 14.9344 12.0656 15.2719 12.0656C15.4406 12.0656 16.4953 11.7703 15.4406 10.4203C15.2719 10.2094 14.9344 9.82969 13.8797 9.70312V8.85938H13.2469V9.70312C11.3062 9.91406 11.1375 11.1797 11.1375 11.7281C11.1375 13.4156 12.825 13.7531 13.2469 13.8797V16.2C12.4453 15.9891 12.2766 15.1875 12.1922 14.8922C12.0656 14.5125 11.7281 14.4703 11.6016 14.4703C11.0953 14.5125 10.9688 14.9344 10.9688 15.1031C10.9688 15.3141 11.0953 16.3266 12.2766 16.9172C12.5719 17.0859 12.9094 17.1703 13.2891 17.2125V18.0141H13.9219V17.2125C14.3859 17.1703 14.8078 17.0438 15.1453 16.8328C16.0313 16.3266 16.3266 15.2297 15.9469 14.175ZM13.2047 12.6141C12.6984 12.3609 12.3188 12.2766 12.3188 11.6438C12.3188 11.3484 12.4031 10.8844 13.2047 10.7156V12.6141ZM13.8375 16.2844V14.0906C14.85 14.4281 14.8922 14.85 14.8922 15.1453C14.8922 15.4406 14.85 16.0734 13.8375 16.2844Z" fill="#EB5151"/>
<path d="M17.0015 9.49229L15.314 8.94385L17.0015 8.35322L17.5921 6.62354L18.1405 8.35322L19.8702 8.94385L18.1405 9.49229L17.5921 11.222L17.0015 9.49229Z" fill="white"/>
<path d="M19.5328 11.5594L18.5625 11.2219L19.5328 10.8844L19.8703 9.91406L20.2078 10.8844L21.1781 11.2219L20.2078 11.5594L19.8703 12.5297L19.5328 11.5594Z" fill="white"/>
</svg>
