<svg width="68" height="64" viewBox="0 0 68 64" fill="none" xmlns="http://www.w3.org/2000/svg">
<path d="M65.7242 43.4998L45.2735 7.43965C42.5891 2.70799 38.4831 0 34 0C29.5169 0 25.4108 2.70799 22.7265 7.43233L2.27583 43.4998C-0.443089 48.29 -0.740579 53.3986 1.46292 57.5155C3.66296 61.636 7.95927 64 13.2449 64H54.7551C60.0407 64 64.337 61.636 66.5371 57.5191C68.7406 53.4023 68.4431 48.2937 65.7242 43.4998ZM34 51.3713C31.0459 51.3713 28.6383 48.8279 28.6383 45.7028C28.6383 42.574 31.0424 40.027 34 40.027C36.9576 40.027 39.3617 42.574 39.3617 45.7028C39.3617 48.8279 36.9541 51.3713 34 51.3713ZM39.6488 24.2036C39.6108 24.317 34.8025 36.8945 34.8025 36.8945C34.6711 37.2385 34.3528 37.4654 34.0035 37.4654C33.6541 37.4654 33.3358 37.2385 33.2044 36.8945L28.3927 24.3133C28.0813 23.4607 27.9464 22.6922 27.9464 21.9164C27.9464 18.385 30.6619 15.5124 34 15.5124C37.3381 15.5124 40.0536 18.385 40.0536 21.9164C40.0536 22.6922 39.9187 23.4607 39.6488 24.2036Z" fill="#A61E3E"/>
</svg>
