<svg width="34" height="34" viewBox="0 0 34 34" fill="none" xmlns="http://www.w3.org/2000/svg">
<path d="M32.7526 10.2608L31.2502 11.7643L22.2335 2.74862L23.736 1.24511C25.3961 -0.415038 28.0876 -0.415038 29.7477 1.24511L32.7525 4.25105C34.4106 5.91021 34.4106 8.60065 32.7526 10.2608ZM11.7146 28.2911C11.2995 28.7062 11.2995 29.3785 11.7146 29.7936C12.1296 30.2107 12.8019 30.2107 13.217 29.7936L29.7478 13.2667L28.2433 11.7632L11.7146 28.2911ZM4.20041 20.7789C3.78538 21.194 3.78538 21.8663 4.20041 22.2814C4.61544 22.6964 5.28779 22.6964 5.70283 22.2814L22.2335 5.75349L20.7311 4.25105L4.20041 20.7789ZM23.7339 7.25494L7.20524 23.7838C6.37518 24.6118 6.37724 25.9586 7.20524 26.7887C8.03531 27.6188 9.38002 27.623 10.2121 26.7866L26.7408 10.2609L23.7339 7.25494ZM10.208 31.2919C9.69962 30.7835 9.45472 30.1381 9.36341 29.474C9.1476 29.5072 8.92972 29.5384 8.70766 29.5384C7.57253 29.5384 6.50593 29.0942 5.70283 28.2912C4.89972 27.486 4.45773 26.4215 4.45773 25.2863C4.45773 25.0788 4.48887 24.8775 4.51789 24.6762C3.831 24.5828 3.19603 24.2819 2.69799 23.7838C2.65024 23.7361 2.63364 23.6717 2.59008 23.6199L-0.00390625 34L10.3491 31.4081C10.3034 31.3666 10.2516 31.3355 10.208 31.2919Z" fill="black" fill-opacity="0.5"/>
</svg>
