<svg width="47" height="28" viewBox="0 0 47 28" fill="none" xmlns="http://www.w3.org/2000/svg">
<g opacity="0.7">
<path d="M2.14694 2.26406C3.3897 2.89844 20.6528 12.0094 21.2968 12.3375C21.9408 12.6656 22.596 12.8187 23.6128 12.8187C24.6297 12.8187 25.2849 12.6656 25.9289 12.3375C26.5729 12.0094 43.836 2.89844 45.0788 2.26406C45.542 2.03437 46.3215 1.61875 46.491 1.14844C46.7847 0.317188 46.4684 0 45.2143 0H23.6128H2.01137C0.757305 0 0.440965 0.328125 0.734709 1.14844C0.904176 1.62969 1.68373 2.03437 2.14694 2.26406Z" fill="black"/>
<path d="M46.0613 2.75611C45.1349 3.21548 36.8197 8.94673 31.3176 12.392L40.6045 22.5092C40.8304 22.728 40.9321 22.9905 40.8078 23.1217C40.6722 23.242 40.3785 23.1764 40.1412 22.9686L29.0016 13.8686C27.3182 14.9186 26.1319 15.6405 25.9286 15.7499C25.0586 16.1764 24.4485 16.2311 23.6125 16.2311C22.7765 16.2311 22.1664 16.1764 21.2964 15.7499C21.0818 15.6405 19.9068 14.9186 18.2234 13.8686L7.08375 22.9686C6.85779 23.1874 6.55275 23.253 6.41718 23.1217C6.2816 23.0014 6.38328 22.728 6.60924 22.5092L15.8848 12.392C10.3827 8.94673 1.97712 3.21548 1.0507 2.75611C0.0564891 2.26392 0 2.84361 0 3.29205C0 3.74048 0 25.7139 0 25.7139C0 26.7311 1.5478 27.9999 2.65499 27.9999H23.6125H44.57C45.6772 27.9999 46.999 26.7202 46.999 25.7139C46.999 25.7139 46.999 3.72955 46.999 3.29205C46.999 2.83267 47.0668 2.26392 46.0613 2.75611Z" fill="black"/>
</g>
</svg>
