<svg width="47" height="60" viewBox="0 0 47 60" fill="none" xmlns="http://www.w3.org/2000/svg">
<g opacity="0.7">
<path fill-rule="evenodd" clip-rule="evenodd" d="M41.7778 1.30469H5.22222C2.35 1.30469 0 3.61897 0 6.44754V42.4475C0 45.2761 2.35 47.5904 5.22222 47.5904H15.6667L23.5 55.3047L31.3333 47.5904H41.7778C44.65 47.5904 47 45.2761 47 42.4475V6.44754C47 3.61897 44.65 1.30469 41.7778 1.30469ZM26.1111 42.4475H20.8889V37.3047H26.1111V42.4475ZM31.5944 22.6475L29.2444 24.9618C27.1556 26.7618 26.1111 28.3047 26.1111 32.1618H20.8889V30.8761C20.8889 28.0475 21.9333 25.4761 24.0222 23.6761L27.1556 20.3333C28.2 19.5618 28.7222 18.2761 28.7222 16.7333C28.7222 13.9047 26.3722 11.5904 23.5 11.5904C20.6278 11.5904 18.2778 13.9047 18.2778 16.7333H13.0556C13.0556 11.0761 17.7556 6.44754 23.5 6.44754C29.2444 6.44754 33.9444 11.0761 33.9444 16.7333C33.9444 19.0475 32.9 21.1047 31.5944 22.6475Z" fill="black"/>
</g>
</svg>
