<svg width="58" height="50" viewBox="0 0 58 50" fill="none" xmlns="http://www.w3.org/2000/svg">
<path d="M33.0517 1.17578H29.7891V15.3942H33.0517V1.17578Z" fill="#A61E3E"/>
<path d="M14.9358 20.1545H7.50124C5.94541 20.1545 4.67969 18.8669 4.67969 17.2843C4.67969 15.7017 5.94552 14.4141 7.50124 14.4141H14.9358C15.5917 14.4141 16.2318 14.6506 16.7383 15.0801C16.9833 15.2879 17.0164 15.6585 16.8121 15.9077C16.6078 16.157 16.2437 16.1907 15.9985 15.9828C15.6992 15.7291 15.3219 15.5893 14.9358 15.5893H7.50124C6.58248 15.5893 5.83507 16.3496 5.83507 17.2842C5.83507 18.2188 6.58248 18.9792 7.50124 18.9792H14.9358C15.1501 18.9792 15.3606 18.9367 15.5615 18.8529C15.8567 18.73 16.1942 18.8733 16.3153 19.1735C16.4364 19.4738 16.2953 19.8171 16.0001 19.9403C15.6594 20.0825 15.3012 20.1545 14.9358 20.1545Z" fill="#A61E3E"/>
<path d="M26.2686 10.5802H7.70046C6.14463 10.5802 4.87891 9.29254 4.87891 7.71001C4.87891 6.12749 6.14474 4.83984 7.70046 4.83984H26.2686C27.8244 4.83984 29.0901 6.12749 29.0901 7.71001C29.0901 9.29254 27.8243 10.5802 26.2686 10.5802ZM7.70046 6.01513C6.7817 6.01513 6.03429 6.77542 6.03429 7.71001C6.03429 8.6446 6.7817 9.40489 7.70046 9.40489H26.2686C27.1873 9.40489 27.9347 8.6446 27.9347 7.71001C27.9347 6.77542 27.1873 6.01513 26.2686 6.01513H7.70046Z" fill="#A61E3E"/>
<path d="M38.5758 26.5886C36.8561 24.2437 35.8436 22.1467 35.5663 20.3559C35.5495 20.2477 35.4631 20.1646 35.3514 20.1493C34.6316 20.0509 34.0549 20.2514 33.6377 20.7459C32.9566 21.5531 32.7984 23.0489 33.2345 24.5564C33.541 25.6157 34.349 26.6864 34.6958 27.1129H35.443C35.7621 27.1129 36.0207 27.376 36.0207 27.7005C36.0207 28.025 35.7621 28.2882 35.443 28.2882H34.4299H27.2524C26.676 28.2882 26.207 28.7652 26.207 29.3516C26.207 29.9379 26.676 30.415 27.2524 30.415C27.4911 30.415 27.7053 30.5643 27.7913 30.7909C27.8774 31.0174 27.8175 31.2745 27.6407 31.4377C27.471 31.5973 27.0256 32.1307 27.0256 32.6537C27.0256 33.24 27.4946 33.7171 28.071 33.7171C28.3238 33.7171 28.5473 33.8843 28.6225 34.1298C28.6977 34.3753 28.6073 34.642 28.3992 34.7882C28.1592 34.9592 27.4835 35.5671 27.5448 36.087C27.6076 36.6185 28.072 37.0193 28.6254 37.0193C28.8727 37.0193 29.0926 37.1794 29.1722 37.4177C29.2518 37.6559 29.1736 37.9193 28.9774 38.0727C28.7772 38.2318 28.2532 38.7577 28.2532 39.2578C28.2532 39.8442 28.7222 40.3212 29.2986 40.3212H34.4025C36.8148 40.3212 39.2383 39.7859 41.4355 38.7704V31.2158C41.4355 29.9754 40.4202 28.8026 39.5244 27.7679C39.1654 27.3532 38.8262 26.9613 38.5758 26.5886Z" fill="#A61E3E"/>
<path d="M55.5729 14.4336H17.6294C16.2915 14.4336 15.2031 15.5407 15.2031 16.9017V43.5455C15.2031 44.9064 16.2915 46.0136 17.6294 46.0136H48.5051L53.1755 49.6097C53.5109 49.8679 53.9087 49.9999 54.3101 49.9998C54.5956 49.9998 54.8829 49.933 55.1507 49.7975C55.7952 49.4716 56.1955 48.8143 56.1955 48.0821V45.9313C57.2422 45.6546 57.9991 44.6972 57.9991 43.5455V16.9017C57.9992 15.5408 56.9107 14.4336 55.5729 14.4336ZM42.5918 39.1448C42.5918 39.3707 42.4644 39.5765 42.2644 39.6744C39.8267 40.8667 37.1084 41.4969 34.4033 41.4969H29.2996C28.0861 41.4969 27.0988 40.4926 27.0988 39.2582C27.0988 38.7389 27.3088 38.2802 27.5523 37.9232C26.9322 37.587 26.486 36.9673 26.3986 36.2275C26.3216 35.5751 26.616 35.0032 26.9503 34.5797C26.3046 34.1891 25.871 33.4721 25.871 32.6541C25.871 32.1485 26.0479 31.6982 26.2531 31.3459C25.5409 30.9747 25.0524 30.2203 25.0524 29.352C25.0524 28.1176 26.0397 27.1133 27.2532 27.1133H33.2448C32.8354 26.5179 32.3663 25.7159 32.1268 24.8885C31.5747 22.9798 31.8181 21.0994 32.7618 19.9808C33.4306 19.1877 34.4055 18.8339 35.5063 18.9849C36.1286 19.0701 36.6115 19.5477 36.7084 20.1735C36.953 21.7536 37.9217 23.7325 39.5099 25.8959C39.515 25.903 39.5201 25.9102 39.5248 25.9174C39.7351 26.2324 40.0544 26.6011 40.3924 26.9915C41.3722 28.1235 42.5918 29.5322 42.5918 31.2162V39.1448Z" fill="#A61E3E"/>
<path d="M46.649 41.0911H42.9395C42.1113 41.0911 41.4375 40.4057 41.4375 39.5632V29.5513C41.4375 28.7089 42.1113 28.0234 42.9395 28.0234H46.649C47.4771 28.0234 48.1509 28.7089 48.1509 29.5513V39.5632C48.1509 40.4057 47.4771 41.0911 46.649 41.0911Z" fill="#A61E3E"/>
<path d="M3.01508 28.1136C2.77233 28.1136 2.52832 28.0569 2.30059 27.9417C1.75294 27.6647 1.41268 27.1062 1.41268 26.484V24.4913C0.544184 23.9191 0 22.9217 0 21.8562V3.13484C0 1.40623 1.38253 0 3.08175 0H30.6906C32.3898 0 33.7723 1.40635 33.7723 3.13484V12.8182C33.7723 13.1426 33.5138 13.4058 33.1946 13.4058C32.8755 13.4058 32.617 13.1426 32.617 12.8182V3.13484C32.617 2.05428 31.7528 1.17529 30.6906 1.17529H3.08175C2.01949 1.17517 1.15538 2.05428 1.15538 3.13484V21.8562C1.15538 22.6136 1.57189 23.2897 2.24259 23.6206C2.44178 23.7188 2.56818 23.9241 2.56818 24.1493V26.484C2.56818 26.7372 2.74091 26.8519 2.81508 26.8895C2.88926 26.927 3.08336 26.9979 3.28186 26.8451L7.06134 23.935C7.16174 23.8577 7.28409 23.8159 7.41003 23.8159H13.2244C13.5434 23.8159 13.8021 24.079 13.8021 24.4035C13.8021 24.728 13.5434 24.9912 13.2244 24.9912H7.6039L3.97913 27.7821C3.69421 28.0016 3.35603 28.1136 3.01508 28.1136Z" fill="#A61E3E"/>
</svg>
