<svg width="40" height="40" viewBox="0 0 40 40" fill="none" xmlns="http://www.w3.org/2000/svg">
<circle cx="20" cy="20" r="20" fill="#FF0000"/>
<path d="M30.5166 8.37443C30.448 8.29876 30.3643 8.23822 30.2708 8.1967C30.1773 8.15518 30.0761 8.13361 29.9737 8.13337H27.5598L27.7726 6.01496C27.7821 5.91313 27.7701 5.81045 27.7372 5.71356C27.7043 5.61667 27.6514 5.52772 27.5818 5.45249C27.5133 5.37681 27.4295 5.31627 27.336 5.27476C27.2425 5.23324 27.1413 5.21167 27.0389 5.21143H12.365C12.2626 5.21167 12.1614 5.23324 12.0679 5.27476C11.9744 5.31627 11.8907 5.37681 11.8221 5.45249C11.7525 5.52772 11.6996 5.61667 11.6667 5.71356C11.6338 5.81045 11.6218 5.91313 11.6313 6.01496L11.8441 8.13337H9.43021C9.32783 8.13361 9.22663 8.15518 9.13313 8.1967C9.03962 8.23822 8.95587 8.29876 8.88728 8.37443C8.81771 8.44967 8.76478 8.53861 8.73192 8.6355C8.69906 8.73239 8.687 8.83508 8.69652 8.9369L9.30549 14.9269C9.36023 15.4693 9.61609 15.972 10.0231 16.3367C10.4301 16.7014 10.959 16.9019 11.5066 16.8992H13.0547C13.4586 17.8524 14.0652 18.7071 14.8328 19.4045C15.6003 20.1019 16.5106 20.6253 17.5009 20.9388V25.665H16.0335C15.8389 25.665 15.6523 25.742 15.5147 25.879C15.3771 26.016 15.2998 26.2018 15.2998 26.3955C15.2998 26.5893 15.3771 26.7751 15.5147 26.9121C15.6523 27.049 15.8389 27.126 16.0335 27.126H23.3704C23.565 27.126 23.7516 27.049 23.8892 26.9121C24.0268 26.7751 24.1041 26.5893 24.1041 26.3955C24.1041 26.2018 24.0268 26.016 23.8892 25.879C23.7516 25.742 23.565 25.665 23.3704 25.665H21.903V20.9388C22.8933 20.6253 23.8036 20.1019 24.5711 19.4045C25.3387 18.7071 25.9453 17.8524 26.3492 16.8992H27.912C28.4596 16.9019 28.9885 16.7014 29.3955 16.3367C29.8025 15.972 30.0583 15.4693 30.1131 14.9269L30.7074 8.9369C30.7169 8.83508 30.7048 8.73239 30.672 8.6355C30.6391 8.53861 30.5862 8.44967 30.5166 8.37443ZM11.4919 15.4382C11.3094 15.4391 11.1331 15.3723 10.9974 15.2507C10.8617 15.1292 10.7765 14.9616 10.7582 14.7808L10.2446 9.59434H11.9908L12.5191 14.81C12.5395 15.021 12.5714 15.2307 12.6145 15.4382H11.4919ZM28.6384 14.7808C28.6201 14.9616 28.5348 15.1292 28.3992 15.2507C28.2635 15.3723 28.0872 15.4391 27.9047 15.4382H26.7895C26.8325 15.2307 26.8644 15.021 26.8848 14.81L27.4131 9.59434H29.1593L28.6384 14.7808Z" fill="#F9A30B"/>
<path d="M29.4466 16.2783C29.8171 15.9183 30.0483 15.4398 30.0996 14.9269L30.4004 12.005L30.7086 8.93692C30.7193 8.85692 30.7193 8.77585 30.7086 8.69586C30.6803 8.57778 30.6251 8.46779 30.5471 8.37444C30.4753 8.29502 30.3868 8.23227 30.2879 8.19061C30.189 8.14896 30.0822 8.12942 29.9749 8.13338H27.561L27.7738 6.01497C27.7846 5.93498 27.7846 5.85391 27.7738 5.77391C27.7455 5.65584 27.6903 5.54585 27.6124 5.4525C27.5405 5.37307 27.452 5.31032 27.3531 5.26867C27.2542 5.22702 27.1474 5.20748 27.0401 5.21144H19.7031V27.126H23.3716C23.5662 27.126 23.7528 27.0491 23.8904 26.9121C24.028 26.7751 24.1053 26.5893 24.1053 26.3955C24.1053 26.2018 24.028 26.016 23.8904 25.879C23.7528 25.742 23.5662 25.665 23.3716 25.665H21.9042V20.9461C22.8952 20.6318 23.8059 20.1073 24.5735 19.4086C25.3411 18.7099 25.9474 17.8538 26.3504 16.8992H27.9132H28.0599C28.5816 16.8628 29.0731 16.6427 29.4466 16.2783ZM26.7906 15.4382C26.8337 15.2307 26.8655 15.021 26.886 14.81L26.974 13.9773L27.4143 9.59435H29.1605L28.6395 14.7808C28.6259 14.9115 28.5772 15.0361 28.4984 15.1415C28.4197 15.2469 28.3138 15.3293 28.192 15.3798C28.1059 15.4149 28.0135 15.4323 27.9205 15.4309H26.7906V15.4382Z" fill="#FF8A00"/>
</svg>
