<svg width="42" height="40" viewBox="0 0 42 40" fill="none" xmlns="http://www.w3.org/2000/svg">
<path d="M18.7032 7.14749C19.4206 4.91495 22.5794 4.91495 23.2968 7.14749C23.7973 8.70508 25.6702 9.32332 26.9996 8.36978L27.2746 8.17258C29.1249 6.84542 31.5798 8.70238 30.8062 10.844C30.2549 12.3703 31.402 13.9762 33.0246 13.9496L33.2447 13.946C35.512 13.909 36.4297 16.8507 34.5435 18.1093C33.195 19.0091 33.195 20.9909 34.5435 21.8907C36.4297 23.1493 35.512 26.091 33.2447 26.054L33.0246 26.0504C31.402 26.0238 30.2549 27.6297 30.8062 29.156C31.5798 31.2976 29.1249 33.1546 27.2746 31.8274L26.9996 31.6302C25.6702 30.6767 23.7973 31.2949 23.2968 32.8525C22.5794 35.085 19.4206 35.085 18.7032 32.8525C18.2027 31.2949 16.3298 30.6767 15.0004 31.6302L14.7254 31.8274C12.8751 33.1546 10.4202 31.2976 11.1938 29.156C11.7451 27.6297 10.598 26.0238 8.97545 26.0504L8.7553 26.054C6.48797 26.091 5.57028 23.1493 7.45654 21.8907C8.80501 20.9909 8.80501 19.0091 7.45654 18.1093C5.57028 16.8507 6.48796 13.909 8.75529 13.946L8.97544 13.9496C10.598 13.9762 11.7451 12.3703 11.1938 10.844C10.4202 8.70238 12.8751 6.84542 14.7254 8.17258L15.0004 8.36978C16.3298 9.32332 18.2027 8.70508 18.7032 7.14749Z" fill="#378805"/>
<ellipse cx="21.4" cy="20.4211" rx="8.4" ry="8.42106" fill="white"/>
<path d="M24.35 17L18.6962 22.6489L17 20.9559" stroke="#378805" stroke-linecap="round" stroke-linejoin="round"/>
</svg>
