<svg width="50" height="50" viewBox="0 0 50 50" fill="none" xmlns="http://www.w3.org/2000/svg">
<g opacity="0.7" filter="url(#filter0_d_620_1816)">
<path d="M24.9973 27.7173C28.7087 27.7173 31.7173 24.7087 31.7173 20.9973C31.7173 17.286 28.7087 14.2773 24.9973 14.2773C21.286 14.2773 18.2773 17.286 18.2773 20.9973C18.2773 24.7087 21.286 27.7173 24.9973 27.7173Z" fill="black"/>
<path d="M34.24 0H15.76C12.6411 0 9.64985 1.239 7.44442 3.44442C5.239 5.64985 4 8.64105 4 11.76V30.24C4 33.3589 5.239 36.3501 7.44442 38.5556C9.64985 40.761 12.6411 42 15.76 42H34.24C37.3589 42 40.3501 40.761 42.5556 38.5556C44.761 36.3501 46 33.3589 46 30.24V11.76C46 8.64105 44.761 5.64985 42.5556 3.44442C40.3501 1.239 37.3589 0 34.24 0ZM25 31.08C23.0064 31.08 21.0575 30.4888 19.3999 29.3812C17.7422 28.2736 16.4502 26.6993 15.6873 24.8574C14.9244 23.0156 14.7247 20.9888 15.1137 19.0335C15.5026 17.0782 16.4627 15.2821 17.8724 13.8724C19.2821 12.4627 21.0782 11.5026 23.0335 11.1137C24.9888 10.7247 27.0156 10.9244 28.8574 11.6873C30.6993 12.4502 32.2736 13.7422 33.3812 15.3999C34.4888 17.0575 35.08 19.0064 35.08 21C35.08 23.6734 34.018 26.2373 32.1276 28.1276C30.2373 30.018 27.6734 31.08 25 31.08ZM35.92 12.6C35.4216 12.6 34.9344 12.4522 34.52 12.1753C34.1056 11.8984 33.7826 11.5048 33.5918 11.0444C33.4011 10.5839 33.3512 10.0772 33.4484 9.58837C33.5457 9.09954 33.7857 8.65052 34.1381 8.29809C34.4905 7.94566 34.9395 7.70566 35.4284 7.60842C35.9172 7.51119 36.4239 7.56109 36.8844 7.75182C37.3448 7.94256 37.7384 8.26555 38.0153 8.67996C38.2922 9.09438 38.44 9.58159 38.44 10.08C38.44 10.7483 38.1745 11.3893 37.7019 11.8619C37.2293 12.3345 36.5883 12.6 35.92 12.6Z" fill="black"/>
</g>
<defs>
<filter id="filter0_d_620_1816" x="0" y="0" width="50" height="50" filterUnits="userSpaceOnUse" color-interpolation-filters="sRGB">
<feFlood flood-opacity="0" result="BackgroundImageFix"/>
<feColorMatrix in="SourceAlpha" type="matrix" values="0 0 0 0 0 0 0 0 0 0 0 0 0 0 0 0 0 0 127 0" result="hardAlpha"/>
<feOffset dy="4"/>
<feGaussianBlur stdDeviation="2"/>
<feComposite in2="hardAlpha" operator="out"/>
<feColorMatrix type="matrix" values="0 0 0 0 0 0 0 0 0 0 0 0 0 0 0 0 0 0 0.25 0"/>
<feBlend mode="normal" in2="BackgroundImageFix" result="effect1_dropShadow_620_1816"/>
<feBlend mode="normal" in="SourceGraphic" in2="effect1_dropShadow_620_1816" result="shape"/>
</filter>
</defs>
</svg>
