<svg width="72" height="57" viewBox="0 0 72 57" fill="none" xmlns="http://www.w3.org/2000/svg">
<path d="M22.6447 56.8962C49.8171 56.8962 64.6794 35.0047 64.6794 16.0203C64.6794 15.3986 64.6794 14.7796 64.6362 14.1634C67.5274 12.1296 70.0233 9.61171 72.0068 6.72714C69.3106 7.88893 66.4501 8.65069 63.5215 8.98739C66.6048 7.19254 68.914 4.36733 70.0164 1.0413C67.1166 2.71457 63.9437 3.894 60.6354 4.52843C57.8421 1.6399 53.9408 0 49.8636 0C41.7513 0 35.0761 6.49123 35.0761 14.3796C35.0761 15.474 35.2047 16.5649 35.459 17.6308C23.5866 17.0522 12.5096 11.5913 5.01164 2.62103C1.11259 9.14809 3.13004 17.6068 9.58548 21.7985C7.23471 21.7308 4.93443 21.114 2.88027 20.0004V20.1824C2.88224 26.995 7.86547 32.9163 14.7326 34.2652C12.5577 34.8419 10.2753 34.9262 8.06194 34.5117C9.99248 40.3493 15.5595 44.3732 21.8642 44.4884C16.6338 48.4855 10.1691 50.6567 3.5168 50.6503C2.34134 50.6481 1.16702 50.5789 0 50.443C6.75541 54.6586 14.6179 56.8954 22.6447 56.885" fill="#1DA1F2"/>
</svg>
