<svg width="72" height="50" viewBox="0 0 72 50" fill="none" xmlns="http://www.w3.org/2000/svg">
<path d="M70.5021 7.70333C69.6739 4.67123 67.2339 2.28302 64.1358 1.47244C58.5205 5.8068e-07 36.0034 0 36.0034 0C36.0034 0 13.4863 5.8068e-07 7.87069 1.47259C4.77266 2.28317 2.33272 4.67123 1.50463 7.70349C-1.49285e-07 13.1994 0 24.6668 0 24.6668C0 24.6668 -1.49285e-07 36.1342 1.50463 41.6301C2.33272 44.6623 4.77266 46.951 7.87069 47.7617C13.4863 49.2341 36.0034 49.2341 36.0034 49.2341C36.0034 49.2341 58.5205 49.2341 64.1358 47.7615C67.2339 46.9508 69.6739 44.6621 70.5021 41.6299C72.0068 36.1341 72.0068 24.6666 72.0068 24.6666C72.0068 24.6666 72.0068 13.1994 70.5021 7.70333Z" fill="#FF0000"/>
<path d="M28.6389 35.0781V14.2553L47.4588 24.6669L28.6389 35.0781Z" fill="white"/>
</svg>
