<svg width="56" height="55" viewBox="0 0 56 55" fill="none" xmlns="http://www.w3.org/2000/svg">
<path d="M47.679 7.90408C42.4183 2.8101 35.42 0.00287027 27.9718 0C20.5403 0 13.5309 2.80468 8.23561 7.89749C2.93092 12.9987 0.00689063 19.7783 0 26.9622V26.9755C0.000875 31.3237 1.17622 35.7101 3.40725 39.714L0.0765625 54.4288L15.3904 51.0432C19.2688 52.943 23.5965 53.9446 27.9613 53.9463H27.9723C35.4026 53.9463 42.412 51.1412 47.7081 46.048C53.0175 40.9425 55.9429 34.1716 55.9462 26.9831C55.9484 19.8452 53.0127 13.0694 47.6791 7.90408H47.679ZM27.9718 49.6982H27.9619C24.0428 49.6965 20.1596 48.7401 16.7326 46.9318L16.0086 46.5497L5.82553 48.8008L8.03731 39.0305L7.61097 38.316C5.49095 34.7626 4.37063 30.84 4.37063 26.971C4.37872 14.4481 14.965 4.248 27.9708 4.248C34.254 4.25055 40.1576 6.61799 44.5942 10.9134C49.0978 15.2752 51.5771 20.9818 51.5749 26.9819C51.5698 39.5078 40.9813 49.6982 27.9718 49.6982Z" fill="white"/>
<path d="M20.3593 15.082H19.1332C18.7063 15.082 18.0133 15.2373 17.4272 15.8573C16.8405 16.4777 15.1875 17.9773 15.1875 21.027C15.1875 24.0767 17.4805 27.0232 17.8001 27.4373C18.1202 27.8508 22.2264 34.3089 28.73 36.7935C34.1351 38.8582 35.2352 38.4474 36.408 38.3441C37.5812 38.2409 40.1938 36.8449 40.727 35.3978C41.2602 33.9506 41.2602 32.7098 41.1004 32.4507C40.9402 32.1923 40.5134 32.0375 39.8738 31.7278C39.2338 31.4175 36.0978 29.8927 35.5112 29.6854C34.9245 29.4791 34.4982 29.3756 34.0714 29.9965C33.6445 30.616 32.388 32.0496 32.0146 32.4631C31.6417 32.8772 31.2682 32.929 30.6282 32.6188C29.9881 32.3078 27.9485 31.6418 25.5042 29.5306C23.6017 27.8874 22.2816 25.792 21.908 25.1716C21.5351 24.5516 21.8683 24.2161 22.1891 23.9067C22.4768 23.6293 22.8651 23.2498 23.1851 22.8881C23.5047 22.526 23.5957 22.2677 23.8093 21.8541C24.0226 21.4405 23.9157 21.0784 23.7559 20.7687C23.5957 20.4584 22.3679 17.3934 21.7987 16.1675C21.3194 15.1353 20.8152 15.1002 20.3593 15.082Z" fill="white"/>
</svg>
