<svg width="27" height="23" viewBox="0 0 27 23" fill="none" xmlns="http://www.w3.org/2000/svg">
<path d="M20.6032 10.7924C20.1819 10.7923 19.7615 10.8317 19.3482 10.91V7.16179L21.7588 9.69825C21.803 9.74519 21.8571 9.78272 21.9175 9.80842C21.9778 9.83411 22.0432 9.84739 22.1093 9.84739C22.1754 9.84739 22.2408 9.83411 22.3012 9.80842C22.3616 9.78272 22.4156 9.74519 22.4598 9.69825L26.0071 5.95007C26.0871 5.86766 26.1315 5.75947 26.1315 5.64714C26.1315 5.53481 26.0871 5.42662 26.0071 5.34421L23.5159 2.71732C22.6497 1.78453 21.5816 1.04251 20.3854 0.54256C19.5804 0.230268 18.7246 0.054317 17.8563 0.0226067C17.6527 0.0135641 17.4301 0.00452143 17.198 0.00452143V0H8.91456C8.68723 0 8.47411 0.0135641 8.27993 0.0226067C7.40949 0.0531159 6.55162 0.230688 5.74612 0.547081C4.54919 1.04371 3.48066 1.78446 2.61556 2.71732L0.124374 5.34421C0.044419 5.42662 0 5.53481 0 5.64714C0 5.75947 0.044419 5.86766 0.124374 5.95007L3.67171 9.69825C3.7159 9.74519 3.76994 9.78272 3.83032 9.80842C3.8907 9.83411 3.95607 9.84739 4.02218 9.84739C4.08829 9.84739 4.15365 9.83411 4.21403 9.80842C4.27442 9.78272 4.32846 9.74519 4.37265 9.69825L6.78332 7.16179V18.9534C6.78332 19.0733 6.83322 19.1883 6.92204 19.2731C7.01086 19.3579 7.13132 19.4055 7.25693 19.4055H14.7778C15.2504 20.4059 15.9968 21.2662 16.9384 21.8958C17.88 22.5253 18.982 22.9009 20.1283 22.9829C21.2746 23.065 22.4229 22.8504 23.4523 22.3619C24.4817 21.8734 25.3541 21.129 25.9777 20.2071C26.6012 19.2851 26.9529 18.2197 26.9956 17.1231C27.0383 16.0264 26.7705 14.939 26.2204 13.9754C25.6704 13.0118 24.8583 12.2076 23.8698 11.6474C22.8812 11.0873 21.7528 10.7919 20.6032 10.7924ZM14.9152 0.904266C14.8584 0.972086 14.7968 1.03991 14.7447 1.1032C14.6737 1.18459 14.6026 1.27049 14.5268 1.35188C14.2995 1.59151 14.0437 1.83566 13.698 2.15667C13.5559 2.28327 13.286 2.5229 13.0823 2.51838C13.0178 2.51132 12.9552 2.49292 12.8976 2.46412C12.4331 2.18747 12.0241 1.83376 11.6899 1.4197L11.6094 1.33379C11.5478 1.27049 11.491 1.20267 11.4342 1.13937C11.3679 1.06251 11.2921 0.98565 11.221 0.904266H14.9152ZM14.4368 18.5013H7.73054V5.99076C7.73065 5.8996 7.70172 5.81055 7.64758 5.73545C7.59345 5.66035 7.51666 5.60274 7.42743 5.57028C7.33821 5.53805 7.24094 5.53202 7.14811 5.55297C7.05527 5.57392 6.97112 5.62088 6.90646 5.68783L4.02218 8.72164L1.11422 5.64714L3.3165 3.3277C4.08918 2.49268 5.04257 1.8278 6.1108 1.37901C6.81594 1.10477 7.56632 0.951705 8.32729 0.926872C8.95245 0.895223 9.72917 0.854531 10.1933 1.20719C10.3821 1.36442 10.5564 1.53687 10.7143 1.72263C10.7758 1.79497 10.8374 1.86279 10.899 1.93061L10.9748 2.01651C11.386 2.51781 11.892 2.94108 12.4666 3.2644C12.6452 3.35982 12.8447 3.41401 13.0492 3.42265C13.2988 3.41061 13.5431 3.34983 13.7671 3.24406C13.9912 3.1383 14.1901 2.9898 14.3516 2.80775C14.7163 2.47769 14.9862 2.21545 15.2278 1.95774C15.313 1.86731 15.3983 1.76784 15.4788 1.66837C15.6134 1.49879 15.7675 1.3441 15.9382 1.20719C16.4023 0.854531 17.179 0.895223 17.8089 0.926872C18.5683 0.952178 19.3171 1.10524 20.0207 1.37901C21.0889 1.8278 22.0423 2.49268 22.815 3.3277L25.0173 5.64714L22.1093 8.72164L19.225 5.68783C19.1604 5.62088 19.0762 5.57392 18.9834 5.55297C18.8906 5.53202 18.7933 5.53805 18.7041 5.57028C18.6148 5.60274 18.5381 5.66035 18.4839 5.73545C18.4298 5.81055 18.4008 5.8996 18.401 5.99076V11.1722C16.8939 11.6915 15.648 12.7352 14.9128 14.0944C14.1777 15.4535 14.0077 17.0276 14.4368 18.5013ZM20.6032 22.1003C19.5256 22.1007 18.4719 21.7961 17.5756 21.2249C16.6793 20.6536 15.9805 19.8415 15.5677 18.8912C15.1548 17.9409 15.0464 16.895 15.2562 15.8859C15.466 14.8767 15.9846 13.9496 16.7463 13.2218C17.508 12.494 18.4786 11.9982 19.5355 11.7971C20.5924 11.5959 21.688 11.6985 22.6839 12.0918C23.6797 12.4851 24.531 13.1514 25.1301 14.0066C25.7293 14.8618 26.0493 15.8674 26.0497 16.8962C26.0486 18.2753 25.4746 19.5977 24.4535 20.5732C23.4325 21.5488 22.0478 22.098 20.6032 22.1003Z" fill="#0F8004"/>
<g clip-path="url(#clip0_688_4682)">
<path d="M23.1569 16.7552C23.1569 16.4839 23.0185 16.2496 22.8149 16.1224V14.3675C22.8149 14.267 22.7403 14 22.4728 14C22.3967 14 22.3211 14.0273 22.2593 14.0806L21.3504 14.8616C20.8938 15.2535 20.3207 15.4694 19.7364 15.4694H17.6841C17.3062 15.4694 17 15.7983 17 16.2041V17.3062C17 17.712 17.3062 18.0409 17.6841 18.0409H18.0443C18.0295 18.1612 18.021 18.2836 18.021 18.4083C18.021 18.8649 18.12 19.2963 18.2942 19.6819C18.3497 19.8046 18.4708 19.8777 18.5978 19.8777H19.3918C19.6702 19.8777 19.8374 19.5352 19.6686 19.2973C19.4933 19.0503 19.3891 18.7421 19.3891 18.4083C19.3891 18.2808 19.4064 18.1581 19.4363 18.0409H19.7364C20.3207 18.0409 20.8938 18.2569 21.3503 18.6488L22.2591 19.4298C22.3198 19.4819 22.3951 19.5103 22.4727 19.5104C22.7391 19.5104 22.8148 19.2489 22.8148 19.143V17.3881C23.0185 17.2608 23.1569 17.0265 23.1569 16.7552ZM22.1308 18.3787L21.7775 18.0751C21.2003 17.5792 20.4752 17.3062 19.7364 17.3062V16.2041C20.4752 16.2041 21.2003 15.9312 21.7775 15.4352L22.1308 15.1317V18.3787Z" fill="#0F8004"/>
</g>
<defs>
<clipPath id="clip0_688_4682">
<rect width="6.15692" height="5.87773" fill="white" transform="translate(17 14)"/>
</clipPath>
</defs>
</svg>
