<svg width="24" height="30" viewBox="0 0 24 30" fill="none" xmlns="http://www.w3.org/2000/svg">
<path d="M12.0012 30C11.5835 29.9964 11.1712 29.9055 10.7906 29.7333C10.4101 29.5611 10.0697 29.3114 9.79121 29C6.14121 25 0.0012075 17.39 0.0012075 12.36C-0.0442248 9.13033 1.19399 6.01466 3.44394 3.69722C5.69389 1.37977 8.77161 0.0500248 12.0012 0C15.2308 0.0500248 18.3085 1.37977 20.5585 3.69722C22.8084 6.01466 24.0466 9.13033 24.0012 12.36C24.0012 17.36 17.8612 24.95 14.2112 29.01C13.9319 29.3195 13.5911 29.5674 13.2105 29.7379C12.83 29.9084 12.4182 29.9976 12.0012 30ZM12.0012 2C9.30288 2.05258 6.73538 3.17241 4.86105 5.11421C2.98672 7.05602 1.95836 9.6615 2.00121 12.36C2.00121 15.5 5.47121 21.22 11.2812 27.67C11.3745 27.7668 11.4863 27.8438 11.61 27.8963C11.7337 27.9489 11.8668 27.976 12.0012 27.976C12.1356 27.976 12.2687 27.9489 12.3924 27.8963C12.5161 27.8438 12.6279 27.7668 12.7212 27.67C18.5312 21.22 22.0012 15.5 22.0012 12.36C22.0441 9.6615 21.0157 7.05602 19.1414 5.11421C17.267 3.17241 14.6995 2.05258 12.0012 2Z" fill="#101820"/>
<path d="M12.0012 18C10.8145 18 9.6545 17.6481 8.6678 16.9888C7.68111 16.3295 6.91207 15.3925 6.45795 14.2961C6.00382 13.1997 5.885 11.9933 6.11651 10.8295C6.34802 9.66558 6.91947 8.59648 7.75858 7.75736C8.5977 6.91825 9.6668 6.3468 10.8307 6.11529C11.9946 5.88378 13.201 6.0026 14.2973 6.45673C15.3937 6.91085 16.3308 7.67989 16.99 8.66658C17.6493 9.65328 18.0012 10.8133 18.0012 12C18.0012 13.5913 17.3691 15.1174 16.2439 16.2426C15.1186 17.3679 13.5925 18 12.0012 18ZM12.0012 8C11.2101 8 10.4367 8.2346 9.77894 8.67412C9.12115 9.11365 8.60846 9.73836 8.3057 10.4693C8.00295 11.2002 7.92374 12.0044 8.07808 12.7804C8.23242 13.5563 8.61339 14.269 9.1728 14.8284C9.73221 15.3878 10.4449 15.7688 11.2209 15.9231C11.9968 16.0775 12.8011 15.9983 13.532 15.6955C14.2629 15.3928 14.8876 14.8801 15.3271 14.2223C15.7666 13.5645 16.0012 12.7911 16.0012 12C16.0012 10.9391 15.5798 9.92172 14.8296 9.17158C14.0795 8.42143 13.0621 8 12.0012 8Z" fill="#101820"/>
</svg>
