<svg width="100" height="100" viewBox="0 0 100 100" fill="none" xmlns="http://www.w3.org/2000/svg">
<circle cx="50" cy="50" r="50" fill="#A61E3E" fill-opacity="0.15"/>
<path d="M72.8711 66.1416L63.3653 29.9558C63.1004 28.9473 62.4602 28.1027 61.5626 27.5778C60.6649 27.0526 59.6169 26.9104 58.613 27.176L57.9678 27.3469L57.5154 25.5947C57.2032 24.4063 56.6287 23.6117 55.8079 23.2331C55.0026 22.8616 54.0574 22.9345 52.9999 23.4493L31.4599 33.9004C29.8162 34.7006 28.9612 36.5685 29.4271 38.3418L38.9341 74.5327H38.9342L39.0804 75.0896C39.3453 76.0979 39.9857 76.9425 40.883 77.4674C41.4854 77.8197 42.1553 78 42.8343 78C43.1671 78 43.5022 77.9566 43.8327 77.8693L70.1025 70.9131C72.176 70.3638 73.4181 68.2234 72.8711 66.1416ZM53.7766 25.0598C54.0528 24.9256 54.4074 24.7914 54.723 24.7914C54.8447 24.7914 54.9608 24.8113 55.064 24.8591C55.4544 25.039 55.6755 25.6067 55.7926 26.0525L56.2444 27.8033L44.0293 31.0378L38.3645 32.5377L53.7766 25.0598ZM69.6479 69.1825L43.3781 76.1387C42.834 76.2831 42.2667 76.2055 41.7804 75.9212C41.2943 75.6367 40.9473 75.1792 40.8039 74.6328L40.6578 74.0761L31.2982 38.447C31.1546 37.9007 31.2315 37.331 31.5149 36.8426C31.7983 36.3546 32.254 36.0062 32.7981 35.8623L59.0677 28.9061C59.2466 28.8586 59.4281 28.8352 59.6086 28.8352C59.9763 28.8352 60.3391 28.9329 60.6656 29.1237C61.1517 29.4081 61.4987 29.8658 61.642 30.412L71.1477 66.5979C71.4439 67.7256 70.7712 68.8851 69.6479 69.1825Z" fill="#A61E3E"/>
<path d="M49.9363 57.4682C50.7977 57.4682 51.6646 57.3524 52.518 57.1182C52.6914 57.0707 52.8618 57.0178 53.0302 56.9616C53.0583 56.9522 53.0857 56.9413 53.1137 56.9315C53.2582 56.8818 53.401 56.8295 53.5418 56.7735C53.5579 56.7672 53.5737 56.76 53.5897 56.7536C53.7439 56.6913 53.8956 56.6255 54.045 56.556C54.0483 56.5544 54.0518 56.5528 54.0549 56.5512C54.3831 56.3983 54.6995 56.2281 55.0039 56.0421C55.0046 56.0416 55.0054 56.0412 55.006 56.0408C57.0483 54.7933 58.5386 52.8394 59.2381 50.5993C59.2507 50.5599 59.2632 50.5207 59.2751 50.481C59.2997 50.3988 59.3228 50.3163 59.3452 50.2333C59.3589 50.1821 59.3721 50.1311 59.3852 50.0797C59.4053 50 59.4254 49.9206 59.4434 49.8404C59.4576 49.7781 59.4697 49.7154 59.4828 49.6527C59.5079 49.5306 59.5307 49.408 59.5513 49.2849C59.5632 49.2136 59.5752 49.1422 59.5855 49.0705C59.5953 49.0021 59.604 48.9337 59.6123 48.8651C59.6214 48.7893 59.6297 48.7132 59.6371 48.6371C59.6433 48.5736 59.6499 48.5104 59.6549 48.4466C59.6642 48.328 59.6713 48.2092 59.6762 48.09C59.6784 48.0376 59.6794 47.9849 59.6807 47.9323C59.6835 47.8271 59.6848 47.7217 59.684 47.616C59.6836 47.5616 59.6821 47.5071 59.6809 47.4526C59.6786 47.3565 59.6747 47.2603 59.6696 47.1638C59.6668 47.1134 59.6646 47.063 59.661 47.0125C59.6512 46.8703 59.6391 46.7277 59.6229 46.5849C59.621 46.5702 59.6186 46.5554 59.6169 46.5408C59.6012 46.4088 59.5825 46.2767 59.5613 46.1446C59.5539 46.0987 59.5456 46.053 59.5376 46.0071C59.519 45.9004 59.4984 45.794 59.476 45.6873C59.4669 45.6431 59.4578 45.5989 59.4481 45.5547C59.4153 45.4083 59.3801 45.2617 59.3403 45.1153C59.3006 44.9692 59.2566 44.8253 59.2108 44.6827C59.1971 44.6403 59.1826 44.5982 59.1684 44.5561C59.1332 44.4514 59.0962 44.3477 59.0578 44.2448C59.0424 44.2034 59.0272 44.162 59.0111 44.1209C58.9577 43.9841 58.9024 43.8485 58.8433 43.7153C58.839 43.7055 58.8342 43.696 58.8297 43.6863C58.7742 43.5623 58.7163 43.4405 58.6562 43.3198C58.6351 43.2775 58.6134 43.2357 58.5918 43.194C58.5446 43.1025 58.4959 43.0121 58.446 42.9225C58.4233 42.8816 58.4009 42.8407 58.3775 42.8003C58.3074 42.6785 58.2354 42.558 58.1604 42.44C58.1476 42.42 58.1339 42.4005 58.121 42.3806C58.0565 42.2807 57.9904 42.1823 57.9224 42.0852C57.8927 42.0429 57.8626 42.001 57.8321 41.9593C57.7768 41.8828 57.7203 41.8072 57.6627 41.7323C57.6318 41.6918 57.6009 41.6512 57.5692 41.6112C57.4861 41.5067 57.4016 41.4036 57.3146 41.3029C57.2901 41.2746 57.2647 41.2475 57.24 41.2195C57.1709 41.1411 57.1008 41.0639 57.0294 40.9881C56.991 40.9475 56.9522 40.9077 56.9132 40.8678C56.8516 40.8045 56.789 40.7423 56.7256 40.6809C56.6867 40.6432 56.6481 40.6051 56.6085 40.5679C56.5128 40.478 56.4158 40.3896 56.3166 40.3038C56.2454 40.2192 56.1606 40.1486 56.0652 40.096C55.9543 40.0064 55.8417 39.9194 55.7271 39.8347C55.7232 39.8319 55.7191 39.8289 55.7152 39.826C55.6028 39.7431 55.4887 39.6629 55.3729 39.585C55.3672 39.5811 55.3616 39.5773 55.3559 39.5735C55.2402 39.4959 55.123 39.421 55.0042 39.3485C54.9994 39.3456 54.9947 39.3427 54.9899 39.3399C54.869 39.2663 54.7465 39.1953 54.6225 39.1272C54.622 39.1269 54.6214 39.1266 54.6209 39.1262C53.0972 38.2886 51.3519 37.8569 49.5582 37.9298H49.5578C49.5503 37.9302 49.543 37.9306 49.5356 37.9306C49.3503 37.9387 49.1643 37.9514 48.9778 37.9705C48.9757 37.9706 48.9735 37.9708 48.9714 37.971C48.8074 37.9877 48.6434 38.0087 48.4791 38.0341C48.4639 38.0365 48.4487 38.0381 48.4334 38.0406C48.2833 38.0646 48.1333 38.0927 47.9832 38.1239C47.9561 38.1294 47.9292 38.1337 47.9023 38.1395C47.7296 38.1769 47.5573 38.2185 47.3849 38.2657C47.2435 38.3045 47.1042 38.3475 46.9661 38.3922C46.9228 38.4062 46.8797 38.4207 46.8368 38.4351C46.7354 38.4696 46.6352 38.5055 46.5357 38.543C46.4685 38.5682 46.4018 38.5943 46.3354 38.6209C46.2499 38.6555 46.1646 38.6904 46.0803 38.7272C46.0042 38.7604 45.9288 38.795 45.8537 38.8298C45.8177 38.8467 45.7821 38.8639 45.7463 38.8811C45.4697 39.0141 45.2017 39.159 44.9422 39.3154C44.9372 39.318 44.9328 39.3213 44.928 39.324C44.7907 39.4071 44.6559 39.4934 44.5237 39.5827C44.5216 39.5842 44.5196 39.5855 44.5175 39.5868C43.5969 40.2102 42.8001 40.9813 42.1508 41.8585C42.1484 41.8616 42.1462 41.8647 42.1438 41.8677C41.5714 42.643 41.1144 43.4995 40.7897 44.4092C40.7813 44.4302 40.7729 44.4508 40.7664 44.4727L40.7663 44.4731C40.7342 44.5651 40.7042 44.658 40.6749 44.7511C40.6634 44.7871 40.652 44.8233 40.641 44.8598C40.6137 44.9498 40.5874 45.0399 40.5626 45.1308C40.5528 45.1666 40.5438 45.2025 40.5345 45.2385C40.4595 45.527 40.3973 45.8193 40.3487 46.1152C40.3399 46.169 40.3309 46.2229 40.323 46.2771C40.3112 46.3568 40.3004 46.4365 40.2906 46.5167C40.2828 46.5795 40.2765 46.6423 40.27 46.7054C40.2624 46.78 40.2542 46.8547 40.2482 46.9297C40.2382 47.0561 40.2305 47.1831 40.2254 47.3105C40.223 47.3719 40.2226 47.4335 40.2214 47.495C40.2196 47.5788 40.2185 47.6627 40.2188 47.7465C40.2192 47.8093 40.2202 47.872 40.2217 47.9348C40.2239 48.0243 40.2276 48.1139 40.2323 48.2036C40.235 48.2583 40.2374 48.3126 40.2411 48.3673C40.2507 48.5076 40.263 48.648 40.2787 48.7886C40.2823 48.8199 40.2873 48.8513 40.2913 48.8824C40.3054 48.999 40.3216 49.1153 40.3403 49.232C40.348 49.2809 40.3568 49.3301 40.3653 49.379C40.3836 49.4834 40.4036 49.5878 40.4255 49.6922C40.4349 49.7377 40.4442 49.7831 40.4542 49.8283C40.4871 49.9751 40.5223 50.1218 40.5621 50.2683C41.2475 52.7861 42.8686 54.8852 45.1266 56.179C46.6173 57.0328 48.2665 57.4682 49.9363 57.4682ZM47.4428 55.2692C47.3332 55.2323 47.2245 55.1922 47.1161 55.1504C47.0811 55.1368 47.0462 55.1225 47.0112 55.1085C46.9349 55.0779 46.859 55.0458 46.7834 55.0127C46.7468 54.9967 46.7101 54.9809 46.6738 54.9642C46.5819 54.9223 46.4905 54.8786 46.4 54.833C46.3848 54.8253 46.3692 54.8184 46.354 54.8106L46.9782 54.6393C47.1282 54.8523 47.2825 55.0627 47.4431 55.2693C47.4428 55.2692 47.4428 55.2692 47.4428 55.2692ZM46.435 49.5847L49.3271 48.7911L50.1754 51.9069L47.7562 52.5708C47.2068 51.6338 46.7653 50.6381 46.435 49.5847ZM51.1742 55.5787C51.018 55.6035 50.8618 55.6228 50.7054 55.6382C50.6903 55.6397 50.6753 55.641 50.6603 55.6425C50.5031 55.6569 50.3459 55.6674 50.1888 55.6725C49.6901 55.1837 49.2338 54.6702 48.8172 54.1346L50.6453 53.6328L51.1751 55.5787C51.1748 55.5787 51.1746 55.5787 51.1742 55.5787ZM53.4031 54.8833H53.4029C53.2364 54.9634 53.067 55.0382 52.8943 55.1068L52.3645 53.1612L53.8521 52.753C53.7529 53.4398 53.6066 54.1497 53.4031 54.8833ZM54.0104 50.8544L51.8949 51.435L51.0465 48.3192L53.714 47.5871C53.9226 48.5914 54.0353 49.6824 54.0104 50.8544ZM55.5649 53.3471C55.6263 52.9723 55.6734 52.6048 55.7098 52.2433L56.6506 51.9851C56.3348 52.4816 55.972 52.9384 55.5649 53.3471ZM57.8069 46.4639C57.8288 46.6037 57.8469 46.7437 57.8613 46.8838C57.8622 46.8926 57.8629 46.9013 57.8639 46.9101C57.8771 47.043 57.8872 47.1758 57.8938 47.3087C57.8943 47.3194 57.8948 47.3301 57.8952 47.3409C57.9014 47.4741 57.9042 47.6072 57.9035 47.7401C57.9034 47.7481 57.9035 47.756 57.9034 47.7641C57.9023 47.9037 57.8978 48.043 57.8895 48.1819V48.1823C57.8549 48.7525 57.759 49.3173 57.6025 49.8688L55.7968 50.3642C55.7856 49.1954 55.6531 48.1093 55.4406 47.1134L57.8069 46.4639ZM55.3913 41.8747C55.5987 42.0695 55.7959 42.2758 55.9825 42.4932C55.984 42.495 55.9855 42.4968 55.9871 42.4986C56.2662 42.8247 56.5206 43.1752 56.7465 43.5483C56.7467 43.5487 56.7471 43.5492 56.7474 43.5497C56.9738 43.9238 57.1715 44.3205 57.3368 44.7377V44.7378L54.9722 45.3868C54.6444 44.3974 54.251 43.5247 53.8513 42.78C53.7745 42.637 53.6966 42.4982 53.6182 42.3616L55.3913 41.8747ZM51.9716 39.9744C52.0999 40.0085 52.2271 40.0459 52.3531 40.0863C52.357 40.0876 52.3611 40.0888 52.3649 40.09C52.7478 40.2133 53.1203 40.3651 53.4792 40.5439L53.4797 40.5441L52.5987 40.7859C52.3848 40.4915 52.1743 40.2211 51.9716 39.9744ZM53.2414 45.8617L50.5764 46.593L49.7157 43.4322L51.8245 42.8535C52.3455 43.7043 52.8486 44.71 53.2414 45.8617ZM48.7298 39.8078C48.919 39.7781 49.1079 39.7549 49.2964 39.739C49.2992 39.7387 49.3017 39.7384 49.3045 39.7382C49.6013 40.0105 50.134 40.5358 50.7375 41.2966L49.2461 41.706L48.7293 39.8079L48.7298 39.8078ZM46.1173 40.7005C46.1173 40.7005 46.1177 40.7003 46.118 40.7003C46.2546 40.6247 46.3943 40.5533 46.5362 40.4854C46.5478 40.48 46.5592 40.4744 46.5707 40.469C46.7139 40.4014 46.8597 40.3372 47.0083 40.2778C47.0086 40.2778 47.0089 40.2776 47.0093 40.2774L47.5267 42.1778L45.7969 42.6525C45.8912 41.7615 46.0291 41.0792 46.1173 40.7005ZM47.9967 43.9039L48.8572 47.0648L45.9993 47.8491C45.8707 47.1752 45.7804 46.4821 45.733 45.7679C45.7047 45.3408 45.6936 44.9292 45.695 44.5358L47.9967 43.9039ZM44.0327 42.3691C44.0053 42.6171 43.981 42.8797 43.9618 43.1562L43.2931 43.3398C43.5142 42.9982 43.7616 42.6741 44.0327 42.3691ZM42.0968 48.9197C42.0746 48.7769 42.0567 48.6342 42.0423 48.4917C42.0407 48.4763 42.0397 48.4611 42.0382 48.4457C42.0261 48.318 42.0171 48.1905 42.0111 48.0633C42.0101 48.041 42.0093 48.0187 42.0085 47.9965C42.0039 47.8756 42.002 47.7552 42.0028 47.6349C42.0029 47.6098 42.0032 47.5846 42.0036 47.5597C42.0057 47.4409 42.0105 47.3226 42.0177 47.2046C42.0192 47.1803 42.0204 47.1561 42.022 47.1317C42.0305 47.0094 42.0423 46.8875 42.0567 46.7661C42.0588 46.748 42.0602 46.7298 42.0626 46.7118C42.1154 46.2865 42.2019 45.8686 42.3206 45.4614L43.9169 45.0233C43.9227 45.2815 43.9331 45.5456 43.95 45.816C44.0036 46.6719 44.1141 47.5077 44.2782 48.321L42.0969 48.9197C42.0969 48.92 42.0968 48.9197 42.0968 48.9197ZM43.1419 51.8145C43.1379 51.808 43.134 51.8014 43.1303 51.7949C43.0622 51.6806 42.9971 51.5644 42.9348 51.4464C42.9299 51.437 42.9249 51.4274 42.9198 51.418C42.8582 51.3002 42.7994 51.1805 42.7435 51.0593C42.7399 51.0514 42.7362 51.0437 42.7326 51.0357C42.6742 50.9077 42.6186 50.7781 42.5666 50.6463L44.7243 50.0541C45.0514 51.1022 45.4787 52.1031 45.9966 53.0535L44.4677 53.4731C43.9525 52.982 43.5073 52.4248 43.1419 51.8145Z" fill="#A61E3E"/>
<path d="M59.8642 59.9962L47.3768 63.3028C45.6202 63.7681 44.568 65.5814 45.0311 67.3451C45.2556 68.1993 45.798 68.9149 46.5582 69.3597C47.0686 69.6583 47.6361 69.8107 48.2113 69.8107C48.4932 69.8107 48.7771 69.774 49.057 69.7L61.5442 66.3934C62.3953 66.1681 63.108 65.6234 63.5509 64.86C63.9938 64.0967 64.1145 63.2057 63.8899 62.3512C63.4268 60.5876 61.6207 59.5319 59.8642 59.9962Z" fill="#A61E3E"/>
<path d="M31.7719 55.0735L28.7546 43.297C28.6318 42.8184 28.1449 42.5302 27.6692 42.6535C27.1928 42.7768 26.9058 43.2643 27.0283 43.7431L30.0457 55.5196C30.1492 55.9233 30.5112 56.1914 30.908 56.1914C30.9817 56.1914 31.0564 56.1824 31.1309 56.1632C31.6075 56.0399 31.8944 55.5522 31.7719 55.0735Z" fill="#A61E3E"/>
<path d="M32.5511 61.7067C33.0277 61.5835 33.3147 61.0959 33.1922 60.6171L32.7037 58.711C32.5808 58.2324 32.0948 57.9445 31.6185 58.0675C31.142 58.1906 30.8549 58.6783 30.9775 59.157L31.4659 61.0631C31.5694 61.4669 31.9314 61.735 32.3283 61.735C32.4019 61.735 32.4765 61.7259 32.5511 61.7067Z" fill="#A61E3E"/>
<path d="M34.0826 64.082C33.9598 63.6035 33.4732 63.3157 32.9974 63.4385C32.5208 63.5617 32.2339 64.0494 32.3564 64.5282L34.177 71.6335C34.2805 72.0371 34.6425 72.3054 35.0394 72.3054C35.113 72.3054 35.1876 72.2962 35.2622 72.277C35.7387 72.1538 36.0257 71.6661 35.9032 71.1875L34.0826 64.082Z" fill="#A61E3E"/>
<path d="M70.6508 50.8027L71.1504 52.7061C71.256 53.1074 71.6167 53.3729 72.0115 53.3729C72.0865 53.3729 72.1631 53.3633 72.2393 53.3432C72.7151 53.2171 72.9993 52.7276 72.8739 52.2499L72.3742 50.3466C72.2488 49.8689 71.7615 49.5836 71.2854 49.7094C70.8095 49.8355 70.5252 50.3248 70.6508 50.8027Z" fill="#A61E3E"/>
<path d="M69.7442 47.3421C69.8497 47.7435 70.2104 48.009 70.6054 48.009C70.6805 48.009 70.7568 47.9994 70.8331 47.9792C71.3089 47.8532 71.5932 47.3637 71.4676 46.886L69.6049 39.7917C69.4792 39.314 68.9915 39.0293 68.516 39.1545C68.0399 39.2805 67.7558 39.7701 67.8812 40.2477L69.7442 47.3421Z" fill="#A61E3E"/>
</svg>
