<svg width="50" height="50" viewBox="0 0 50 50" fill="none" xmlns="http://www.w3.org/2000/svg">
<g opacity="0.5">
<path d="M6.25 36.9792C6.25 40.7185 9.2814 43.75 13.0208 43.75H23.2606L24.0019 40.785C24.3394 39.435 25.0375 38.2023 26.0215 37.2183L38.3181 24.9217C39.8054 23.4344 41.8067 22.7746 43.75 22.9421V13.0208C43.75 9.2814 40.7185 6.25 36.9792 6.25H22.9167V16.1458C22.9167 19.8853 19.8853 22.9167 16.1458 22.9167H6.25V36.9792ZM19.7917 7.16667L7.16667 19.7917H16.1458C18.1594 19.7917 19.7917 18.1594 19.7917 16.1458V7.16667ZM39.7915 26.3948L27.4946 38.6915C26.7777 39.4083 26.2692 40.3067 26.0231 41.2904L25.0696 45.1044C24.655 46.7629 26.1575 48.2654 27.816 47.8506L31.63 46.8971C32.6135 46.6512 33.5119 46.1427 34.229 45.4256L46.5256 33.129C48.3852 31.2694 48.3852 28.2544 46.5256 26.3948C44.666 24.535 41.651 24.535 39.7915 26.3948Z" fill="#212121"/>
</g>
</svg>
