<svg width="30" height="30" viewBox="0 0 30 30" fill="none" xmlns="http://www.w3.org/2000/svg">
<path d="M15.0002 27.5301C14.8685 27.5308 14.7381 27.5056 14.6162 27.4558C14.4944 27.4061 14.3836 27.3327 14.2902 27.2401L2.76015 15.7101C2.66643 15.6171 2.59203 15.5065 2.54126 15.3846C2.49049 15.2628 2.46436 15.1321 2.46436 15.0001C2.46436 14.868 2.49049 14.7373 2.54126 14.6155C2.59203 14.4936 2.66643 14.383 2.76015 14.2901L4.28015 12.7801C5.09468 11.9585 6.12734 11.3873 7.25612 11.1339C8.3849 10.8805 9.56263 10.9555 10.6502 11.3501L16.0602 5.94006L15.1202 5.00006C14.9339 4.8127 14.8294 4.55925 14.8294 4.29506C14.8294 4.03087 14.9339 3.77742 15.1202 3.59006L18.4102 0.29006C18.5975 0.103809 18.851 -0.000732422 19.1152 -0.000732422C19.3793 -0.000732422 19.6328 0.103809 19.8202 0.29006L29.7102 10.1801C29.8964 10.3674 30.0009 10.6209 30.0009 10.8851C30.0009 11.1492 29.8964 11.4027 29.7102 11.5901L26.4102 14.8801C26.2228 15.0663 25.9693 15.1709 25.7052 15.1709C25.441 15.1709 25.1875 15.0663 25.0002 14.8801L24.0602 13.9401L18.6502 19.3501C19.0422 20.4379 19.1159 21.615 18.8626 22.7433C18.6094 23.8715 18.0396 24.9042 17.2202 25.7201L15.7102 27.2401C15.6167 27.3327 15.5059 27.4061 15.3841 27.4558C15.2622 27.5056 15.1318 27.5308 15.0002 27.5301ZM4.88015 15.0001L15.0002 25.1201L15.8102 24.3101C16.4201 23.6989 16.8225 22.9115 16.9607 22.0592C17.0988 21.2068 16.9657 20.3326 16.5802 19.5601C16.4864 19.3736 16.4533 19.1624 16.4856 18.9562C16.5179 18.7499 16.6139 18.559 16.7602 18.4101L23.3502 11.8201C23.4431 11.7263 23.5537 11.6519 23.6756 11.6012C23.7974 11.5504 23.9281 11.5243 24.0602 11.5243C24.1922 11.5243 24.3229 11.5504 24.4447 11.6012C24.5666 11.6519 24.6772 11.7263 24.7702 11.8201L25.7102 12.7601L27.5902 10.8801L19.1202 2.41006L17.2402 4.29006L18.1802 5.23006C18.2739 5.32302 18.3483 5.43362 18.399 5.55548C18.4498 5.67734 18.476 5.80805 18.476 5.94006C18.476 6.07207 18.4498 6.20278 18.399 6.32464C18.3483 6.4465 18.2739 6.5571 18.1802 6.65006L11.5902 13.2401C11.4412 13.3863 11.2503 13.4823 11.044 13.5146C10.8378 13.5469 10.6266 13.5138 10.4402 13.4201C9.66758 13.0345 8.79338 12.9014 7.94106 13.0395C7.08873 13.1777 6.30136 13.5802 5.69015 14.1901L4.88015 15.0001Z" fill="black"/>
<path d="M0.999939 30C0.868332 30.0008 0.73787 29.9756 0.616032 29.9258C0.494195 29.876 0.383379 29.8027 0.289939 29.71C0.196211 29.6171 0.121816 29.5065 0.0710475 29.3846C0.0202789 29.2628 -0.00585937 29.132 -0.00585938 29C-0.00585937 28.868 0.0202789 28.7373 0.0710475 28.6155C0.121816 28.4936 0.196211 28.383 0.289939 28.29L8.52994 20.06C8.72124 19.8962 8.96732 19.8106 9.21899 19.8203C9.47067 19.83 9.70941 19.9344 9.8875 20.1125C10.0656 20.2906 10.1699 20.5293 10.1797 20.781C10.1894 21.0327 10.1038 21.2787 9.93994 21.47L1.70994 29.71C1.6165 29.8027 1.50568 29.876 1.38385 29.9258C1.26201 29.9756 1.13155 30.0008 0.999939 30Z" fill="black"/>
<path d="M24.06 13.53C23.9284 13.5308 23.798 13.5055 23.6761 13.4558C23.5543 13.406 23.4435 13.3327 23.35 13.24L20.88 10.77C20.7868 10.6768 20.7128 10.5661 20.6624 10.4442C20.6119 10.3224 20.5859 10.1919 20.5859 10.06C20.5859 9.92814 20.6119 9.79757 20.6624 9.67575C20.7128 9.55393 20.7868 9.44324 20.88 9.35C20.9733 9.25676 21.084 9.1828 21.2058 9.13234C21.3276 9.08188 21.4582 9.05591 21.59 9.05591C21.7219 9.05591 21.8525 9.08188 21.9743 9.13234C22.0961 9.1828 22.2068 9.25676 22.3 9.35L24.77 11.82C24.8638 11.913 24.9382 12.0236 24.9889 12.1454C25.0397 12.2673 25.0658 12.398 25.0658 12.53C25.0658 12.662 25.0397 12.7927 24.9889 12.9146C24.9382 13.0364 24.8638 13.147 24.77 13.24C24.6766 13.3327 24.5658 13.406 24.4439 13.4558C24.3221 13.5055 24.1916 13.5308 24.06 13.53Z" fill="black"/>
</svg>
