<svg width="28" height="48" viewBox="0 0 28 48" fill="none" xmlns="http://www.w3.org/2000/svg">
<path d="M26 9.99683V12.9968H22.0032H21H17V10.9968H22.0032V8L22.003 7.99683H17V5.99683H21.739C20.8458 2.55432 17.7204 0 14.0032 0C10.2859 0 7.16052 2.55432 6.2674 5.99683H10.9551V7.99683H6.00336L6.00317 8V10.9968H10.9551V12.9968H7H6.00317H2V9.99683H0V19.9968C0 27.379 5.74707 33.4299 13 33.9462V45.9968H7V47.9968H21V45.9968H15V33.9462C22.2529 33.4299 28 27.379 28 19.9968V9.99683H26ZM14 31.9968C7.38281 31.9968 2 26.6135 2 19.9968V14.9968H6.00317V15.9968H10.9551V17.9968H6.00317V20C6.00317 24.41 9.59314 28 14.0032 28C18.4131 28 22.0032 24.41 22.0032 20V17.9968H17V15.9968H22.0032V14.9968H26V19.9968C26 26.6135 20.6172 31.9968 14 31.9968Z" fill="#A61E3E"/>
</svg>
