<svg width="27" height="27" viewBox="0 0 27 27" fill="none" xmlns="http://www.w3.org/2000/svg">
<path d="M2.24879 19.2494L2.97759 19.9647L2.14082 20.788C2.47947 21.3159 2.8585 21.8167 3.27451 22.2861L22.2773 3.26978C21.8065 2.86553 21.3106 2.49139 20.7927 2.14959L19.9559 2.97287L19.2406 2.25756L19.8885 1.60974C17.3325 0.235239 14.4015 -0.278767 11.5304 0.143968C8.65923 0.566702 6.00081 1.90366 3.94947 3.95652C1.89813 6.00937 0.563134 8.66878 0.14252 11.5402C-0.278095 14.4117 0.238075 17.3423 1.61446 19.8972L2.24879 19.2494ZM17.3511 4.14704L18.0665 4.86235L16.1905 6.75183L15.4752 6.03653L17.3511 4.14704ZM13.5857 7.92601L14.2875 8.64131L12.4115 10.5308L11.6962 9.81549L13.5857 7.92601ZM9.80672 11.705L10.522 12.4203L8.63254 14.2963L7.91723 13.581L9.80672 11.705ZM6.02775 15.4704L6.74306 16.1992L4.85357 18.0887L4.13827 17.3734L6.02775 15.4704Z" fill="#9A0404"/>
<path d="M6.18772 24.8503L7.02449 24.0271L7.73979 24.7424L7.09197 25.3902C9.64794 26.7647 12.5789 27.2787 15.45 26.856C18.3212 26.4332 20.9796 25.0963 23.031 23.0434C25.0823 20.9906 26.4173 18.3312 26.8379 15.4597C27.2585 12.5882 26.7423 9.65767 25.366 7.10271L24.7316 7.75053L24.0028 7.03523L24.8396 6.21196C24.501 5.68407 24.1219 5.18321 23.7059 4.71387L4.70312 23.7302C5.17394 24.1344 5.66979 24.5085 6.18772 24.8503ZM22.1269 8.92471L22.8422 9.64002L20.9527 11.5295L20.2374 10.8007L22.1269 8.92471ZM18.3479 12.7037L19.0632 13.419L17.1737 15.295L16.4584 14.5797L18.3479 12.7037ZM14.5689 16.4691L15.2842 17.1844L13.4082 19.0739L12.6794 18.3586L14.5689 16.4691ZM10.79 20.2481L11.5053 20.9634L9.61578 22.8529L8.90048 22.1376L10.79 20.2481Z" fill="#9A0404"/>
</svg>
