<svg width="100" height="111" viewBox="0 0 100 111" fill="none" xmlns="http://www.w3.org/2000/svg">
<path d="M99.3558 42.2204L95.2068 15.1364C65.0689 15.1364 50 0 50 0C50 0 34.9311 15.1364 4.79321 15.1364L0.644232 42.2204C-1.08596 53.5019 0.688937 65.0449 5.72706 75.2764C10.7652 85.5079 18.8215 93.9302 28.798 99.3955L50 111L71.202 99.3955C81.1785 93.9302 89.2348 85.5079 94.2729 75.2764C99.3111 65.0449 101.086 53.5019 99.3558 42.2204ZM73.6432 43.9308L43.5053 74.2035C42.5633 75.1494 41.286 75.6807 39.954 75.6807C38.6221 75.6807 37.3447 75.1494 36.4028 74.2035L26.3568 64.1126C25.8771 63.6472 25.4944 63.0904 25.2312 62.4749C24.9679 61.8593 24.8294 61.1972 24.8236 60.5273C24.8178 59.8574 24.9449 59.193 25.1974 58.5729C25.45 57.9528 25.823 57.3895 26.2946 56.9158C26.7662 56.4421 27.327 56.0674 27.9443 55.8137C28.5616 55.56 29.2231 55.4324 29.89 55.4382C30.557 55.444 31.2161 55.5832 31.8289 55.8476C32.4417 56.112 32.996 56.4964 33.4593 56.9783L39.954 63.5021L66.5407 36.7965C67.488 35.8774 68.7568 35.3689 70.0738 35.3804C71.3908 35.3919 72.6507 35.9225 73.582 36.858C74.5133 37.7934 75.0415 39.0589 75.053 40.3818C75.0644 41.7047 74.5581 42.9792 73.6432 43.9308Z" fill="#A61E3E"/>
</svg>
