<svg width="88" height="88" viewBox="0 0 88 88" fill="none" xmlns="http://www.w3.org/2000/svg">
<g opacity="0.5">
<path d="M44.0015 48.5583C41.7893 48.5583 39.6268 47.9169 37.7874 46.715C35.948 45.5132 34.5144 43.805 33.6678 41.8065C32.8213 39.808 32.5998 37.6088 33.0313 35.4872C33.4629 33.3655 34.5282 31.4167 36.0924 29.8871C37.6567 28.3575 39.6497 27.3158 41.8194 26.8938C43.9891 26.4717 46.238 26.6883 48.2818 27.5162C50.3256 28.344 52.0725 29.7458 53.3015 31.5445C54.5305 33.3431 55.1865 35.4578 55.1865 37.621C55.1865 40.5217 54.0081 43.3037 51.9105 45.3548C49.8129 47.406 46.9679 48.5583 44.0015 48.5583ZM44.0015 30.3294C42.5267 30.3294 41.085 30.757 39.8587 31.5582C38.6325 32.3594 37.6767 33.4982 37.1124 34.8306C36.548 36.163 36.4003 37.629 36.688 39.0435C36.9758 40.4579 37.6859 41.7571 38.7288 42.7769C39.7716 43.7966 41.1003 44.4911 42.5467 44.7724C43.9932 45.0538 45.4925 44.9094 46.855 44.3575C48.2175 43.8056 49.3821 42.871 50.2015 41.6719C51.0208 40.4728 51.4582 39.0631 51.4582 37.621C51.4582 35.6871 50.6725 33.8325 49.2741 32.465C47.8757 31.0976 45.9791 30.3294 44.0015 30.3294Z" fill="black"/>
<path d="M47.3364 55.8508C46.9792 55.8499 46.6298 55.7486 46.3298 55.5591L43.9995 54.119L41.6693 55.5591C41.2658 55.8152 40.7767 55.9089 40.3042 55.8206C39.8317 55.7323 39.4125 55.4688 39.134 55.0851L37.5495 52.8612L34.8092 53.3352C34.3385 53.4115 33.8559 53.3086 33.4605 53.0475C33.0652 52.7864 32.7873 52.387 32.684 51.9315L32.0688 49.2883L29.3658 48.6868C28.9 48.5858 28.4916 48.314 28.2246 47.9274C27.9575 47.5409 27.8522 47.0689 27.9303 46.6087L28.415 43.929L26.1407 42.3796C25.7484 42.1073 25.479 41.6973 25.3886 41.2353C25.2983 40.7733 25.3941 40.295 25.6561 39.9004L27.222 37.6218L25.7493 35.3432C25.4873 34.9487 25.3915 34.4704 25.4818 34.0083C25.5722 33.5463 25.8417 33.1363 26.2339 32.8641L28.5082 31.3146L27.9303 28.635C27.8522 28.1748 27.9575 27.7028 28.2246 27.3162C28.4916 26.9296 28.9 26.6579 29.3658 26.5569L32.0688 25.9553L32.684 23.3121C32.7873 22.8567 33.0652 22.4573 33.4605 22.1962C33.8559 21.9351 34.3385 21.8321 34.8092 21.9085L37.5495 22.3824L39.134 20.1585C39.4125 19.7749 39.8317 19.5114 40.3042 19.4231C40.7767 19.3347 41.2658 19.4284 41.6693 19.6846L43.9995 21.2158L46.3298 19.7757C46.7332 19.5196 47.2224 19.4259 47.6948 19.5142C48.1673 19.6025 48.5866 19.866 48.865 20.2497L50.4496 22.4736L53.1899 21.9996C53.6605 21.9233 54.1432 22.0262 54.5385 22.2873C54.9339 22.5484 55.2118 22.9478 55.3151 23.4033L55.9303 25.9553L58.6333 26.5569C59.0991 26.6579 59.5075 26.9296 59.7745 27.3162C60.0415 27.7028 60.1468 28.1748 60.0687 28.635L59.584 31.3146L61.8583 32.8641C62.2506 33.1363 62.5201 33.5463 62.6104 34.0083C62.7008 34.4704 62.6049 34.9487 62.343 35.3432L60.8703 37.6218L62.343 39.9004C62.6049 40.295 62.7008 40.7733 62.6104 41.2353C62.5201 41.6973 62.2506 42.1073 61.8583 42.3796L59.584 43.929L60.0687 46.6087C60.1468 47.0689 60.0415 47.5409 59.7745 47.9274C59.5075 48.314 59.0991 48.5858 58.6333 48.6868L55.9303 49.2883L55.3151 51.9315C55.2118 52.387 54.9339 52.7864 54.5385 53.0475C54.1432 53.3086 53.6605 53.4115 53.1899 53.3352L50.4496 52.8612L48.865 55.0851C48.6917 55.3232 48.4623 55.5171 48.1963 55.6503C47.9302 55.7836 47.6353 55.8523 47.3364 55.8508ZM43.9995 50.1451C44.3549 50.1406 44.7042 50.2354 45.0062 50.4185L46.8704 51.567L48.1194 49.7441C48.3242 49.4579 48.6088 49.2354 48.9393 49.1029C49.2698 48.9704 49.6322 48.9335 49.9835 48.9967L52.1273 49.3613L52.612 47.2832C52.6905 46.95 52.8632 46.6451 53.1105 46.4034C53.3577 46.1616 53.6695 45.9927 54.0102 45.916L56.1353 45.442L55.7625 43.3457C55.6979 43.0022 55.7356 42.6478 55.8711 42.3246C56.0066 42.0014 56.2342 41.7231 56.5268 41.5228L58.391 40.3015L57.2165 38.4786C57.0238 38.1849 56.9214 37.8432 56.9214 37.4942C56.9214 37.1452 57.0238 36.8036 57.2165 36.5099L58.391 34.687L56.5268 33.4656C56.2342 33.2653 56.0066 32.987 55.8711 32.6638C55.7356 32.3407 55.6979 31.9863 55.7625 31.6427L56.1353 29.5464L54.0102 29.0725C53.6695 28.9957 53.3577 28.8268 53.1105 28.5851C52.8632 28.3433 52.6905 28.0384 52.612 27.7053L52.1273 25.6272L49.9835 25.9918C49.6322 26.0549 49.2698 26.0181 48.9393 25.8856C48.6088 25.7531 48.3242 25.5305 48.1194 25.2444L46.8704 23.4215L45.0062 24.5699C44.7058 24.7584 44.3564 24.8585 43.9995 24.8585C43.6426 24.8585 43.2933 24.7584 42.9929 24.5699L41.1287 23.4215L39.8797 25.2444C39.6749 25.5305 39.3903 25.7531 39.0598 25.8856C38.7293 26.0181 38.3668 26.0549 38.0155 25.9918L35.8717 25.6272L35.387 27.7053C35.3086 28.0384 35.1358 28.3433 34.8886 28.5851C34.6414 28.8268 34.3296 28.9957 33.9889 29.0725L31.8638 29.5464L32.2366 31.6427C32.3012 31.9863 32.2635 32.3407 32.128 32.6638C31.9925 32.987 31.7649 33.2653 31.4723 33.4656L29.6081 34.687L30.7825 36.5099C30.9753 36.8036 31.0777 37.1452 31.0777 37.4942C31.0777 37.8432 30.9753 38.1849 30.7825 38.4786L29.6081 40.3015L31.4723 41.5228C31.7649 41.7231 31.9925 42.0014 32.128 42.3246C32.2635 42.6478 32.3012 43.0022 32.2366 43.3457L31.8638 45.442L33.9889 45.916C34.3296 45.9927 34.6414 46.1616 34.8886 46.4034C35.1358 46.6451 35.3086 46.95 35.387 47.2832L35.8717 49.3613L38.0155 48.9967C38.3668 48.9335 38.7293 48.9704 39.0598 49.1029C39.3903 49.2354 39.6749 49.4579 39.8797 49.7441L41.1287 51.567L42.9929 50.4185C43.2949 50.2354 43.6442 50.1406 43.9995 50.1451Z" fill="black"/>
<path d="M62.4558 62.759L57.1429 51.6211C56.989 52.2908 56.645 52.9044 56.1503 53.3913C55.6556 53.8783 55.0304 54.2188 54.3466 54.3737L57.1802 60.3163L56.1549 59.9517C55.701 59.7694 55.1919 59.7694 54.7381 59.9517C54.2895 60.1531 53.9409 60.5202 53.7687 60.9725L53.3959 61.9751L50.3013 55.4856C49.9521 55.9293 49.5031 56.2883 48.989 56.5349C48.475 56.7814 47.9098 56.9089 47.3373 56.9075H46.834L51.9232 67.5532C52.0743 67.8634 52.3119 68.1255 52.6088 68.3094C52.9056 68.4932 53.2496 68.5913 53.6009 68.5922H53.6941C54.059 68.5754 54.4107 68.4541 54.7057 68.2435C55.0007 68.0328 55.2258 67.7421 55.3533 67.4074L56.6395 63.9803L60.1256 65.2199C60.4717 65.3434 60.8475 65.3638 61.2055 65.2785C61.5635 65.1933 61.8876 65.0062 62.137 64.741C62.3863 64.4757 62.5497 64.1441 62.6064 63.7881C62.6632 63.4321 62.6107 63.0676 62.4558 62.7407V62.759Z" fill="black"/>
<path d="M40.6627 56.9622C40.0901 56.9636 39.525 56.8361 39.0109 56.5895C38.4969 56.343 38.0479 55.9839 37.6986 55.5403L34.6787 62.0298L34.3058 61.0272C34.1725 60.6783 33.9331 60.3777 33.6198 60.1659C33.3065 59.954 32.9344 59.8411 32.5535 59.8423C32.3374 59.8426 32.1229 59.8796 31.9197 59.9517L30.8944 60.3163L33.728 54.3554C33.05 54.1989 32.4304 53.8598 31.9394 53.3765C31.4485 52.8932 31.1059 52.2851 30.9503 51.6211L25.5442 62.759C25.3879 63.0863 25.3346 63.4517 25.391 63.8087C25.4474 64.1657 25.6111 64.4982 25.8611 64.7642C26.1112 65.0289 26.4359 65.2153 26.7943 65.2996C27.1526 65.384 27.5285 65.3626 27.8744 65.2381L31.3605 63.9985L32.6467 67.4256C32.7742 67.7603 32.9993 68.051 33.2943 68.2617C33.5893 68.4723 33.941 68.5936 34.3058 68.6105C34.6572 68.6095 35.0012 68.5114 35.298 68.3276C35.5948 68.1438 35.8325 67.8816 35.9836 67.5714L41.0728 56.9257L40.6627 56.9622Z" fill="black"/>
</g>
<circle opacity="0.5" cx="44" cy="44" r="42.5" stroke="black" stroke-width="3"/>
</svg>
