<svg width="27" height="26" viewBox="0 0 27 26" fill="none" xmlns="http://www.w3.org/2000/svg">
<path d="M26 12.9999C26 19.5921 20.4395 24.9998 13.5 24.9998C6.56053 24.9998 1 19.5921 1 12.9999C1 6.40779 6.56053 1 13.5 1C20.4395 1 26 6.40779 26 12.9999Z" stroke="black" stroke-width="2"/>
<path d="M13.48 17.9011C13.16 17.9011 12.8267 17.8677 12.48 17.8011C12.1333 17.7344 11.7933 17.6411 11.46 17.5211C11.14 17.3877 10.8533 17.2344 10.6 17.0611C10.36 16.8877 10.18 16.6944 10.06 16.4811C9.99333 16.3477 9.95333 16.2277 9.94 16.1211C9.92667 16.0011 9.94667 15.8877 10 15.7811C10.0533 15.6744 10.1333 15.5677 10.24 15.4611C10.3733 15.3011 10.5067 15.2277 10.64 15.2411C10.7733 15.2411 10.94 15.3277 11.14 15.5011C11.2867 15.5944 11.46 15.7011 11.66 15.8211C11.86 15.9277 12.0667 16.0277 12.28 16.1211C12.4933 16.2011 12.7067 16.2744 12.92 16.3411C13.1467 16.3944 13.3667 16.4211 13.58 16.4211C14.1933 16.4211 14.6867 16.3077 15.06 16.0811C15.4333 15.8411 15.62 15.5277 15.62 15.1411C15.62 14.9144 15.5733 14.7211 15.48 14.5611C15.3867 14.4011 15.26 14.2677 15.1 14.1611C14.94 14.0411 14.76 13.9411 14.56 13.8611C14.36 13.7811 14.1333 13.7077 13.88 13.6411C13.64 13.5611 13.4 13.4877 13.16 13.4211C12.8 13.3277 12.4467 13.2211 12.1 13.1011C11.7533 12.9811 11.44 12.8277 11.16 12.6411C10.88 12.4411 10.6533 12.1944 10.48 11.9011C10.3067 11.5944 10.22 11.2077 10.22 10.7411C10.22 10.1944 10.36 9.72107 10.64 9.32107C10.92 8.92107 11.3133 8.61441 11.82 8.40107C12.3267 8.17441 12.92 8.06107 13.6 8.06107C13.8933 8.06107 14.1667 8.08107 14.42 8.12107C14.6733 8.16107 14.9133 8.22774 15.14 8.32107C15.38 8.40107 15.6067 8.50107 15.82 8.62107C16.0333 8.72774 16.24 8.86107 16.44 9.02107C16.68 9.18107 16.8067 9.35441 16.82 9.54107C16.8333 9.72774 16.76 9.92107 16.6 10.1211C16.48 10.2944 16.3467 10.4077 16.2 10.4611C16.0533 10.5011 15.9067 10.4611 15.76 10.3411C15.5467 10.1811 15.32 10.0411 15.08 9.92107C14.84 9.80107 14.5933 9.70107 14.34 9.62107C14.0867 9.54107 13.8267 9.50107 13.56 9.50107C13.2267 9.50107 12.9267 9.55441 12.66 9.66107C12.4067 9.75441 12.2067 9.90107 12.06 10.1011C11.9267 10.2877 11.86 10.5011 11.86 10.7411C11.86 10.9544 11.9133 11.1277 12.02 11.2611C12.14 11.3944 12.2867 11.5077 12.46 11.6011C12.6467 11.6944 12.86 11.7811 13.1 11.8611C13.3533 11.9277 13.6133 11.9944 13.88 12.0611C14.2667 12.1544 14.66 12.2677 15.06 12.4011C15.4733 12.5211 15.84 12.6877 16.16 12.9011C16.4933 13.1011 16.76 13.3744 16.96 13.7211C17.1733 14.0544 17.28 14.5011 17.28 15.0611C17.28 15.9411 16.9333 16.6344 16.24 17.1411C15.5467 17.6477 14.6267 17.9011 13.48 17.9011Z" fill="black"/>
</svg>
