<svg width="512" height="512" viewBox="0 0 512 512" fill="none" xmlns="http://www.w3.org/2000/svg">
<rect width="512" height="512" fill="white"/>
<circle cx="273.5" cy="342.5" r="24" stroke="#B32624" stroke-width="5"/>
<rect x="288.802" y="322.314" width="5.28003" height="50.6411" transform="rotate(41.5264 288.802 322.314)" fill="#B32624"/>
<circle cx="277.376" cy="330.376" r="2.25348" transform="rotate(-3.20573 277.376 330.376)" fill="#B32624"/>
<circle cx="286.024" cy="339.13" r="2.07013" transform="rotate(-2.78953 286.024 339.13)" fill="#B32624"/>
<circle cx="279.168" cy="347.168" r="2.07013" transform="rotate(-2.78953 279.168 347.168)" fill="#B32624"/>
<circle cx="270.289" cy="356.478" r="2.07013" transform="rotate(-2.78953 270.289 356.478)" fill="#B32624"/>
<circle cx="270.376" cy="337.376" r="2.25348" transform="rotate(-3.20573 270.376 337.376)" fill="#B32624"/>
<circle cx="262.576" cy="347.786" r="2.25348" transform="rotate(-3.20573 262.576 347.786)" fill="#B32624"/>
<path d="M248.905 311.61C248.293 312.168 248.25 313.117 248.808 313.729C249.367 314.341 250.316 314.385 250.928 313.826L248.905 311.61ZM250.928 313.826C258.914 306.539 270.287 302.689 281.265 304.441C292.173 306.181 302.88 313.482 309.561 328.88L312.313 327.686C305.267 311.447 293.76 303.396 281.738 301.478C269.786 299.571 257.511 303.758 248.905 311.61L250.928 313.826Z" fill="#B32624"/>
<path d="M315.093 318.482L311.541 328.478L300.74 326.671" stroke="#B32624" stroke-width="3" stroke-linecap="round"/>
</svg>
