<svg width="32" height="32" viewBox="0 0 32 32" fill="none" xmlns="http://www.w3.org/2000/svg">
<g opacity="0.7">
<path d="M27.4527 4.54727C24.3976 1.59648 20.3056 -0.0362959 16.0583 0.000612367C11.811 0.0375206 7.74803 1.74116 4.74459 4.74459C1.74116 7.74803 0.0375206 11.811 0.000612367 16.0583C-0.0362959 20.3056 1.59648 24.3976 4.54727 27.4527C7.60244 30.4035 11.6944 32.0363 15.9417 31.9994C20.189 31.9625 24.252 30.2588 27.2554 27.2554C30.2588 24.252 31.9625 20.189 31.9994 15.9417C32.0363 11.6944 30.4035 7.60244 27.4527 4.54727ZM6.83133 6.83133C8.65646 5.00545 10.9854 3.7663 13.5194 3.27277C16.0534 2.77923 18.6771 3.05381 21.0541 4.0613L20.5843 4.54727L21.7345 5.6974L22.5768 4.83885C23.0465 5.12224 23.5007 5.43046 23.9375 5.7622L5.7622 23.9375C5.43046 23.5007 5.12224 23.0465 4.83885 22.5768L5.6974 21.7345L4.54727 20.5843L4.07749 21.0541C3.06799 18.6787 2.79079 16.0559 3.28142 13.522C3.77206 10.988 5.00816 8.65828 6.83133 6.83133ZM25.1687 25.1687C23.3435 26.9946 21.0146 28.2337 18.4806 28.7272C15.9466 29.2208 13.3229 28.9462 10.9459 27.9387L11.4157 27.4527L10.2655 26.3026L9.42318 27.1611C8.95353 26.8778 8.49931 26.5695 8.06246 26.2378L26.2378 8.06246C26.5695 8.49931 26.8778 8.95353 27.1611 9.42318L26.3026 10.2655L27.4527 11.4157L27.9225 10.9459C28.932 13.3213 29.2092 15.9441 28.7186 18.478C28.2279 21.012 26.9918 23.3417 25.1687 25.1687ZM14.8499 21.7345L16 22.8684L13.7159 25.1687L12.5658 24.0995L14.8499 21.7345ZM19.4342 17.1501L20.5843 18.2841L18.2841 20.5843L17.1501 19.4342L19.4342 17.1501ZM24.0995 12.5658L25.2497 13.7159L22.8684 16L21.7345 14.8499L24.0995 12.5658ZM17.1501 10.2655L16 9.1316L18.2841 6.83133L19.4342 7.98147L17.1501 10.2655ZM12.5658 14.8499L11.4157 13.7159L13.7159 11.4157L14.8499 12.5658L12.5658 14.8499ZM7.98147 19.4342L6.83133 18.2841L9.1316 16L10.2655 17.1501L7.98147 19.4342Z" fill="black"/>
</g>
</svg>
