<svg width="50" height="50" viewBox="0 0 50 50" fill="none" xmlns="http://www.w3.org/2000/svg">
<g opacity="0.5" clip-path="url(#clip0_873_826)">
<path d="M44.0875 44.9055C44.5134 44.9055 44.8586 44.5603 44.8586 44.1344C44.8586 43.7085 44.5134 43.3633 44.0875 43.3633C43.6616 43.3633 43.3164 43.7085 43.3164 44.1344C43.3164 44.5603 43.6616 44.9055 44.0875 44.9055Z" fill="black"/>
<path d="M48.4259 41.1113L37.1143 29.7997C37.7639 28.572 38.2629 27.2649 38.5956 25.8787L43.689 24.9044V18.7259L38.5956 17.7515C38.1678 16.0088 37.4866 14.3692 36.5678 12.872L39.4907 8.5708L35.1182 4.20619L30.8169 7.1212C29.3198 6.21023 27.6801 5.51316 25.9295 5.09336L24.9552 0H18.7766L17.8023 5.09336C16.0596 5.52109 14.412 6.21023 12.9228 7.1212L8.62158 4.20618L4.24908 8.5708L7.17202 12.872C6.25313 14.3692 5.57191 16.0088 5.14419 17.7515L0.0507812 18.7258V24.9044L5.14419 25.8787C5.56399 27.6372 6.25313 29.2769 7.17202 30.7661L4.24908 35.0673L8.62158 39.4399L12.9228 36.5249C14.412 37.4358 16.0596 38.117 17.8023 38.5448L18.7766 43.6461H24.9552L25.9295 38.5448C27.2603 38.228 28.5356 37.7526 29.7238 37.1348L41.0591 48.4701C43.0978 50.5089 46.3849 50.511 48.4258 48.4701C50.4537 46.4423 50.4537 43.1391 48.4259 41.1113ZM12.6535 21.823C12.6535 16.7297 16.7805 12.6027 21.8659 12.6027C24.5829 12.6027 27.0227 13.7751 28.7178 15.6445C25.9735 14.8313 24.0428 15.3735 23.0066 15.4068L28.1158 20.5239L26.5316 26.5837L20.4718 28.168L15.3626 23.0508C15.3206 24.123 14.834 26.0158 15.5369 28.5165C13.7625 26.8372 12.6535 24.4608 12.6535 21.823ZM47.3011 47.3532C45.885 48.7694 43.5996 48.7689 42.1839 47.3532C39.0532 44.2225 32.0577 37.227 28.9317 34.101L28.4643 34.2435C22.9787 36.0406 17.4162 32.2694 16.7963 26.7263L19.9965 29.9265L27.8306 27.8828L29.8822 20.0408L26.682 16.8406C32.2723 17.5003 35.9708 23.0545 34.1993 28.5165L34.0488 28.9759C36.8563 31.7834 44.1449 39.0721 47.3011 42.2282C48.7111 43.6461 48.7111 45.9353 47.3011 47.3532Z" fill="black"/>
<path d="M25.2676 25.3184L26.4131 21.0435L23.2837 17.9141L19.0087 19.0595L17.8633 23.3344L20.9927 26.4639L25.2676 25.3184Z" fill="black"/>
</g>
<defs>
<clipPath id="clip0_873_826">
<rect width="50" height="50" fill="white"/>
</clipPath>
</defs>
</svg>
