<svg width="42" height="38" viewBox="0 0 42 38" fill="none" xmlns="http://www.w3.org/2000/svg">
<path d="M18.918 37.75C18.918 36.9212 18.5887 36.1263 18.0027 35.5403C17.4166 34.9542 16.6218 34.625 15.793 34.625C14.9642 34.625 14.1693 34.9542 13.5833 35.5403C12.9972 36.1263 12.668 36.9212 12.668 37.75H2.2513C1.69877 37.75 1.16886 37.5305 0.778163 37.1398C0.387462 36.7491 0.167969 36.2192 0.167969 35.6667V2.33333C0.167969 1.7808 0.387462 1.25089 0.778163 0.860194C1.16886 0.469493 1.69877 0.25 2.2513 0.25H12.668C12.668 1.0788 12.9972 1.87366 13.5833 2.45971C14.1693 3.04576 14.9642 3.375 15.793 3.375C16.6218 3.375 17.4166 3.04576 18.0027 2.45971C18.5887 1.87366 18.918 1.0788 18.918 0.25H39.7513C40.3038 0.25 40.8337 0.469493 41.2244 0.860194C41.6151 1.25089 41.8346 1.7808 41.8346 2.33333V13.7917C40.4533 13.7917 39.1285 14.3404 38.1518 15.3172C37.175 16.2939 36.6263 17.6187 36.6263 19C36.6263 20.3813 37.175 21.7061 38.1518 22.6828C39.1285 23.6596 40.4533 24.2083 41.8346 24.2083V35.6667C41.8346 36.2192 41.6151 36.7491 41.2244 37.1398C40.8337 37.5305 40.3038 37.75 39.7513 37.75H18.918ZM15.793 15.875C16.6218 15.875 17.4166 15.5458 18.0027 14.9597C18.5887 14.3737 18.918 13.5788 18.918 12.75C18.918 11.9212 18.5887 11.1263 18.0027 10.5403C17.4166 9.95424 16.6218 9.625 15.793 9.625C14.9642 9.625 14.1693 9.95424 13.5833 10.5403C12.9972 11.1263 12.668 11.9212 12.668 12.75C12.668 13.5788 12.9972 14.3737 13.5833 14.9597C14.1693 15.5458 14.9642 15.875 15.793 15.875ZM15.793 28.375C16.6218 28.375 17.4166 28.0458 18.0027 27.4597C18.5887 26.8737 18.918 26.0788 18.918 25.25C18.918 24.4212 18.5887 23.6263 18.0027 23.0403C17.4166 22.4542 16.6218 22.125 15.793 22.125C14.9642 22.125 14.1693 22.4542 13.5833 23.0403C12.9972 23.6263 12.668 24.4212 12.668 25.25C12.668 26.0788 12.9972 26.8737 13.5833 27.4597C14.1693 28.0458 14.9642 28.375 15.793 28.375Z" fill="#A61E3E"/>
</svg>
