<svg width="46" height="52" viewBox="0 0 46 52" fill="none" xmlns="http://www.w3.org/2000/svg">
<path d="M35.2695 23.2176C35.2689 21.4099 34.8566 19.6254 34.0632 17.9954C33.2698 16.3654 32.1153 14.9315 30.6849 13.7992C29.2545 12.667 27.5845 11.8652 25.7979 11.453C24.0113 11.0408 22.1536 11.0286 20.3616 11.4173C18.5696 11.806 16.8889 12.5858 15.4433 13.6991C13.9977 14.8125 12.8239 16.2311 12.0085 17.8505C11.1931 19.4699 10.7568 21.2489 10.7316 23.0565C10.7065 24.864 11.0932 26.6541 11.8633 28.2949L17.8126 41.1291H28.1873L34.1367 28.2949C34.885 26.7039 35.2716 24.9711 35.2695 23.2176Z" fill="#FFC43D"/>
<path d="M22.9995 11.1301C22.4507 11.1341 21.9027 11.1743 21.3594 11.2506C23.2624 11.5025 25.0788 12.1911 26.6622 13.2611C28.2457 14.331 29.552 15.7523 30.4759 17.4106C31.3998 19.0688 31.9156 20.9176 31.9816 22.8081C32.0476 24.6987 31.662 26.578 30.8559 28.2949L24.9066 41.1291H28.1869L34.1362 28.2949C35.0005 26.4528 35.3803 24.4261 35.2405 22.4015C35.1008 20.3768 34.4461 18.4194 33.3367 16.7095C32.2273 14.9997 30.699 13.5924 28.8925 12.6173C27.086 11.6423 25.0594 11.1308 22.9995 11.1301Z" fill="#FAAE17"/>
<path d="M23 2V5.96828" stroke="black" stroke-width="2.5" stroke-linecap="round" stroke-linejoin="round"/>
<path d="M38.1218 8.302L35.2969 11.1302" stroke="black" stroke-width="2.5" stroke-linecap="round" stroke-linejoin="round"/>
<path d="M43.9997 23.3066H39.9727" stroke="black" stroke-width="2.5" stroke-linecap="round" stroke-linejoin="round"/>
<path d="M7.87891 8.302L10.7038 11.1302" stroke="black" stroke-width="2.5" stroke-linecap="round" stroke-linejoin="round"/>
<path d="M2 23.3066H6.02702" stroke="black" stroke-width="2.5" stroke-linecap="round" stroke-linejoin="round"/>
<path d="M35.2695 23.2176C35.2689 21.4099 34.8566 19.6254 34.0632 17.9954C33.2698 16.3654 32.1153 14.9315 30.6849 13.7992C29.2545 12.667 27.5845 11.8652 25.7979 11.453C24.0113 11.0408 22.1536 11.0286 20.3616 11.4173C18.5696 11.806 16.8889 12.5858 15.4433 13.6991C13.9977 14.8125 12.8239 16.2311 12.0085 17.8505C11.1931 19.4699 10.7568 21.2489 10.7316 23.0565C10.7065 24.864 11.0932 26.6541 11.8633 28.2949L17.8126 41.1291H28.1873L34.1367 28.2949C34.885 26.7039 35.2716 24.9711 35.2695 23.2176Z" stroke="black" stroke-width="2.5" stroke-linecap="round" stroke-linejoin="round"/>
<path d="M17.8047 41.1292H28.1957V44.8817C28.1957 46.2391 27.6483 47.541 26.674 48.5009C25.6996 49.4608 24.3781 50.0001 23.0002 50.0001C21.6223 50.0001 20.3008 49.4608 19.3264 48.5009C18.3521 47.541 17.8047 46.2391 17.8047 44.8817V41.1292Z" fill="#727373"/>
<path d="M24.9117 41.1292V44.8817C24.9106 45.955 24.567 47.0008 23.9295 47.8712C23.292 48.7417 22.3929 49.3926 21.3594 49.7321C21.888 49.9069 22.4419 49.9964 22.9995 49.9971C23.6818 49.9971 24.3574 49.8647 24.9878 49.6074C25.6181 49.3502 26.1908 48.9732 26.6733 48.4979C27.1557 48.0226 27.5384 47.4584 27.7995 46.8374C28.0606 46.2164 28.195 45.5508 28.195 44.8786V41.1292H24.9117Z" fill="#606161"/>
<path d="M17.8047 41.1292H28.1957V44.8817C28.1957 46.2391 27.6483 47.541 26.674 48.5009C25.6996 49.4608 24.3781 50.0001 23.0002 50.0001C21.6223 50.0001 20.3008 49.4608 19.3264 48.5009C18.3521 47.541 17.8047 46.2391 17.8047 44.8817V41.1292Z" stroke="black" stroke-width="2.5" stroke-linecap="round" stroke-linejoin="round"/>
<path d="M16.5195 44.6785H29.4798" stroke="black" stroke-width="2.5" stroke-linecap="round" stroke-linejoin="round"/>
<path d="M16.5195 41.1292H29.4798" stroke="black" stroke-width="2.5" stroke-linecap="round" stroke-linejoin="round"/>
</svg>
