<svg width="13" height="15" viewBox="0 0 13 15" fill="none" xmlns="http://www.w3.org/2000/svg">
<path d="M1.36437 1.76625L6.5 0.625L11.6356 1.76625C11.7744 1.7971 11.8985 1.87435 11.9875 1.98525C12.0765 2.09615 12.125 2.23407 12.125 2.37625V8.61812C12.125 9.23546 11.9725 9.84324 11.6812 10.3875C11.3899 10.9318 10.9687 11.3957 10.455 11.7381L6.5 14.375L2.545 11.7381C2.03142 11.3958 1.61029 10.9319 1.31897 10.3878C1.02765 9.84363 0.875148 9.23598 0.875 8.61875V2.37625C0.875024 2.23407 0.923524 2.09615 1.01249 1.98525C1.10146 1.87435 1.22559 1.7971 1.36437 1.76625ZM6.5 8.4375L8.33687 9.40312L7.98625 7.35812L9.47187 5.90938L7.41813 5.61063L6.5 3.75L5.58125 5.61063L3.52812 5.90938L5.01375 7.35812L4.66375 9.40312L6.5 8.4375Z" fill="#CE2A2A"/>
</svg>
