<svg width="43" height="41" viewBox="0 0 43 41" fill="none" xmlns="http://www.w3.org/2000/svg">
<circle cx="20.9453" cy="20.9731" r="20" fill="#46A1A7"/>
<path d="M16.2283 27.0423C15.9883 27.0423 15.7883 27.0023 15.6283 26.9223C15.4816 26.8556 15.3683 26.7356 15.2883 26.5623L10.2283 14.2023C10.0949 13.8823 10.0683 13.6556 10.1483 13.5223C10.2416 13.389 10.4349 13.249 10.7283 13.1023C10.9149 13.009 11.0749 12.9623 11.2083 12.9623C11.3549 12.949 11.4816 12.989 11.5883 13.0823C11.7083 13.1623 11.8083 13.3023 11.8883 13.5023L16.2283 24.5223L20.5483 13.6823C20.6283 13.469 20.7149 13.3023 20.8083 13.1823C20.9149 13.049 21.0483 12.9756 21.2083 12.9623C21.3683 12.9356 21.5683 12.989 21.8083 13.1223C22.1816 13.2956 22.3683 13.489 22.3683 13.7023C22.3683 13.9023 22.3149 14.129 22.2083 14.3823L17.1683 26.5423C17.1016 26.7023 16.9883 26.8223 16.8283 26.9023C16.6683 26.9956 16.4683 27.0423 16.2283 27.0423ZM30.6402 27.0823C29.9202 27.0823 29.2202 26.9756 28.5402 26.7623C27.8602 26.549 27.2268 26.2423 26.6402 25.8423C26.0535 25.4423 25.5335 24.949 25.0802 24.3623C24.6402 23.7623 24.2935 23.0956 24.0402 22.3623C23.7868 21.6156 23.6602 20.7956 23.6602 19.9023C23.6602 19.049 23.7868 18.2623 24.0402 17.5423C24.2935 16.809 24.6402 16.1623 25.0802 15.6023C25.5202 15.0423 26.0335 14.569 26.6202 14.1823C27.2202 13.7823 27.8602 13.4823 28.5402 13.2823C29.2335 13.069 29.9402 12.9623 30.6602 12.9623C31.3268 12.9623 31.9002 13.029 32.3802 13.1623C32.8602 13.2956 33.2535 13.4423 33.5602 13.6023C33.8668 13.749 34.0735 13.8623 34.1802 13.9423C34.3668 14.049 34.5468 14.1756 34.7202 14.3223C34.8935 14.469 34.9868 14.6423 35.0002 14.8423C35.0268 14.989 35.0135 15.109 34.9602 15.2023C34.9202 15.2956 34.8668 15.3956 34.8002 15.5023C34.6935 15.6623 34.5802 15.7823 34.4602 15.8623C34.3535 15.929 34.2335 15.9623 34.1002 15.9623C33.9668 15.9623 33.8468 15.9223 33.7402 15.8423C33.6335 15.7623 33.4935 15.669 33.3202 15.5623C33.2402 15.509 33.0802 15.4223 32.8402 15.3023C32.6002 15.1823 32.2935 15.069 31.9202 14.9623C31.5468 14.8423 31.0935 14.7823 30.5602 14.7823C29.8802 14.7823 29.2268 14.909 28.6002 15.1623C27.9868 15.4023 27.4468 15.749 26.9802 16.2023C26.5135 16.6556 26.1468 17.2023 25.8802 17.8423C25.6135 18.4823 25.4802 19.2023 25.4802 20.0023C25.4802 20.8156 25.6135 21.549 25.8802 22.2023C26.1468 22.8423 26.5135 23.389 26.9802 23.8423C27.4602 24.2956 28.0068 24.6423 28.6202 24.8823C29.2335 25.1223 29.8802 25.2423 30.5602 25.2423C31.0668 25.2423 31.5068 25.189 31.8802 25.0823C32.2668 24.9756 32.5802 24.8623 32.8202 24.7423C33.0735 24.609 33.2468 24.509 33.3402 24.4423C33.4868 24.3623 33.6135 24.2823 33.7202 24.2023C33.8402 24.1223 33.9668 24.0823 34.1002 24.0823C34.2335 24.0823 34.3535 24.1223 34.4602 24.2023C34.5802 24.269 34.6935 24.3823 34.8002 24.5423C34.8668 24.6356 34.9202 24.7423 34.9602 24.8623C35.0135 24.969 35.0268 25.089 35.0002 25.2223C34.9868 25.4223 34.8935 25.5956 34.7202 25.7423C34.5468 25.8756 34.3668 26.0023 34.1802 26.1223C34.0602 26.1756 33.8468 26.289 33.5402 26.4623C33.2468 26.6223 32.8602 26.7623 32.3802 26.8823C31.9002 27.0156 31.3202 27.0823 30.6402 27.0823Z" fill="white"/>
</svg>
