<svg width="90" height="90" viewBox="0 0 90 90" fill="none" xmlns="http://www.w3.org/2000/svg">
<rect width="90" height="90" rx="12" fill="#FFD400" fill-opacity="0.4"/>
<path d="M71.083 52.2577C72.8665 55.0402 72.9567 58.5485 71.3203 61.4128C69.6839 64.2783 66.573 66.0589 63.2013 66.0589H29.6526C26.2809 66.0589 23.17 64.2783 21.5336 61.4128C19.8972 58.5485 19.9874 55.0402 21.7709 52.2577L38.544 26.0825C40.2521 23.4189 43.1986 21.8281 46.4269 21.8281C49.6553 21.8281 52.6018 23.4189 54.3099 26.0825L71.083 52.2577Z" fill="#FFD400"/>
<path d="M68.6741 30.6134C71.0632 30.6134 73 28.7307 73 26.4083C73 24.0858 71.0632 22.2031 68.6741 22.2031C66.285 22.2031 64.3483 24.0858 64.3483 26.4083C64.3483 28.7307 66.285 30.6134 68.6741 30.6134Z" fill="#07CC66"/>
<path d="M22.6348 40.8268C24.512 40.8268 26.0337 39.3475 26.0337 37.5228C26.0337 35.698 24.512 34.2188 22.6348 34.2188C20.7577 34.2188 19.236 35.698 19.236 37.5228C19.236 39.3475 20.7577 40.8268 22.6348 40.8268Z" fill="#07CC66"/>
<path d="M66.3629 55.1165C67.9079 57.5278 66.1244 60.6516 63.2014 60.6516H29.6526C26.7296 60.6516 24.9461 57.5278 26.491 55.1165L43.2654 28.9402C44.7238 26.6658 48.1301 26.6658 49.5886 28.9402L66.3629 55.1165Z" fill="#3F4751"/>
<path d="M48.1746 52.9462C48.622 53.3812 48.8989 53.9819 48.8989 54.6451C48.8989 55.3083 48.622 55.9091 48.1746 56.344C47.7272 56.7789 47.1092 57.0481 46.427 57.0481C45.0613 57.0481 43.9551 55.9727 43.9551 54.6451C43.9551 53.9819 44.2319 53.3812 44.6793 52.9462C45.1268 52.5113 45.7447 52.2422 46.427 52.2422C47.1092 52.2422 47.7272 52.5113 48.1746 52.9462Z" fill="#FFD400"/>
<path d="M48.8989 36.6217V46.8341C48.8989 48.1618 47.7927 49.2371 46.427 49.2371C45.0613 49.2371 43.9551 48.1618 43.9551 46.8341V36.6217C43.9551 35.2941 45.0613 34.2188 46.427 34.2188C47.1092 34.2188 47.7272 34.4879 48.1746 34.9228C48.622 35.3577 48.8989 35.9585 48.8989 36.6217Z" fill="#FFD400"/>
<path d="M67.7472 38.4233C68.2591 38.4233 68.6741 38.0199 68.6741 37.5222C68.6741 37.0245 68.2591 36.6211 67.7472 36.6211C67.2352 36.6211 66.8202 37.0245 66.8202 37.5222C66.8202 38.0199 67.2352 38.4233 67.7472 38.4233Z" fill="#D94556"/>
<path d="M59.0955 23.4077C59.6075 23.4077 60.0225 23.0042 60.0225 22.5066C60.0225 22.0089 59.6075 21.6055 59.0955 21.6055C58.5836 21.6055 58.1686 22.0089 58.1686 22.5066C58.1686 23.0042 58.5836 23.4077 59.0955 23.4077Z" fill="#D94556"/>
<path d="M55.3877 71.4663C55.8996 71.4663 56.3146 71.0628 56.3146 70.5652C56.3146 70.0675 55.8996 69.6641 55.3877 69.6641C54.8757 69.6641 54.4607 70.0675 54.4607 70.5652C54.4607 71.0628 54.8757 71.4663 55.3877 71.4663Z" fill="#D94556"/>
<path d="M36.2303 19.8022C36.7423 19.8022 37.1573 19.3988 37.1573 18.9011C37.1573 18.4034 36.7423 18 36.2303 18C35.7184 18 35.3033 18.4034 35.3033 18.9011C35.3033 19.3988 35.7184 19.8022 36.2303 19.8022Z" fill="#D94556"/>
<path d="M18.927 67.8608C19.4389 67.8608 19.8539 67.4574 19.8539 66.9597C19.8539 66.462 19.4389 66.0586 18.927 66.0586C18.415 66.0586 18 66.462 18 66.9597C18 67.4574 18.415 67.8608 18.927 67.8608Z" fill="#D94556"/>
</svg>
