<svg width="54" height="50" viewBox="0 0 54 50" fill="none" xmlns="http://www.w3.org/2000/svg">
<path d="M27.601 14.7149C25.2263 14.715 22.8989 15.3775 20.8814 16.6276C18.864 17.8778 17.2367 19.6658 16.1833 21.7899C15.13 23.914 14.6923 26.2897 14.9199 28.6488C15.1475 31.008 16.0311 33.2567 17.4712 35.1412C19.9238 37.007 22.9712 37.9215 26.0481 37.7153C29.125 37.509 32.0225 36.1959 34.203 34.0196C36.3836 31.8432 37.6993 28.9514 37.906 25.8805C38.1126 22.8096 37.1963 19.7682 35.3269 17.3203C33.1092 15.6267 30.3934 14.7109 27.601 14.7149Z" fill="#F7AD1E"/>
<path d="M25.0769 2V9.0775" stroke="#02005C" stroke-width="2.5" stroke-linecap="round" stroke-linejoin="round"/>
<path d="M8.75964 8.74609L13.7729 13.7507" stroke="#02005C" stroke-width="2.5" stroke-linecap="round" stroke-linejoin="round"/>
<path d="M2 25.0312H9.09135" stroke="#02005C" stroke-width="2.5" stroke-linecap="round" stroke-linejoin="round"/>
<path d="M41.0625 25.0312H48.1526" stroke="#02005C" stroke-width="2.5" stroke-linecap="round" stroke-linejoin="round"/>
<path d="M36.3798 13.7507L41.3942 8.74609" stroke="#02005C" stroke-width="2.5" stroke-linecap="round" stroke-linejoin="round"/>
<path d="M12.5649 23.3679C12.4929 23.92 12.4568 24.4761 12.4567 25.0329C12.456 28.0664 13.542 31.0002 15.5185 33.3047C17.495 35.6092 20.232 37.1325 23.2352 37.5997C26.2383 38.0668 29.3099 37.447 31.8954 35.8521C34.4809 34.2573 36.4099 31.7924 37.3341 28.9026C38.2584 26.0127 38.1171 22.8883 36.9356 20.0933C35.7542 17.2983 33.6105 15.017 30.8916 13.6611C28.1726 12.3053 25.0576 11.9642 22.1088 12.6996C19.16 13.4349 16.5717 15.1982 14.8113 17.6711" stroke="#02005C" stroke-width="2.5" stroke-linecap="round" stroke-linejoin="round"/>
<path d="M13.3654 20.3164C13.345 20.3656 13.3245 20.4136 13.3053 20.4628" stroke="#02005C" stroke-width="2.5" stroke-linecap="round" stroke-linejoin="round"/>
<path d="M44.1875 32.3513C43.2492 32.3505 42.3184 32.5187 41.4399 32.8479C40.8481 29.7364 39.1141 26.9573 36.5773 25.0545C34.0405 23.1518 30.8836 22.2624 27.7244 22.5603C24.5651 22.8583 21.6311 24.3223 19.4964 26.6656C17.3617 29.009 16.18 32.0631 16.1827 35.2302C16.1827 35.5565 16.1951 35.8796 16.22 36.1995C15.3936 35.9539 14.5239 35.8886 13.67 36.0081C12.8162 36.1276 11.998 36.4291 11.2712 36.8922C10.5444 37.3552 9.92597 37.9689 9.45785 38.6916C8.98972 39.4143 8.6829 40.229 8.55822 41.0806C8.43354 41.9321 8.49391 42.8004 8.73524 43.6266C8.97656 44.4527 9.3932 45.2174 9.95684 45.8687C10.5205 46.5199 11.2179 47.0425 12.0019 47.4009C12.7858 47.7592 13.6378 47.9451 14.5 47.9458H44.1875C46.2595 47.9458 48.2467 47.1243 49.7118 45.662C51.1769 44.1997 52 42.2165 52 40.1485C52 38.0805 51.1769 36.0973 49.7118 34.635C48.2467 33.1728 46.2595 32.3513 44.1875 32.3513Z" fill="white"/>
<path d="M43.8438 35.2489C43.6597 34.2846 43.3636 33.345 42.9616 32.4491C42.4422 32.5309 41.9324 32.6647 41.44 32.8485C41.0698 30.9091 40.2508 29.0827 39.0481 27.5152C37.1596 26.0792 34.9067 25.1984 32.5433 24.9722C30.18 24.7459 27.8004 25.1833 25.6728 26.2349C23.5452 27.2865 21.7544 28.9105 20.5023 30.9237C19.2503 32.9369 18.5867 35.2593 18.5866 37.6288C18.5866 37.9551 18.5998 38.279 18.6239 38.5993C17.4833 38.2593 16.2672 38.2651 15.1299 38.6158C13.9927 38.9666 12.9853 39.6465 12.2358 40.5694C11.4862 41.4923 11.0281 42.6165 10.9196 43.7996C10.811 44.9827 11.057 46.1713 11.6263 47.2147C12.5075 47.6953 13.4958 47.9465 14.5001 47.9452H44.1876C45.5871 47.9452 46.9608 47.5699 48.1653 46.8587C49.3698 46.1475 50.3608 45.1265 51.0346 43.9023C51.7085 42.6781 52.0405 41.2957 51.9959 39.8997C51.9514 38.5036 51.5319 37.1451 50.7813 35.9662C49.7598 35.3181 48.6014 34.9157 47.3975 34.7908C46.1936 34.6659 44.977 34.8219 43.8438 35.2465V35.2489Z" fill="#B6C4CF"/>
<path d="M17.0841 30.5273C17.0757 30.5501 17.0661 30.5717 17.0577 30.5945C17.0493 30.6173 17.0397 30.6377 17.0312 30.6605" stroke="#02005C" stroke-width="2.5" stroke-linecap="round" stroke-linejoin="round"/>
<path d="M51.9843 40.5574C52.2079 36.5904 49.2307 32.9809 45.2872 32.4291C43.9902 32.247 42.668 32.3913 41.4411 32.849C40.6658 28.7608 37.8353 25.3024 34.0709 23.5559C28.8029 20.9552 21.9519 22.9944 18.5685 27.8215" stroke="#02005C" stroke-width="2.5" stroke-miterlimit="10" stroke-linecap="round"/>
<path d="M49.5541 45.8117C50.2303 45.1713 50.7857 44.4148 51.1935 43.5781" stroke="#02005C" stroke-width="2.5" stroke-miterlimit="10" stroke-linecap="round"/>
<path d="M16.2824 33.6328C16.1759 34.4839 16.1546 35.3434 16.2187 36.1987C14.851 35.8034 13.3876 35.9008 12.0846 36.4739C10.7815 37.0469 9.72197 38.0591 9.09132 39.3332C8.67708 40.1468 8.46118 41.0465 8.46118 41.9591C8.46118 42.8717 8.67708 43.7714 9.09132 44.5849C9.4519 45.1847 9.81247 45.9045 10.4134 46.3843C10.8655 46.7452 11.3481 47.0662 11.8557 47.344C12.5603 47.5993 13.2836 47.7998 14.0192 47.9438C24.3557 48.0637 34.6923 48.0637 45.0288 47.9438C45.6298 47.9438 46.3509 47.5839 46.9423 47.4447" stroke="#02005C" stroke-width="2.5" stroke-miterlimit="10" stroke-linecap="round"/>
</svg>
