<svg width="44" height="45" viewBox="0 0 44 45" fill="none" xmlns="http://www.w3.org/2000/svg">
<g opacity="0.7">
<path d="M22.2379 11.2617C16.2614 11.2617 11.4007 16.1219 11.3984 22.0958C11.3976 24.1431 11.9705 26.1369 13.055 27.862L13.3127 28.2719L12.2181 32.2701L16.3189 31.1944L16.7145 31.4291C18.3781 32.4163 20.285 32.9387 22.2292 32.9395H22.2336C28.2056 32.9395 33.066 28.0788 33.0684 22.1044C33.0696 19.2094 31.9436 16.4871 29.898 14.4391C27.8524 12.3912 25.1319 11.2626 22.2379 11.2617ZM28.611 26.7543C28.3397 27.515 27.0383 28.2095 26.4124 28.3029C25.8512 28.3869 25.1411 28.4218 24.3609 28.1739C23.8878 28.0238 23.2811 27.8233 22.504 27.4878C19.2365 26.0768 17.1025 22.787 16.9396 22.5695C16.7768 22.3522 15.6096 20.8033 15.6096 19.1999C15.6096 17.5968 16.4511 16.8087 16.7497 16.4826C17.0481 16.1566 17.4011 16.0751 17.6182 16.0751C17.8353 16.0751 18.0527 16.0771 18.2424 16.0865C18.4424 16.0967 18.7109 16.0106 18.9754 16.6457C19.2468 17.298 19.8982 18.9012 19.9797 19.0643C20.0612 19.2273 20.1154 19.4175 20.0068 19.6349C19.8983 19.8521 19.844 19.9881 19.6811 20.1783C19.5183 20.3685 19.339 20.6029 19.1926 20.7489C19.0295 20.9113 18.8597 21.0876 19.0497 21.4136C19.2397 21.7398 19.8934 22.8064 20.8618 23.6701C22.1059 24.7798 23.1555 25.1237 23.4811 25.2868C23.8068 25.45 23.9969 25.4225 24.1869 25.2053C24.3769 24.9879 25.0012 24.2541 25.2183 23.9281C25.4354 23.6021 25.6526 23.6565 25.9511 23.7651C26.2496 23.8739 27.8511 24.6618 28.1768 24.8248C28.5025 24.9878 28.7197 25.0694 28.8011 25.2053C28.8825 25.341 28.8825 25.9932 28.611 26.7543Z" fill="black"/>
<path d="M21.7568 0.855469C9.76277 0.855469 0.0390625 10.5774 0.0390625 22.5714C0.0390625 34.5654 9.76277 44.2891 21.7568 44.2891C33.7499 44.2891 43.4736 34.5654 43.4736 22.5714C43.4736 10.5774 33.7499 0.855469 21.7568 0.855469ZM22.2334 35.1416C22.2329 35.1416 22.2336 35.1416 22.2334 35.1416H22.228C20.0462 35.1409 17.9023 34.5934 15.9984 33.555L9.08782 35.3677L10.9372 28.6126C9.79646 26.6356 9.19621 24.3931 9.19718 22.0955C9.20001 14.9081 15.048 9.06048 22.2333 9.06048C25.7204 9.06189 28.9936 10.4195 31.4547 12.8835C33.9159 15.3475 35.2707 18.6226 35.2694 22.1059C35.2663 29.2934 29.4179 35.1416 22.2334 35.1416Z" fill="black"/>
</g>
</svg>
