<svg width="56" height="56" viewBox="0 0 56 56" fill="none" xmlns="http://www.w3.org/2000/svg">
<path d="M47.679 8.13225C42.4183 2.89122 35.42 0.00295313 27.9718 0C20.5403 0 13.5309 2.88564 8.23561 8.12547C2.93092 13.3739 0.00689063 20.3492 0 27.7406V27.7542C0.000875 32.2279 1.17622 36.7409 3.40725 40.8604L0.0765625 56L15.3904 52.5166C19.2688 54.4713 23.5965 55.5018 27.9613 55.5035H27.9723C35.4026 55.5035 42.412 52.6175 47.7081 47.3773C53.0175 42.1244 55.9429 35.158 55.9462 27.762C55.9484 20.4181 53.0127 13.4467 47.6791 8.13225H47.679ZM27.9718 51.1328H27.9619C24.0428 51.1311 20.1596 50.1471 16.7326 48.2865L16.0086 47.8935L5.82553 50.2096L8.03731 40.1572L7.61097 39.422C5.49095 35.7661 4.37063 31.7302 4.37063 27.7495C4.37872 14.8652 14.965 4.37063 27.9708 4.37063C34.254 4.37325 40.1576 6.80903 44.5942 11.2284C49.0978 15.7162 51.5771 21.5875 51.5749 27.7608C51.5698 40.6482 40.9813 51.1328 27.9718 51.1328Z" fill="white"/>
<path d="M20.3593 15.5161H19.1332C18.7063 15.5161 18.0133 15.6759 17.4272 16.3138C16.8405 16.9521 15.1875 18.4949 15.1875 21.6327C15.1875 24.7704 17.4805 27.802 17.8001 28.228C18.1202 28.6535 22.2264 35.298 28.73 37.8543C34.1351 39.9786 35.2352 39.556 36.408 39.4497C37.5812 39.3436 40.1938 37.9073 40.727 36.4183C41.2602 34.9294 41.2602 33.6528 41.1004 33.3861C40.9402 33.1203 40.5134 32.961 39.8738 32.6424C39.2338 32.3231 36.0978 30.7543 35.5112 30.5411C34.9245 30.3288 34.4982 30.2223 34.0714 30.8611C33.6445 31.4985 32.388 32.9735 32.0146 33.3989C31.6417 33.8249 31.2682 33.8783 30.6282 33.5592C29.9881 33.2391 27.9485 32.5539 25.5042 30.3818C23.6017 28.6911 22.2816 26.5352 21.908 25.8969C21.5351 25.259 21.8683 24.9138 22.1891 24.5956C22.4768 24.3101 22.8651 23.9196 23.1851 23.5475C23.5047 23.175 23.5957 22.9092 23.8093 22.4836C24.0226 22.0582 23.9157 21.6856 23.7559 21.3669C23.5957 21.0476 22.3679 17.8943 21.7987 16.6329H21.7991C21.3198 15.5709 20.8152 15.5348 20.3593 15.5161Z" fill="white"/>
</svg>
