<svg width="30" height="27" viewBox="0 0 30 27" fill="none" xmlns="http://www.w3.org/2000/svg">
<path d="M22.4244 25.3062H7.56964C7.17447 25.3062 6.85547 25.6278 6.85547 26.0263C6.85547 26.4248 7.17447 26.7465 7.56964 26.7465H22.4244C22.8196 26.7465 23.1386 26.4248 23.1386 26.0263C23.1386 25.6278 22.8196 25.3062 22.4244 25.3062Z" fill="black"/>
<path d="M26.4006 1.78216H24.9008C24.2485 1.78216 23.6439 1.979 23.1392 2.31988V1.58051C23.1392 1.18202 22.8202 0.860352 22.425 0.860352H7.57023C7.17505 0.860352 6.85606 1.18202 6.85606 1.58051V2.31988C6.35137 1.9838 5.74671 1.78216 5.09919 1.78216H3.59943C1.61403 1.78216 0 3.40973 0 5.41178C0 6.77529 0.528487 8.05718 1.48072 9.02219L6.45612 14.0393C6.54658 14.1305 6.59895 14.2554 6.59895 14.3802V14.6059C6.59895 14.8747 6.3847 15.0908 6.11808 15.0908C5.85145 15.0908 5.6372 14.8747 5.6372 14.6059V14.0825C5.6372 13.684 5.3182 13.3624 4.92303 13.3624C4.52785 13.3624 4.20886 13.684 4.20886 14.0825V14.6059C4.20886 15.6669 5.06586 16.5311 6.11808 16.5311C7.17029 16.5311 8.0273 15.6669 8.0273 14.6059V14.3802C8.0273 13.8665 7.82733 13.3816 7.47024 13.0167L2.49484 8.00436C1.80924 7.31301 1.43311 6.3912 1.43311 5.41178C1.43311 4.20671 2.40438 3.22248 3.60419 3.22248H5.10395C6.07523 3.22248 6.86082 4.01946 6.86082 4.99408V5.35897C6.86082 5.76706 6.52754 6.10313 6.12284 6.10313C5.85621 6.10313 5.64196 5.88709 5.64196 5.61823V4.74923C5.64196 4.35074 5.32297 4.02907 4.92779 4.02907C4.53261 4.02907 4.21362 4.35074 4.21362 4.74923V5.61823C4.21362 6.67926 5.07062 7.54346 6.12284 7.54346C6.3847 7.54346 6.62752 7.49065 6.86082 7.40423V9.0702C6.86082 12.9351 9.46993 16.1998 13.1455 17.0544V19.6422C11.2887 19.6998 9.79368 21.241 9.79368 23.1278C9.79368 23.5263 10.1127 23.8479 10.5079 23.8479H19.4969C19.8921 23.8479 20.2111 23.5263 20.2111 23.1278C20.2111 21.241 18.7161 19.6998 16.8592 19.6422V17.0544C20.5348 16.195 23.1439 12.9303 23.1439 9.0702V7.40423C23.3772 7.49065 23.6201 7.54346 23.8819 7.54346C24.9341 7.54346 25.7911 6.67926 25.7911 5.61823V4.74923C25.7911 4.35074 25.4721 4.02907 25.077 4.02907C24.6818 4.02907 24.3628 4.35074 24.3628 4.74923V5.61823C24.3628 5.88709 24.1485 6.10313 23.8819 6.10313C23.4725 6.10313 23.1439 5.76706 23.1439 5.35897V4.99408C23.1439 4.01466 23.9343 3.22248 24.9056 3.22248H26.4053C27.6004 3.22248 28.5764 4.20191 28.5764 5.41178C28.5764 6.3912 28.2003 7.30821 27.5147 8.00436L22.5298 13.0215C22.1679 13.3864 21.9727 13.8665 21.9727 14.385V14.6107C21.9727 15.6717 22.8297 16.5359 23.8819 16.5359C24.9341 16.5359 25.7911 15.6717 25.7911 14.6107V14.0873C25.7911 13.6888 25.4721 13.3672 25.077 13.3672C24.6818 13.3672 24.3628 13.6888 24.3628 14.0873V14.6107C24.3628 14.8795 24.1485 15.0956 23.8819 15.0956C23.6153 15.0956 23.401 14.8795 23.401 14.6107V14.385C23.401 14.2554 23.4534 14.1305 23.5439 14.0441L28.5193 9.02699C29.4763 8.06198 30 6.78009 30 5.41658C29.9952 3.40973 28.3812 1.78216 26.4006 1.78216ZM21.7108 9.0702C21.7108 12.4262 19.3207 15.2348 16.0308 15.7485C15.6832 15.8013 15.4261 16.1038 15.4261 16.4591V20.3575C15.4261 20.756 15.7451 21.0777 16.1403 21.0777H16.7497C17.6163 21.0777 18.359 21.6298 18.6494 22.4028H11.3506C11.641 21.6298 12.3837 21.0777 13.2503 21.0777H13.8597C14.2549 21.0777 14.5739 20.756 14.5739 20.3575V16.4591C14.5739 16.1038 14.3168 15.8013 13.9692 15.7485C10.6793 15.2348 8.28916 12.4262 8.28916 9.0702V5.35897V4.99408V2.30068H21.7156V4.99408V5.35897V9.0702H21.7108Z" fill="black"/>
</svg>
