<svg width="115" height="82" viewBox="0 0 115 82" fill="none" xmlns="http://www.w3.org/2000/svg">
<path d="M81.0465 0.768334C78.7172 1.31794 77.7227 2.2863 77.7227 4.06599V5.19138L76.6234 5.00818C74.9223 4.69412 71.7031 4.77263 70.6039 5.13904C70.0805 5.32224 69.3477 5.71482 68.9812 6.00271C68.3531 6.49997 68.3008 6.68318 68.3008 8.72458V10.923L67.2016 10.4258C65.9453 9.84997 63.5113 9.74529 61.941 10.1902C61.3914 10.3211 60.5801 10.7922 60.109 11.2109L59.2715 11.9437L59.2977 22.1246L59.3238 32.2793L60.266 37.1996C60.8156 39.8953 61.4176 43.5855 61.6531 45.3652L62.0719 48.6367L61.2867 52.2222C60.0305 57.8754 60.0043 58.1894 60.8418 60.6496L61.5746 62.7695L60.8418 65.5961C59.9781 68.8414 59.6902 72.6101 60.1613 74.7039C60.6324 76.7976 61.6531 78.0015 63.9039 79.1008C66.4687 80.3832 69.5309 80.6711 77.5918 80.4879C90.5207 80.1476 96.5402 78.6035 98.3461 75.0703C98.8957 74.0234 98.948 73.6047 98.8434 71.2754C98.7648 69.0246 98.6078 68.2133 97.6656 65.5437C96.4879 62.1937 96.2785 60.2047 96.802 56.9855C97.2992 53.9758 97.6133 53.2691 98.9219 52.039C100.309 50.7043 104.287 47.9824 107.297 46.3074C109.443 45.1035 111.039 43.7164 111.668 42.4863C112.191 41.4918 111.955 38.0109 111.223 35.7863L110.699 34.216L111.982 32.9336C114.991 29.9238 114.861 25.7101 111.589 19.3242C110.804 17.8062 109.6 15.791 108.867 14.8226C107.035 12.3886 103.188 8.85544 101.277 7.83474C100.387 7.33747 99.5762 6.73552 99.4453 6.39529C99.1312 5.53162 97.2207 3.90896 95.6766 3.20232C93.4258 2.15544 90.4684 2.52185 89.2645 3.98747C88.6887 4.66794 88.4531 4.45857 88.4531 3.28083C88.4531 1.86755 87.9035 1.10857 86.6734 0.742162C85.5219 0.4281 82.4336 0.4281 81.0465 0.768334ZM86.1762 12.5718C86.2547 17.8062 86.4641 22.648 86.5949 23.3808C86.8828 24.6894 87.825 25.8672 88.584 25.8672C89.2645 25.8672 89.9973 24.7679 90.3113 23.2761C90.4945 22.4386 90.6777 18.2773 90.7824 13.6972L90.9395 5.61013L91.934 5.21755C93.1641 4.77263 94.368 5.06052 95.9906 6.26443C97.0375 7.02341 97.0898 7.1281 97.0898 8.41052C97.0898 9.14333 96.6711 14.7703 96.1477 20.8945C94.8129 37.0687 94.8391 38.4558 96.5664 39.3457C97.4301 39.7906 97.9797 39.6336 103.921 37.1472C106.041 36.2836 107.951 35.5508 108.161 35.5508C108.71 35.5508 109.129 37.0164 109.312 39.5551C109.495 42.0676 109.495 42.0414 105.596 44.3707C99.6023 47.9562 96.2785 50.5996 95.3887 52.4316C95.1531 52.9551 94.7605 54.3683 94.525 55.5722C94.2895 56.8023 93.9754 57.7968 93.8445 57.7968C93.6875 57.7968 91.8555 57.6136 89.7617 57.4043C80.6016 56.4883 74.8176 56.6191 66.5473 57.9015L62.8047 58.4773V57.7183C62.8047 57.2996 63.1711 55.3629 63.5898 53.4261C64.0609 51.3062 64.375 49.1863 64.375 48.0347C64.375 46.098 63.616 41.0207 62.4121 34.8703C61.784 31.625 61.7578 31.1015 61.784 22.1508C61.8102 11.7867 61.6531 12.7289 63.5898 12.4148C64.4535 12.284 66.3379 12.5718 66.652 12.8859C66.7305 12.9644 66.8875 15.6601 67.0184 18.9054C67.123 22.1508 67.3586 25.239 67.4895 25.8148C68.0652 27.8824 69.6617 28.275 70.5777 26.5738C71.1797 25.4484 71.3105 20.6066 70.9441 13.4355C70.7609 9.71911 70.7609 7.86091 70.9441 7.67771C71.075 7.54685 72.3574 7.41599 73.7445 7.41599H76.2832L76.1785 14.0898C76.1 21.0515 76.3617 24.4277 77.0945 25.5531C77.6441 26.3906 78.9266 26.2597 79.6594 25.2652C80.1828 24.5324 80.209 24.2183 80.2875 14.0636L80.366 3.5949L80.9418 3.35935C81.2559 3.22849 82.5383 3.1238 83.7684 3.1238L86.0191 3.09763L86.1762 12.5718ZM100.832 10.4781C105.098 13.4093 108.841 18.3558 110.83 23.5902C112.217 27.2804 111.929 29.7144 109.888 31.4679C108.841 32.3578 101.146 35.6554 100.702 35.3937C100.597 35.3152 100.492 34.975 100.492 34.6086C100.492 33.614 99.8641 32.3578 98.8695 31.4418L97.9797 30.5781L98.6863 22.8051C99.0789 18.5129 99.4715 13.8543 99.5762 12.441C99.6809 11.0539 99.8117 9.90232 99.8902 9.90232C99.9687 9.90232 100.387 10.164 100.832 10.4781ZM98.1367 35.4199C98.1367 35.8386 98.0059 36.3883 97.875 36.5976C97.6918 36.8855 97.6133 36.5191 97.6133 35.4199C97.6133 34.3207 97.6918 33.9543 97.875 34.2422C98.0059 34.4515 98.1367 34.975 98.1367 35.4199ZM77.5395 59.5504C76.9375 59.6027 75.8645 59.6027 75.184 59.5504C74.5035 59.498 75.0008 59.4718 76.2832 59.4718C77.5918 59.4718 78.1414 59.498 77.5395 59.5504ZM83.1664 59.5504C82.3289 59.6027 80.968 59.6027 80.1566 59.5504C79.3191 59.498 79.9996 59.4718 81.6484 59.4718C83.2973 59.4718 83.9777 59.498 83.1664 59.5504ZM73.0902 59.8121C72.75 59.8644 72.2266 59.8644 71.9125 59.8121C71.5723 59.7597 71.834 59.7074 72.4883 59.7074C73.1426 59.7074 73.4043 59.7597 73.0902 59.8121ZM87.3539 59.8121C86.9352 59.8644 86.307 59.8644 85.9145 59.8121C85.4957 59.7597 85.8359 59.7074 86.6211 59.7074C87.4062 59.7074 87.7465 59.7597 87.3539 59.8121ZM70.6039 60.0738C70.3422 60.1261 69.9234 60.1261 69.6879 60.0738C69.4262 59.9953 69.6355 59.9429 70.1328 59.9429C70.6301 59.9429 70.8395 59.9953 70.6039 60.0738ZM90.2328 60.0738C89.9711 60.1261 89.5 60.1261 89.1859 60.0738C88.8457 60.0215 89.0551 59.9691 89.6309 59.9691C90.2066 59.9429 90.4684 59.9953 90.2328 60.0738ZM66.4687 60.6758C64.9508 60.9375 63.6684 61.1207 63.616 61.0683C63.4328 60.859 66.966 60.2047 68.3008 60.2047C68.798 60.2047 67.9867 60.414 66.4687 60.6758ZM92.85 60.3355C92.5883 60.3879 92.1172 60.3879 91.8031 60.3355C91.4629 60.2832 91.6723 60.2308 92.248 60.2308C92.8238 60.2047 93.0855 60.257 92.85 60.3355ZM84.9199 62.2461C86.8043 62.3769 89.6309 62.6386 91.2535 62.7957L94.1848 63.1097L95.3102 66.4074C96.2262 69.1293 96.4094 70.0715 96.4094 71.7465C96.4355 73.7879 96.4355 73.814 95.4934 74.6515C92.9285 77.007 85.7051 78.08 73.7707 77.8968C68.0652 77.7922 66.966 77.7136 65.9453 77.2949C62.9879 76.091 62.4906 75.2535 62.5168 71.5633C62.5168 69.4957 62.6738 68.3441 63.2496 66.3027C64.1133 63.2668 63.459 63.6332 69.6094 62.7957C75.5766 61.9582 79.1621 61.8273 84.9199 62.2461Z" fill="black"/>
<path d="M27.0277 1.8937C26.007 2.36479 25.6406 3.01909 25.6406 4.43237V5.53159L25.0648 5.00815C23.3637 3.46401 20.7203 3.07143 18.5219 4.06596C17.1348 4.69409 14.9625 6.60464 14.6223 7.46831C14.4914 7.80854 14.0988 8.20112 13.7324 8.33198C11.6125 9.14331 7.68672 12.598 5.25273 15.791C3.70859 17.8324 0.725 23.7472 0.280078 25.6578C0.123047 26.3382 -0.0078125 27.673 -0.0078125 28.6675C-0.0078125 30.866 0.620312 32.3578 2.24297 34.0066L3.4207 35.2105L2.89727 36.7808C2.08594 39.1624 1.90273 42.2769 2.47852 43.507C3.0543 44.7109 4.57227 46.0195 6.79687 47.2496C9.85898 48.9507 13.7062 51.6203 15.198 53.0859C16.6637 54.4992 16.6898 54.5515 17.1086 56.8808C17.8414 60.9375 17.6844 62.9789 16.4543 66.5906C14.7008 71.6417 14.7531 75.3058 16.5852 77.1902C17.7629 78.3941 20.7465 79.7289 23.573 80.3046C28.7289 81.3253 38.0723 81.8226 44.0918 81.3777C47.8867 81.0898 48.0961 81.0636 50.1637 80.0429C51.4984 79.3886 52.5191 78.682 52.8855 78.1847C54.4297 75.9863 54.6129 71.8773 53.3566 66.957L52.5191 63.764L53.252 61.6441C54.0895 59.1578 54.0633 58.6343 52.8332 53.1644L52.048 49.5789L52.4406 46.4121C52.65 44.6847 53.2781 41.0207 53.8277 38.2988L54.7961 33.3261L54.8223 23.3808C54.8746 12.1792 54.9008 12.3101 53.0426 11.4464C51.4984 10.766 48.1223 10.766 46.7613 11.4464L45.793 11.9437V9.74526C45.793 7.12807 45.5312 6.73549 43.2805 6.0812C41.7625 5.63628 37.8629 5.66245 36.8422 6.10737C36.4234 6.2644 36.3711 6.13354 36.3711 5.2437C36.3711 2.65268 34.8793 1.71049 30.6133 1.60581C28.6504 1.55346 27.6297 1.63198 27.0277 1.8937ZM32.4191 4.17065L33.7277 4.43237L33.8062 14.8226C33.8586 22.0722 33.9895 25.4222 34.1988 25.9195C34.9055 27.516 36.659 27.516 37.3656 25.9195C37.7582 25.082 37.8105 23.8781 37.8105 16.707V8.46284L38.8574 8.27964C40.1398 8.04409 42.4691 8.27964 43.0449 8.69839C43.4113 8.9601 43.4375 9.56206 43.1758 14.0898C42.5738 25.5792 42.9402 28.4843 45.0078 28.4843C46.552 28.4843 46.7875 27.4374 47.1016 20.0046C47.2324 16.3144 47.4418 13.9066 47.625 13.7234C47.782 13.5664 48.8027 13.4355 49.8758 13.4355C52.3359 13.4355 52.7285 13.8019 52.4668 15.7648C52.3883 16.4714 52.3098 20.5019 52.3359 24.7417V32.4101L51.4461 37.1734C49.457 47.6945 49.3523 49.3433 50.5039 54.2898C51.2367 57.4828 51.4723 59.3671 51.132 59.3671C51.0535 59.3671 49.5094 59.1316 47.6773 58.8699C39.7996 57.6398 31.9219 57.5089 23.5469 58.425C21.6102 58.6343 20.0137 58.7914 20.0137 58.7652C20.0137 58.739 19.7781 57.6398 19.5164 56.3574C19.2809 55.0488 18.7836 53.5046 18.4172 52.9027C17.4488 51.2277 13.2875 48.0609 8.23633 45.1558C7.08477 44.5015 5.80234 43.5855 5.38359 43.1667C4.65078 42.4078 4.62461 42.3031 4.78164 40.471C4.99102 37.8539 5.48828 36.4406 6.14258 36.5453C6.43047 36.5976 8.65508 37.4613 11.0891 38.482C16.6113 40.7589 17.0039 40.8374 17.9984 39.8167C18.9145 38.9269 19.2023 37.3828 18.993 34.6871C17.5535 17.1781 17.0039 9.87612 17.0562 9.01245C17.1348 8.09643 17.2918 7.86089 18.4434 7.04956C19.5164 6.2644 19.9613 6.10737 21.0867 6.10737C21.8195 6.10737 22.6047 6.2644 22.8141 6.42143C23.1281 6.70932 23.2328 8.1226 23.3637 14.7964C23.5469 23.0929 23.7562 25.3437 24.5152 26.1812C25.0648 26.7832 26.2164 26.7832 26.766 26.1812C27.5773 25.2914 27.7605 23.1714 27.9176 13.6449C28.0746 3.07143 27.8914 3.96128 30.0113 3.90893C30.6133 3.90893 31.6863 4.01362 32.4191 4.17065ZM14.4914 12.8335C14.727 15.8171 15.7215 27.071 15.957 29.4003L16.1664 31.4941L15.2766 32.3054C14.2559 33.2476 13.6016 34.6347 13.6016 35.8386C13.6016 36.3882 13.4969 36.5976 13.2875 36.5191C13.1043 36.4406 11.4293 35.7863 9.54492 35.0273C7.68672 34.2945 5.64531 33.3785 5.01719 33.0382C3.63008 32.2269 2.66172 30.7874 2.45234 29.2433C2.03359 26.1027 5.20039 19.298 9.04766 15.1628C10.4871 13.5925 13.7062 10.9492 14.1512 10.9492C14.2559 10.9492 14.4129 11.8128 14.4914 12.8335ZM16.4805 36.5191C16.4805 37.5921 16.402 37.9324 16.2187 37.6445C15.9309 37.1996 15.8785 36.048 16.1141 35.446C16.402 34.7132 16.4805 34.9749 16.4805 36.5191ZM36.3187 60.3355C35.7691 60.3878 34.8793 60.3878 34.3559 60.3355C33.8062 60.2832 34.2512 60.2308 35.3242 60.2308C36.3973 60.2308 36.8422 60.2832 36.3187 60.3355ZM31.0844 60.5972C30.5348 60.6496 29.6449 60.6496 29.1215 60.5972C28.5719 60.5449 29.0168 60.4925 30.0898 60.4925C31.1629 60.4925 31.6078 60.5449 31.0844 60.5972ZM40.5062 60.5972C40.0875 60.6496 39.4594 60.6496 39.0668 60.5972C38.648 60.5449 38.9883 60.4925 39.7734 60.4925C40.5586 60.4925 40.8988 60.5449 40.5062 60.5972ZM27.0277 60.8589C26.6875 60.9113 26.1117 60.9113 25.7191 60.8589C25.3004 60.8066 25.5883 60.7542 26.2949 60.7542C27.0277 60.7542 27.3418 60.8066 27.0277 60.8589ZM43.1234 60.8589C42.8617 60.9113 42.3906 60.9113 42.0766 60.8589C41.7363 60.8066 41.9457 60.7542 42.5215 60.7542C43.0973 60.7281 43.359 60.7804 43.1234 60.8589ZM24.018 61.1207C23.7562 61.173 23.2852 61.173 22.9711 61.1207C22.6309 61.0683 22.8402 61.016 23.416 61.016C23.9918 60.9898 24.2535 61.0421 24.018 61.1207ZM45.2172 61.1207C44.9555 61.173 44.5367 61.173 44.3012 61.1207C44.0395 61.0421 44.2488 60.9898 44.7461 60.9898C45.2434 60.9898 45.4527 61.0421 45.2172 61.1207ZM21.6625 61.3824C21.4008 61.4347 20.9297 61.4347 20.6156 61.3824C20.2754 61.33 20.4848 61.2777 21.0605 61.2777C21.6363 61.2515 21.898 61.3039 21.6625 61.3824ZM48.8027 61.5656C49.8234 61.775 50.3469 61.932 49.9805 61.932C49.6141 61.9582 48.5148 61.8011 47.4941 61.6179C46.4996 61.4085 45.95 61.2515 46.3164 61.2515C46.6828 61.2253 47.8082 61.3824 48.8027 61.5656ZM42.2598 63.4238C44.1441 63.6332 46.6828 63.9996 47.9129 64.2351L50.1637 64.6539L50.9227 67.4281C51.8648 71.0136 51.9434 74.73 51.132 76.1433C50.3207 77.5304 48.384 78.4464 45.4789 78.7867C42.6785 79.1007 31.4246 78.8914 28.0223 78.4726C22.6309 77.7921 19.0715 76.6144 18.1293 75.175C17.2918 73.8925 17.5273 71.3015 18.8098 67.4281L19.909 64.1304L21.1914 63.9472C27.7605 63.0312 36.9992 62.8218 42.2598 63.4238Z" fill="black"/>
</svg>
