<svg width="47" height="47" viewBox="0 0 47 47" fill="none" xmlns="http://www.w3.org/2000/svg">
<g opacity="0.7">
<path d="M46.0181 12.1882C45.4776 10.1659 43.8851 8.57351 41.8629 8.03301C38.1972 7.05078 23.5 7.05078 23.5 7.05078C23.5 7.05078 8.80268 7.05078 5.13704 8.03301C3.11513 8.57351 1.52236 10.1659 0.981951 12.1882C0 15.8535 0 23.5011 0 23.5011C0 23.5011 0 31.1485 0.981951 34.8134C1.52236 36.8357 3.11513 38.4285 5.13704 38.9689C8.80268 39.9508 23.5 39.9508 23.5 39.9508C23.5 39.9508 38.1972 39.9508 41.8629 38.9689C43.8851 38.4285 45.4776 36.8357 46.0181 34.8134C46.9999 31.1485 46.9999 23.5011 46.9999 23.5011C46.9999 23.5011 46.9999 15.8535 46.0181 12.1882ZM18.7997 30.5511V16.4509L31.0105 23.5011L18.7997 30.5511Z" fill="black"/>
</g>
</svg>
